<?xml version="1.0" encoding="UTF-8" standalone="no"?>
<!-- Created with Inkscape (http://www.inkscape.org/) -->

<svg
   width="354.11536mm"
   height="469.77405mm"
   viewBox="0 0 354.11535 469.77404"
   version="1.1"
   id="svg55997"
   sodipodi:docname="CMD_refXanom_partialeffects.svg"
   inkscape:version="1.1 (c68e22c387, 2021-05-23)"
   xmlns:inkscape="http://www.inkscape.org/namespaces/inkscape"
   xmlns:sodipodi="http://sodipodi.sourceforge.net/DTD/sodipodi-0.dtd"
   xmlns="http://www.w3.org/2000/svg"
   xmlns:svg="http://www.w3.org/2000/svg">
  <sodipodi:namedview
     id="namedview55999"
     pagecolor="#ffffff"
     bordercolor="#666666"
     borderopacity="1.0"
     inkscape:pageshadow="2"
     inkscape:pageopacity="0.0"
     inkscape:pagecheckerboard="0"
     inkscape:document-units="mm"
     showgrid="false"
     inkscape:zoom="0.37059484"
     inkscape:cx="759.58964"
     inkscape:cy="924.18988"
     inkscape:window-width="1920"
     inkscape:window-height="1017"
     inkscape:window-x="-8"
     inkscape:window-y="-8"
     inkscape:window-maximized="1"
     inkscape:current-layer="layer1" />
  <defs
     id="defs55994">
    <clipPath
       clipPathUnits="userSpaceOnUse"
       id="clipPath56080">
      <path
         d="M 52.516,5.48 H 424.602 V 332.835 H 52.516 Z"
         id="path56078" />
    </clipPath>
    <clipPath
       clipPathUnits="userSpaceOnUse"
       id="clipPath56239">
      <path
         d="M 45.398,5.48 H 424.605 V 332.835 H 45.398 Z"
         id="path56237" />
    </clipPath>
    <clipPath
       clipPathUnits="userSpaceOnUse"
       id="clipPath56404">
      <path
         d="M 45.398,5.48 H 424.605 V 332.835 H 45.398 Z"
         id="path56402" />
    </clipPath>
    <clipPath
       clipPathUnits="userSpaceOnUse"
       id="clipPath56563">
      <path
         d="M 52.516,5.48 H 424.602 V 332.835 H 52.516 Z"
         id="path56561" />
    </clipPath>
    <clipPath
       clipPathUnits="userSpaceOnUse"
       id="clipPath56728">
      <path
         d="M 45.398,5.48 H 424.605 V 332.835 H 45.398 Z"
         id="path56726" />
    </clipPath>
    <clipPath
       clipPathUnits="userSpaceOnUse"
       id="clipPath56893">
      <path
         d="M 45.398,5.48 H 424.605 V 332.835 H 45.398 Z"
         id="path56891" />
    </clipPath>
    <clipPath
       clipPathUnits="userSpaceOnUse"
       id="clipPath1530">
      <path
         d="M 45.398,5.48 H 422.605 V 305.835 H 45.398 Z"
         id="path1528" />
    </clipPath>
    <clipPath
       clipPathUnits="userSpaceOnUse"
       id="clipPath1188">
      <path
         d="M 45.398,5.48 H 422.605 V 305.835 H 45.398 Z"
         id="path1186" />
    </clipPath>
    <clipPath
       clipPathUnits="userSpaceOnUse"
       id="clipPath846">
      <path
         d="M 45.398,5.48 H 422.605 V 305.835 H 45.398 Z"
         id="path844" />
    </clipPath>
    <clipPath
       clipPathUnits="userSpaceOnUse"
       id="clipPath1713">
      <path
         d="M 45.398,5.48 H 422.605 V 305.835 H 45.398 Z"
         id="path1711" />
    </clipPath>
    <clipPath
       clipPathUnits="userSpaceOnUse"
       id="clipPath1359">
      <path
         d="M 52.516,5.48 H 422.602 V 305.835 H 52.516 Z"
         id="path1357" />
    </clipPath>
    <clipPath
       clipPathUnits="userSpaceOnUse"
       id="clipPath1017">
      <path
         d="M 45.398,5.48 H 422.605 V 305.835 H 45.398 Z"
         id="path1015" />
    </clipPath>
  </defs>
  <g
     inkscape:label="Layer 1"
     inkscape:groupmode="layer"
     id="layer1"
     transform="translate(-423.65237,131.83621)">
    <rect
       style="fill:#ffffff;stroke-width:0.457999"
       id="rect70428"
       width="354.11536"
       height="469.77405"
       x="423.65237"
       y="-131.83621" />
    <g
       id="g56064"
       inkscape:label="abla_mapXcmd_mort"
       transform="matrix(0.35277777,0,0,0.35277777,394.66671,-81.643111)">
      <g
         id="g56066"
         transform="translate(159.9342,-28.453512)" />
      <g
         id="g56074"
         transform="translate(159.9342,-28.453512)">
        <g
           id="g56076"
           clip-path="url(#clipPath56080)">
          <path
             d="M 52.516,5.477 H 424.602 V 332.832 H 52.516 Z"
             style="fill:#ffffff;fill-opacity:1;fill-rule:nonzero;stroke:none"
             id="path56082" />
          <path
             d="m 69.43,248.488 6.765,-2.515 6.766,-2.399 6.766,-2.414 6.761,-2.363 6.766,-2.309 6.766,-2.355 6.765,-2.367 6.766,-2.246 6.765,-2.122 6.766,-2.113 6.766,-2.117 6.765,-2.016 6.766,-2.14 6.762,-1.91 6.765,-1.793 6.766,-1.7 6.766,-1.601 6.765,-1.418 6.766,-1.324 6.765,-1.25 6.766,-1.172 6.766,-1.086 6.761,-0.824 6.766,-0.899 6.766,-0.754 6.765,-0.726 6.766,-0.492 6.765,-0.215 6.766,-0.446 6.766,-0.027 6.765,-0.066 6.762,0.093 6.766,0.243 6.765,0.234 6.766,0.269 6.766,0.422 6.765,0.352 6.766,0.398 6.765,0.446 6.766,0.527 6.766,0.648 6.761,0.536 6.766,0.566 6.766,0.66 6.765,0.699 6.766,0.68 6.766,0.766 6.765,0.929 6.766,0.778 6.765,0.883 V 20.359 l -6.765,4.028 -6.766,4.203 -6.765,4.09 -6.766,3.785 -6.766,3.949 -6.765,3.883 -6.766,3.816 -6.766,3.715 -6.761,4.059 -6.766,3.621 -6.766,3.469 -6.765,3.582 -6.766,3.254 -6.765,3.355 -6.766,3.277 -6.766,2.938 -6.765,2.871 -6.766,2.625 -6.762,2.613 -6.765,2.485 -6.766,2.496 -6.766,2.156 -6.765,2.238 -6.766,2.008 -6.765,1.746 -6.766,1.664 -6.766,1.469 -6.761,1.449 -6.766,1.266 -6.766,1.078 -6.765,0.875 -6.766,0.641 -6.765,0.742 -6.766,0.433 -6.766,0.348 -6.765,0.164 -6.762,0.09 -6.766,0.144 -6.765,-0.152 -6.766,-0.09 -6.766,-0.269 -6.765,-0.254 -6.766,-0.406 -6.765,-0.774 -6.766,-0.641 -6.766,-0.543 -6.761,-0.726 -6.766,-0.711 -6.766,-0.645 -6.765,-0.828 z"
             style="fill:#ee2c2c;fill-opacity:0.4;fill-rule:nonzero;stroke:none"
             id="path56084" />
          <path
             d="m 69.43,209.75 6.765,-0.465 6.766,-0.18 6.766,-0.164 6.761,-0.152 6.766,-0.141 6.766,-0.222 6.765,-0.196 6.766,0.008 6.765,-0.039 6.766,0.145 6.766,0.054 6.765,0.086 6.766,0.34 6.762,0.254 6.765,0.274 6.766,0.41 6.766,0.539 6.765,0.586 6.766,0.613 6.765,0.742 6.766,0.715 6.766,0.746 6.761,0.832 6.766,0.949 6.766,0.871 6.765,1.004 6.766,1.063 6.765,0.93 6.766,1.296 6.766,1.18 6.765,1.348 6.762,1.265 6.766,1.297 6.765,1.293 6.766,1.367 6.766,1.223 6.765,1.52 6.766,1.339 6.765,1.375 6.766,1.477 6.766,1.586 6.761,1.48 6.766,1.489 6.766,1.582 6.765,1.531 6.766,1.477 13.531,3.156 6.766,1.437 6.765,1.61 V 122.82 l -6.765,0.836 -6.766,0.578 -6.765,0.86 -6.766,0.679 -6.766,0.618 -6.765,0.582 -6.766,0.636 -6.766,0.758 -6.761,0.504 -6.766,0.629 -6.766,0.441 -13.531,0.875 -6.765,0.434 -6.766,0.406 -6.766,0.227 -6.765,0.281 -6.766,0.262 -6.762,0.297 -6.765,0.179 -6.766,-0.054 -6.766,-0.004 -6.765,-0.055 -6.766,-0.156 -6.765,-0.254 -6.766,-0.457 -6.766,-0.469 -6.761,-0.363 -6.766,-0.508 -6.766,-0.547 -6.765,-0.566 -6.766,-0.535 -6.765,-0.813 -13.532,-1.664 -6.765,-1.09 -6.762,-1.148 -6.766,-1.203 -6.765,-1.25 -6.766,-1.356 -6.766,-1.426 -6.765,-1.464 -6.766,-1.571 -6.765,-1.566 -6.766,-1.785 -6.766,-1.746 -6.761,-1.704 -6.766,-1.812 -6.766,-1.75 -6.765,-1.977 z"
             style="fill:#daa520;fill-opacity:0.4;fill-rule:nonzero;stroke:none"
             id="path56086" />
          <path
             d="m 69.43,211.195 6.765,0.477 6.766,0.129 6.766,0.433 6.761,0.555 6.766,0.574 6.766,0.489 6.765,0.613 6.766,0.519 13.531,1.688 6.766,1.148 6.765,1.082 6.766,1.18 6.762,1.219 6.765,1.375 6.766,1.394 6.766,1.578 6.765,1.516 6.766,1.914 6.765,2.024 6.766,2.089 6.766,2.207 6.761,2.336 6.766,2.414 13.531,4.985 6.766,2.617 6.765,2.699 6.766,2.742 6.766,2.778 6.765,2.886 6.762,3 6.766,3.079 6.765,2.925 6.766,3.133 6.766,3.117 6.765,3.27 6.766,3.195 6.765,3.129 6.766,3.192 6.766,3.265 6.761,3.121 6.766,3.254 6.766,3.074 6.765,3.028 6.766,3.105 6.766,2.981 6.765,3.113 6.766,3.125 6.765,2.992 V 163.602 l -6.765,0.164 -6.766,-0.141 -6.765,-0.16 -6.766,-0.305 -6.766,-0.148 -6.765,-0.199 -6.766,-0.329 -6.766,-0.265 -6.761,-0.352 -6.766,-0.496 -6.766,-0.433 -6.765,-0.598 -6.766,-0.754 -6.765,-0.723 -6.766,-0.707 -6.766,-0.801 -6.765,-0.828 -6.766,-1.074 -6.762,-1.191 -6.765,-1.293 -6.766,-1.324 -6.766,-1.684 -6.765,-1.504 -6.766,-1.891 -6.765,-1.687 -6.766,-2 -6.766,-2.301 -6.761,-2.531 -6.766,-2.379 -6.766,-2.645 -6.765,-2.941 -6.766,-2.953 -6.765,-3.031 -6.766,-3.317 -6.766,-3.386 -6.765,-3.645 -6.762,-3.781 -6.766,-4.071 -6.765,-4 -6.766,-4.324 -6.766,-4.281 -6.765,-4.438 -6.766,-4.601 -6.765,-4.777 -6.766,-5.114 -6.766,-5.246 -6.761,-5.105 -6.766,-5.375 -6.766,-5.192 -6.765,-5.3 z"
             style="fill:#1c86ee;fill-opacity:0.4;fill-rule:nonzero;stroke:none"
             id="path56088" />
          <path
             d="m 69.43,182.188 6.765,-1.161 6.766,-1.172 6.766,-1.191 6.761,-1.121 6.766,-1.074 13.531,-2.258 6.766,-1.18 6.765,-1.117 6.766,-1.203 6.766,-1.156 6.765,-1.129 6.766,-1.125 6.762,-1.039 6.765,-1.188 6.766,-1.105 6.766,-1.16 6.765,-1.125 6.766,-1.192 6.765,-1.086 6.766,-1.207 6.766,-1.176 6.761,-1.132 6.766,-1.239 6.766,-1.144 6.765,-1.188 6.766,-1.117 6.765,-1.18 6.766,-1.148 6.766,-1.168 6.765,-1.172 6.762,-1.203 6.766,-1.187 6.765,-1.211 6.766,-1.215 6.766,-1.199 6.765,-1.207 6.766,-1.211 6.765,-1.215 6.766,-1.129 6.766,-1.203 6.761,-1.242 6.766,-1.188 6.766,-1.289 6.765,-1.191 6.766,-1.274 6.766,-1.176 6.765,-1.238 6.766,-1.266 6.765,-1.191"
             style="fill:none;stroke:#ee2c2c;stroke-width:4.26791;stroke-linecap:butt;stroke-linejoin:round;stroke-miterlimit:10;stroke-dasharray:none;stroke-opacity:1"
             id="path56090" />
          <path
             d="m 69.43,159.203 6.765,0.672 6.766,0.578 6.766,0.664 6.761,0.699 6.766,0.676 6.766,0.664 6.765,0.641 6.766,0.652 6.765,0.625 6.766,0.641 6.766,0.691 6.765,0.574 6.766,0.629 6.762,0.614 6.765,0.625 6.766,0.59 6.766,0.671 6.765,0.668 6.766,0.621 6.765,0.61 6.766,0.594 6.766,0.558 6.761,0.625 6.766,0.664 6.766,0.645 6.765,0.629 6.766,0.613 13.531,1.328 6.766,0.691 6.765,0.637 6.762,0.606 6.766,0.625 6.765,0.617 6.766,0.601 6.766,0.657 6.765,0.605 6.766,0.68 6.765,0.621 6.766,0.66 6.766,0.641 6.761,0.633 6.766,0.605 6.766,0.59 6.765,0.668 6.766,0.644 6.766,0.633 6.765,0.652 6.766,0.641 6.765,0.613"
             style="fill:none;stroke:#daa520;stroke-width:4.26791;stroke-linecap:butt;stroke-linejoin:round;stroke-miterlimit:10;stroke-dasharray:none;stroke-opacity:1"
             id="path56092" />
          <path
             d="m 69.43,135.121 6.765,2.59 6.766,2.633 6.766,2.578 6.761,2.586 6.766,2.433 6.766,2.473 6.765,2.52 6.766,2.5 6.765,2.472 6.766,2.461 6.766,2.414 6.765,2.403 6.766,2.464 6.762,2.43 6.765,2.399 6.766,2.371 6.766,2.406 6.765,2.434 6.766,2.375 6.765,2.378 6.766,2.278 6.766,2.351 6.761,2.297 6.766,2.235 6.766,2.343 6.765,2.243 6.766,2.195 6.765,2.183 6.766,2.227 6.766,2.266 6.765,2.23 6.762,2.289 6.766,2.133 6.765,2.168 6.766,2.156 6.766,2.137 6.765,2.125 6.766,2.156 6.765,2.106 6.766,2.121 6.766,2.113 6.761,2.105 6.766,2.067 6.766,2.035 6.765,2.098 6.766,2.054 6.766,2.098 6.765,1.988 6.766,2 6.765,1.989"
             style="fill:none;stroke:#1c86ee;stroke-width:4.26791;stroke-linecap:butt;stroke-linejoin:round;stroke-miterlimit:10;stroke-dasharray:none;stroke-opacity:1"
             id="path56094" />
          <path
             d="M 52.516,5.477 H 424.602 V 332.832 H 52.516 Z"
             style="fill:none;stroke:#333333;stroke-width:3.20093;stroke-linecap:round;stroke-linejoin:round;stroke-miterlimit:10;stroke-dasharray:none;stroke-opacity:1"
             id="path56096" />
        </g>
      </g>
      <g
         id="g56098">
        <text
           style="font-variant:normal;font-weight:normal;font-size:12.8px;font-family:Arial;-inkscape-font-specification:ArialMT;writing-mode:lr-tb;fill:#4d4d4d;fill-opacity:1;fill-rule:nonzero;stroke:none"
           id="text56106"
           x="182.60608"
           y="215.30821"><tspan
             x="182.60608 189.72287 193.26848 200.38527"
             y="215.30821"
             sodipodi:role="line"
             id="tspan56100">0.15</tspan><tspan
             x="182.60608 189.72287 193.26848 200.38527"
             y="117.8746"
             sodipodi:role="line"
             id="tspan56102">0.20</tspan><tspan
             x="182.60608 189.72287 193.26848 200.38527"
             y="20.441006"
             sodipodi:role="line"
             id="tspan56104">0.25</tspan></text>
        <path
           d="m 209.7112,210.72649 h 2.739"
           style="fill:none;stroke:#333333;stroke-width:1.06698;stroke-linecap:butt;stroke-linejoin:round;stroke-miterlimit:10;stroke-dasharray:none;stroke-opacity:1"
           id="path56108" />
        <path
           d="m 209.7112,113.29249 h 2.739"
           style="fill:none;stroke:#333333;stroke-width:1.06698;stroke-linecap:butt;stroke-linejoin:round;stroke-miterlimit:10;stroke-dasharray:none;stroke-opacity:1"
           id="path56110" />
        <path
           d="m 209.7112,15.859488 h 2.739"
           style="fill:none;stroke:#333333;stroke-width:1.06698;stroke-linecap:butt;stroke-linejoin:round;stroke-miterlimit:10;stroke-dasharray:none;stroke-opacity:1"
           id="path56112" />
        <path
           d="m 297.0162,307.12049 v -2.742"
           style="fill:none;stroke:#333333;stroke-width:1.06698;stroke-linecap:butt;stroke-linejoin:round;stroke-miterlimit:10;stroke-dasharray:none;stroke-opacity:1"
           id="path56114" />
        <path
           d="m 432.3212,307.12049 v -2.742"
           style="fill:none;stroke:#333333;stroke-width:1.06698;stroke-linecap:butt;stroke-linejoin:round;stroke-miterlimit:10;stroke-dasharray:none;stroke-opacity:1"
           id="path56116" />
        <path
           d="m 567.6252,307.12049 v -2.742"
           style="fill:none;stroke:#333333;stroke-width:1.06698;stroke-linecap:butt;stroke-linejoin:round;stroke-miterlimit:10;stroke-dasharray:none;stroke-opacity:1"
           id="path56118" />
        <text
           style="font-variant:normal;font-weight:normal;font-size:12.8px;font-family:Arial;-inkscape-font-specification:ArialMT;writing-mode:lr-tb;fill:#4d4d4d;fill-opacity:1;fill-rule:nonzero;stroke:none"
           id="text56122"
           x="293.45764"
           y="318.47226"><tspan
             x="293.45764 428.76233 564.06702"
             y="318.47226"
             sodipodi:role="line"
             id="tspan56120">123</tspan></text>
      </g>
    </g>
    <g
       id="g56223"
       inkscape:label="abla_mapXcmd_seed"
       transform="matrix(0.35277777,0,0,0.35277777,451.08688,47.235494)">
      <g
         id="g56225" />
      <g
         id="g56233">
        <g
           id="g56235"
           clip-path="url(#clipPath56239)">
          <path
             d="M 45.398,5.477 H 424.605 V 332.832 H 45.398 Z"
             style="fill:#ffffff;fill-opacity:1;fill-rule:nonzero;stroke:none"
             id="path56241" />
          <path
             d="m 62.633,37.633 6.894,2.031 6.895,2.164 6.894,2.078 6.895,2.231 6.894,2.234 6.899,2.289 6.894,2.149 6.895,2.086 6.895,2.289 6.894,2.433 6.895,2.281 6.894,2.067 6.895,2.16 6.894,2.277 6.895,2.118 6.894,1.984 6.895,1.863 6.894,1.754 6.895,1.758 6.894,1.644 6.895,1.336 6.894,1.219 6.895,0.883 6.894,0.832 6.895,0.66 6.895,0.41 6.894,0.285 6.895,0.059 6.894,-0.039 6.895,-0.262 6.894,-0.39 6.895,-0.598 6.894,-0.594 6.895,-0.89 6.894,-1.067 6.895,-0.953 6.894,-1.191 6.895,-0.883 6.894,-1.344 13.79,-2.234 6.898,-1.242 6.894,-1.293 6.895,-1.473 6.895,-1.375 6.894,-1.453 6.895,-1.348 6.894,-1.418 6.895,-1.422 6.894,-1.41 v 255.625 l -6.894,-6.808 -6.895,-6.93 -6.894,-6.875 -6.895,-6.641 -6.894,-6.699 -6.895,-6.652 -6.895,-6.426 -6.894,-6.484 -6.898,-6.208 -6.895,-5.726 -6.895,-5.5 -6.894,-5.719 -6.895,-5.332 -6.894,-5.234 -6.895,-4.801 -6.894,-4.836 -6.895,-4.195 -6.894,-4.102 -6.895,-3.941 -6.894,-3.989 -6.895,-3.48 -6.894,-3.359 -6.895,-2.684 -6.894,-2.492 -6.895,-2.188 -6.895,-1.968 -6.894,-1.579 -6.895,-1.113 -6.894,-0.594 -6.895,-0.574 -6.894,-0.394 -6.895,0.039 -6.894,0.336 -6.895,0.836 -6.894,0.523 -6.895,1.242 -6.894,1.356 -6.895,1.406 -6.894,1.305 -6.895,1.992 -6.894,2.101 -6.895,1.985 -6.895,2.301 -6.894,2.336 -6.899,2.039 -6.894,2.566 -6.895,2.582 -6.894,2.82 -6.895,2.762 -6.894,2.559 z"
             style="fill:#ee2c2c;fill-opacity:0.4;fill-rule:nonzero;stroke:none"
             id="path56243" />
          <path
             d="m 62.633,49.254 6.894,1.59 6.895,1.644 6.894,1.586 6.895,1.559 6.894,1.543 6.899,1.586 6.894,1.508 13.79,2.992 6.894,1.523 6.895,1.383 6.894,1.5 6.895,1.383 6.894,1.164 6.895,1.098 6.894,1.109 6.895,1.012 6.894,0.961 6.895,0.918 6.894,0.687 6.895,0.656 6.894,0.516 6.895,0.355 6.894,0.293 6.895,0.086 6.895,0.145 6.894,0.09 6.895,-0.008 6.894,-0.125 6.895,-0.082 6.894,-0.219 6.895,-0.355 6.894,-0.399 13.789,-0.961 6.895,-0.562 6.894,-0.508 6.895,-0.543 6.894,-0.59 6.895,-0.664 6.895,-0.809 6.898,-0.617 6.894,-0.836 6.895,-0.672 6.895,-0.668 6.894,-0.785 6.895,-0.871 6.894,-0.781 6.895,-0.836 6.894,-0.738 v 179.41 l -6.894,-4.645 -6.895,-4.414 -6.894,-4.144 -6.895,-4.344 -6.894,-4.277 -6.895,-4.086 -6.895,-4.074 -6.894,-4.024 -6.898,-3.996 -6.895,-3.867 -6.895,-3.684 -6.894,-3.726 -6.895,-3.578 -6.894,-3.477 -6.895,-3.414 -6.894,-3.188 -6.895,-3.156 -6.894,-3.074 -6.895,-3.082 -6.894,-2.68 -6.895,-2.801 -6.894,-2.449 -6.895,-2.437 -6.894,-2.403 -6.895,-2.121 -6.895,-2.039 -6.894,-1.844 -6.895,-1.562 -6.894,-1.301 -6.895,-1.039 -6.894,-0.879 -6.895,-0.89 -6.894,-0.829 -6.895,-0.402 -6.894,-0.418 -6.895,-0.219 -6.894,-0.007 -6.895,0.199 -6.894,0.195 -6.895,0.219 -6.894,0.418 -6.895,0.656 -6.895,0.777 -6.894,0.657 -6.899,0.66 -6.894,0.789 -6.895,1.242 -6.894,1.024 -6.895,1.074 -6.894,1.121 z"
             style="fill:#daa520;fill-opacity:0.4;fill-rule:nonzero;stroke:none"
             id="path56245" />
          <path
             d="m 62.633,20.359 6.894,1.625 6.895,1.575 6.894,1.578 6.895,1.652 6.894,1.606 6.899,1.671 6.894,1.786 6.895,1.765 6.895,1.805 6.894,1.637 6.895,1.664 6.894,1.593 6.895,1.536 6.894,1.609 6.895,1.531 6.894,1.469 6.895,1.004 6.894,1.16 6.895,1.063 13.789,1.476 6.894,0.496 6.895,0.235 6.894,0.031 6.895,-0.168 6.895,-0.41 6.894,-0.571 6.895,-0.562 6.894,-0.613 6.895,-0.688 6.894,-0.781 6.895,-0.879 6.894,-1.02 6.895,-1.101 6.894,-1.082 6.895,-1.117 6.894,-1.215 6.895,-1.332 6.894,-1.254 6.895,-1.168 6.895,-1.227 6.898,-1.222 6.894,-1.426 6.895,-1.336 6.895,-1.352 6.894,-1.402 6.895,-1.367 6.894,-1.383 6.895,-1.227 6.894,-1.285 v 272.879 l -6.894,-7.402 -6.895,-7.52 -6.894,-6.828 -6.895,-7.129 -6.894,-6.718 -6.895,-7.059 -6.895,-5.891 -6.894,-6.476 -6.898,-6.063 -6.895,-6.07 -6.895,-5.719 -6.894,-5.687 -6.895,-5.575 -6.894,-5.457 -6.895,-4.968 -6.894,-4.938 -6.895,-4.926 -6.894,-4.75 -6.895,-4.191 -6.894,-4.223 -6.895,-3.418 -6.894,-3.234 -6.895,-3.203 -6.894,-2.832 -6.895,-2.461 -6.895,-2.383 -6.894,-1.703 -6.895,-1.391 -6.894,-1.066 -6.895,-0.586 -6.894,-0.535 -6.895,0.109 -6.894,-0.043 -6.895,0.617 -6.894,0.981 -6.895,1.262 -6.894,1.562 -6.895,1.543 -6.894,1.731 -6.895,1.996 -6.894,2.382 -6.895,2.465 -6.895,2.485 -6.894,2.761 -6.899,2.954 -6.894,2.945 -6.895,3.195 -6.894,3.934 -6.895,3.472 -6.894,3.774 z"
             style="fill:#1c86ee;fill-opacity:0.4;fill-rule:nonzero;stroke:none"
             id="path56247" />
          <path
             d="m 62.633,105.664 6.894,0.91 6.895,1 6.894,1.043 6.895,0.965 6.894,1.004 6.899,0.984 6.894,0.989 6.895,0.976 6.895,1.055 6.894,1.031 6.895,1 6.894,1.086 6.895,1.066 6.894,1.047 6.895,1.024 6.894,1.082 6.895,1.004 6.894,1.136 6.895,1.043 6.894,1.02 6.895,1.164 6.894,1.117 6.895,1.047 6.894,1.086 6.895,1.098 6.895,1.062 6.894,1.082 6.895,1.149 6.894,1.207 6.895,1.132 6.894,1.145 6.895,1.211 6.894,1.117 6.895,1.16 6.894,1.114 6.895,1.183 6.894,1.106 6.895,1.132 6.894,1.196 6.895,1.273 6.895,1.156 6.898,1.211 6.894,1.254 13.79,2.321 6.894,1.289 13.789,2.484 6.895,1.207 6.894,1.297"
             style="fill:none;stroke:#ee2c2c;stroke-width:4.26791;stroke-linecap:butt;stroke-linejoin:round;stroke-miterlimit:10;stroke-dasharray:none;stroke-opacity:1"
             id="path56249" />
          <path
             d="m 62.633,93.969 6.894,0.781 6.895,0.836 6.894,0.785 6.895,0.758 6.894,0.801 6.899,0.812 6.894,0.793 6.895,0.879 6.895,0.809 6.894,0.785 6.895,0.801 6.894,0.832 6.895,0.867 6.894,0.84 6.895,0.785 6.894,0.89 6.895,0.899 6.894,0.855 6.895,0.828 6.894,0.844 6.895,0.875 6.894,0.84 6.895,0.867 6.894,0.852 6.895,0.875 6.895,0.906 6.894,0.871 6.895,0.836 6.894,0.832 6.895,0.957 6.894,0.903 6.895,0.867 6.894,0.922 6.895,0.953 6.894,0.871 6.895,0.894 6.894,0.938 6.895,0.91 6.894,0.887 6.895,0.918 6.895,0.941 6.898,0.914 6.894,0.988 6.895,0.957 6.895,0.989 6.894,0.965 6.895,0.992 6.894,0.98 6.895,0.969 6.894,0.965"
             style="fill:none;stroke:#daa520;stroke-width:4.26791;stroke-linecap:butt;stroke-linejoin:round;stroke-miterlimit:10;stroke-dasharray:none;stroke-opacity:1"
             id="path56251" />
          <path
             d="m 62.633,83.328 6.894,0.516 6.895,0.613 6.894,0.656 6.895,0.653 6.894,0.668 6.899,0.543 6.894,0.566 6.895,0.59 6.895,0.703 6.894,0.648 6.895,0.641 6.894,0.625 6.895,0.582 6.894,0.699 13.789,1.25 6.895,0.61 6.894,0.714 6.895,0.61 6.894,0.582 6.895,0.641 6.894,0.632 6.895,0.672 6.894,0.645 6.895,0.707 13.789,1.297 6.895,0.726 6.894,0.754 6.895,0.633 6.894,0.672 6.895,0.769 6.894,0.719 6.895,0.602 6.894,0.734 6.895,0.742 6.894,0.676 6.895,0.742 6.894,0.727 6.895,0.574 6.895,0.703 6.898,0.652 6.894,0.653 6.895,0.676 6.895,0.679 6.894,0.735 6.895,0.726 6.894,0.668 6.895,0.617 6.894,0.743"
             style="fill:none;stroke:#1c86ee;stroke-width:4.26791;stroke-linecap:butt;stroke-linejoin:round;stroke-miterlimit:10;stroke-dasharray:none;stroke-opacity:1"
             id="path56253" />
          <path
             d="M 45.398,5.477 H 424.605 V 332.832 H 45.398 Z"
             style="fill:none;stroke:#333333;stroke-width:3.20093;stroke-linecap:round;stroke-linejoin:round;stroke-miterlimit:10;stroke-dasharray:none;stroke-opacity:1"
             id="path56255" />
        </g>
      </g>
      <g
         id="g56257">
        <text
           transform="translate(22.671875,300.51562)"
           style="font-variant:normal;font-weight:normal;font-size:12.8px;font-family:Arial;-inkscape-font-specification:ArialMT;writing-mode:lr-tb;fill:#4d4d4d;fill-opacity:1;fill-rule:nonzero;stroke:none"
           id="text56267"><tspan
             x="0 7.1167998 10.6624"
             y="0"
             sodipodi:role="line"
             id="tspan56259">0.6</tspan><tspan
             x="0 7.1167998 10.6624"
             y="-81.136719"
             sodipodi:role="line"
             id="tspan56261">0.7</tspan><tspan
             x="0 7.1167998 10.6624"
             y="-162.26953"
             sodipodi:role="line"
             id="tspan56263">0.8</tspan><tspan
             x="0 7.1167998 10.6624"
             y="-243.40625"
             sodipodi:role="line"
             id="tspan56265">0.9</tspan></text>
        <path
           d="m 42.656,295.934 h 2.742"
           style="fill:none;stroke:#333333;stroke-width:1.06698;stroke-linecap:butt;stroke-linejoin:round;stroke-miterlimit:10;stroke-dasharray:none;stroke-opacity:1"
           id="path56269" />
        <path
           d="m 42.656,214.801 h 2.742"
           style="fill:none;stroke:#333333;stroke-width:1.06698;stroke-linecap:butt;stroke-linejoin:round;stroke-miterlimit:10;stroke-dasharray:none;stroke-opacity:1"
           id="path56271" />
        <path
           d="m 42.656,133.664 h 2.742"
           style="fill:none;stroke:#333333;stroke-width:1.06698;stroke-linecap:butt;stroke-linejoin:round;stroke-miterlimit:10;stroke-dasharray:none;stroke-opacity:1"
           id="path56273" />
        <path
           d="m 42.656,52.527 h 2.742"
           style="fill:none;stroke:#333333;stroke-width:1.06698;stroke-linecap:butt;stroke-linejoin:round;stroke-miterlimit:10;stroke-dasharray:none;stroke-opacity:1"
           id="path56275" />
        <path
           d="m 131.582,335.574 v -2.742"
           style="fill:none;stroke:#333333;stroke-width:1.06698;stroke-linecap:butt;stroke-linejoin:round;stroke-miterlimit:10;stroke-dasharray:none;stroke-opacity:1"
           id="path56277" />
        <path
           d="m 269.473,335.574 v -2.742"
           style="fill:none;stroke:#333333;stroke-width:1.06698;stroke-linecap:butt;stroke-linejoin:round;stroke-miterlimit:10;stroke-dasharray:none;stroke-opacity:1"
           id="path56279" />
        <path
           d="m 407.367,335.574 v -2.742"
           style="fill:none;stroke:#333333;stroke-width:1.06698;stroke-linecap:butt;stroke-linejoin:round;stroke-miterlimit:10;stroke-dasharray:none;stroke-opacity:1"
           id="path56281" />
        <text
           transform="translate(128.02344,346.92578)"
           style="font-variant:normal;font-weight:normal;font-size:12.8px;font-family:Arial;-inkscape-font-specification:ArialMT;writing-mode:lr-tb;fill:#4d4d4d;fill-opacity:1;fill-rule:nonzero;stroke:none"
           id="text56285"><tspan
             x="0 137.89062 275.78516"
             y="0"
             sodipodi:role="line"
             id="tspan56283">123</tspan></text>
      </g>
    </g>
    <g
       id="g56388"
       inkscape:label="abla_mapXcmd_saps"
       transform="matrix(0.35277777,0,0,0.35277777,451.08688,184.23392)">
      <g
         id="g56390" />
      <g
         id="g56398">
        <g
           id="g56400"
           clip-path="url(#clipPath56404)">
          <path
             d="M 45.398,5.477 H 424.605 V 332.832 H 45.398 Z"
             style="fill:#ffffff;fill-opacity:1;fill-rule:nonzero;stroke:none"
             id="path56406" />
          <path
             d="m 62.633,130.359 6.894,3.27 6.895,3.164 6.894,2.742 6.895,3.223 6.894,2.695 6.899,2.75 6.894,2.75 6.895,2.5 6.895,2.449 6.894,2.504 6.895,2.137 6.894,2.258 6.895,2.015 6.894,1.844 6.895,1.438 6.894,1.882 6.895,1.555 6.894,0.988 6.895,0.852 6.894,0.285 6.895,-0.133 6.894,-0.3 6.895,-0.625 6.894,-1.055 6.895,-1.387 6.895,-1.847 6.894,-1.84 6.895,-2.477 6.894,-2.676 6.895,-2.879 6.894,-3.375 6.895,-3.421 6.894,-3.575 6.895,-3.972 6.894,-4.317 6.895,-4.355 6.894,-4.383 6.895,-4.559 6.894,-4.632 6.895,-4.602 6.895,-4.703 6.898,-4.875 6.894,-5.039 6.895,-4.965 6.895,-5.18 6.894,-5.359 6.895,-5.422 6.894,-5.367 6.895,-5.656 6.894,-5.383 v 232.242 l -6.894,-2.055 -6.895,-2.14 -6.894,-2.016 -6.895,-2.16 -6.894,-2.289 -6.895,-2.012 -6.895,-2.113 -6.894,-2.149 -6.898,-2.066 -6.895,-2.082 -6.895,-1.961 -6.894,-1.879 -6.895,-2.058 -6.894,-1.692 -6.895,-1.875 -6.894,-1.598 -6.895,-1.515 -6.894,-1.481 -6.895,-1.187 -6.894,-1.32 -6.895,-0.969 -6.894,-0.59 -6.895,-0.488 -6.894,-0.106 -6.895,0.188 -6.895,0.539 -6.894,0.668 -6.895,1.082 -6.894,1.219 -6.895,1.773 -6.894,1.793 -6.895,1.914 -6.894,2.27 -6.895,2.472 -6.894,2.52 -6.895,2.664 -6.894,2.769 -6.895,2.922 -6.894,2.965 -6.895,2.801 -6.894,2.957 -6.895,2.953 -6.895,2.949 -6.894,2.988 -6.899,3.004 -6.894,3.024 -6.895,3.015 -6.894,2.864 -6.895,3.078 -6.894,2.82 z"
             style="fill:#ee2c2c;fill-opacity:0.4;fill-rule:nonzero;stroke:none"
             id="path56408" />
          <path
             d="m 62.633,139.191 6.894,2.039 6.895,1.907 6.894,1.937 6.895,1.742 6.894,1.723 6.899,1.645 6.894,1.535 6.895,1.457 6.895,1.472 6.894,1.403 6.895,1.34 6.894,1.14 6.895,0.977 6.894,0.984 6.895,0.719 6.894,0.578 6.895,0.41 6.894,0.176 6.895,0.051 6.894,-0.137 6.895,-0.254 6.894,-0.578 6.895,-0.598 6.894,-0.937 6.895,-1.117 6.895,-1.278 6.894,-1.355 6.895,-1.606 6.894,-1.773 6.895,-1.758 6.894,-1.82 6.895,-1.957 6.894,-2.082 6.895,-2.18 6.894,-2.238 6.895,-2.16 6.894,-2.332 6.895,-2.301 6.894,-2.5 6.895,-2.621 6.895,-2.598 6.898,-2.652 6.894,-2.68 6.895,-2.57 6.895,-2.742 6.894,-2.7 6.895,-2.644 6.894,-2.738 6.895,-2.883 6.894,-2.59 v 155.894 l -6.894,-1.628 -6.895,-1.649 -6.894,-1.406 -6.895,-1.692 -6.894,-1.636 -6.895,-1.692 -6.895,-1.609 -6.894,-1.484 -6.898,-1.547 -6.895,-1.629 -6.895,-1.496 -6.894,-1.532 -6.895,-1.664 -6.894,-1.382 -6.895,-1.563 -6.894,-1.41 -6.895,-1.34 -6.894,-1.336 -6.895,-1.324 -6.894,-1.301 -6.895,-1.055 -6.894,-1.007 -6.895,-0.989 -6.894,-0.867 -6.895,-0.726 -6.895,-0.547 -6.894,-0.356 -6.895,-0.164 -6.894,-0.066 -6.895,-0.012 -6.894,0.285 -6.895,0.418 -6.894,0.891 -6.895,0.699 -6.894,0.883 -6.895,1.23 -6.894,1.254 -6.895,1.418 -6.894,1.324 -6.895,1.551 -6.894,1.438 -6.895,1.66 -6.895,1.664 -6.894,1.695 -6.899,1.918 -6.894,1.82 -6.895,1.942 -6.894,1.851 -6.895,2.055 -6.894,1.992 z"
             style="fill:#daa520;fill-opacity:0.4;fill-rule:nonzero;stroke:none"
             id="path56410" />
          <path
             d="m 62.633,24.035 6.894,4.887 6.895,5.312 6.894,4.817 6.895,4.679 6.894,4.547 6.899,4.707 6.894,4.633 6.895,4.34 6.895,4.297 6.894,4.098 6.895,3.656 6.894,3.805 6.895,3.617 6.894,3.402 6.895,3.262 6.894,2.832 6.895,1.98 6.894,2.051 6.895,1.742 6.894,1.696 6.895,1.027 6.894,0.883 6.895,0.215 6.894,-0.18 6.895,-0.297 6.895,-0.363 6.894,-1.242 6.895,-1.602 6.894,-1.695 6.895,-2.098 6.894,-2.477 6.895,-2.441 6.894,-2.738 6.895,-2.629 6.894,-3.059 6.895,-3.004 6.894,-3.48 6.895,-3.59 6.894,-3.582 6.895,-4.277 6.895,-3.711 6.898,-3.996 6.894,-4.457 6.895,-3.707 6.895,-4 6.894,-4.219 6.895,-4.383 6.894,-4.328 6.895,-4.34 6.894,-4.266 v 277.114 l -6.894,-3.289 -6.895,-3.161 -6.894,-3.152 -6.895,-3.289 -6.894,-3.184 -6.895,-3.32 -6.895,-3.105 -6.894,-3.059 -6.898,-3.43 -6.895,-3.367 -6.895,-3.226 -6.894,-3.203 -6.895,-3.485 -6.894,-2.914 -6.895,-3.172 -6.894,-3.051 -6.895,-3.089 -6.894,-2.836 -6.895,-2.676 -6.894,-2.594 -6.895,-2.281 -6.894,-2.27 -6.895,-2.14 -6.894,-1.645 -6.895,-1.258 -6.895,-1.089 -6.894,-0.583 -6.895,-0.523 -6.894,-0.254 -6.895,0.098 -6.894,0.679 -6.895,1.071 -6.894,1.152 -6.895,1.27 -6.894,1.8 -6.895,2.153 -6.894,2.023 -6.895,2.074 -6.894,2.102 -6.895,2.398 -6.894,2.512 -6.895,2.715 -6.895,2.445 -6.894,2.571 -6.899,2.824 -6.894,2.816 -6.895,2.68 -6.894,2.559 -6.895,2.832 -6.894,2.839 z"
             style="fill:#1c86ee;fill-opacity:0.4;fill-rule:nonzero;stroke:none"
             id="path56412" />
          <path
             d="m 62.633,236.574 6.894,-0.73 6.895,-0.809 6.894,-0.828 6.895,-0.894 6.894,-0.817 6.899,-0.781 6.894,-0.914 6.895,-0.824 6.895,-0.809 6.894,-0.836 6.895,-0.785 6.894,-0.809 6.895,-0.851 6.894,-0.754 6.895,-0.863 6.894,-0.778 6.895,-0.808 6.894,-0.856 6.895,-0.816 6.894,-0.879 6.895,-0.86 6.894,-0.878 6.895,-0.727 6.894,-0.824 6.895,-0.766 6.895,-0.848 6.894,-0.875 6.895,-0.894 6.894,-0.852 6.895,-0.918 6.894,-0.925 6.895,-0.832 6.894,-0.84 6.895,-0.864 6.894,-0.929 6.895,-0.879 6.894,-0.824 6.895,-0.852 6.894,-0.828 6.895,-0.922 6.895,-0.937 6.898,-0.981 6.894,-0.937 6.895,-0.762 6.895,-0.914 6.894,-0.844 6.895,-0.887 6.894,-0.906 6.895,-0.898 6.894,-0.907"
             style="fill:none;stroke:#ee2c2c;stroke-width:4.26791;stroke-linecap:butt;stroke-linejoin:round;stroke-miterlimit:10;stroke-dasharray:none;stroke-opacity:1"
             id="path56414" />
          <path
             d="m 62.633,197.723 6.894,-0.246 6.895,-0.235 6.894,-0.242 6.895,-0.227 6.894,-0.257 6.899,-0.27 6.894,-0.254 6.895,-0.258 6.895,-0.273 6.894,-0.242 6.895,-0.235 6.894,-0.261 6.895,-0.254 6.894,-0.274 6.895,-0.269 6.894,-0.321 6.895,-0.324 13.789,-0.508 6.894,-0.293 6.895,-0.304 6.894,-0.246 6.895,-0.289 6.894,-0.297 6.895,-0.242 6.895,-0.293 6.894,-0.301 6.895,-0.278 6.894,-0.281 6.895,-0.277 6.894,-0.27 6.895,-0.281 6.894,-0.305 6.895,-0.281 6.894,-0.289 6.895,-0.266 6.894,-0.218 6.895,-0.274 6.894,-0.277 6.895,-0.191 6.895,-0.219 6.898,-0.285 6.894,-0.239 6.895,-0.211 6.895,-0.257 6.894,-0.274 6.895,-0.265 6.894,-0.258 6.895,-0.266 6.894,-0.262"
             style="fill:none;stroke:#daa520;stroke-width:4.26791;stroke-linecap:butt;stroke-linejoin:round;stroke-miterlimit:10;stroke-dasharray:none;stroke-opacity:1"
             id="path56416" />
          <path
             d="m 62.633,154.82 6.894,0.414 6.895,0.512 6.894,0.461 6.895,0.371 6.894,0.422 6.899,0.348 6.894,0.332 6.895,0.386 6.895,0.461 6.894,0.34 6.895,0.379 6.894,0.32 6.895,0.36 6.894,0.433 6.895,0.465 6.894,0.336 6.895,0.403 6.894,0.457 6.895,0.347 6.894,0.473 6.895,0.426 6.894,0.382 6.895,0.368 6.894,0.375 6.895,0.445 6.895,0.34 6.894,0.32 6.895,0.449 6.894,0.368 6.895,0.355 6.894,0.453 6.895,0.297 6.894,0.32 6.895,0.367 6.894,0.254 6.895,0.313 6.894,0.305 6.895,0.589 6.894,0.266 6.895,0.32 6.895,0.391 6.898,0.434 6.894,0.375 6.895,0.347 6.895,0.403 6.894,0.332 6.895,0.347 6.894,0.317 6.895,0.32 6.894,0.367"
             style="fill:none;stroke:#1c86ee;stroke-width:4.26791;stroke-linecap:butt;stroke-linejoin:round;stroke-miterlimit:10;stroke-dasharray:none;stroke-opacity:1"
             id="path56418" />
          <path
             d="M 45.398,5.477 H 424.605 V 332.832 H 45.398 Z"
             style="fill:none;stroke:#333333;stroke-width:3.20093;stroke-linecap:round;stroke-linejoin:round;stroke-miterlimit:10;stroke-dasharray:none;stroke-opacity:1"
             id="path56420" />
        </g>
      </g>
      <g
         id="g56422">
        <text
           transform="translate(22.671875,281.67578)"
           style="font-variant:normal;font-weight:normal;font-size:12.8px;font-family:Arial;-inkscape-font-specification:ArialMT;writing-mode:lr-tb;fill:#4d4d4d;fill-opacity:1;fill-rule:nonzero;stroke:none"
           id="text56430"><tspan
             x="0 7.1167998 10.6624"
             y="0"
             sodipodi:role="line"
             id="tspan56424">0.2</tspan><tspan
             x="0 7.1167998 10.6624"
             y="-92.921867"
             sodipodi:role="line"
             id="tspan56426">0.3</tspan><tspan
             x="0 7.1167998 10.6624"
             y="-185.84373"
             sodipodi:role="line"
             id="tspan56428">0.4</tspan></text>
        <path
           d="m 42.656,277.094 h 2.742"
           style="fill:none;stroke:#333333;stroke-width:1.06698;stroke-linecap:butt;stroke-linejoin:round;stroke-miterlimit:10;stroke-dasharray:none;stroke-opacity:1"
           id="path56432" />
        <path
           d="m 42.656,184.172 h 2.742"
           style="fill:none;stroke:#333333;stroke-width:1.06698;stroke-linecap:butt;stroke-linejoin:round;stroke-miterlimit:10;stroke-dasharray:none;stroke-opacity:1"
           id="path56434" />
        <path
           d="m 42.656,91.25 h 2.742"
           style="fill:none;stroke:#333333;stroke-width:1.06698;stroke-linecap:butt;stroke-linejoin:round;stroke-miterlimit:10;stroke-dasharray:none;stroke-opacity:1"
           id="path56436" />
        <path
           d="m 131.582,335.574 v -2.742"
           style="fill:none;stroke:#333333;stroke-width:1.06698;stroke-linecap:butt;stroke-linejoin:round;stroke-miterlimit:10;stroke-dasharray:none;stroke-opacity:1"
           id="path56438" />
        <path
           d="m 269.473,335.574 v -2.742"
           style="fill:none;stroke:#333333;stroke-width:1.06698;stroke-linecap:butt;stroke-linejoin:round;stroke-miterlimit:10;stroke-dasharray:none;stroke-opacity:1"
           id="path56440" />
        <path
           d="m 407.367,335.574 v -2.742"
           style="fill:none;stroke:#333333;stroke-width:1.06698;stroke-linecap:butt;stroke-linejoin:round;stroke-miterlimit:10;stroke-dasharray:none;stroke-opacity:1"
           id="path56442" />
        <text
           transform="translate(128.02344,346.92578)"
           style="font-variant:normal;font-weight:normal;font-size:12.8px;font-family:Arial;-inkscape-font-specification:ArialMT;writing-mode:lr-tb;fill:#4d4d4d;fill-opacity:1;fill-rule:nonzero;stroke:none"
           id="text56446"><tspan
             x="0 137.89062 275.78516"
             y="0"
             sodipodi:role="line"
             id="tspan56444">123</tspan></text>
      </g>
    </g>
    <g
       id="g56547"
       inkscape:label="pien_mapXcmd_mort"
       transform="matrix(0.3567465,0,0,0.35277777,609.60996,-91.680879)">
      <g
         id="g56549" />
      <g
         id="g56557">
        <g
           id="g56559"
           clip-path="url(#clipPath56563)">
          <path
             d="M 52.516,5.477 H 424.602 V 332.832 H 52.516 Z"
             style="fill:#ffffff;fill-opacity:1;fill-rule:nonzero;stroke:none"
             id="path56565" />
          <path
             d="m 69.43,317.953 6.765,-1.691 6.766,-1.711 6.766,-1.668 6.761,-1.719 6.766,-1.836 6.766,-1.801 6.765,-1.707 6.766,-1.718 6.765,-1.821 6.766,-1.765 6.766,-1.856 6.765,-1.754 6.766,-1.703 6.762,-1.793 6.765,-1.68 6.766,-1.73 6.766,-1.672 6.765,-1.66 6.766,-1.645 6.765,-1.66 6.766,-1.57 6.766,-1.602 6.761,-1.5 6.766,-1.398 6.766,-1.457 6.765,-1.379 6.766,-1.34 6.765,-1.336 6.766,-1.34 6.766,-1.289 6.765,-1.242 6.762,-1.199 6.766,-1.109 6.765,-0.95 6.766,-1.05 6.766,-0.946 6.765,-0.867 6.766,-0.984 6.765,-0.914 6.766,-0.762 6.766,-0.875 6.761,-0.813 6.766,-0.8 6.766,-0.864 6.765,-0.797 6.766,-0.8 6.766,-0.703 6.765,-0.684 6.766,-0.629 6.765,-0.664 V 104.906 l -6.765,4.985 -6.766,4.847 -6.765,5.028 -6.766,4.765 -6.766,4.735 -6.765,4.668 -6.766,4.457 -6.766,4.347 -6.761,4.321 -6.766,4.375 -6.766,3.886 -6.765,3.965 -6.766,3.711 -6.765,3.707 -6.766,3.551 -6.766,3.406 -6.765,3.414 -6.766,3.242 -6.762,3.247 -6.765,3.117 -6.766,2.949 -6.766,3.055 -6.765,2.652 -6.766,2.578 -6.765,2.617 -6.766,2.262 -6.766,2.27 -6.761,2.304 -6.766,2.258 -6.766,2.152 -6.765,2.047 -6.766,1.949 -6.765,1.848 -6.766,1.692 -6.766,1.566 -6.765,1.59 -6.762,1.484 -13.531,2.805 -6.766,1.359 -6.766,1.219 -6.765,1.293 -6.766,1.152 -6.765,0.965 -6.766,1.137 -6.766,0.996 -6.761,0.887 -6.766,0.855 -6.766,0.887 -6.765,0.851 z"
             style="fill:#ee2c2c;fill-opacity:0.4;fill-rule:nonzero;stroke:none"
             id="path56567" />
          <path
             d="m 69.43,258.832 6.765,-0.719 6.766,-0.761 6.766,-0.68 6.761,-0.684 6.766,-0.722 6.766,-0.532 6.765,-0.562 6.766,-0.547 6.765,-0.367 6.766,-0.57 6.766,-0.481 6.765,-0.488 6.766,-0.371 6.762,-0.364 6.765,-0.41 6.766,-0.344 6.766,-0.292 6.765,-0.313 6.766,-0.277 6.765,-0.192 6.766,-0.129 6.766,-0.015 6.761,-0.145 6.766,-0.012 6.766,0.102 6.765,-0.004 6.766,0.082 13.531,0.352 6.766,0.199 6.765,0.191 6.762,0.196 6.766,0.265 6.765,0.305 6.766,0.418 6.766,0.426 6.765,0.461 6.766,0.453 6.765,0.398 6.766,0.453 6.766,0.567 6.761,0.5 6.766,0.582 6.766,0.613 6.765,0.512 6.766,0.539 6.766,0.605 6.765,0.524 6.766,0.64 6.765,0.516 V 141.512 l -6.765,1.562 -6.766,1.559 -6.765,1.504 -6.766,1.371 -6.766,1.301 -6.765,1.328 -6.766,1.437 -6.766,1.305 -6.761,1.25 -6.766,1.309 -6.766,1.246 -6.765,1.132 -6.766,1.282 -6.765,1.054 -6.766,1.18 -6.766,0.922 -6.765,0.875 -6.766,0.949 -6.762,0.82 -6.765,0.891 -6.766,0.758 -6.766,0.73 -6.765,0.536 -6.766,0.628 -6.765,0.664 -6.766,0.625 -6.766,0.391 -6.761,0.27 -6.766,0.492 -6.766,0.226 -6.765,0.329 -6.766,0.238 -6.765,0.234 -6.766,0.059 h -6.766 l -6.765,-0.012 -6.762,-0.094 -6.766,-0.172 -6.765,-0.066 -6.766,-0.391 -6.766,-0.132 -6.765,-0.438 -6.766,-0.387 -6.765,-0.472 -6.766,-0.34 -6.766,-0.539 -6.761,-0.457 -6.766,-0.508 -6.766,-0.563 -6.765,-0.66 z"
             style="fill:#daa520;fill-opacity:0.4;fill-rule:nonzero;stroke:none"
             id="path56569" />
          <path
             d="m 69.43,205.203 6.765,-0.34 6.766,-0.008 6.766,0.063 6.761,0.105 6.766,0.02 6.766,0.051 6.765,0.25 6.766,0.293 6.765,0.461 6.766,0.449 6.766,0.574 6.765,0.797 6.766,0.867 6.762,0.871 6.765,1.086 6.766,1.149 6.766,1.105 6.765,1.535 6.766,1.465 6.765,1.586 6.766,1.828 6.766,1.961 6.761,1.988 6.766,2.164 6.766,2.239 6.765,2.375 6.766,2.449 6.765,2.434 6.766,2.492 6.766,2.695 6.765,2.625 6.762,2.875 6.766,2.598 6.765,2.8 6.766,2.715 6.766,2.871 6.765,2.844 6.766,2.813 6.765,2.738 6.766,2.742 6.766,2.817 6.761,2.89 6.766,2.781 6.766,2.731 6.765,2.633 6.766,2.55 6.766,2.629 6.765,2.543 6.766,2.473 6.765,2.383 V 122.824 l -6.765,0.5 -6.766,0.504 -6.765,0.168 -6.766,0.383 -6.766,0.578 -6.765,0.332 -6.766,0.465 -6.766,0.144 -6.761,0.219 -13.532,0.125 -6.765,0.055 -6.766,0.101 -6.765,-0.125 -6.766,-0.066 -6.766,-0.43 -6.765,-0.3 -6.766,-0.442 -6.762,-0.359 -6.765,-0.688 -6.766,-0.769 -6.766,-0.961 -6.765,-0.766 -6.766,-0.89 -6.765,-1.36 -6.766,-1.816 -6.766,-1.446 -6.761,-1.933 -6.766,-2.219 -6.766,-2.379 -6.765,-2.765 -6.766,-2.52 -6.765,-3.148 -6.766,-2.911 -6.766,-3.398 -6.765,-3.527 -6.762,-3.797 -6.766,-4.199 -6.765,-4.063 -6.766,-4.527 -6.766,-4.578 -6.765,-5.036 -6.766,-5.136 -6.765,-5.11 -6.766,-5.222 -6.766,-5.399 -6.761,-5.824 -6.766,-5.797 -6.766,-6.054 -6.765,-6.079 z"
             style="fill:#1c86ee;fill-opacity:0.4;fill-rule:nonzero;stroke:none"
             id="path56571" />
          <path
             d="m 69.43,283.52 6.765,-1.454 6.766,-1.519 6.766,-1.539 6.761,-1.516 6.766,-1.57 6.766,-1.555 6.765,-1.547 13.531,-3.234 6.766,-1.641 6.766,-1.636 13.531,-3.375 6.762,-1.676 6.765,-1.711 6.766,-1.738 6.766,-1.77 6.765,-1.816 6.766,-1.813 6.765,-1.801 6.766,-1.804 6.766,-1.852 6.761,-1.844 6.766,-1.824 6.766,-1.883 6.765,-1.906 6.766,-1.965 6.765,-2.019 6.766,-1.992 6.766,-1.989 6.765,-1.984 6.762,-2.039 6.766,-2.031 6.765,-2.059 6.766,-2.137 6.766,-2.125 6.765,-2.176 6.766,-2.125 6.765,-2.21 6.766,-2.223 6.766,-2.254 6.761,-2.195 6.766,-2.231 6.766,-2.297 6.765,-2.257 6.766,-2.317 6.766,-2.367 6.765,-2.402 6.766,-2.43 6.765,-2.41"
             style="fill:none;stroke:#ee2c2c;stroke-width:4.26791;stroke-linecap:butt;stroke-linejoin:round;stroke-miterlimit:10;stroke-dasharray:none;stroke-opacity:1"
             id="path56573" />
          <path
             d="m 69.43,217.293 6.765,-0.23 6.766,-0.184 6.766,-0.188 6.761,-0.168 6.766,-0.25 6.766,-0.246 6.765,-0.226 6.766,-0.242 6.765,-0.172 6.766,-0.239 6.766,-0.171 6.765,-0.176 6.766,-0.164 6.762,-0.203 6.765,-0.176 6.766,-0.207 6.766,-0.172 6.765,-0.156 6.766,-0.188 6.765,-0.23 6.766,-0.2 6.766,-0.191 6.761,-0.207 6.766,-0.203 6.766,-0.25 6.765,-0.191 6.766,-0.18 6.765,-0.176 6.766,-0.164 6.766,-0.199 6.765,-0.188 6.762,-0.191 6.766,-0.188 6.765,-0.25 6.766,-0.195 6.766,-0.215 6.765,-0.219 6.766,-0.214 6.765,-0.18 6.766,-0.191 6.766,-0.223 6.761,-0.152 6.766,-0.196 6.766,-0.176 6.765,-0.218 6.766,-0.239 6.766,-0.195 6.765,-0.16 6.766,-0.133 6.765,-0.238"
             style="fill:none;stroke:#daa520;stroke-width:4.26791;stroke-linecap:butt;stroke-linejoin:round;stroke-miterlimit:10;stroke-dasharray:none;stroke-opacity:1"
             id="path56575" />
          <path
             d="m 69.43,123.012 6.765,2.488 6.766,2.352 6.766,2.363 6.761,2.305 6.766,2.363 6.766,2.332 6.765,2.379 6.766,2.371 6.765,2.199 6.766,2.356 6.766,2.316 6.765,2.234 6.766,2.325 6.762,2.191 6.765,2.191 6.766,2.125 6.766,2.239 6.765,2.109 6.766,2.145 6.765,2.156 6.766,2.144 6.766,2.114 6.761,2.164 6.766,2.027 6.766,2.109 6.765,2.032 6.766,2.047 6.765,2.011 6.766,1.957 6.766,1.989 6.765,2.019 6.762,1.887 6.766,1.953 6.765,1.887 6.766,1.91 6.766,1.883 6.765,1.867 6.766,1.777 6.765,1.875 6.766,1.867 6.766,1.875 6.761,1.797 6.766,1.77 6.766,1.754 6.765,1.742 6.766,1.703 6.766,1.699 6.765,1.719 6.766,1.68 6.765,1.66"
             style="fill:none;stroke:#1c86ee;stroke-width:4.26791;stroke-linecap:butt;stroke-linejoin:round;stroke-miterlimit:10;stroke-dasharray:none;stroke-opacity:1"
             id="path56577" />
          <path
             d="M 52.516,5.477 H 424.602 V 332.832 H 52.516 Z"
             style="fill:none;stroke:#333333;stroke-width:3.20093;stroke-linecap:round;stroke-linejoin:round;stroke-miterlimit:10;stroke-dasharray:none;stroke-opacity:1"
             id="path56579" />
        </g>
      </g>
      <g
         id="g56581">
        <text
           transform="translate(22.671875,264.52344)"
           style="font-variant:normal;font-weight:normal;font-size:12.8px;font-family:Arial;-inkscape-font-specification:ArialMT;writing-mode:lr-tb;fill:#4d4d4d;fill-opacity:1;fill-rule:nonzero;stroke:none"
           id="text56591"><tspan
             x="0 7.1167998 10.6624 17.7792"
             y="0"
             sodipodi:role="line"
             id="tspan56583">0.10</tspan><tspan
             x="0 7.1167998 10.6624 17.7792"
             y="-74.507812"
             sodipodi:role="line"
             id="tspan56585">0.15</tspan><tspan
             x="0 7.1167998 10.6624 17.7792"
             y="-149.01172"
             sodipodi:role="line"
             id="tspan56587">0.20</tspan><tspan
             x="0 7.1167998 10.6624 17.7792"
             y="-223.51955"
             sodipodi:role="line"
             id="tspan56589">0.25</tspan></text>
        <path
           d="m 49.777,259.941 h 2.739"
           style="fill:none;stroke:#333333;stroke-width:1.06698;stroke-linecap:butt;stroke-linejoin:round;stroke-miterlimit:10;stroke-dasharray:none;stroke-opacity:1"
           id="path56593" />
        <path
           d="m 49.777,185.438 h 2.739"
           style="fill:none;stroke:#333333;stroke-width:1.06698;stroke-linecap:butt;stroke-linejoin:round;stroke-miterlimit:10;stroke-dasharray:none;stroke-opacity:1"
           id="path56595" />
        <path
           d="m 49.777,110.93 h 2.739"
           style="fill:none;stroke:#333333;stroke-width:1.06698;stroke-linecap:butt;stroke-linejoin:round;stroke-miterlimit:10;stroke-dasharray:none;stroke-opacity:1"
           id="path56597" />
        <path
           d="m 49.777,36.426 h 2.739"
           style="fill:none;stroke:#333333;stroke-width:1.06698;stroke-linecap:butt;stroke-linejoin:round;stroke-miterlimit:10;stroke-dasharray:none;stroke-opacity:1"
           id="path56599" />
        <path
           d="m 137.082,335.574 v -2.742"
           style="fill:none;stroke:#333333;stroke-width:1.06698;stroke-linecap:butt;stroke-linejoin:round;stroke-miterlimit:10;stroke-dasharray:none;stroke-opacity:1"
           id="path56601" />
        <path
           d="m 272.387,335.574 v -2.742"
           style="fill:none;stroke:#333333;stroke-width:1.06698;stroke-linecap:butt;stroke-linejoin:round;stroke-miterlimit:10;stroke-dasharray:none;stroke-opacity:1"
           id="path56603" />
        <path
           d="m 407.691,335.574 v -2.742"
           style="fill:none;stroke:#333333;stroke-width:1.06698;stroke-linecap:butt;stroke-linejoin:round;stroke-miterlimit:10;stroke-dasharray:none;stroke-opacity:1"
           id="path56605" />
        <text
           transform="translate(133.52344,346.92578)"
           style="font-variant:normal;font-weight:normal;font-size:12.8px;font-family:Arial;-inkscape-font-specification:ArialMT;writing-mode:lr-tb;fill:#4d4d4d;fill-opacity:1;fill-rule:nonzero;stroke:none"
           id="text56609"><tspan
             x="0 135.30469 270.60938"
             y="0"
             sodipodi:role="line"
             id="tspan56607">123</tspan></text>
      </g>
    </g>
    <g
       id="g56712"
       inkscape:label="pien_mapXcmd_seed"
       transform="matrix(0.35277777,0,0,0.35277777,611.29403,47.570412)">
      <g
         id="g56714" />
      <g
         id="g56722">
        <g
           id="g56724"
           clip-path="url(#clipPath56728)">
          <path
             d="M 45.398,5.477 H 424.605 V 332.832 H 45.398 Z"
             style="fill:#ffffff;fill-opacity:1;fill-rule:nonzero;stroke:none"
             id="path56730" />
          <path
             d="m 62.633,90.762 6.894,0.691 6.895,0.652 6.894,0.473 6.895,0.61 6.894,0.597 6.899,0.578 6.894,0.391 6.895,0.434 6.895,0.355 6.894,0.34 6.895,0.269 6.894,0.235 6.895,0.156 6.894,0.074 6.895,-0.004 6.894,-0.265 6.895,-0.27 6.894,-0.488 6.895,-0.527 6.894,-0.844 6.895,-0.996 6.894,-1.227 6.895,-1.332 6.894,-1.469 6.895,-1.582 6.895,-1.769 6.894,-2.172 6.895,-2.195 6.894,-2.45 6.895,-2.394 6.894,-2.539 6.895,-2.621 6.894,-2.864 6.895,-2.89 6.894,-2.801 6.895,-2.793 6.894,-2.957 6.895,-2.832 6.894,-2.773 6.895,-2.985 6.895,-2.93 6.898,-2.871 6.894,-2.824 6.895,-2.871 6.895,-2.98 6.894,-2.774 6.895,-2.746 6.894,-2.801 6.895,-2.734 6.894,-2.688 v 128.973 l -6.894,-0.863 -6.895,-0.801 -6.894,-0.73 -6.895,-0.684 -6.894,-0.664 -6.895,-0.785 -6.895,-0.7 -6.894,-0.437 -6.898,-0.504 -6.895,-0.535 -6.895,-0.594 -6.894,-0.512 -6.895,-0.418 -6.894,-0.253 -6.895,-0.172 -6.894,-0.141 -6.895,-0.059 -6.894,-0.019 -6.895,0.078 -6.894,0.203 -6.895,0.356 -6.894,0.375 -6.895,0.574 -6.894,0.766 -6.895,1.027 -6.895,1.219 -6.894,1.457 -6.895,1.527 -6.894,1.867 -6.895,2.02 -6.894,2.164 -6.895,2.504 -6.894,2.59 -6.895,2.769 -6.894,2.965 -6.895,2.953 -6.894,3.09 -6.895,3.117 -6.894,3.402 -6.895,3.336 -6.894,3.399 -6.895,3.472 -6.895,3.555 -6.894,3.567 -6.899,3.433 -6.894,3.543 -6.895,3.609 -6.894,3.45 -6.895,3.715 -6.894,3.539 z"
             style="fill:#ee2c2c;fill-opacity:0.4;fill-rule:nonzero;stroke:none"
             id="path56732" />
          <path
             d="m 62.633,124.301 6.894,1.195 6.895,1.227 6.894,1.273 6.895,1.215 6.894,1.227 6.899,1.156 6.894,1.058 6.895,1.071 6.895,0.968 6.894,0.914 6.895,0.86 6.894,0.879 6.895,0.699 6.894,0.727 6.895,0.609 6.894,0.418 6.895,0.394 6.894,0.352 6.895,0.25 6.894,0.09 6.895,-0.082 6.894,-0.188 6.895,-0.23 6.894,-0.32 6.895,-0.454 6.895,-0.543 6.894,-0.691 6.895,-0.746 6.894,-0.711 6.895,-0.82 6.894,-0.91 6.895,-0.915 6.894,-0.953 6.895,-0.949 6.894,-0.957 6.895,-0.996 6.894,-1.125 6.895,-1.098 6.894,-1.211 6.895,-1.214 6.895,-1.184 6.898,-1.234 6.894,-1.114 6.895,-1.175 6.895,-1.293 6.894,-1.204 6.895,-1.246 6.894,-1.25 6.895,-1.23 6.894,-1.235 v 97.524 l -6.894,-1.43 -6.895,-1.359 -6.894,-1.457 -6.895,-1.375 -6.894,-1.422 -13.79,-2.766 -6.894,-1.343 -6.898,-1.247 -6.895,-1.304 -6.895,-1.367 -6.894,-1.243 -6.895,-1.238 -6.894,-1.328 -6.895,-1.219 -6.894,-1.152 -13.789,-2.203 -6.895,-1.016 -6.894,-1.074 -6.895,-0.934 -6.894,-0.976 -6.895,-0.922 -6.894,-0.762 -6.895,-0.703 -6.895,-0.57 -6.894,-0.606 -6.895,-0.406 -6.894,-0.246 -6.895,-0.121 -6.894,-0.074 -6.895,0.078 -6.894,0.195 -6.895,0.258 -6.894,0.426 -6.895,0.488 -6.894,0.519 -6.895,0.7 -6.894,0.726 -6.895,0.782 -6.894,0.824 -6.895,0.922 -6.895,0.918 -6.894,0.941 -6.899,0.918 -6.894,1.043 -6.895,1.051 -6.894,1.093 -6.895,0.985 -6.894,1.105 z"
             style="fill:#daa520;fill-opacity:0.4;fill-rule:nonzero;stroke:none"
             id="path56734" />
          <path
             d="m 62.633,95.215 6.894,3.82 6.895,3.914 6.894,3.602 6.895,3.703 6.894,3.762 6.899,3.707 6.894,3.711 6.895,3.738 6.895,3.496 6.894,3.555 6.895,3.586 6.894,3.398 6.895,3.219 6.894,2.918 6.895,2.988 6.894,2.668 6.895,2.66 6.894,2.301 6.895,2.262 6.894,1.965 6.895,1.789 6.894,1.628 6.895,1.383 6.894,1.235 6.895,0.82 6.895,0.684 6.894,0.578 6.895,0.281 6.894,0.305 6.895,-0.125 6.894,0.05 6.895,-0.058 6.894,-0.293 6.895,-0.488 6.894,-0.414 6.895,-0.446 6.894,-0.644 6.895,-0.688 6.894,-0.695 6.895,-0.828 6.895,-0.746 6.898,-0.84 6.894,-0.863 6.895,-0.879 6.895,-0.84 6.894,-0.891 6.895,-1.012 6.894,-1.023 6.895,-0.918 6.894,-0.828 v 162.531 l -6.894,-2.902 -6.895,-2.949 -6.894,-2.903 -6.895,-2.976 -6.894,-2.989 -6.895,-3.043 -6.895,-3.082 -6.894,-3.129 -6.898,-3.21 -6.895,-3.118 -6.895,-3.254 -6.894,-3.078 -6.895,-3.152 -6.894,-3.098 -6.895,-3.082 -6.894,-3.093 -6.895,-3.114 -6.894,-3.035 -6.895,-3.051 -6.894,-2.886 -6.895,-2.911 -6.894,-2.761 -6.895,-2.703 -6.894,-2.5 -6.895,-2.422 -6.895,-2.129 -6.894,-2 -6.895,-1.988 -6.894,-1.622 -6.895,-1.46 -6.894,-1.215 -6.895,-1.004 -6.894,-0.742 -6.895,-0.719 -6.894,-0.34 -6.895,-0.297 -6.894,-0.277 h -6.895 l -6.894,-0.039 -6.895,0.156 -6.894,0.328 -6.895,0.399 -6.895,0.375 -6.894,0.488 -6.899,0.527 -6.894,0.625 -6.895,0.727 -6.894,0.699 -6.895,0.863 -6.894,0.766 z"
             style="fill:#1c86ee;fill-opacity:0.4;fill-rule:nonzero;stroke:none"
             id="path56736" />
          <path
             d="m 62.633,152.023 6.894,-1.464 6.895,-1.489 6.894,-1.519 6.895,-1.551 6.894,-1.52 6.899,-1.453 6.894,-1.531 6.895,-1.516 6.895,-1.523 6.894,-1.457 13.789,-2.984 6.895,-1.434 6.894,-1.527 6.895,-1.473 6.894,-1.43 6.895,-1.461 6.894,-1.496 6.895,-1.504 6.894,-1.464 6.895,-1.493 6.894,-1.449 6.895,-1.43 6.894,-1.437 6.895,-1.398 6.895,-1.442 6.894,-1.473 6.895,-1.476 6.894,-1.395 6.895,-1.449 6.894,-1.371 6.895,-1.449 6.894,-1.442 6.895,-1.453 6.894,-1.402 6.895,-1.465 6.894,-1.406 6.895,-1.402 13.789,-2.782 6.895,-1.383 6.898,-1.398 6.894,-1.363 13.79,-2.836 6.894,-1.41 6.895,-1.309 6.894,-1.328 6.895,-1.313 6.894,-1.39"
             style="fill:none;stroke:#ee2c2c;stroke-width:4.26791;stroke-linecap:butt;stroke-linejoin:round;stroke-miterlimit:10;stroke-dasharray:none;stroke-opacity:1"
             id="path56738" />
          <path
             d="m 62.633,158.637 6.894,0.058 6.895,0.094 6.894,0.055 6.895,0.07 6.894,0.027 6.899,0.063 6.894,0.066 6.895,0.075 6.895,0.043 6.894,0.074 6.895,0.051 6.894,0.066 6.895,0.074 6.894,0.059 6.895,0.062 6.894,0.055 6.895,0.051 6.894,0.097 6.895,0.059 6.894,0.066 6.895,0.059 6.894,0.066 6.895,0.071 13.789,0.148 6.895,0.07 6.894,0.047 6.895,0.082 6.894,0.071 6.895,0.054 6.894,0.051 6.895,0.059 6.894,0.062 6.895,0.055 6.894,0.012 6.895,0.078 6.894,0.051 6.895,0.066 6.894,0.078 6.895,0.059 6.895,0.05 6.898,0.079 6.894,0.058 6.895,0.055 6.895,0.066 6.894,0.039 6.895,0.098 6.894,0.074 6.895,0.051 6.894,0.031"
             style="fill:none;stroke:#daa520;stroke-width:4.26791;stroke-linecap:butt;stroke-linejoin:round;stroke-miterlimit:10;stroke-dasharray:none;stroke-opacity:1"
             id="path56740" />
          <path
             d="m 62.633,164.984 6.894,1.61 6.895,1.687 6.894,1.625 6.895,1.559 6.894,1.621 6.899,1.715 6.894,1.722 6.895,1.68 6.895,1.668 6.894,1.695 6.895,1.582 6.894,1.59 6.895,1.727 6.894,1.601 6.895,1.661 6.894,1.621 6.895,1.59 6.894,1.593 6.895,1.582 13.789,3.227 6.894,1.578 6.895,1.559 6.894,1.55 6.895,1.625 6.895,1.571 6.894,1.519 6.895,1.598 6.894,1.605 6.895,1.532 6.894,1.574 6.895,1.57 6.894,1.516 6.895,1.578 13.789,3.07 6.894,1.531 6.895,1.543 6.894,1.559 6.895,1.508 6.895,1.515 6.898,1.508 6.894,1.481 6.895,1.574 6.895,1.48 6.894,1.52 6.895,1.508 6.894,1.504 6.895,1.472 6.894,1.481"
             style="fill:none;stroke:#1c86ee;stroke-width:4.26791;stroke-linecap:butt;stroke-linejoin:round;stroke-miterlimit:10;stroke-dasharray:none;stroke-opacity:1"
             id="path56742" />
          <path
             d="M 45.398,5.477 H 424.605 V 332.832 H 45.398 Z"
             style="fill:none;stroke:#333333;stroke-width:3.20093;stroke-linecap:round;stroke-linejoin:round;stroke-miterlimit:10;stroke-dasharray:none;stroke-opacity:1"
             id="path56744" />
        </g>
      </g>
      <g
         id="g56746">
        <text
           transform="translate(22.671875,324.82422)"
           style="font-variant:normal;font-weight:normal;font-size:12.8px;font-family:Arial;-inkscape-font-specification:ArialMT;writing-mode:lr-tb;fill:#4d4d4d;fill-opacity:1;fill-rule:nonzero;stroke:none"
           id="text56756"><tspan
             x="0 7.1167998 10.6624"
             y="0"
             sodipodi:role="line"
             id="tspan56748">0.2</tspan><tspan
             x="0 7.1167998 10.6624"
             y="-104.01563"
             sodipodi:role="line"
             id="tspan56750">0.4</tspan><tspan
             x="0 7.1167998 10.6624"
             y="-208.03127"
             sodipodi:role="line"
             id="tspan56752">0.6</tspan><tspan
             x="0 7.1167998 10.6624"
             y="-312.04297"
             sodipodi:role="line"
             id="tspan56754">0.8</tspan></text>
        <path
           d="m 42.656,320.242 h 2.742"
           style="fill:none;stroke:#333333;stroke-width:1.06698;stroke-linecap:butt;stroke-linejoin:round;stroke-miterlimit:10;stroke-dasharray:none;stroke-opacity:1"
           id="path56758" />
        <path
           d="m 42.656,216.23 h 2.742"
           style="fill:none;stroke:#333333;stroke-width:1.06698;stroke-linecap:butt;stroke-linejoin:round;stroke-miterlimit:10;stroke-dasharray:none;stroke-opacity:1"
           id="path56760" />
        <path
           d="m 42.656,112.215 h 2.742"
           style="fill:none;stroke:#333333;stroke-width:1.06698;stroke-linecap:butt;stroke-linejoin:round;stroke-miterlimit:10;stroke-dasharray:none;stroke-opacity:1"
           id="path56762" />
        <path
           d="m 42.656,8.199 h 2.742"
           style="fill:none;stroke:#333333;stroke-width:1.06698;stroke-linecap:butt;stroke-linejoin:round;stroke-miterlimit:10;stroke-dasharray:none;stroke-opacity:1"
           id="path56764" />
        <path
           d="m 131.582,335.574 v -2.742"
           style="fill:none;stroke:#333333;stroke-width:1.06698;stroke-linecap:butt;stroke-linejoin:round;stroke-miterlimit:10;stroke-dasharray:none;stroke-opacity:1"
           id="path56766" />
        <path
           d="m 269.473,335.574 v -2.742"
           style="fill:none;stroke:#333333;stroke-width:1.06698;stroke-linecap:butt;stroke-linejoin:round;stroke-miterlimit:10;stroke-dasharray:none;stroke-opacity:1"
           id="path56768" />
        <path
           d="m 407.367,335.574 v -2.742"
           style="fill:none;stroke:#333333;stroke-width:1.06698;stroke-linecap:butt;stroke-linejoin:round;stroke-miterlimit:10;stroke-dasharray:none;stroke-opacity:1"
           id="path56770" />
        <text
           transform="translate(128.02344,346.92578)"
           style="font-variant:normal;font-weight:normal;font-size:12.8px;font-family:Arial;-inkscape-font-specification:ArialMT;writing-mode:lr-tb;fill:#4d4d4d;fill-opacity:1;fill-rule:nonzero;stroke:none"
           id="text56774"><tspan
             x="0 137.89062 275.78516"
             y="0"
             sodipodi:role="line"
             id="tspan56772">123</tspan></text>
      </g>
    </g>
    <g
       id="g56877"
       inkscape:label="pien_mapXcmd_saps"
       transform="matrix(0.35277777,0,0,0.35277777,611.29403,184.23392)">
      <g
         id="g56879" />
      <g
         id="g56887">
        <g
           id="g56889"
           clip-path="url(#clipPath56893)">
          <path
             d="M 45.398,5.477 H 424.605 V 332.832 H 45.398 Z"
             style="fill:#ffffff;fill-opacity:1;fill-rule:nonzero;stroke:none"
             id="path56895" />
          <path
             d="m 62.633,248.574 6.894,-0.652 6.895,-0.774 13.789,-1.453 6.894,-0.777 6.899,-0.895 6.894,-0.964 6.895,-0.946 6.895,-1.008 6.894,-0.984 6.895,-1.098 6.894,-1.164 6.895,-1.254 6.894,-1.468 6.895,-1.571 6.894,-1.765 6.895,-1.844 6.894,-2.035 6.895,-2.379 6.894,-2.527 6.895,-2.793 6.894,-3.125 6.895,-3.407 6.894,-3.75 6.895,-4.086 6.895,-4.558 6.894,-4.742 6.895,-5.067 6.894,-5.3 6.895,-5.708 6.894,-5.949 6.895,-6.433 6.894,-6.664 6.895,-6.84 6.894,-7.063 6.895,-7.535 6.894,-7.519 6.895,-7.821 6.894,-8.054 6.895,-8.164 6.895,-8.422 6.898,-8.403 6.894,-8.824 6.895,-8.621 6.895,-8.992 6.894,-8.809 6.895,-9.25 6.894,-9.035 6.895,-8.84 6.894,-8.883 V 230.34 l -6.894,0.832 -6.895,0.805 -6.894,0.793 -13.789,1.554 -6.895,0.813 -6.895,0.965 -6.894,0.765 -6.898,0.973 -6.895,0.961 -6.895,0.965 -6.894,0.949 -6.895,1.047 -6.894,1.008 -6.895,1.031 -6.894,1.148 -6.895,1.039 -6.894,1.164 -6.895,1.227 -6.894,1.422 -6.895,1.23 -6.894,1.524 -6.895,1.504 -6.894,1.652 -6.895,1.801 -6.895,1.875 -6.894,1.961 -6.895,2.039 -6.894,2.086 -6.895,2.172 -6.894,2.121 -6.895,2.187 -6.894,2.121 -6.895,2.184 -6.894,2.148 -6.895,2.082 -6.894,2.051 -6.895,1.984 -6.894,1.86 -6.895,1.797 -6.894,1.761 -6.895,1.719 -6.895,1.582 -6.894,1.457 -6.899,1.477 -6.894,1.347 -6.895,1.278 -6.894,1.207 -6.895,1.18 -6.894,1.093 z"
             style="fill:#ee2c2c;fill-opacity:0.4;fill-rule:nonzero;stroke:none"
             id="path56897" />
          <path
             d="m 62.633,221.727 6.894,2.652 6.895,2.73 6.894,2.594 6.895,2.414 6.894,2.289 6.899,2.262 6.894,2.121 6.895,1.93 6.895,1.808 6.894,1.672 6.895,1.594 6.894,1.437 6.895,1.235 6.894,1.074 6.895,1.004 6.894,0.824 6.895,0.727 6.894,0.64 6.895,0.485 6.894,0.433 6.895,0.293 6.894,0.227 6.895,0.156 6.894,0.113 6.895,0.02 6.895,-0.063 6.894,0.004 6.895,-0.148 6.894,-0.106 6.895,-0.179 6.894,-0.168 6.895,-0.215 6.894,-0.27 6.895,-0.304 6.894,-0.309 6.895,-0.332 6.894,-0.398 6.895,-0.301 6.894,-0.34 6.895,-0.437 6.895,-0.391 6.898,-0.449 6.894,-0.407 6.895,-0.48 6.895,-0.34 6.894,-0.418 6.895,-0.488 6.894,-0.442 6.895,-0.46 6.894,-0.563 v 57.926 l -6.894,-0.547 -6.895,-0.57 -6.894,-0.582 -6.895,-0.625 -6.894,-0.633 -6.895,-0.664 -6.895,-0.684 -6.894,-0.707 -6.898,-0.742 -6.895,-0.746 -6.895,-0.77 -6.894,-0.804 -6.895,-0.832 -6.894,-0.821 -6.895,-0.883 -6.894,-0.914 -6.895,-0.945 -6.894,-0.992 -6.895,-0.949 -6.894,-0.961 -6.895,-1.059 -6.894,-1.027 -6.895,-1.09 -6.894,-1.051 -6.895,-1.039 -6.895,-1.058 -6.894,-1.075 -6.895,-1.066 -6.894,-1.031 -6.895,-0.993 -6.894,-0.91 -6.895,-0.843 -6.894,-0.786 -6.895,-0.738 -6.894,-0.57 -6.895,-0.473 -6.894,-0.359 -6.895,-0.317 -6.894,-0.187 -6.895,-0.117 -6.894,-0.039 -6.895,-0.004 -6.895,0.097 -6.894,0.055 -6.899,0.141 -6.894,0.117 -6.895,0.203 -6.894,0.211 -6.895,0.144 -6.894,0.196 z"
             style="fill:#daa520;fill-opacity:0.4;fill-rule:nonzero;stroke:none"
             id="path56899" />
          <path
             d="m 62.633,76.477 6.894,16.257 6.895,15.715 6.894,15.141 6.895,14.285 6.894,13.316 6.899,13.055 6.894,11.731 6.895,11 6.895,10.046 6.894,9.137 6.895,8.172 6.894,7.402 6.895,6.371 6.894,5.856 6.895,5.125 6.894,4.281 6.895,3.981 6.894,3.445 6.895,3.059 6.894,2.73 6.895,2.344 6.894,2.105 6.895,1.797 6.894,1.703 6.895,1.508 6.895,1.445 6.894,1.305 6.895,1.238 6.894,1.047 6.895,1.164 6.894,0.785 6.895,1.008 6.894,0.871 6.895,0.809 13.789,1.461 6.894,0.703 6.895,0.707 6.894,0.637 6.895,0.656 6.895,0.594 6.898,0.617 6.894,0.562 6.895,0.547 6.895,0.539 6.894,0.582 6.895,0.594 6.894,0.528 6.895,0.488 6.894,0.531 v 32.496 l -6.894,-0.066 -6.895,-0.078 -6.894,-0.09 -6.895,-0.102 -6.894,-0.113 -6.895,-0.129 -6.895,-0.152 -6.894,-0.164 -6.898,-0.192 -6.895,-0.222 -6.895,-0.243 -6.894,-0.277 -6.895,-0.316 -6.894,-0.368 -6.895,-0.41 -6.894,-0.465 -6.895,-0.515 -6.894,-0.594 -6.895,-0.664 -6.894,-0.754 -6.895,-0.848 -6.894,-0.957 -6.895,-1.062 -6.894,-1.199 -6.895,-1.325 -6.895,-1.41 -6.894,-1.613 -6.895,-1.703 -6.894,-1.899 -6.895,-1.988 -6.894,-2.101 -6.895,-2.188 -6.894,-2.105 -6.895,-2.067 -6.894,-2.015 -6.895,-1.946 -6.894,-1.754 -6.895,-1.64 -6.894,-1.449 -6.895,-1.219 -6.894,-1.426 -6.895,-1.176 -6.895,-1.215 -6.894,-1.043 -6.899,-1.027 -6.894,-0.984 -6.895,-0.981 -6.894,-0.988 -6.895,-0.875 -6.894,-0.941 z"
             style="fill:#1c86ee;fill-opacity:0.4;fill-rule:nonzero;stroke:none"
             id="path56901" />
          <path
             d="m 62.633,283.355 6.894,-1.308 6.895,-1.348 6.894,-1.394 6.895,-1.461 6.894,-1.465 6.899,-1.555 6.894,-1.605 6.895,-1.653 6.895,-1.683 6.894,-1.789 6.895,-1.828 6.894,-1.868 6.895,-1.933 6.894,-1.996 6.895,-2.047 6.894,-2.067 6.895,-2.175 6.894,-2.227 6.895,-2.289 6.894,-2.367 6.895,-2.399 6.894,-2.527 6.895,-2.516 6.894,-2.621 6.895,-2.652 6.895,-2.805 6.894,-2.867 6.895,-2.918 6.894,-3 6.895,-3.133 6.894,-3.191 6.895,-3.168 6.894,-3.336 6.895,-3.363 6.894,-3.473 6.895,-3.508 6.894,-3.605 6.895,-3.707 6.894,-3.817 6.895,-3.867 6.895,-3.879 6.898,-4.078 6.894,-4.062 6.895,-4.235 6.895,-4.191 6.894,-4.285 6.895,-4.371 6.894,-4.442 6.895,-4.558 6.894,-4.532"
             style="fill:none;stroke:#ee2c2c;stroke-width:4.26791;stroke-linecap:butt;stroke-linejoin:round;stroke-miterlimit:10;stroke-dasharray:none;stroke-opacity:1"
             id="path56903" />
          <path
             d="m 62.633,251.953 6.894,0.805 6.895,0.769 6.894,0.762 6.895,0.77 6.894,0.734 6.899,0.738 6.894,0.742 6.895,0.75 6.895,0.758 6.894,0.727 6.895,0.75 6.894,0.719 6.895,0.695 13.789,1.359 6.894,0.676 6.895,0.648 6.894,0.641 6.895,0.633 6.894,0.617 6.895,0.613 6.894,0.606 6.895,0.578 6.894,0.586 6.895,0.562 6.895,0.555 6.894,0.57 6.895,0.563 6.894,0.574 6.895,0.559 6.894,0.535 6.895,0.516 6.894,0.542 6.895,0.508 6.894,0.535 6.895,0.516 6.894,0.524 13.789,0.984 6.895,0.484 6.895,0.508 6.898,0.508 6.894,0.5 6.895,0.484 6.895,0.473 6.894,0.461 6.895,0.469 6.894,0.449 6.895,0.457 6.894,0.445"
             style="fill:none;stroke:#daa520;stroke-width:4.26791;stroke-linecap:butt;stroke-linejoin:round;stroke-miterlimit:10;stroke-dasharray:none;stroke-opacity:1"
             id="path56905" />
          <path
             d="m 62.633,199.414 6.894,5.973 6.895,5.781 6.894,5.574 6.895,5.254 6.894,5.078 6.899,4.891 6.894,4.656 6.895,4.516 6.895,4.222 6.894,4.032 6.895,3.902 6.894,3.723 6.895,3.5 6.894,3.367 6.895,3.195 6.894,2.973 6.895,2.781 6.894,2.633 6.895,2.426 6.894,2.355 6.895,2.184 6.894,2.113 6.895,1.984 6.894,1.875 6.895,1.754 6.895,1.68 6.894,1.539 6.895,1.453 6.894,1.406 6.895,1.321 6.894,1.254 6.895,1.183 6.894,1.113 6.895,1.063 6.894,0.969 6.895,0.933 6.894,0.883 6.895,0.82 6.894,0.766 6.895,0.738 6.895,0.68 6.898,0.641 6.894,0.601 6.895,0.567 6.895,0.531 6.894,0.496 6.895,0.477 6.894,0.449 6.895,0.418 6.894,0.386"
             style="fill:none;stroke:#1c86ee;stroke-width:4.26791;stroke-linecap:butt;stroke-linejoin:round;stroke-miterlimit:10;stroke-dasharray:none;stroke-opacity:1"
             id="path56907" />
          <path
             d="M 45.398,5.477 H 424.605 V 332.832 H 45.398 Z"
             style="fill:none;stroke:#333333;stroke-width:3.20093;stroke-linecap:round;stroke-linejoin:round;stroke-miterlimit:10;stroke-dasharray:none;stroke-opacity:1"
             id="path56909" />
        </g>
      </g>
      <g
         id="g56911">
        <text
           transform="translate(22.671875,323.02344)"
           style="font-variant:normal;font-weight:normal;font-size:12.8px;font-family:Arial;-inkscape-font-specification:ArialMT;writing-mode:lr-tb;fill:#4d4d4d;fill-opacity:1;fill-rule:nonzero;stroke:none"
           id="text56919"><tspan
             x="0 7.1167998 10.6624"
             y="0"
             sodipodi:role="line"
             id="tspan56913">0.0</tspan><tspan
             x="0 7.1167998 10.6624"
             y="-105.26563"
             sodipodi:role="line"
             id="tspan56915">0.2</tspan><tspan
             x="0 7.1167998 10.6624"
             y="-210.52734"
             sodipodi:role="line"
             id="tspan56917">0.4</tspan></text>
        <path
           d="m 42.656,318.441 h 2.742"
           style="fill:none;stroke:#333333;stroke-width:1.06698;stroke-linecap:butt;stroke-linejoin:round;stroke-miterlimit:10;stroke-dasharray:none;stroke-opacity:1"
           id="path56921" />
        <path
           d="m 42.656,213.18 h 2.742"
           style="fill:none;stroke:#333333;stroke-width:1.06698;stroke-linecap:butt;stroke-linejoin:round;stroke-miterlimit:10;stroke-dasharray:none;stroke-opacity:1"
           id="path56923" />
        <path
           d="m 42.656,107.914 h 2.742"
           style="fill:none;stroke:#333333;stroke-width:1.06698;stroke-linecap:butt;stroke-linejoin:round;stroke-miterlimit:10;stroke-dasharray:none;stroke-opacity:1"
           id="path56925" />
        <path
           d="m 131.582,335.574 v -2.742"
           style="fill:none;stroke:#333333;stroke-width:1.06698;stroke-linecap:butt;stroke-linejoin:round;stroke-miterlimit:10;stroke-dasharray:none;stroke-opacity:1"
           id="path56927" />
        <path
           d="m 269.473,335.574 v -2.742"
           style="fill:none;stroke:#333333;stroke-width:1.06698;stroke-linecap:butt;stroke-linejoin:round;stroke-miterlimit:10;stroke-dasharray:none;stroke-opacity:1"
           id="path56929" />
        <path
           d="m 407.367,335.574 v -2.742"
           style="fill:none;stroke:#333333;stroke-width:1.06698;stroke-linecap:butt;stroke-linejoin:round;stroke-miterlimit:10;stroke-dasharray:none;stroke-opacity:1"
           id="path56931" />
        <text
           transform="translate(128.02344,346.92578)"
           style="font-variant:normal;font-weight:normal;font-size:12.8px;font-family:Arial;-inkscape-font-specification:ArialMT;writing-mode:lr-tb;fill:#4d4d4d;fill-opacity:1;fill-rule:nonzero;stroke:none"
           id="text56935"><tspan
             x="0 137.89062 275.78516"
             y="0"
             sodipodi:role="line"
             id="tspan56933">123</tspan></text>
      </g>
    </g>
    <text
       xml:space="preserve"
       style="font-style:normal;font-weight:normal;font-size:7.76111px;line-height:1.25;font-family:sans-serif;fill:#000000;fill-opacity:1;stroke:none;stroke-width:0.264583"
       x="-280.28595"
       y="450.96725"
       id="text12888"
       transform="rotate(-90)"><tspan
         sodipodi:role="line"
         id="tspan12886"
         style="font-size:7.76111px;stroke-width:0.264583"
         x="-280.28595"
         y="450.96725">P(sapling recruits)</tspan></text>
    <text
       xml:space="preserve"
       style="font-style:normal;font-weight:normal;font-size:7.76111px;line-height:1.25;font-family:sans-serif;fill:#000000;fill-opacity:1;stroke:none;stroke-width:0.264583"
       x="477.92477"
       y="318.65598"
       id="text4998"><tspan
         sodipodi:role="line"
         id="tspan4996"
         style="font-size:7.76111px;stroke-width:0.264583"
         x="477.92477"
         y="318.65598">CMD max anomaly (z-score)</tspan></text>
    <text
       xml:space="preserve"
       style="font-style:normal;font-weight:normal;font-size:7.76111px;line-height:1.25;font-family:sans-serif;fill:#000000;fill-opacity:1;stroke:none;stroke-width:0.264583"
       x="635.41199"
       y="318.65598"
       id="text15528"><tspan
         sodipodi:role="line"
         id="tspan15526"
         style="font-size:7.76111px;stroke-width:0.264583"
         x="635.41199"
         y="318.65598">CMD max anomaly (z-score)</tspan></text>
    <text
       xml:space="preserve"
       style="font-style:normal;font-weight:normal;font-size:7.76111px;line-height:1.25;font-family:sans-serif;fill:#000000;fill-opacity:1;stroke:none;stroke-width:0.264583"
       x="-128.07576"
       y="450.96725"
       id="text10914"
       transform="rotate(-90)"><tspan
         sodipodi:role="line"
         id="tspan10912"
         style="font-size:7.76111px;stroke-width:0.264583"
         x="-128.07576"
         y="450.96725">P(seedlings)</tspan></text>
    <text
       xml:space="preserve"
       style="font-style:normal;font-weight:normal;font-size:7.76111px;line-height:1.25;font-family:sans-serif;fill:#000000;fill-opacity:1;stroke:none;stroke-width:0.264583"
       x="17.4081"
       y="450.9881"
       id="text5458"
       transform="rotate(-90)"><tspan
         sodipodi:role="line"
         id="tspan5456"
         style="font-size:7.76111px;stroke-width:0.264583"
         x="17.4081"
         y="450.9881">P(mortality)</tspan></text>
    <text
       xml:space="preserve"
       style="font-style:normal;font-weight:normal;font-size:10.5833px;line-height:1.25;font-family:sans-serif;fill:#000000;fill-opacity:1;stroke:none;stroke-width:0.264583"
       x="472.5361"
       y="-92.439774"
       id="text18574"><tspan
         sodipodi:role="line"
         id="tspan18572"
         style="stroke-width:0.264583"
         x="472.5361"
         y="-92.439774">a)</tspan></text>
    <text
       xml:space="preserve"
       style="font-style:normal;font-weight:normal;font-size:10.5833px;line-height:1.25;font-family:sans-serif;fill:#000000;fill-opacity:1;stroke:none;stroke-width:0.264583"
       x="472.95468"
       y="45.361282"
       id="text18578"><tspan
         sodipodi:role="line"
         id="tspan18576"
         style="stroke-width:0.264583"
         x="472.95468"
         y="45.361282">c)</tspan></text>
    <text
       xml:space="preserve"
       style="font-style:normal;font-weight:normal;font-size:10.5833px;line-height:1.25;font-family:sans-serif;fill:#000000;fill-opacity:1;stroke:none;stroke-width:0.264583"
       x="472.55676"
       y="181.56154"
       id="text18582"><tspan
         sodipodi:role="line"
         id="tspan18580"
         style="stroke-width:0.264583"
         x="472.55676"
         y="181.56154">e)</tspan></text>
    <text
       xml:space="preserve"
       style="font-style:normal;font-weight:normal;font-size:10.5833px;line-height:1.25;font-family:sans-serif;fill:#000000;fill-opacity:1;stroke:none;stroke-width:0.264583"
       x="630.67975"
       y="-92.439774"
       id="text18586"><tspan
         sodipodi:role="line"
         id="tspan18584"
         style="stroke-width:0.264583"
         x="630.67975"
         y="-92.439774">b)</tspan></text>
    <text
       xml:space="preserve"
       style="font-style:normal;font-weight:normal;font-size:10.5833px;line-height:1.25;font-family:sans-serif;fill:#000000;fill-opacity:1;stroke:none;stroke-width:0.264583"
       x="630.87872"
       y="45.361282"
       id="text18590"><tspan
         sodipodi:role="line"
         id="tspan18588"
         style="stroke-width:0.264583"
         x="630.87872"
         y="45.361282">d)</tspan></text>
    <text
       xml:space="preserve"
       style="font-style:normal;font-weight:normal;font-size:10.5833px;line-height:1.25;font-family:sans-serif;fill:#000000;fill-opacity:1;stroke:none;stroke-width:0.264583"
       x="632.16028"
       y="181.58739"
       id="text18594"><tspan
         sodipodi:role="line"
         id="tspan18592"
         style="stroke-width:0.264583"
         x="632.16028"
         y="181.58739">f)</tspan></text>
    <text
       xml:space="preserve"
       style="font-style:normal;font-weight:normal;font-size:10.5833px;line-height:1.25;font-family:sans-serif;fill:#000000;fill-opacity:1;stroke:none;stroke-width:0.264583"
       x="501.11362"
       y="-109.12048"
       id="text6807"><tspan
         sodipodi:role="line"
         id="tspan6805"
         style="stroke-width:0.264583"
         x="501.11362"
         y="-109.12048">Subalpine fir</tspan></text>
    <text
       xml:space="preserve"
       style="font-style:normal;font-weight:normal;font-size:10.5833px;line-height:1.25;font-family:sans-serif;fill:#000000;fill-opacity:1;stroke:none;stroke-width:0.264583"
       x="647.20288"
       y="-109.14888"
       id="text7471"><tspan
         sodipodi:role="line"
         id="tspan7469"
         style="stroke-width:0.264583"
         x="647.20288"
         y="-109.14888">Engelmann spruce</tspan></text>
    <g
       id="g70404"
       transform="translate(244.96044,170.96966)">
      <g
         id="g70402"
         transform="matrix(0.80555109,0,0,0.80555109,107.5166,31.290972)">
        <text
           xml:space="preserve"
           style="font-style:normal;font-weight:normal;font-size:6.36891px;line-height:1.25;font-family:sans-serif;text-align:center;text-anchor:middle;fill:#000000;fill-opacity:1;stroke:none;stroke-width:0.159223"
           x="204.83919"
           y="-94.893669"
           id="text70366"><tspan
             sodipodi:role="line"
             id="tspan70362"
             style="text-align:center;text-anchor:middle;stroke-width:0.159223"
             x="204.83919"
             y="-94.893669">Reference </tspan><tspan
             sodipodi:role="line"
             style="text-align:center;text-anchor:middle;stroke-width:0.159223"
             x="204.83919"
             y="-86.932533"
             id="tspan70364">MAP (mm)</tspan></text>
        <g
           id="g70400"
           transform="translate(-0.63780604)">
          <g
             id="g70386"
             transform="translate(7.2801685,0.71394231)">
            <g
               id="g70372"
               transform="translate(14.453323,5.3115997)">
              <rect
                 style="fill:#f8aaaa;fill-opacity:1;stroke-width:0.262249"
                 id="rect70368"
                 width="14.453328"
                 height="8.0938635"
                 x="164.67226"
                 y="-90.383392" />
              <rect
                 style="fill:#ee2c2c;fill-opacity:1;stroke-width:0.261578"
                 id="rect70370"
                 width="14.451323"
                 height="2.5293324"
                 x="164.67226"
                 y="-87.601128" />
            </g>
            <g
               id="g70378"
               transform="translate(14.453323,15.561084)">
              <rect
                 style="fill:#f0dba5;fill-opacity:1;stroke-width:0.262249"
                 id="rect70374"
                 width="14.453328"
                 height="8.0938635"
                 x="164.67226"
                 y="-90.322586" />
              <rect
                 style="fill:#daa520;fill-opacity:1;stroke-width:0.261578"
                 id="rect70376"
                 width="14.451323"
                 height="2.5293324"
                 x="164.67226"
                 y="-87.540321" />
            </g>
            <g
               id="g70384"
               transform="translate(14.484875,25.810562)">
              <rect
                 style="fill:#a4cef8;fill-opacity:1;stroke-width:0.262249"
                 id="rect70380"
                 width="14.453328"
                 height="8.0938635"
                 x="164.67226"
                 y="-90.322586" />
              <rect
                 style="fill:#1c86ee;fill-opacity:1;stroke-width:0.261578"
                 id="rect70382"
                 width="14.451323"
                 height="2.5293324"
                 x="164.67226"
                 y="-87.540321" />
            </g>
          </g>
          <text
             xml:space="preserve"
             style="font-style:normal;font-weight:normal;font-size:8.46667px;line-height:1.25;font-family:sans-serif;fill:#000000;fill-opacity:1;stroke:none;stroke-width:0.264583"
             x="203.62563"
             y="-56.675369"
             id="text70390"><tspan
               sodipodi:role="line"
               id="tspan70388"
               style="font-size:8.46667px;stroke-width:0.264583"
               x="203.62563"
               y="-56.675369">1500</tspan></text>
          <text
             xml:space="preserve"
             style="font-style:normal;font-weight:normal;font-size:8.46667px;line-height:1.25;font-family:sans-serif;fill:#000000;fill-opacity:1;stroke:none;stroke-width:0.264583"
             x="203.60287"
             y="-66.924843"
             id="text70394"><tspan
               sodipodi:role="line"
               id="tspan70392"
               style="font-size:8.46667px;stroke-width:0.264583"
               x="203.60287"
               y="-66.924843">1000</tspan></text>
          <text
             xml:space="preserve"
             style="font-style:normal;font-weight:normal;font-size:8.46667px;line-height:1.25;font-family:sans-serif;fill:#000000;fill-opacity:1;stroke:none;stroke-width:0.264583"
             x="203.576"
             y="-77.235138"
             id="text70398"><tspan
               sodipodi:role="line"
               id="tspan70396"
               style="font-size:8.46667px;stroke-width:0.264583"
               x="203.576"
               y="-77.235138">500</tspan></text>
        </g>
      </g>
    </g>
    <g
       id="g51223"
       transform="translate(459.14313,-36.07361)">
      <g
         id="g70318"
         transform="matrix(0.80555109,0,0,0.80555109,107.5166,31.290972)">
        <text
           xml:space="preserve"
           style="font-style:normal;font-weight:normal;font-size:6.36891px;line-height:1.25;font-family:sans-serif;text-align:center;text-anchor:middle;fill:#000000;fill-opacity:1;stroke:none;stroke-width:0.159223"
           x="204.83919"
           y="-94.893669"
           id="text33489"><tspan
             sodipodi:role="line"
             id="tspan33487"
             style="text-align:center;text-anchor:middle;stroke-width:0.159223"
             x="204.83919"
             y="-94.893669">Reference </tspan><tspan
             sodipodi:role="line"
             style="text-align:center;text-anchor:middle;stroke-width:0.159223"
             x="204.83919"
             y="-86.932533"
             id="tspan18787">MAP (mm)</tspan></text>
        <g
           id="g51200"
           transform="translate(-0.63780604)">
          <g
             id="g30818"
             transform="translate(7.2801685,0.71394231)">
            <g
               id="g9533"
               transform="translate(14.453323,5.3115997)">
              <rect
                 style="fill:#f8aaaa;fill-opacity:1;stroke-width:0.262249"
                 id="rect9529"
                 width="14.453328"
                 height="8.0938635"
                 x="164.67226"
                 y="-90.383392" />
              <rect
                 style="fill:#ee2c2c;fill-opacity:1;stroke-width:0.261578"
                 id="rect9531"
                 width="14.451323"
                 height="2.5293324"
                 x="164.67226"
                 y="-87.601128" />
            </g>
            <g
               id="g9539"
               transform="translate(14.453323,15.561084)">
              <rect
                 style="fill:#f0dba5;fill-opacity:1;stroke-width:0.262249"
                 id="rect9535"
                 width="14.453328"
                 height="8.0938635"
                 x="164.67226"
                 y="-90.322586" />
              <rect
                 style="fill:#daa520;fill-opacity:1;stroke-width:0.261578"
                 id="rect9537"
                 width="14.451323"
                 height="2.5293324"
                 x="164.67226"
                 y="-87.540321" />
            </g>
            <g
               id="g9545"
               transform="translate(14.484875,25.810562)">
              <rect
                 style="fill:#a4cef8;fill-opacity:1;stroke-width:0.262249"
                 id="rect9541"
                 width="14.453328"
                 height="8.0938635"
                 x="164.67226"
                 y="-90.322586" />
              <rect
                 style="fill:#1c86ee;fill-opacity:1;stroke-width:0.261578"
                 id="rect9543"
                 width="14.451323"
                 height="2.5293324"
                 x="164.67226"
                 y="-87.540321" />
            </g>
          </g>
          <text
             xml:space="preserve"
             style="font-style:normal;font-weight:normal;font-size:8.46667px;line-height:1.25;font-family:sans-serif;fill:#000000;fill-opacity:1;stroke:none;stroke-width:0.264583"
             x="203.62563"
             y="-56.675369"
             id="text44349"><tspan
               sodipodi:role="line"
               id="tspan44347"
               style="font-size:8.46667px;stroke-width:0.264583"
               x="203.62563"
               y="-56.675369">1500</tspan></text>
          <text
             xml:space="preserve"
             style="font-style:normal;font-weight:normal;font-size:8.46667px;line-height:1.25;font-family:sans-serif;fill:#000000;fill-opacity:1;stroke:none;stroke-width:0.264583"
             x="203.60287"
             y="-66.924843"
             id="text44353"><tspan
               sodipodi:role="line"
               id="tspan44351"
               style="font-size:8.46667px;stroke-width:0.264583"
               x="203.60287"
               y="-66.924843">1000</tspan></text>
          <text
             xml:space="preserve"
             style="font-style:normal;font-weight:normal;font-size:8.46667px;line-height:1.25;font-family:sans-serif;fill:#000000;fill-opacity:1;stroke:none;stroke-width:0.264583"
             x="203.576"
             y="-77.235138"
             id="text39006"><tspan
               sodipodi:role="line"
               id="tspan39004"
               style="font-size:8.46667px;stroke-width:0.264583"
               x="203.576"
               y="-77.235138">500</tspan></text>
        </g>
      </g>
    </g>
    <text
       xml:space="preserve"
       style="font-style:normal;font-weight:normal;font-size:10.5833px;line-height:1.25;font-family:sans-serif;fill:#000000;fill-opacity:1;stroke:none;stroke-width:0.264583"
       x="715.81042"
       y="-100.5584"
       id="text47815"><tspan
         sodipodi:role="line"
         id="tspan47813"
         style="stroke-width:0.264583"
         x="715.81042"
         y="-100.5584" /></text>
  </g>
</svg>
