<?xml version="1.0" encoding="UTF-8" standalone="no"?>
<!-- Created with Inkscape (http://www.inkscape.org/) -->

<svg
   width="384.10092mm"
   height="457.63702mm"
   viewBox="0 0 384.10092 457.63701"
   version="1.1"
   id="svg55997"
   sodipodi:docname="CMD_refXanom_partialeffects2.svg"
   inkscape:version="1.1 (c68e22c387, 2021-05-23)"
   inkscape:export-filename="C:\Users\DanielPerret\Box\01. daniel.perret Workspace\PROJECTS\spruce-fir-demography\figures\CMD_refXanom_partialeffects2.png"
   inkscape:export-xdpi="200"
   inkscape:export-ydpi="200"
   xmlns:inkscape="http://www.inkscape.org/namespaces/inkscape"
   xmlns:sodipodi="http://sodipodi.sourceforge.net/DTD/sodipodi-0.dtd"
   xmlns="http://www.w3.org/2000/svg"
   xmlns:svg="http://www.w3.org/2000/svg">
  <sodipodi:namedview
     id="namedview55999"
     pagecolor="#ffffff"
     bordercolor="#666666"
     borderopacity="1.0"
     inkscape:pageshadow="2"
     inkscape:pageopacity="0.0"
     inkscape:pagecheckerboard="0"
     inkscape:document-units="mm"
     showgrid="false"
     inkscape:zoom="0.25"
     inkscape:cx="402"
     inkscape:cy="814"
     inkscape:window-width="1920"
     inkscape:window-height="1017"
     inkscape:window-x="-8"
     inkscape:window-y="-8"
     inkscape:window-maximized="1"
     inkscape:current-layer="layer1" />
  <defs
     id="defs55994">
    <clipPath
       clipPathUnits="userSpaceOnUse"
       id="clipPath56080">
      <path
         d="M 52.516,5.48 H 424.602 V 332.835 H 52.516 Z"
         id="path56078" />
    </clipPath>
    <clipPath
       clipPathUnits="userSpaceOnUse"
       id="clipPath56239">
      <path
         d="M 45.398,5.48 H 424.605 V 332.835 H 45.398 Z"
         id="path56237" />
    </clipPath>
    <clipPath
       clipPathUnits="userSpaceOnUse"
       id="clipPath56404">
      <path
         d="M 45.398,5.48 H 424.605 V 332.835 H 45.398 Z"
         id="path56402" />
    </clipPath>
    <clipPath
       clipPathUnits="userSpaceOnUse"
       id="clipPath56563">
      <path
         d="M 52.516,5.48 H 424.602 V 332.835 H 52.516 Z"
         id="path56561" />
    </clipPath>
    <clipPath
       clipPathUnits="userSpaceOnUse"
       id="clipPath56728">
      <path
         d="M 45.398,5.48 H 424.605 V 332.835 H 45.398 Z"
         id="path56726" />
    </clipPath>
    <clipPath
       clipPathUnits="userSpaceOnUse"
       id="clipPath56893">
      <path
         d="M 45.398,5.48 H 424.605 V 332.835 H 45.398 Z"
         id="path56891" />
    </clipPath>
    <clipPath
       clipPathUnits="userSpaceOnUse"
       id="clipPath1530">
      <path
         d="M 45.398,5.48 H 422.605 V 305.835 H 45.398 Z"
         id="path1528" />
    </clipPath>
    <clipPath
       clipPathUnits="userSpaceOnUse"
       id="clipPath1188">
      <path
         d="M 45.398,5.48 H 422.605 V 305.835 H 45.398 Z"
         id="path1186" />
    </clipPath>
    <clipPath
       clipPathUnits="userSpaceOnUse"
       id="clipPath846">
      <path
         d="M 45.398,5.48 H 422.605 V 305.835 H 45.398 Z"
         id="path844" />
    </clipPath>
    <clipPath
       clipPathUnits="userSpaceOnUse"
       id="clipPath1713">
      <path
         d="M 45.398,5.48 H 422.605 V 305.835 H 45.398 Z"
         id="path1711" />
    </clipPath>
    <clipPath
       clipPathUnits="userSpaceOnUse"
       id="clipPath1359">
      <path
         d="M 52.516,5.48 H 422.602 V 305.835 H 52.516 Z"
         id="path1357" />
    </clipPath>
    <clipPath
       clipPathUnits="userSpaceOnUse"
       id="clipPath1017">
      <path
         d="M 45.398,5.48 H 422.605 V 305.835 H 45.398 Z"
         id="path1015" />
    </clipPath>
    <clipPath
       clipPathUnits="userSpaceOnUse"
       id="clipPath1096">
      <path
         d="M 52.516,5.48 H 351.602 V 270.835 H 52.516 Z"
         id="path1094" />
    </clipPath>
    <clipPath
       clipPathUnits="userSpaceOnUse"
       id="clipPath1261">
      <path
         d="M 45.398,5.48 H 351.605 V 270.835 H 45.398 Z"
         id="path1259" />
    </clipPath>
    <clipPath
       clipPathUnits="userSpaceOnUse"
       id="clipPath1426">
      <path
         d="M 45.398,5.48 H 393.605 V 270.835 H 45.398 Z"
         id="path1424" />
    </clipPath>
    <clipPath
       clipPathUnits="userSpaceOnUse"
       id="clipPath1585">
      <path
         d="M 45.398,5.48 H 393.605 V 270.835 H 45.398 Z"
         id="path1583" />
    </clipPath>
    <clipPath
       clipPathUnits="userSpaceOnUse"
       id="clipPath1750">
      <path
         d="M 45.398,5.48 H 393.605 V 270.835 H 45.398 Z"
         id="path1748" />
    </clipPath>
    <clipPath
       clipPathUnits="userSpaceOnUse"
       id="clipPath1903">
      <path
         d="M 52.516,5.48 H 393.602 V 270.835 H 52.516 Z"
         id="path1901" />
    </clipPath>
  </defs>
  <g
     inkscape:label="Layer 1"
     inkscape:groupmode="layer"
     id="layer1"
     transform="translate(-440.07306,146.82899)">
    <rect
       style="fill:#ffffff;stroke-width:0.470794"
       id="rect70428"
       width="384.10092"
       height="457.63702"
       x="440.07306"
       y="-146.82899"
       sodipodi:insensitive="true" />
    <text
       xml:space="preserve"
       style="font-style:normal;font-weight:normal;font-size:7.76111px;line-height:1.25;font-family:sans-serif;fill:#000000;fill-opacity:1;stroke:none;stroke-width:0.264583"
       x="-238.87729"
       y="477.37271"
       id="text12888"
       transform="rotate(-90)"><tspan
         sodipodi:role="line"
         id="tspan12886"
         style="font-size:7.76111px;stroke-width:0.264583"
         x="-238.87729"
         y="477.37271">P(sapling recruits)</tspan></text>
    <text
       xml:space="preserve"
       style="font-style:normal;font-weight:normal;font-size:7.76111px;line-height:1.25;font-family:sans-serif;fill:#000000;fill-opacity:1;stroke:none;stroke-width:0.264583"
       x="504.34064"
       y="280.10309"
       id="text4998"><tspan
         sodipodi:role="line"
         id="tspan4996"
         style="font-size:7.76111px;stroke-width:0.264583"
         x="504.34064"
         y="280.10309">CMD max anomaly (z-score)</tspan></text>
    <text
       xml:space="preserve"
       style="font-style:normal;font-weight:normal;font-size:7.76111px;line-height:1.25;font-family:sans-serif;fill:#000000;fill-opacity:1;stroke:none;stroke-width:0.264583"
       x="672.53699"
       y="280.10309"
       id="text15528"><tspan
         sodipodi:role="line"
         id="tspan15526"
         style="font-size:7.76111px;stroke-width:0.264583"
         x="672.53699"
         y="280.10309">CMD max anomaly (z-score)</tspan></text>
    <text
       xml:space="preserve"
       style="font-style:normal;font-weight:normal;font-size:7.76111px;line-height:1.25;font-family:sans-serif;fill:#000000;fill-opacity:1;stroke:none;stroke-width:0.264583"
       x="-102.24844"
       y="477.37271"
       id="text10914"
       transform="rotate(-90)"><tspan
         sodipodi:role="line"
         id="tspan10912"
         style="font-size:7.76111px;stroke-width:0.264583"
         x="-102.24844"
         y="477.37271">P(seedlings)</tspan></text>
    <text
       xml:space="preserve"
       style="font-style:normal;font-weight:normal;font-size:7.76111px;line-height:1.25;font-family:sans-serif;fill:#000000;fill-opacity:1;stroke:none;stroke-width:0.264583"
       x="23.119638"
       y="477.39355"
       id="text5458"
       transform="rotate(-90)"><tspan
         sodipodi:role="line"
         id="tspan5456"
         style="font-size:7.76111px;stroke-width:0.264583"
         x="23.119638"
         y="477.39355">P(mortality)</tspan></text>
    <text
       xml:space="preserve"
       style="font-style:normal;font-weight:normal;font-size:10.5833px;line-height:1.25;font-family:sans-serif;fill:#000000;fill-opacity:1;stroke:none;stroke-width:0.264583"
       x="505.39764"
       y="-99.318947"
       id="text18574"><tspan
         sodipodi:role="line"
         id="tspan18572"
         style="stroke-width:0.264583"
         x="505.39764"
         y="-99.318947">a)</tspan></text>
    <text
       xml:space="preserve"
       style="font-style:normal;font-weight:normal;font-size:10.5833px;line-height:1.25;font-family:sans-serif;fill:#000000;fill-opacity:1;stroke:none;stroke-width:0.264583"
       x="505.81622"
       y="28.9571"
       id="text18578"><tspan
         sodipodi:role="line"
         id="tspan18576"
         style="stroke-width:0.264583"
         x="505.81622"
         y="28.9571">c)</tspan></text>
    <text
       xml:space="preserve"
       style="font-style:normal;font-weight:normal;font-size:10.5833px;line-height:1.25;font-family:sans-serif;fill:#000000;fill-opacity:1;stroke:none;stroke-width:0.264583"
       x="505.41833"
       y="160.39516"
       id="text18582"><tspan
         sodipodi:role="line"
         id="tspan18580"
         style="stroke-width:0.264583"
         x="505.41833"
         y="160.39516">e)</tspan></text>
    <text
       xml:space="preserve"
       style="font-style:normal;font-weight:normal;font-size:10.5833px;line-height:1.25;font-family:sans-serif;fill:#000000;fill-opacity:1;stroke:none;stroke-width:0.264583"
       x="663.85266"
       y="-99.318947"
       id="text18586"><tspan
         sodipodi:role="line"
         id="tspan18584"
         style="stroke-width:0.264583"
         x="663.85266"
         y="-99.318947">b)</tspan></text>
    <text
       xml:space="preserve"
       style="font-style:normal;font-weight:normal;font-size:10.5833px;line-height:1.25;font-family:sans-serif;fill:#000000;fill-opacity:1;stroke:none;stroke-width:0.264583"
       x="664.05164"
       y="28.9571"
       id="text18590"><tspan
         sodipodi:role="line"
         id="tspan18588"
         style="stroke-width:0.264583"
         x="664.05164"
         y="28.9571">d)</tspan></text>
    <text
       xml:space="preserve"
       style="font-style:normal;font-weight:normal;font-size:10.5833px;line-height:1.25;font-family:sans-serif;fill:#000000;fill-opacity:1;stroke:none;stroke-width:0.264583"
       x="665.33319"
       y="160.42101"
       id="text18594"><tspan
         sodipodi:role="line"
         id="tspan18592"
         style="stroke-width:0.264583"
         x="665.33319"
         y="160.42101">f)</tspan></text>
    <text
       xml:space="preserve"
       style="font-style:normal;font-weight:normal;font-size:10.5833px;line-height:1.25;font-family:sans-serif;fill:#000000;fill-opacity:1;stroke:none;stroke-width:0.264583"
       x="523.24585"
       y="-121.97144"
       id="text6807"><tspan
         sodipodi:role="line"
         id="tspan6805"
         style="stroke-width:0.264583"
         x="523.24585"
         y="-121.97144">Subalpine fir</tspan></text>
    <text
       xml:space="preserve"
       style="font-style:normal;font-weight:normal;font-size:10.5833px;line-height:1.25;font-family:sans-serif;fill:#000000;fill-opacity:1;stroke:none;stroke-width:0.264583"
       x="669.33508"
       y="-121.99984"
       id="text7471"><tspan
         sodipodi:role="line"
         id="tspan7469"
         style="stroke-width:0.264583"
         x="669.33508"
         y="-121.99984">Engelmann spruce</tspan></text>
    <text
       xml:space="preserve"
       style="font-style:normal;font-weight:normal;font-size:10.5833px;line-height:1.25;font-family:sans-serif;fill:#000000;fill-opacity:1;stroke:none;stroke-width:0.264583"
       x="715.81042"
       y="-100.5584"
       id="text47815"><tspan
         sodipodi:role="line"
         id="tspan47813"
         style="stroke-width:0.264583"
         x="715.81042"
         y="-100.5584" /></text>
    <g
       id="g1080"
       inkscape:label="pien_cmdXanoms_saps2"
       transform="matrix(0.4146212,0,0,0.35277777,638.65224,163.54364)">
      <g
         id="g1082" />
      <g
         id="g1090">
        <g
           id="g1092"
           clip-path="url(#clipPath1096)">
          <path
             d="M 52.516,5.477 H 351.602 V 270.832 H 52.516 Z"
             style="fill:#ffffff;fill-opacity:1;fill-rule:nonzero;stroke:none"
             id="path1098" />
          <path
             d="m 66.109,161.352 5.442,4.535 5.437,4.472 5.438,4.371 5.437,4.227 5.438,4.109 5.437,4.043 5.438,3.723 5.437,3.5 5.438,3.418 5.441,3.063 5.438,3.023 5.437,2.664 5.438,2.551 5.437,2.465 5.438,2.242 5.437,2.094 5.438,1.929 5.437,1.821 5.442,1.601 5.437,1.477 5.438,1.297 5.437,1.211 5.438,1.152 5.437,0.918 5.438,0.863 5.437,0.781 5.438,0.766 5.441,0.66 5.438,0.652 5.437,0.579 5.438,0.504 5.437,0.437 5.438,0.477 5.437,0.394 5.438,0.359 5.437,0.415 5.441,0.347 5.438,0.301 5.437,0.344 5.438,0.32 5.437,0.313 5.438,0.32 5.437,0.265 5.438,0.235 5.437,0.238 5.442,0.281 5.437,0.231 5.438,0.242 5.437,0.215 5.438,0.191 v 20.348 l -5.438,-0.184 -5.437,-0.207 -5.438,-0.211 -5.437,-0.234 -5.442,-0.258 -5.437,-0.269 -5.438,-0.289 -5.437,-0.309 -5.438,-0.344 -5.437,-0.367 -5.438,-0.375 -5.437,-0.41 -5.438,-0.438 -5.441,-0.468 -5.437,-0.496 -5.438,-0.524 -5.437,-0.57 -5.438,-0.582 -5.437,-0.641 -5.438,-0.672 -5.437,-0.656 -5.438,-0.746 -5.441,-0.758 -5.438,-0.762 -5.437,-0.796 -5.438,-0.793 -5.437,-0.809 -5.438,-0.777 -5.437,-0.86 -5.438,-0.797 -5.437,-0.746 -5.442,-0.738 -5.437,-0.734 -5.438,-0.653 -5.437,-0.601 -5.438,-0.582 -5.437,-0.539 -5.438,-0.496 -5.437,-0.504 -5.438,-0.453 -5.441,-0.454 -5.438,-0.418 -5.437,-0.406 -5.438,-0.332 -5.437,-0.402 -5.438,-0.36 -5.437,-0.296 -5.438,-0.34 -5.437,-0.321 -5.442,-0.332 z"
             style="fill:#1c86ee;fill-opacity:0.4;fill-rule:nonzero;stroke:none"
             id="path1100" />
          <path
             d="m 66.109,229.531 5.442,-0.148 10.875,-0.297 5.437,-0.152 5.438,-0.18 5.437,-0.191 5.438,-0.208 5.437,-0.222 5.438,-0.246 5.441,-0.258 5.438,-0.254 5.437,-0.32 5.438,-0.317 5.437,-0.371 5.438,-0.398 5.437,-0.438 5.438,-0.476 5.437,-0.528 5.442,-0.589 5.437,-0.625 5.438,-0.668 5.437,-0.75 5.438,-0.782 5.437,-0.836 5.438,-0.953 5.437,-0.984 5.438,-1.039 5.441,-1.129 5.438,-1.211 5.437,-1.231 5.438,-1.308 5.437,-1.395 5.438,-1.441 5.437,-1.461 5.438,-1.582 5.437,-1.609 5.441,-1.645 5.438,-1.793 5.437,-1.762 5.438,-1.796 5.437,-1.844 5.438,-1.969 5.437,-1.996 5.438,-2.031 5.437,-2.106 5.442,-2.109 5.437,-2.227 5.438,-2.129 5.437,-2.25 5.438,-2.297 v 52.618 l -5.438,0.109 -5.437,0.113 -5.438,0.125 -5.437,0.118 -5.442,0.121 -5.437,0.121 -5.438,0.093 -5.437,0.133 -5.438,0.114 -5.437,0.148 -5.438,0.141 -10.875,0.328 -5.441,0.136 -5.437,0.153 -5.438,0.156 -5.437,0.207 -5.438,0.203 -10.875,0.461 -5.437,0.27 -5.438,0.277 -5.441,0.289 -5.438,0.348 -5.437,0.371 -5.438,0.41 -5.437,0.391 -5.438,0.464 -5.437,0.512 -5.438,0.531 -5.437,0.555 -5.442,0.582 -5.437,0.586 -5.438,0.621 -5.437,0.613 -5.438,0.629 -5.437,0.621 -5.438,0.633 -5.437,0.606 -5.438,0.609 -5.441,0.617 -5.438,0.617 -5.437,0.567 -5.438,0.57 -5.437,0.559 -5.438,0.535 -5.437,0.539 -5.438,0.52 -5.437,0.503 -5.442,0.481 z"
             style="fill:#daa520;fill-opacity:0.4;fill-rule:nonzero;stroke:none"
             id="path1102" />
          <path
             d="m 66.109,239.691 5.442,-0.863 5.437,-0.863 5.438,-0.981 5.437,-1.039 5.438,-1.05 5.437,-1.098 5.438,-1.152 5.437,-1.196 5.438,-1.289 5.441,-1.332 5.438,-1.515 5.437,-1.661 5.438,-1.793 5.437,-1.914 5.438,-2.121 5.437,-2.32 5.438,-2.496 5.437,-2.797 5.442,-3.082 5.437,-3.332 5.438,-3.824 5.437,-4.051 5.438,-4.543 5.437,-4.926 5.438,-5.281 5.437,-5.871 5.438,-6.391 5.441,-6.976 5.438,-7.036 5.437,-7.554 5.438,-8.008 5.437,-7.867 5.438,-8.149 5.437,-8.277 5.438,-8.059 5.437,-8.136 5.441,-8.094 5.438,-8.063 5.437,-7.687 5.438,-7.266 5.437,-6.972 5.438,-6.653 5.437,-6.34 5.438,-5.894 5.437,-5.332 5.442,-5.125 5.437,-4.617 5.438,-4.121 5.437,-3.805 5.438,-3.34 v 162.066 l -5.438,2.34 -5.437,2.246 -5.438,2.207 -5.437,2.293 -5.442,2.161 -5.437,2.187 -5.438,2.09 -5.437,2.035 -5.438,2.012 -5.437,1.976 -5.438,1.996 -5.437,1.946 -5.438,2.008 -5.441,2.019 -5.437,2.043 -5.438,1.93 -5.437,1.933 -5.438,1.977 -5.437,1.859 -5.438,1.973 -5.437,1.965 -5.438,1.961 -5.441,1.879 -5.438,1.925 -5.437,1.954 -5.438,2.125 -5.437,1.996 -5.438,1.937 -5.437,1.902 -5.438,1.805 -5.437,1.817 -5.442,1.757 -5.437,1.586 -5.438,1.52 -5.437,1.394 -5.438,1.309 -5.437,1.168 -5.438,1.062 -5.437,0.997 -5.438,0.878 -5.441,0.797 -5.438,0.723 -5.437,0.637 -5.438,0.566 -5.437,0.508 -5.438,0.449 -5.437,0.387 -5.438,0.351 -5.437,0.309 -5.442,0.273 z"
             style="fill:#ee2c2c;fill-opacity:0.4;fill-rule:nonzero;stroke:none"
             id="path1104" />
          <path
             d="m 66.109,205.449 5.442,1.864 5.437,1.765 5.438,1.719 5.437,1.68 5.438,1.601 10.875,3.18 5.437,1.492 5.438,1.457 5.441,1.43 5.438,1.383 5.437,1.351 5.438,1.317 5.437,1.281 5.438,1.203 5.437,1.176 5.438,1.164 5.437,1.109 5.442,1.078 5.437,1.039 5.438,1 5.437,0.961 5.438,0.922 5.437,0.899 5.438,0.851 5.437,0.828 5.438,0.789 5.441,0.774 5.438,0.754 5.437,0.726 5.438,0.715 5.437,0.672 5.438,0.648 5.437,0.618 5.438,0.609 5.437,0.582 5.441,0.566 5.438,0.543 5.437,0.532 5.438,0.503 5.437,0.477 5.438,0.469 5.437,0.449 5.438,0.434 5.437,0.418 5.442,0.406 5.437,0.387 5.438,0.367 5.437,0.359 5.438,0.348"
             style="fill:none;stroke:#1c86ee;stroke-width:4.26791;stroke-linecap:butt;stroke-linejoin:round;stroke-miterlimit:10;stroke-dasharray:none;stroke-opacity:1"
             id="path1106" />
          <path
             d="m 66.109,240.18 5.442,-0.418 5.437,-0.434 5.438,-0.437 5.437,-0.45 10.875,-0.921 5.438,-0.481 5.437,-0.476 5.438,-0.485 5.441,-0.496 16.313,-1.535 10.875,-1.086 5.437,-0.555 5.438,-0.566 5.437,-0.57 5.442,-0.586 5.437,-0.59 5.438,-0.602 10.875,-1.25 5.437,-0.648 5.438,-0.656 5.437,-0.665 5.438,-0.679 5.441,-0.684 5.438,-0.691 5.437,-0.719 5.438,-0.734 5.437,-0.723 5.438,-0.754 5.437,-0.746 5.438,-0.781 5.437,-0.793 5.441,-0.805 5.438,-0.801 5.437,-0.824 5.438,-0.84 5.437,-0.855 5.438,-0.844 5.437,-0.859 5.438,-0.868 5.437,-0.894 5.442,-0.91 5.437,-0.914 5.438,-0.95 5.437,-0.96 5.438,-0.946"
             style="fill:none;stroke:#daa520;stroke-width:4.26791;stroke-linecap:butt;stroke-linejoin:round;stroke-miterlimit:10;stroke-dasharray:none;stroke-opacity:1"
             id="path1108" />
          <path
             d="m 66.109,253.738 5.442,-0.617 5.437,-0.668 5.438,-0.711 5.437,-0.785 5.438,-0.836 5.437,-0.914 5.438,-0.988 5.437,-1.059 5.438,-1.148 5.441,-1.254 5.438,-1.336 5.437,-1.445 5.438,-1.555 5.437,-1.688 5.438,-1.82 5.437,-1.945 5.438,-2.067 5.437,-2.23 5.442,-2.34 5.437,-2.527 5.438,-2.68 5.437,-2.852 5.438,-2.984 5.437,-3.207 5.438,-3.422 5.437,-3.609 5.438,-3.805 5.441,-4.055 5.438,-4.191 5.437,-4.426 5.438,-4.636 5.437,-4.833 5.438,-4.937 5.437,-5.121 5.438,-5.242 5.437,-5.407 5.441,-5.5 5.438,-5.585 5.437,-5.649 5.438,-5.699 5.437,-5.867 5.438,-5.774 5.437,-5.82 5.438,-5.774 5.437,-5.695 5.442,-5.695 5.437,-5.625 5.438,-5.559 5.437,-5.39 5.438,-5.246"
             style="fill:none;stroke:#ee2c2c;stroke-width:4.26791;stroke-linecap:butt;stroke-linejoin:round;stroke-miterlimit:10;stroke-dasharray:none;stroke-opacity:1"
             id="path1110" />
          <path
             d="M 52.516,5.477 H 351.602 V 270.832 H 52.516 Z"
             style="fill:none;stroke:#333333;stroke-width:3.20093;stroke-linecap:round;stroke-linejoin:round;stroke-miterlimit:10;stroke-dasharray:none;stroke-opacity:1"
             id="path1112" />
        </g>
      </g>
      <g
         id="g1114">
        <text
           transform="translate(22.671875,265.27344)"
           style="font-variant:normal;font-weight:normal;font-size:12.8px;font-family:Arial;-inkscape-font-specification:ArialMT;writing-mode:lr-tb;fill:#4d4d4d;fill-opacity:1;fill-rule:nonzero;stroke:none"
           id="text1124"><tspan
             x="0 7.1167998 10.6624 17.7792"
             y="0"
             sodipodi:role="line"
             id="tspan1116">0.00</tspan><tspan
             x="0 7.1167998 10.6624 17.7792"
             y="-67.359375"
             sodipodi:role="line"
             id="tspan1118">0.25</tspan><tspan
             x="0 7.1167998 10.6624 17.7792"
             y="-134.71875"
             sodipodi:role="line"
             id="tspan1120">0.50</tspan><tspan
             x="0 7.1167998 10.6624 17.7792"
             y="-202.07812"
             sodipodi:role="line"
             id="tspan1122">0.75</tspan></text>
        <path
           d="m 49.777,260.691 h 2.739"
           style="fill:none;stroke:#333333;stroke-width:1.06698;stroke-linecap:butt;stroke-linejoin:round;stroke-miterlimit:10;stroke-dasharray:none;stroke-opacity:1"
           id="path1126" />
        <path
           d="m 49.777,193.332 h 2.739"
           style="fill:none;stroke:#333333;stroke-width:1.06698;stroke-linecap:butt;stroke-linejoin:round;stroke-miterlimit:10;stroke-dasharray:none;stroke-opacity:1"
           id="path1128" />
        <path
           d="m 49.777,125.973 h 2.739"
           style="fill:none;stroke:#333333;stroke-width:1.06698;stroke-linecap:butt;stroke-linejoin:round;stroke-miterlimit:10;stroke-dasharray:none;stroke-opacity:1"
           id="path1130" />
        <path
           d="m 49.777,58.613 h 2.739"
           style="fill:none;stroke:#333333;stroke-width:1.06698;stroke-linecap:butt;stroke-linejoin:round;stroke-miterlimit:10;stroke-dasharray:none;stroke-opacity:1"
           id="path1132" />
        <path
           d="m 120.492,273.574 v -2.742"
           style="fill:none;stroke:#333333;stroke-width:1.06698;stroke-linecap:butt;stroke-linejoin:round;stroke-miterlimit:10;stroke-dasharray:none;stroke-opacity:1"
           id="path1134" />
        <path
           d="m 229.25,273.574 v -2.742"
           style="fill:none;stroke:#333333;stroke-width:1.06698;stroke-linecap:butt;stroke-linejoin:round;stroke-miterlimit:10;stroke-dasharray:none;stroke-opacity:1"
           id="path1136" />
        <path
           d="m 338.008,273.574 v -2.742"
           style="fill:none;stroke:#333333;stroke-width:1.06698;stroke-linecap:butt;stroke-linejoin:round;stroke-miterlimit:10;stroke-dasharray:none;stroke-opacity:1"
           id="path1138" />
        <text
           transform="translate(116.93359,284.92578)"
           style="font-variant:normal;font-weight:normal;font-size:12.8px;font-family:Arial;-inkscape-font-specification:ArialMT;writing-mode:lr-tb;fill:#4d4d4d;fill-opacity:1;fill-rule:nonzero;stroke:none"
           id="text1142"><tspan
             x="0 108.7616 217.51562"
             y="0"
             sodipodi:role="line"
             id="tspan1140">123</tspan></text>
      </g>
    </g>
    <g
       id="g1245"
       inkscape:label="abla_cmdXanoms_saps2"
       transform="matrix(0.40428645,0,0,0.35277777,477.96136,163.54364)">
      <g
         id="g1247" />
      <g
         id="g1255">
        <g
           id="g1257"
           clip-path="url(#clipPath1261)">
          <path
             d="M 45.398,5.477 H 351.605 V 270.832 H 45.398 Z"
             style="fill:#ffffff;fill-opacity:1;fill-rule:nonzero;stroke:none"
             id="path1263" />
          <path
             d="m 59.316,129.234 5.567,1.457 5.566,1.375 5.571,1.325 5.566,1.211 5.566,1.316 5.567,1.18 5.57,1.379 5.566,1.105 5.567,0.883 5.566,0.973 5.571,0.804 5.566,0.988 5.566,0.805 5.567,0.906 5.57,0.696 5.567,0.597 5.566,0.418 5.566,0.407 5.571,0.152 5.566,0.023 5.566,-0.101 5.567,-0.383 5.57,-0.414 5.567,-0.703 5.566,-0.918 5.566,-1.141 5.571,-1.363 5.566,-1.566 5.567,-1.844 5.566,-2.028 5.57,-2.121 5.567,-2.332 5.566,-2.519 5.566,-2.61 5.567,-2.949 5.57,-2.976 5.567,-3.133 5.566,-3.145 5.566,-3.293 5.571,-3.269 5.566,-3.5 5.567,-3.594 5.566,-3.473 5.57,-3.664 5.567,-3.746 5.566,-3.801 5.566,-3.793 5.571,-3.808 5.566,-4.012 5.567,-4.094 v 147.774 l -5.567,-1.043 -5.566,-0.957 -5.571,-0.942 -5.566,-0.996 -5.566,-1.004 -5.567,-0.972 -5.57,-0.86 -5.566,-0.921 -5.567,-0.825 -5.566,-0.894 -5.571,-0.746 -5.566,-0.77 -5.566,-0.859 -5.567,-0.621 -5.57,-0.563 -5.567,-0.558 -5.566,-0.563 -5.566,-0.316 -5.567,-0.27 -5.57,0.113 -5.566,0.141 -5.567,0.203 -5.566,0.465 -5.571,0.711 -5.566,0.734 -5.566,1.094 -5.567,0.977 -5.57,1.257 -5.567,1.399 -5.566,1.582 -5.566,1.785 -5.571,1.746 -5.566,1.922 -5.566,1.895 -5.567,1.925 -5.57,1.914 -5.567,2.02 -5.566,2.008 -5.566,2.082 -5.571,2.078 -5.566,2.008 -5.567,2.043 -5.566,2.078 -5.57,2.078 -5.567,2.035 -5.566,2 -5.566,2.016 -5.571,1.945 -5.566,1.863 -5.567,1.938 z"
             style="fill:#1c86ee;fill-opacity:0.4;fill-rule:nonzero;stroke:none"
             id="path1265" />
          <path
             d="m 59.316,124.762 5.567,1.597 5.566,1.563 5.571,1.379 5.566,1.394 5.566,1.375 5.567,1.243 5.57,1.214 5.566,1.227 5.567,1.168 5.566,1.074 5.571,0.973 5.566,0.996 5.566,0.914 5.567,0.793 5.57,0.644 5.567,0.504 5.566,0.336 5.566,0.211 5.571,0.09 5.566,-0.051 5.566,-0.234 5.567,-0.453 5.57,-0.449 5.567,-0.704 5.566,-0.836 5.566,-0.839 5.571,-1.008 5.566,-1.153 5.567,-1.171 5.566,-1.176 5.57,-1.375 5.567,-1.36 5.566,-1.585 5.566,-1.473 5.567,-1.449 5.57,-1.594 5.567,-1.629 5.566,-1.563 5.566,-1.757 5.571,-1.809 5.566,-1.711 5.567,-1.894 5.566,-1.821 5.57,-1.797 5.567,-1.804 5.566,-1.926 5.566,-1.902 5.571,-1.793 5.566,-1.961 5.567,-1.809 v 109.285 l -5.567,-1.215 -5.566,-1.199 -5.571,-1.16 -5.566,-1.223 -5.566,-1.211 -5.567,-1.238 -5.57,-1.183 -5.566,-1.141 -5.567,-1.191 -5.566,-1.133 -5.571,-1.16 -5.566,-1.223 -5.566,-1.219 -5.567,-1.211 -5.57,-1.144 -5.567,-1.168 -5.566,-1.149 -5.566,-1.144 -5.567,-1.035 -5.57,-0.864 -5.566,-1.004 -5.567,-0.859 -5.566,-0.805 -5.571,-0.722 -5.566,-0.668 -5.566,-0.504 -5.567,-0.406 -5.57,-0.293 -5.567,-0.168 -5.566,0.031 -5.566,0.086 -5.571,0.254 -5.566,0.457 -5.566,0.523 -5.567,0.488 -5.57,0.7 -5.567,0.851 -5.566,0.891 -5.566,0.969 -5.571,1.074 -5.566,1.043 -5.567,1.137 -5.566,1.125 -5.57,1.238 -5.567,1.199 -5.566,1.211 -5.566,1.227 -5.571,1.281 -5.566,1.281 -5.567,1.238 z"
             style="fill:#daa520;fill-opacity:0.4;fill-rule:nonzero;stroke:none"
             id="path1267" />
          <path
             d="m 59.316,17.539 5.567,4.945 5.566,4.821 5.571,4.933 5.566,4.649 5.566,4.914 5.567,4.648 5.57,4.641 5.566,4.168 5.567,4.367 5.566,4.438 5.571,4.054 5.566,3.84 5.566,3.504 5.567,3.363 5.57,3.125 5.567,2.942 5.566,2.476 5.566,2.465 5.571,1.816 5.566,1.559 5.566,1.481 5.567,0.546 5.57,0.403 5.567,-0.157 5.566,-0.316 5.566,-0.695 5.571,-1.004 5.566,-1.25 5.567,-1.363 5.566,-1.723 5.57,-1.938 5.567,-2.203 5.566,-2.269 5.566,-2.395 5.567,-2.554 5.57,-2.438 5.567,-2.652 5.566,-2.418 5.566,-2.774 5.571,-2.906 5.566,-3.125 5.567,-3.105 5.566,-3.125 5.57,-3.079 5.567,-3.113 5.566,-3.074 5.566,-3.398 5.571,-3.165 5.566,-3.296 5.567,-3.219 v 225.89 l -5.567,-2.39 -5.566,-2.254 -5.571,-2.566 -5.566,-2.504 -5.566,-2.469 -5.567,-2.582 -5.57,-2.727 -5.566,-2.804 -5.567,-2.844 -5.566,-2.61 -5.571,-2.933 -5.566,-2.93 -5.566,-2.894 -5.567,-2.864 -5.57,-2.937 -5.567,-3.004 -5.566,-2.789 -5.566,-2.824 -5.567,-2.957 -5.57,-2.516 -5.566,-2.613 -5.567,-2.356 -5.566,-2.484 -5.571,-2.008 -5.566,-2.012 -5.566,-1.699 -5.567,-1.512 -5.57,-0.945 -5.567,-0.871 -5.566,-0.562 -5.566,-0.145 -5.571,-0.059 -5.566,0.207 -5.566,0.711 -5.567,0.598 -5.57,0.879 -5.567,1.234 -5.566,1.528 -5.566,1.32 -5.571,1.516 -5.566,1.593 -5.567,1.68 -5.566,1.648 -5.57,1.801 -5.567,1.828 -5.566,1.891 -5.566,1.883 -5.571,1.922 -5.566,2.05 -5.567,2.11 z"
             style="fill:#ee2c2c;fill-opacity:0.4;fill-rule:nonzero;stroke:none"
             id="path1269" />
          <path
             d="m 59.316,199.082 5.567,-0.82 5.566,-0.926 5.571,-0.879 5.566,-0.82 5.566,-0.883 5.567,-0.836 5.57,-0.867 5.566,-0.856 5.567,-0.945 5.566,-0.855 5.571,-0.954 5.566,-0.894 5.566,-0.938 5.567,-0.914 5.57,-0.879 5.567,-0.867 5.566,-0.937 5.566,-0.907 5.571,-0.875 5.566,-0.937 5.566,-0.914 5.567,-0.895 5.57,-0.945 5.567,-0.965 5.566,-0.894 5.566,-0.985 5.571,-0.953 5.566,-0.957 5.567,-1.023 5.566,-0.957 5.57,-0.981 5.567,-1.027 11.132,-2.031 5.567,-0.989 5.57,-1.015 5.567,-1.106 5.566,-1.004 5.566,-1.07 5.571,-1.012 5.566,-1.066 5.567,-1.059 5.566,-1.015 5.57,-1.094 5.567,-1.117 5.566,-1.039 5.566,-1.082 5.571,-1.039 5.566,-1.043 5.567,-1.071"
             style="fill:none;stroke:#1c86ee;stroke-width:4.26791;stroke-linecap:butt;stroke-linejoin:round;stroke-miterlimit:10;stroke-dasharray:none;stroke-opacity:1"
             id="path1271" />
          <path
             d="m 59.316,164.766 5.567,-0.09 5.566,-0.11 5.571,-0.105 5.566,-0.078 5.566,-0.106 5.567,-0.074 5.57,-0.121 5.566,-0.121 5.567,-0.102 5.566,-0.113 5.571,-0.094 5.566,-0.105 5.566,-0.074 5.567,-0.106 5.57,-0.07 5.567,-0.117 5.566,-0.071 5.566,-0.097 5.571,-0.102 5.566,-0.097 5.566,-0.071 5.567,-0.09 5.57,-0.074 5.567,-0.109 5.566,-0.086 5.566,-0.074 5.571,-0.071 5.566,-0.093 5.567,-0.114 5.566,-0.121 5.57,-0.121 5.567,-0.094 5.566,-0.078 5.566,-0.113 5.567,-0.078 5.57,-0.063 5.567,-0.113 11.132,-0.187 5.571,-0.055 5.566,-0.102 5.567,-0.097 5.566,-0.133 5.57,-0.102 5.567,-0.054 5.566,-0.098 5.566,-0.121 5.571,-0.106 5.566,-0.109 5.567,-0.047"
             style="fill:none;stroke:#daa520;stroke-width:4.26791;stroke-linecap:butt;stroke-linejoin:round;stroke-miterlimit:10;stroke-dasharray:none;stroke-opacity:1"
             id="path1273" />
          <path
             d="m 59.316,124.859 5.567,0.875 5.566,0.864 5.571,0.875 5.566,0.851 5.566,0.969 5.567,0.922 5.57,0.875 5.566,0.926 5.567,0.933 5.566,0.824 5.571,0.973 5.566,0.902 5.566,1.012 5.567,0.828 5.57,0.922 5.567,0.922 5.566,0.828 5.566,0.91 5.571,0.907 5.566,0.945 5.566,0.91 5.567,0.996 5.57,0.914 5.567,0.832 5.566,0.86 5.566,0.836 5.571,0.89 5.566,0.797 5.567,0.773 5.566,0.848 5.57,0.875 5.567,0.899 5.566,0.871 5.566,0.804 5.567,0.75 5.57,0.887 5.567,0.93 5.566,0.801 5.566,0.847 5.571,0.742 5.566,0.817 5.567,0.863 5.566,0.875 5.57,0.809 5.567,0.847 5.566,0.789 5.566,0.84 5.571,0.836 5.566,0.809 5.567,0.812"
             style="fill:none;stroke:#ee2c2c;stroke-width:4.26791;stroke-linecap:butt;stroke-linejoin:round;stroke-miterlimit:10;stroke-dasharray:none;stroke-opacity:1"
             id="path1275" />
          <path
             d="M 45.398,5.477 H 351.605 V 270.832 H 45.398 Z"
             style="fill:none;stroke:#333333;stroke-width:3.20093;stroke-linecap:round;stroke-linejoin:round;stroke-miterlimit:10;stroke-dasharray:none;stroke-opacity:1"
             id="path1277" />
        </g>
      </g>
      <g
         id="g1279">
        <text
           transform="translate(22.671875,220.03125)"
           style="font-variant:normal;font-weight:normal;font-size:12.8px;font-family:Arial;-inkscape-font-specification:ArialMT;writing-mode:lr-tb;fill:#4d4d4d;fill-opacity:1;fill-rule:nonzero;stroke:none"
           id="text1289"><tspan
             x="0 7.1167998 10.6624"
             y="0"
             sodipodi:role="line"
             id="tspan1281">0.2</tspan><tspan
             x="0 7.1167998 10.6624"
             y="-55.46875"
             sodipodi:role="line"
             id="tspan1283">0.3</tspan><tspan
             x="0 7.1167998 10.6624"
             y="-110.93359"
             sodipodi:role="line"
             id="tspan1285">0.4</tspan><tspan
             x="0 7.1167998 10.6624"
             y="-166.39844"
             sodipodi:role="line"
             id="tspan1287">0.5</tspan></text>
        <path
           d="m 42.656,215.449 h 2.742"
           style="fill:none;stroke:#333333;stroke-width:1.06698;stroke-linecap:butt;stroke-linejoin:round;stroke-miterlimit:10;stroke-dasharray:none;stroke-opacity:1"
           id="path1291" />
        <path
           d="m 42.656,159.984 h 2.742"
           style="fill:none;stroke:#333333;stroke-width:1.06698;stroke-linecap:butt;stroke-linejoin:round;stroke-miterlimit:10;stroke-dasharray:none;stroke-opacity:1"
           id="path1293" />
        <path
           d="m 42.656,104.52 h 2.742"
           style="fill:none;stroke:#333333;stroke-width:1.06698;stroke-linecap:butt;stroke-linejoin:round;stroke-miterlimit:10;stroke-dasharray:none;stroke-opacity:1"
           id="path1295" />
        <path
           d="m 42.656,49.051 h 2.742"
           style="fill:none;stroke:#333333;stroke-width:1.06698;stroke-linecap:butt;stroke-linejoin:round;stroke-miterlimit:10;stroke-dasharray:none;stroke-opacity:1"
           id="path1297" />
        <path
           d="m 114.988,273.574 v -2.742"
           style="fill:none;stroke:#333333;stroke-width:1.06698;stroke-linecap:butt;stroke-linejoin:round;stroke-miterlimit:10;stroke-dasharray:none;stroke-opacity:1"
           id="path1299" />
        <text
           transform="translate(111.42969,284.92578)"
           style="font-variant:normal;font-weight:normal;font-size:12.8px;font-family:Arial;-inkscape-font-specification:ArialMT;writing-mode:lr-tb;fill:#4d4d4d;fill-opacity:1;fill-rule:nonzero;stroke:none"
           id="text1307"><tspan
             x="0 111.3472 222.69531"
             y="0"
             sodipodi:role="line"
             id="tspan1305">123</tspan></text>
      </g>
    </g>
    <g
       id="g1410"
       inkscape:label="pien_cmdXanoms_seed2"
       transform="matrix(0.35277777,0,0,0.35277777,645.57879,30.521696)">
      <g
         id="g1412" />
      <g
         id="g1420">
        <g
           id="g1422"
           clip-path="url(#clipPath1426)">
          <path
             d="M 45.398,5.477 H 393.605 V 270.832 H 45.398 Z"
             style="fill:#ffffff;fill-opacity:1;fill-rule:nonzero;stroke:none"
             id="path1428" />
          <path
             d="m 61.227,115.766 6.328,2.324 6.332,2.281 6.332,2.207 6.332,2.438 6.328,2.269 6.332,2.285 6.332,2.227 6.332,2.316 6.328,2.246 6.332,2.243 6.332,2.011 6.328,2.246 6.332,2 6.332,2.016 6.332,2.082 6.329,1.852 6.332,1.812 6.332,1.742 6.332,1.66 6.328,1.547 6.332,1.391 6.332,1.344 6.332,1.265 6.328,1.09 6.332,0.969 6.332,0.848 6.332,0.718 6.328,0.551 6.332,0.602 6.332,0.425 6.328,0.29 6.332,0.292 6.332,0.321 6.332,0.105 6.329,-0.015 6.332,-0.075 6.332,-0.16 6.332,-0.105 6.328,-0.043 6.332,-0.141 6.332,-0.265 6.332,-0.176 6.328,-0.289 6.332,-0.418 6.332,-0.266 6.332,-0.422 6.328,-0.351 6.332,-0.383 6.332,-0.469 6.328,-0.273 v 94.843 l -6.328,-2.031 -6.332,-1.984 -6.332,-2.149 -6.328,-2.101 -6.332,-2.106 -6.332,-2.211 -6.332,-2.218 -6.328,-2.059 -6.332,-2.141 -6.332,-2.148 -6.332,-2.129 -6.328,-2.183 -6.332,-2.106 -6.332,-2.047 -6.332,-2.133 -6.329,-2.015 -6.332,-2.012 -6.332,-1.895 -6.332,-1.851 -6.328,-1.856 -6.332,-1.691 -6.332,-1.641 -6.328,-1.511 -6.332,-1.41 -6.332,-1.301 -6.332,-1.121 -6.328,-1.227 -6.332,-1.019 -6.332,-0.793 -6.332,-0.762 -6.328,-0.645 -6.332,-0.519 -6.332,-0.399 -6.332,-0.296 -6.329,-0.247 -6.332,-0.218 -6.332,-0.102 -6.332,-0.016 -6.328,-0.05 -6.332,0.062 -6.332,0.137 -6.328,0.144 -6.332,0.274 -6.332,0.308 -6.332,0.278 -6.328,0.297 -6.332,0.406 -6.332,0.316 -6.332,0.371 -6.328,0.301 z"
             style="fill:#1c86ee;fill-opacity:0.4;fill-rule:nonzero;stroke:none"
             id="path1430" />
          <path
             d="m 61.227,146.012 6.328,-0.039 6.332,-0.059 6.332,-0.078 6.332,-0.035 6.328,-0.078 6.332,-0.118 6.332,-0.156 6.332,-0.152 6.328,-0.277 6.332,-0.352 6.332,-0.285 6.328,-0.336 6.332,-0.402 6.332,-0.465 6.332,-0.539 6.329,-0.567 6.332,-0.742 6.332,-0.805 6.332,-0.851 6.328,-1.039 6.332,-1.067 6.332,-1.156 6.332,-1.367 6.328,-1.391 6.332,-1.422 6.332,-1.55 6.332,-1.625 6.328,-1.614 6.332,-1.691 6.332,-1.723 6.328,-1.816 6.332,-1.801 12.664,-3.695 6.329,-1.875 6.332,-1.746 6.332,-1.895 6.332,-1.89 6.328,-1.813 6.332,-1.801 6.332,-1.82 6.332,-1.801 6.328,-1.82 6.332,-1.895 6.332,-1.812 6.332,-1.778 6.328,-1.777 6.332,-1.699 6.332,-1.734 6.328,-1.731 v 71.117 l -6.328,-0.051 -6.332,0.004 -6.332,0.032 -6.328,0.043 -6.332,-0.059 -6.332,-0.035 -6.332,0.015 -6.328,0.008 -6.332,0.004 -6.332,-0.027 -6.332,0.07 -6.328,0.047 -12.664,0.039 -6.332,0.09 -6.329,0.164 -6.332,0.199 -6.332,0.156 -6.332,0.235 -6.328,0.277 -6.332,0.27 -6.332,0.32 -6.328,0.445 -6.332,0.399 -6.332,0.551 -6.332,0.589 -6.328,0.711 -6.332,0.774 -6.332,0.941 -6.332,1.043 -6.328,1.145 -6.332,1.238 -6.332,1.293 -6.332,1.398 -6.329,1.496 -6.332,1.622 -6.332,1.656 -6.332,1.726 -6.328,1.836 -6.332,1.848 -6.332,1.863 -6.328,1.926 -6.332,1.953 -6.332,1.883 -6.332,1.992 -6.328,1.981 -6.332,2 -6.332,2.039 -6.332,2.066 -6.328,2.09 z"
             style="fill:#daa520;fill-opacity:0.4;fill-rule:nonzero;stroke:none"
             id="path1432" />
          <path
             d="m 61.227,124.223 6.328,-0.754 6.332,-0.656 6.332,-0.821 6.332,-0.859 6.328,-0.883 6.332,-0.992 6.332,-0.918 6.332,-1.047 6.328,-1.105 6.332,-1.192 6.332,-1.262 6.328,-1.308 6.332,-1.367 6.332,-1.567 6.332,-1.722 6.329,-1.801 6.332,-1.871 6.332,-2.153 6.332,-2.293 6.328,-2.418 6.332,-2.64 6.332,-2.805 6.332,-2.926 6.328,-3.07 6.332,-3.152 6.332,-3.274 6.332,-3.289 6.328,-3.25 6.332,-3.328 6.332,-3.227 6.328,-3.164 6.332,-3.211 6.332,-3.156 6.332,-3.051 6.329,-2.992 6.332,-2.859 6.332,-2.774 6.332,-2.628 6.328,-2.649 6.332,-2.543 6.332,-2.418 6.332,-2.332 6.328,-2.238 6.332,-2.117 6.332,-1.977 6.332,-1.918 6.328,-1.808 6.332,-1.692 6.332,-1.652 6.328,-1.555 v 96.426 l -6.328,0.609 -6.332,0.617 -6.332,0.489 -6.328,0.543 -6.332,0.664 -6.332,0.707 -6.332,0.789 -6.328,0.824 -6.332,0.723 -6.332,0.797 -6.332,0.769 -6.328,0.844 -12.664,1.742 -6.332,0.965 -6.329,1.129 -6.332,1.117 -6.332,1.195 -6.332,1.36 -6.328,1.316 -6.332,1.274 -6.332,1.593 -6.328,1.66 -6.332,1.914 -6.332,2.063 -6.332,2.312 -6.328,2.684 -6.332,2.852 -6.332,2.894 -6.332,3.184 -6.328,3.39 -6.332,3.809 -6.332,3.965 -6.332,4.031 -6.329,4.445 -6.332,4.715 -6.332,4.699 -6.332,4.79 -6.328,4.855 -6.332,4.969 -6.332,5.054 -6.328,5.071 -6.332,5.199 -6.332,5.102 -6.332,5.25 -6.328,5.066 -6.332,5.105 -6.332,5.008 -6.332,4.949 -6.328,4.805 z"
             style="fill:#ee2c2c;fill-opacity:0.4;fill-rule:nonzero;stroke:none"
             id="path1434" />
          <path
             d="m 61.227,159.277 6.328,1.121 12.664,2.227 6.332,1.09 6.328,1.07 6.332,1.102 6.332,1.093 6.332,1.067 6.328,1.125 6.332,1.078 6.332,1.137 6.328,1.14 6.332,1.11 6.332,1.113 6.332,1.094 6.329,1.136 6.332,1.106 6.332,1.098 6.332,1.109 6.328,1.086 6.332,1.101 6.332,1.059 6.332,1.074 6.328,1.11 6.332,1.101 6.332,1.086 6.332,1.094 6.328,1.086 6.332,1.094 6.332,1.113 6.328,1.094 6.332,1.086 6.332,1.089 6.332,1.114 6.329,1.078 6.332,1.086 6.332,1.101 6.332,1.082 6.328,1.078 6.332,1.086 6.332,1.075 6.332,1.023 6.328,1.063 6.332,1.078 6.332,1.074 6.332,1.062 6.328,1.063 6.332,1.047 6.332,1.074 6.328,1.082"
             style="fill:none;stroke:#1c86ee;stroke-width:4.26791;stroke-linecap:butt;stroke-linejoin:round;stroke-miterlimit:10;stroke-dasharray:none;stroke-opacity:1"
             id="path1436" />
          <path
             d="m 61.227,173.492 6.328,-1.058 12.664,-2.188 6.332,-1.07 6.328,-1.09 6.332,-1.051 6.332,-1.097 6.332,-1.047 6.328,-1.055 6.332,-1.07 6.332,-1.063 6.328,-1.058 6.332,-1.098 6.332,-1.063 6.332,-1.078 6.329,-1.074 6.332,-1.078 6.332,-1.059 6.332,-1.05 6.328,-1.051 6.332,-1.074 6.332,-1.028 6.332,-1.066 6.328,-1.039 6.332,-1.059 12.664,-2.086 6.328,-1.035 6.332,-1.047 6.332,-1.062 6.328,-1.035 6.332,-1.032 6.332,-1.035 6.332,-1.031 6.329,-1.047 6.332,-1.047 6.332,-1.019 6.332,-1.012 6.328,-1 6.332,-1.012 6.332,-1 6.332,-0.984 6.328,-1.008 6.332,-1.012 6.332,-0.996 6.332,-1 6.328,-0.988 6.332,-0.977 6.332,-0.992 6.328,-0.996"
             style="fill:none;stroke:#daa520;stroke-width:4.26791;stroke-linecap:butt;stroke-linejoin:round;stroke-miterlimit:10;stroke-dasharray:none;stroke-opacity:1"
             id="path1438" />
          <path
             d="m 61.227,187.703 6.328,-3.277 6.332,-3.238 6.332,-3.219 6.332,-3.227 6.328,-3.297 6.332,-3.215 6.332,-3.277 6.332,-3.226 6.328,-3.223 6.332,-3.227 6.332,-3.211 6.328,-3.187 6.332,-3.086 6.332,-3.16 6.332,-3.192 6.329,-3.054 6.332,-3.078 6.332,-3.059 6.332,-3.066 6.328,-3.063 6.332,-3.016 6.332,-2.972 6.332,-2.918 6.328,-2.895 6.332,-2.843 6.332,-2.84 6.332,-2.778 6.328,-2.765 6.332,-2.676 6.332,-2.656 6.328,-2.649 6.332,-2.582 6.332,-2.496 6.332,-2.508 6.329,-2.441 6.332,-2.418 6.332,-2.328 6.332,-2.332 6.328,-2.324 6.332,-2.239 6.332,-2.172 6.332,-2.125 6.328,-2.093 6.332,-2.055 6.332,-2.008 6.332,-1.972 6.328,-1.918 6.332,-1.914 6.332,-1.844 6.328,-1.77"
             style="fill:none;stroke:#ee2c2c;stroke-width:4.26791;stroke-linecap:butt;stroke-linejoin:round;stroke-miterlimit:10;stroke-dasharray:none;stroke-opacity:1"
             id="path1440" />
          <path
             d="M 45.398,5.477 H 393.605 V 270.832 H 45.398 Z"
             style="fill:none;stroke:#333333;stroke-width:3.20093;stroke-linecap:round;stroke-linejoin:round;stroke-miterlimit:10;stroke-dasharray:none;stroke-opacity:1"
             id="path1442" />
        </g>
      </g>
      <g
         id="g1444">
        <text
           transform="translate(22.671875,216.05469)"
           style="font-variant:normal;font-weight:normal;font-size:12.8px;font-family:Arial;-inkscape-font-specification:ArialMT;writing-mode:lr-tb;fill:#4d4d4d;fill-opacity:1;fill-rule:nonzero;stroke:none"
           id="text1452"><tspan
             x="0 7.1167998 10.6624"
             y="0"
             sodipodi:role="line"
             id="tspan1446">0.4</tspan><tspan
             x="0 7.1167998 10.6624"
             y="-73.148445"
             sodipodi:role="line"
             id="tspan1448">0.6</tspan><tspan
             x="0 7.1167998 10.6624"
             y="-146.29298"
             sodipodi:role="line"
             id="tspan1450">0.8</tspan></text>
        <path
           d="m 42.656,211.473 h 2.742"
           style="fill:none;stroke:#333333;stroke-width:1.06698;stroke-linecap:butt;stroke-linejoin:round;stroke-miterlimit:10;stroke-dasharray:none;stroke-opacity:1"
           id="path1454" />
        <path
           d="m 42.656,138.324 h 2.742"
           style="fill:none;stroke:#333333;stroke-width:1.06698;stroke-linecap:butt;stroke-linejoin:round;stroke-miterlimit:10;stroke-dasharray:none;stroke-opacity:1"
           id="path1456" />
        <path
           d="m 42.656,65.18 h 2.742"
           style="fill:none;stroke:#333333;stroke-width:1.06698;stroke-linecap:butt;stroke-linejoin:round;stroke-miterlimit:10;stroke-dasharray:none;stroke-opacity:1"
           id="path1458" />
        <path
           d="m 124.535,273.574 v -2.742"
           style="fill:none;stroke:#333333;stroke-width:1.06698;stroke-linecap:butt;stroke-linejoin:round;stroke-miterlimit:10;stroke-dasharray:none;stroke-opacity:1"
           id="path1460" />
        <path
           d="m 251.156,273.574 v -2.742"
           style="fill:none;stroke:#333333;stroke-width:1.06698;stroke-linecap:butt;stroke-linejoin:round;stroke-miterlimit:10;stroke-dasharray:none;stroke-opacity:1"
           id="path1462" />
        <path
           d="m 377.773,273.574 v -2.742"
           style="fill:none;stroke:#333333;stroke-width:1.06698;stroke-linecap:butt;stroke-linejoin:round;stroke-miterlimit:10;stroke-dasharray:none;stroke-opacity:1"
           id="path1464" />
        <text
           transform="translate(120.97656,284.92578)"
           style="font-variant:normal;font-weight:normal;font-size:12.8px;font-family:Arial;-inkscape-font-specification:ArialMT;writing-mode:lr-tb;fill:#4d4d4d;fill-opacity:1;fill-rule:nonzero;stroke:none"
           id="text1468"><tspan
             x="0 126.6176 253.23828"
             y="0"
             sodipodi:role="line"
             id="tspan1466">123</tspan></text>
      </g>
    </g>
    <g
       id="g1569"
       inkscape:label="abla_cmdXanoms_seed2"
       transform="matrix(0.35277777,0,0,0.35277777,481.2554,32.892192)">
      <g
         id="g1579">
        <g
           id="g1581"
           clip-path="url(#clipPath1585)">
          <path
             d="M 45.398,5.477 H 393.605 V 270.832 H 45.398 Z"
             style="fill:#ffffff;fill-opacity:1;fill-rule:nonzero;stroke:none"
             id="path1587" />
          <path
             d="m 61.227,69.527 6.328,0.77 6.332,0.781 6.332,0.805 6.332,0.84 6.328,0.871 6.332,0.746 6.332,0.832 6.332,0.781 6.328,0.547 6.332,0.734 6.332,0.629 6.328,0.657 6.332,0.464 6.332,0.469 6.332,0.32 6.329,0.352 6.332,0.297 6.332,0.148 6.332,0.133 6.328,-0.027 6.332,-0.153 6.332,-0.218 6.332,-0.442 6.328,-0.422 6.332,-0.527 6.332,-0.652 6.332,-0.676 6.328,-0.731 6.332,-0.792 6.332,-0.895 6.328,-0.965 6.332,-1.008 6.332,-1.093 6.332,-1.102 6.329,-1.129 6.332,-1.09 6.332,-1.195 6.332,-1.238 6.328,-1.149 6.332,-1.222 6.332,-1.317 6.332,-1.238 6.328,-1.149 12.664,-2.375 6.332,-1.113 6.328,-1.176 12.664,-2.312 6.328,-1.129 v 126.105 l -6.328,-1.941 -6.332,-1.891 -6.332,-1.656 -6.328,-1.875 -6.332,-1.644 -6.332,-1.914 -6.332,-1.707 -6.328,-1.684 -6.332,-1.52 -6.332,-1.648 -6.332,-1.418 -6.328,-1.508 -6.332,-1.336 -6.332,-1.301 -6.332,-1 -6.329,-1.074 -6.332,-1 -12.664,-1.82 -6.328,-0.668 -6.332,-0.395 -6.332,-0.304 -6.328,-0.274 -6.332,-0.179 -6.332,-0.012 -6.332,0.316 -6.328,0.34 -6.332,0.504 -6.332,0.551 -6.332,1.082 -6.328,0.937 -6.332,1.133 -6.332,1.102 -6.332,1.445 -6.329,1.688 -6.332,1.64 -6.332,1.778 -6.332,1.875 -6.328,2.043 -6.332,2.105 -6.332,2.391 -6.328,2.254 -6.332,2.417 -6.332,2.293 -6.332,2.434 -6.328,2.746 -6.332,2.785 -6.332,2.844 -6.332,2.813 -6.328,2.773 z"
             style="fill:#1c86ee;fill-opacity:0.4;fill-rule:nonzero;stroke:none"
             id="path1589" />
          <path
             d="m 61.227,39.672 6.328,0.941 6.332,0.891 6.332,0.969 6.332,1.004 6.328,1.007 6.332,1.047 6.332,1.024 6.332,1.027 6.328,1.016 6.332,0.972 6.332,0.942 6.328,0.992 6.332,0.969 6.332,0.937 6.332,0.953 6.329,0.852 6.332,0.836 6.332,0.816 6.332,0.781 6.328,0.637 6.332,0.664 6.332,0.559 6.332,0.617 6.328,0.52 6.332,0.41 6.332,0.379 6.332,0.332 6.328,0.281 6.332,0.176 6.332,0.203 6.328,0.179 6.332,0.129 6.332,0.051 6.332,-0.015 6.329,0.058 6.332,0.047 6.332,-0.086 6.332,-0.035 6.328,-0.195 6.332,-0.129 6.332,-0.09 6.332,-0.152 6.328,-0.106 6.332,-0.133 6.332,-0.195 6.332,-0.176 6.328,-0.137 6.332,-0.101 6.332,-0.246 6.328,-0.278 v 110.707 l -6.328,-3.519 -6.332,-3.488 -6.332,-3.399 -6.328,-3.547 -6.332,-3.281 -6.332,-3.238 -6.332,-3.469 -6.328,-3.234 -6.332,-3.149 -6.332,-3.047 -6.332,-3.004 -6.328,-2.914 -6.332,-2.957 -6.332,-2.746 -6.332,-2.597 -6.329,-2.559 -6.332,-2.609 -6.332,-2.453 -6.332,-2.422 -6.328,-2.317 -6.332,-2.152 -6.332,-2.106 -6.328,-1.949 -6.332,-2.023 -6.332,-1.731 -6.332,-1.547 -6.328,-1.453 -6.332,-1.375 -6.332,-1.179 -6.332,-1.196 -6.328,-0.992 -6.332,-0.902 -6.332,-0.762 -6.332,-0.625 -6.329,-0.559 -6.332,-0.5 -6.332,-0.394 -6.332,-0.363 -6.328,-0.321 -6.332,-0.234 -6.332,-0.164 -6.328,-0.098 -6.332,-0.051 -6.332,-0.015 -6.332,0.008 -6.328,0.031 -6.332,0.086 -6.332,0.191 -6.332,0.094 -6.328,0.129 z"
             style="fill:#daa520;fill-opacity:0.4;fill-rule:nonzero;stroke:none"
             id="path1591" />
          <path
             d="m 61.227,17.539 6.328,0.504 6.332,0.547 6.332,0.574 6.332,0.602 6.328,0.64 6.332,0.692 6.332,0.742 6.332,0.758 6.328,0.82 6.332,0.824 6.332,0.867 6.328,0.911 6.332,0.941 6.332,0.973 6.332,0.941 6.329,0.969 6.332,1.008 6.332,0.929 6.332,0.883 6.328,0.848 6.332,0.824 6.332,0.723 6.332,0.695 6.328,0.656 6.332,0.559 6.332,0.523 6.332,0.442 6.328,0.382 6.332,0.282 6.332,0.191 6.328,0.172 6.332,0.125 6.332,0.086 6.332,0.098 6.329,-0.016 6.332,-0.008 6.332,-0.09 6.332,-0.062 6.328,-0.004 6.332,-0.039 6.332,-0.043 6.332,-0.059 6.328,-0.109 6.332,-0.141 6.332,-0.082 6.332,-0.129 6.328,-0.09 6.332,-0.156 6.332,-0.14 6.328,-0.192 v 220.863 l -6.328,-8.351 -6.332,-8.277 -6.332,-8.559 -6.328,-8.441 -6.332,-8.125 -6.332,-8.317 -6.332,-8.359 -6.328,-8.371 -6.332,-8.246 -6.332,-7.821 -6.332,-7.488 -6.328,-7.613 -6.332,-7.203 -6.332,-7.02 -6.332,-6.836 -6.329,-6.496 -6.332,-6.215 -6.332,-5.847 -6.332,-5.575 -6.328,-5.328 -6.332,-4.933 -6.332,-4.336 -6.328,-4.231 -6.332,-3.965 -6.332,-3.754 -6.332,-3.535 -6.328,-2.988 -6.332,-2.602 -6.332,-2.32 -6.332,-1.98 -6.328,-1.848 -6.332,-1.547 -6.332,-1.363 -6.332,-1.153 -6.329,-1.113 -6.332,-0.762 -6.332,-0.777 -6.332,-0.387 -6.328,-0.402 -6.332,-0.246 -6.332,-0.297 -6.328,-0.238 -6.332,-0.129 -6.332,0.031 -6.332,0.145 -6.328,-0.028 -6.332,0.059 -6.332,0.043 -6.332,0.16 -6.328,0.106 z"
             style="fill:#ee2c2c;fill-opacity:0.4;fill-rule:nonzero;stroke:none"
             id="path1593" />
          <path
             d="m 61.227,120.656 6.328,-0.468 6.332,-0.485 6.332,-0.43 6.332,-0.437 6.328,-0.465 6.332,-0.426 6.332,-0.457 6.332,-0.429 6.328,-0.434 6.332,-0.402 6.332,-0.395 6.328,-0.418 6.332,-0.445 6.332,-0.422 6.332,-0.441 6.329,-0.477 6.332,-0.41 6.332,-0.465 6.332,-0.375 6.328,-0.41 6.332,-0.391 12.664,-0.859 6.328,-0.406 6.332,-0.414 6.332,-0.403 6.332,-0.394 6.328,-0.426 6.332,-0.402 6.332,-0.434 6.328,-0.43 6.332,-0.39 12.664,-0.789 6.329,-0.36 6.332,-0.429 6.332,-0.399 6.332,-0.402 6.328,-0.364 12.664,-0.804 6.332,-0.434 6.328,-0.398 6.332,-0.383 6.332,-0.418 6.332,-0.426 6.328,-0.367 6.332,-0.406 6.332,-0.395 6.328,-0.39"
             style="fill:none;stroke:#1c86ee;stroke-width:4.26791;stroke-linecap:butt;stroke-linejoin:round;stroke-miterlimit:10;stroke-dasharray:none;stroke-opacity:1"
             id="path1595" />
          <path
             d="m 61.227,59.633 6.328,0.715 6.332,0.703 6.332,0.742 6.332,0.746 6.328,0.742 6.332,0.762 6.332,0.75 6.332,0.754 6.328,0.781 6.332,0.797 6.332,0.789 6.328,0.793 6.332,0.777 6.332,0.821 6.332,0.797 6.329,0.82 6.332,0.875 6.332,0.848 6.332,0.828 6.328,0.867 6.332,0.848 6.332,0.867 6.332,0.898 6.328,0.895 6.332,0.89 6.332,0.922 6.332,0.926 6.328,0.902 6.332,0.934 6.332,0.976 6.328,0.961 6.332,0.989 6.332,0.976 6.332,1.004 6.329,1.027 6.332,1.043 12.664,2.047 6.328,1.078 6.332,1.075 6.332,1.054 6.332,1.078 6.328,1.102 18.996,3.316 6.328,1.11 6.332,1.129 6.332,1.16 6.328,1.164"
             style="fill:none;stroke:#daa520;stroke-width:4.26791;stroke-linecap:butt;stroke-linejoin:round;stroke-miterlimit:10;stroke-dasharray:none;stroke-opacity:1"
             id="path1597" />
          <path
             d="m 61.227,30.57 6.328,0.68 6.332,0.738 6.332,0.75 6.332,0.801 6.328,0.813 6.332,0.847 6.332,0.856 6.332,0.925 6.328,0.938 6.332,0.961 6.332,1 6.328,1 6.332,1.055 6.332,1.093 6.332,1.09 6.329,1.168 6.332,1.203 6.332,1.211 6.332,1.278 6.328,1.296 6.332,1.356 6.332,1.387 6.332,1.453 6.328,1.426 6.332,1.503 6.332,1.571 6.332,1.605 6.328,1.66 6.332,1.707 6.332,1.747 6.328,1.742 6.332,1.82 6.332,1.875 6.332,1.945 6.329,2.016 6.332,2.043 6.332,2.101 6.332,2.168 6.328,2.219 6.332,2.293 6.332,2.285 6.332,2.317 6.328,2.433 6.332,2.481 6.332,2.519 6.332,2.625 6.328,2.735 6.332,2.644 6.332,2.781 6.328,2.852"
             style="fill:none;stroke:#ee2c2c;stroke-width:4.26791;stroke-linecap:butt;stroke-linejoin:round;stroke-miterlimit:10;stroke-dasharray:none;stroke-opacity:1"
             id="path1599" />
          <path
             d="M 45.398,5.477 H 393.605 V 270.832 H 45.398 Z"
             style="fill:none;stroke:#333333;stroke-width:3.20093;stroke-linecap:round;stroke-linejoin:round;stroke-miterlimit:10;stroke-dasharray:none;stroke-opacity:1"
             id="path1601" />
        </g>
      </g>
      <g
         id="g1603">
        <text
           transform="translate(22.671875,264.41016)"
           style="font-variant:normal;font-weight:normal;font-size:12.8px;font-family:Arial;-inkscape-font-specification:ArialMT;writing-mode:lr-tb;fill:#4d4d4d;fill-opacity:1;fill-rule:nonzero;stroke:none"
           id="text1613"><tspan
             x="0 7.1167998 10.6624"
             y="0"
             sodipodi:role="line"
             id="tspan1605">0.4</tspan><tspan
             x="0 7.1167998 10.6624"
             y="-82.871094"
             sodipodi:role="line"
             id="tspan1607">0.6</tspan><tspan
             x="0 7.1167998 10.6624"
             y="-165.73828"
             sodipodi:role="line"
             id="tspan1609">0.8</tspan><tspan
             x="0 7.1167998 10.6624"
             y="-248.60938"
             sodipodi:role="line"
             id="tspan1611">1.0</tspan></text>
        <path
           d="m 42.656,259.828 h 2.742"
           style="fill:none;stroke:#333333;stroke-width:1.06698;stroke-linecap:butt;stroke-linejoin:round;stroke-miterlimit:10;stroke-dasharray:none;stroke-opacity:1"
           id="path1615" />
        <path
           d="m 42.656,176.957 h 2.742"
           style="fill:none;stroke:#333333;stroke-width:1.06698;stroke-linecap:butt;stroke-linejoin:round;stroke-miterlimit:10;stroke-dasharray:none;stroke-opacity:1"
           id="path1617" />
        <path
           d="m 42.656,94.09 h 2.742"
           style="fill:none;stroke:#333333;stroke-width:1.06698;stroke-linecap:butt;stroke-linejoin:round;stroke-miterlimit:10;stroke-dasharray:none;stroke-opacity:1"
           id="path1619" />
        <path
           d="m 42.656,11.223 h 2.742"
           style="fill:none;stroke:#333333;stroke-width:1.06698;stroke-linecap:butt;stroke-linejoin:round;stroke-miterlimit:10;stroke-dasharray:none;stroke-opacity:1"
           id="path1621" />
        <path
           d="m 124.535,273.574 v -2.742"
           style="fill:none;stroke:#333333;stroke-width:1.06698;stroke-linecap:butt;stroke-linejoin:round;stroke-miterlimit:10;stroke-dasharray:none;stroke-opacity:1"
           id="path1623" />
        <path
           d="m 251.156,273.574 v -2.742"
           style="fill:none;stroke:#333333;stroke-width:1.06698;stroke-linecap:butt;stroke-linejoin:round;stroke-miterlimit:10;stroke-dasharray:none;stroke-opacity:1"
           id="path1625" />
        <text
           transform="translate(120.97656,284.92578)"
           style="font-variant:normal;font-weight:normal;font-size:12.8px;font-family:Arial;-inkscape-font-specification:ArialMT;writing-mode:lr-tb;fill:#4d4d4d;fill-opacity:1;fill-rule:nonzero;stroke:none"
           id="text1631"><tspan
             x="0 126.6176 253.23828"
             y="0"
             sodipodi:role="line"
             id="tspan1629">123</tspan></text>
      </g>
    </g>
    <g
       id="g1734"
       inkscape:label="pien_cmdXanoms_mort2"
       transform="matrix(0.35277777,0,0,0.35277777,645.57879,-97.759254)">
      <g
         id="g1736" />
      <g
         id="g1744">
        <g
           id="g1746"
           clip-path="url(#clipPath1750)">
          <path
             d="M 45.398,5.477 H 393.605 V 270.832 H 45.398 Z"
             style="fill:#ffffff;fill-opacity:1;fill-rule:nonzero;stroke:none"
             id="path1752" />
          <path
             d="m 61.227,212.523 6.328,-0.257 6.332,-0.301 6.332,-0.336 6.332,-0.184 6.328,-0.265 6.332,-0.188 6.332,-0.121 6.332,-0.082 6.328,-0.09 6.332,-0.113 6.332,-0.043 6.328,0.016 6.332,0.023 6.332,0.008 6.332,0.035 6.329,0.098 6.332,0.043 6.332,0.226 6.332,0.348 6.328,0.164 6.332,0.355 6.332,0.317 6.332,0.32 6.328,0.453 6.332,0.489 6.332,0.554 6.332,0.578 6.328,0.633 6.332,0.613 6.332,0.77 6.328,0.75 6.332,0.691 6.332,0.703 6.332,0.743 6.329,0.781 6.332,0.793 6.332,0.883 6.332,0.914 6.328,0.781 6.332,0.902 6.332,0.922 6.332,0.895 6.328,0.801 6.332,0.918 12.664,1.89 6.328,0.863 6.332,0.899 6.332,0.918 6.328,0.883 v -84.18 l -6.328,0.742 -6.332,0.59 -6.332,0.703 -6.328,0.512 -6.332,0.566 -6.332,0.61 -6.332,0.406 -6.328,0.66 -6.332,0.367 -6.332,0.633 -6.332,0.398 -6.328,0.258 -6.332,0.383 -6.332,0.297 -6.332,0.375 -6.329,0.144 -6.332,0.204 -6.332,0.25 -6.332,0.191 -6.328,0.129 -6.332,-0.106 -6.332,-0.234 -6.328,-0.219 -6.332,-0.222 -6.332,-0.332 -6.332,-0.227 -6.328,-0.156 -6.332,-0.348 -6.332,-0.457 -6.332,-0.281 -6.328,-0.484 -6.332,-0.747 -6.332,-0.671 -6.332,-0.875 -6.329,-0.805 -6.332,-1.035 -6.332,-0.977 -6.332,-0.996 -6.328,-0.934 -6.332,-0.984 -6.332,-1.156 -6.328,-1.207 -6.332,-1.086 -6.332,-1.301 -6.332,-1.371 -6.328,-1.434 -6.332,-1.515 -6.332,-1.61 -6.332,-1.582 -6.328,-1.535 z"
             style="fill:#1c86ee;fill-opacity:0.4;fill-rule:nonzero;stroke:none"
             id="path1754" />
          <path
             d="m 61.227,230.098 6.328,-0.836 6.332,-0.801 6.332,-0.934 6.332,-0.941 6.328,-0.859 6.332,-0.875 6.332,-0.825 6.332,-0.867 6.328,-0.801 6.332,-0.773 6.332,-0.727 6.328,-0.714 6.332,-0.797 6.332,-0.762 6.332,-0.629 6.329,-0.723 6.332,-0.664 6.332,-0.652 6.332,-0.719 6.328,-0.562 6.332,-0.547 6.332,-0.524 6.332,-0.433 6.328,-0.547 6.332,-0.43 6.332,-0.437 6.332,-0.336 6.328,-0.324 6.332,-0.426 6.332,-0.367 6.328,-0.289 6.332,-0.211 6.332,-0.25 6.332,-0.274 6.329,-0.289 6.332,-0.211 6.332,-0.117 6.332,-0.238 6.328,-0.188 6.332,-0.101 6.332,-0.176 6.332,-0.086 6.328,-0.094 6.332,-0.043 6.332,-0.039 6.332,-0.058 6.328,-0.129 6.332,-0.024 6.332,0.024 6.328,0.132 v -87.449 l -6.328,2.02 -6.332,2.164 -6.332,1.926 -6.328,2.117 -6.332,1.949 -12.664,3.586 -6.328,1.812 -6.332,1.731 -6.332,1.711 -6.332,1.746 -6.328,1.57 -6.332,1.785 -6.332,1.575 -6.332,1.566 -6.329,1.457 -6.332,1.598 -6.332,1.398 -6.332,1.422 -6.328,1.402 -6.332,1.239 -6.332,1.148 -6.328,1.262 -6.332,1.105 -6.332,1.035 -6.332,1.239 -6.328,1.07 -6.332,0.867 -6.332,0.813 -6.332,0.996 -6.328,0.672 -6.332,0.761 -6.332,0.661 -6.332,0.558 -6.329,0.617 -6.332,0.727 -6.332,0.5 -6.332,0.609 -6.328,0.285 -6.332,0.547 -6.332,0.219 -6.328,0.285 -6.332,0.36 -6.332,0.222 -6.332,0.317 -6.328,0.148 -6.332,0.149 -6.332,0.132 -6.332,0.118 -6.328,0.019 z"
             style="fill:#daa520;fill-opacity:0.4;fill-rule:nonzero;stroke:none"
             id="path1756" />
          <path
             d="m 61.227,258.773 6.328,-1.566 6.332,-1.644 6.332,-1.672 6.332,-1.696 6.328,-1.718 6.332,-1.7 6.332,-1.726 6.332,-1.789 6.328,-1.793 6.332,-1.735 6.332,-1.8 6.328,-1.844 6.332,-1.809 6.332,-1.625 6.332,-1.676 6.329,-1.679 6.332,-1.496 6.332,-1.5 6.332,-1.586 6.328,-1.418 6.332,-1.34 6.332,-1.262 6.332,-1.023 6.328,-1.074 6.332,-1.059 6.332,-0.828 6.332,-0.813 6.328,-0.672 6.332,-0.625 6.332,-0.679 6.328,-0.481 6.332,-0.386 6.332,-0.332 6.332,-0.469 6.329,-0.231 6.332,-0.304 6.332,-0.262 6.332,-0.176 6.328,-0.234 6.332,-0.172 6.332,-0.246 6.332,-0.215 6.328,-0.078 6.332,-0.238 6.332,0.097 6.332,0.11 6.328,-0.047 6.332,0.043 6.332,0.008 6.328,0.074 V 17.539 l -6.328,7.391 -6.332,6.953 -6.332,6.738 -6.328,6.738 -6.332,6.563 -6.332,6.308 -6.332,6.625 -6.328,6.235 -6.332,5.996 -6.332,5.746 -6.332,5.535 -6.328,5.348 -6.332,5.473 -6.332,4.992 -6.332,4.941 -6.329,5.004 -6.332,4.844 -6.332,4.386 -6.332,4.481 -6.328,4.121 -6.332,3.949 -6.332,3.582 -6.328,3.571 -6.332,3.457 -6.332,3.207 -6.332,2.648 -6.328,2.547 -6.332,2.402 -6.332,2.547 -6.332,2.133 -6.328,1.922 -6.332,1.91 -6.332,1.574 -6.332,1.407 -6.329,1.421 -6.332,1.192 -6.332,1.16 -6.332,0.894 -6.328,0.711 -6.332,0.641 -6.332,0.645 -6.328,0.527 -6.332,0.305 -6.332,0.414 -6.332,0.543 -6.328,0.179 -6.332,0.129 -6.332,0.223 -6.332,0.418 -6.328,0.148 z"
             style="fill:#ee2c2c;fill-opacity:0.4;fill-rule:nonzero;stroke:none"
             id="path1758" />
          <path
             d="m 61.227,177.063 6.328,0.449 6.332,0.461 6.332,0.484 6.332,0.453 6.328,0.473 12.664,0.89 6.332,0.43 6.328,0.43 6.332,0.406 6.332,0.414 6.328,0.41 6.332,0.453 6.332,0.446 6.332,0.414 6.329,0.469 6.332,0.445 6.332,0.422 6.332,0.457 6.328,0.426 6.332,0.441 6.332,0.437 6.332,0.454 6.328,0.41 6.332,0.492 6.332,0.41 6.332,0.367 6.328,0.414 6.332,0.387 6.332,0.402 6.328,0.395 6.332,0.43 6.332,0.418 6.332,0.429 6.329,0.418 6.332,0.387 6.332,0.449 6.332,0.453 6.328,0.383 6.332,0.375 6.332,0.359 6.332,0.465 6.328,0.387 12.664,0.844 6.332,0.39 6.328,0.383 6.332,0.418 6.332,0.363 6.328,0.426"
             style="fill:none;stroke:#1c86ee;stroke-width:4.26791;stroke-linecap:butt;stroke-linejoin:round;stroke-miterlimit:10;stroke-dasharray:none;stroke-opacity:1"
             id="path1760" />
          <path
             d="m 61.227,204.742 6.328,-0.672 6.332,-0.668 6.332,-0.632 6.332,-0.629 6.328,-0.653 6.332,-0.64 6.332,-0.692 6.332,-0.652 6.328,-0.652 6.332,-0.684 6.332,-0.633 6.328,-0.707 6.332,-0.648 6.332,-0.684 6.332,-0.707 6.329,-0.699 6.332,-0.664 6.332,-0.668 6.332,-0.695 6.328,-0.672 6.332,-0.707 6.332,-0.735 6.332,-0.699 6.328,-0.707 6.332,-0.715 6.332,-0.676 6.332,-0.699 6.328,-0.742 6.332,-0.711 6.332,-0.684 6.328,-0.707 6.332,-0.707 6.332,-0.812 6.332,-0.742 6.329,-0.735 6.332,-0.711 6.332,-0.73 6.332,-0.727 6.328,-0.738 6.332,-0.727 6.332,-0.781 6.332,-0.746 6.328,-0.769 6.332,-0.743 6.332,-0.793 6.332,-0.757 6.328,-0.805 12.664,-1.586 6.328,-0.801"
             style="fill:none;stroke:#daa520;stroke-width:4.26791;stroke-linecap:butt;stroke-linejoin:round;stroke-miterlimit:10;stroke-dasharray:none;stroke-opacity:1"
             id="path1762" />
          <path
             d="m 61.227,227.531 6.328,-1.39 6.332,-1.418 6.332,-1.383 6.332,-1.406 6.328,-1.418 6.332,-1.426 6.332,-1.488 6.332,-1.473 6.328,-1.457 6.332,-1.52 6.332,-1.55 6.328,-1.559 6.332,-1.52 6.332,-1.597 6.332,-1.61 6.329,-1.679 6.332,-1.668 6.332,-1.641 6.332,-1.726 6.328,-1.743 6.332,-1.726 6.332,-1.793 6.332,-1.774 6.328,-1.82 6.332,-1.808 6.332,-1.848 6.332,-1.785 6.328,-1.848 6.332,-1.969 6.332,-1.949 6.328,-1.996 6.332,-1.996 6.332,-2.078 6.332,-2.086 6.329,-2.098 6.332,-2.113 6.332,-2.129 6.332,-2.188 6.328,-2.167 6.332,-2.243 6.332,-2.336 6.332,-2.402 6.328,-2.355 6.332,-2.266 6.332,-2.328 6.332,-2.301 6.328,-2.387 6.332,-2.351 6.332,-2.422 6.328,-2.469"
             style="fill:none;stroke:#ee2c2c;stroke-width:4.26791;stroke-linecap:butt;stroke-linejoin:round;stroke-miterlimit:10;stroke-dasharray:none;stroke-opacity:1"
             id="path1764" />
          <path
             d="M 45.398,5.477 H 393.605 V 270.832 H 45.398 Z"
             style="fill:none;stroke:#333333;stroke-width:3.20093;stroke-linecap:round;stroke-linejoin:round;stroke-miterlimit:10;stroke-dasharray:none;stroke-opacity:1"
             id="path1766" />
        </g>
      </g>
      <g
         id="g1768">
        <text
           transform="translate(22.671875,214.25781)"
           style="font-variant:normal;font-weight:normal;font-size:12.8px;font-family:Arial;-inkscape-font-specification:ArialMT;writing-mode:lr-tb;fill:#4d4d4d;fill-opacity:1;fill-rule:nonzero;stroke:none"
           id="text1774"><tspan
             x="0 7.1167998 10.6624"
             y="0"
             sodipodi:role="line"
             id="tspan1770">0.1</tspan><tspan
             x="0 7.1167998 10.6624"
             y="-102.41797"
             sodipodi:role="line"
             id="tspan1772">0.2</tspan></text>
        <path
           d="m 42.656,209.676 h 2.742"
           style="fill:none;stroke:#333333;stroke-width:1.06698;stroke-linecap:butt;stroke-linejoin:round;stroke-miterlimit:10;stroke-dasharray:none;stroke-opacity:1"
           id="path1776" />
        <path
           d="m 42.656,107.258 h 2.742"
           style="fill:none;stroke:#333333;stroke-width:1.06698;stroke-linecap:butt;stroke-linejoin:round;stroke-miterlimit:10;stroke-dasharray:none;stroke-opacity:1"
           id="path1778" />
        <path
           d="m 124.535,273.574 v -2.742"
           style="fill:none;stroke:#333333;stroke-width:1.06698;stroke-linecap:butt;stroke-linejoin:round;stroke-miterlimit:10;stroke-dasharray:none;stroke-opacity:1"
           id="path1780" />
        <path
           d="m 251.156,273.574 v -2.742"
           style="fill:none;stroke:#333333;stroke-width:1.06698;stroke-linecap:butt;stroke-linejoin:round;stroke-miterlimit:10;stroke-dasharray:none;stroke-opacity:1"
           id="path1782" />
        <text
           transform="translate(120.97656,284.92578)"
           style="font-variant:normal;font-weight:normal;font-size:12.8px;font-family:Arial;-inkscape-font-specification:ArialMT;writing-mode:lr-tb;fill:#4d4d4d;fill-opacity:1;fill-rule:nonzero;stroke:none"
           id="text1788"><tspan
             x="0 126.6176 253.23828"
             y="0"
             sodipodi:role="line"
             id="tspan1786">123</tspan></text>
      </g>
    </g>
    <g
       id="g1887"
       inkscape:label="abla_cmdXanoms_mort2"
       transform="matrix(0.35277777,0,0,0.35277777,481.25646,-97.759254)">
      <g
         id="g1897">
        <g
           id="g1899"
           clip-path="url(#clipPath1903)">
          <path
             d="M 52.516,5.477 H 393.602 V 270.832 H 52.516 Z"
             style="fill:#ffffff;fill-opacity:1;fill-rule:nonzero;stroke:none"
             id="path1905" />
          <path
             d="m 68.02,231.938 6.203,-1.176 6.199,-1.289 6.203,-1.184 6.203,-1.195 6.199,-1.16 6.203,-1.164 6.2,-1.118 6.203,-1.109 6.203,-1.059 6.199,-1.14 6.203,-1.078 6.2,-1.125 6.203,-1.11 6.203,-1.008 6.199,-0.941 6.203,-0.949 6.199,-0.93 6.203,-0.91 6.204,-0.746 6.199,-0.801 6.203,-0.711 6.199,-0.793 6.203,-0.777 6.203,-0.629 6.2,-0.586 6.203,-0.582 6.199,-0.645 12.406,-0.992 6.199,-0.398 6.204,-0.528 6.199,-0.351 6.203,-0.316 6.203,-0.34 6.199,-0.387 6.203,-0.27 6.2,-0.312 6.203,-0.223 6.203,-0.207 6.199,-0.156 6.203,-0.152 6.199,-0.129 6.204,-0.219 6.203,-0.18 6.199,-0.023 6.203,-0.145 6.199,-0.035 6.203,-0.055 6.203,-0.011 6.2,-0.09 v -86.981 l -6.2,2.293 -6.203,2.067 -6.203,2.336 -6.199,2.011 -6.203,2.083 -6.199,2.023 -6.203,2.148 -6.204,2.032 -6.199,1.968 -6.203,2.028 -6.199,2.09 -6.203,1.843 -6.203,1.754 -6.2,1.828 -6.203,1.649 -6.199,1.691 -6.203,1.574 -6.203,1.633 -6.199,1.649 -6.204,1.449 -6.199,1.422 -6.203,1.418 -6.203,1.367 -6.199,1.312 -6.203,1.11 -6.2,1.121 -6.203,1.152 -6.203,1.078 -6.199,0.774 -6.203,1.015 -6.199,1.008 -6.204,0.852 -6.203,0.719 -6.199,0.734 -6.203,0.641 -6.199,0.691 -6.203,0.664 -6.203,0.547 -6.2,0.492 -6.203,0.422 -6.199,0.426 -6.203,0.402 -6.203,0.297 -6.2,0.301 -6.203,0.347 -6.199,0.239 -6.203,0.215 -6.203,0.292 -6.199,0.149 -6.203,0.109 z"
             style="fill:#1c86ee;fill-opacity:0.4;fill-rule:nonzero;stroke:none"
             id="path1907" />
          <path
             d="m 68.02,183.359 6.203,-0.011 6.199,0.023 6.203,0.012 6.203,0.07 6.199,-0.012 6.203,0.137 6.2,0.285 6.203,0.231 6.203,0.328 6.199,0.285 6.203,0.266 6.2,0.445 6.203,0.371 6.203,0.488 6.199,0.383 6.203,0.598 6.199,0.539 6.203,0.613 6.204,0.692 6.199,0.617 6.203,0.765 6.199,0.778 6.203,0.73 6.203,0.895 6.2,0.906 6.203,0.84 6.199,0.961 6.203,0.918 6.203,1.039 6.199,1.004 6.204,1.023 6.199,0.969 6.203,1.082 6.203,1.168 6.199,1.031 6.203,1.125 6.2,1.121 6.203,1.094 6.203,1.129 6.199,1.062 6.203,1.176 6.199,1.145 6.204,1.215 6.203,1.207 6.199,1.246 6.203,1.203 6.199,1.129 6.203,1.148 6.203,1.215 6.2,1.094 v -73.504 l -6.2,0.191 -6.203,0.129 -6.203,0.031 -6.199,0.106 -6.203,0.277 -6.199,0.035 -6.203,0.012 -6.204,0.121 -6.199,0.125 -6.203,0.129 -6.199,0.082 -6.203,-0.023 -6.203,0.117 -6.2,0.07 -6.203,0.02 -6.199,-0.012 -6.203,-0.105 -6.203,-0.153 -6.199,-0.094 -6.204,-0.214 -6.199,-0.231 -6.203,-0.324 -6.203,-0.395 -6.199,-0.39 -6.203,-0.321 -6.2,-0.519 -6.203,-0.336 -6.203,-0.539 -6.199,-0.692 -6.203,-0.761 -6.199,-0.598 -6.204,-0.785 -6.203,-0.813 -6.199,-0.753 -6.203,-0.883 -6.199,-0.899 -6.203,-0.976 -6.203,-1.129 -6.2,-1.149 -6.203,-1.246 -6.199,-1.226 -6.203,-1.254 -6.203,-1.328 -6.2,-1.34 -6.203,-1.457 -6.199,-1.469 -6.203,-1.457 -6.203,-1.734 -6.199,-1.563 -6.203,-1.629 z"
             style="fill:#daa520;fill-opacity:0.4;fill-rule:nonzero;stroke:none"
             id="path1909" />
          <path
             d="m 68.02,151.539 6.203,0.691 6.199,0.797 6.203,0.797 6.203,0.824 6.199,0.754 6.203,0.922 6.2,0.996 6.203,0.922 6.203,1.117 6.199,1.297 6.203,1.297 6.2,1.192 6.203,1.519 6.203,1.477 6.199,1.879 6.203,1.894 6.199,2.012 6.203,2.051 6.204,2.152 6.199,2.203 6.203,2.246 6.199,2.551 6.203,2.617 6.203,2.594 6.2,2.566 6.203,2.727 6.199,2.789 6.203,2.785 6.203,2.875 6.199,2.852 6.204,2.859 6.199,3.031 6.203,2.77 6.203,2.918 6.199,2.793 6.203,2.996 6.2,2.746 6.203,2.805 6.203,2.781 6.199,2.68 6.203,2.82 6.199,2.597 6.204,2.637 6.203,2.707 6.199,2.504 6.203,2.594 6.199,2.394 6.203,2.524 6.203,2.39 6.2,2.293 v -117.75 l -6.2,-0.425 -6.203,-0.266 -6.203,-0.277 -6.199,-0.34 -6.203,-0.457 -6.199,-0.586 -6.203,-0.547 -6.204,-0.629 -6.199,-0.453 -6.203,-0.516 -6.199,-0.902 -6.203,-0.648 -6.203,-0.758 -6.2,-0.864 -6.203,-0.843 -6.199,-1.043 -6.203,-0.75 -6.203,-1.293 -6.199,-1.043 -6.204,-1.117 -6.199,-1.356 -6.203,-1.449 -6.203,-1.652 -6.199,-1.715 -6.203,-1.887 -6.2,-1.711 -6.203,-2.183 -6.203,-2.321 -6.199,-2.508 -6.203,-2.714 -6.199,-2.786 -6.204,-3.089 -6.203,-3.27 -6.199,-3.621 -6.203,-3.656 -6.199,-3.703 -6.203,-4.137 -6.203,-4.25 -6.2,-4.18 -6.203,-4.344 -6.199,-4.629 -6.203,-4.996 -6.203,-4.898 -6.2,-5.273 -6.203,-5.215 -6.199,-5.379 -6.203,-5.442 -6.203,-5.875 -6.199,-5.789 -6.203,-5.699 z"
             style="fill:#ee2c2c;fill-opacity:0.4;fill-rule:nonzero;stroke:none"
             id="path1911" />
          <path
             d="m 68.02,204.93 6.203,-0.801 6.199,-0.809 6.203,-0.8 6.203,-0.778 6.199,-0.82 6.203,-0.809 6.2,-0.824 6.203,-0.824 6.203,-0.82 6.199,-0.856 6.203,-0.785 6.2,-0.859 6.203,-0.817 6.203,-0.82 6.199,-0.875 6.203,-0.844 6.199,-0.848 6.203,-0.843 6.204,-0.852 6.199,-0.855 6.203,-0.86 6.199,-0.879 6.203,-0.871 6.203,-0.855 6.2,-0.883 6.203,-0.848 6.199,-0.89 6.203,-0.875 6.203,-0.895 6.199,-0.922 6.204,-0.859 6.199,-0.895 6.203,-0.859 6.203,-0.887 6.199,-0.902 6.203,-0.879 6.2,-0.969 6.203,-0.883 6.203,-0.925 6.199,-0.918 6.203,-0.938 6.199,-1.011 6.204,-0.942 6.203,-0.945 6.199,-0.899 6.203,-0.976 6.199,-0.981 6.203,-0.945 6.203,-0.973 6.2,-0.957"
             style="fill:none;stroke:#1c86ee;stroke-width:4.26791;stroke-linecap:butt;stroke-linejoin:round;stroke-miterlimit:10;stroke-dasharray:none;stroke-opacity:1"
             id="path1913" />
          <path
             d="m 68.02,153.707 6.203,0.75 6.199,0.703 6.203,0.68 6.203,0.742 6.199,0.688 6.203,0.699 6.2,0.711 6.203,0.66 6.203,0.707 6.199,0.73 6.203,0.672 6.2,0.672 6.203,0.742 6.203,0.684 6.199,0.711 6.203,0.656 6.199,0.672 6.203,0.664 6.204,0.676 6.199,0.664 6.203,0.699 6.199,0.652 6.203,0.649 6.203,0.64 6.2,0.657 6.203,0.633 6.199,0.648 6.203,0.625 6.203,0.672 6.199,0.683 6.204,0.645 6.199,0.652 6.203,0.676 6.203,0.66 6.199,0.602 6.203,0.652 6.2,0.645 6.203,0.687 6.203,0.61 6.199,0.613 6.203,0.672 6.199,0.652 6.204,0.621 6.203,0.672 6.199,0.621 6.203,0.625 6.199,0.656 6.203,0.625 6.203,0.664 6.2,0.629"
             style="fill:none;stroke:#daa520;stroke-width:4.26791;stroke-linecap:butt;stroke-linejoin:round;stroke-miterlimit:10;stroke-dasharray:none;stroke-opacity:1"
             id="path1915" />
          <path
             d="m 68.02,89.566 6.203,2.907 6.199,3.058 6.203,3.004 6.203,2.867 6.199,2.875 6.203,2.77 6.2,2.887 6.203,2.914 6.203,2.867 6.199,2.773 6.203,2.754 6.2,2.754 6.203,2.703 6.203,2.637 6.199,2.547 6.203,2.633 6.199,2.632 6.203,2.559 6.204,2.602 6.199,2.527 6.203,2.394 6.199,2.5 6.203,2.426 6.203,2.399 6.2,2.394 6.203,2.352 6.199,2.402 6.203,2.32 6.203,2.391 6.199,2.297 6.204,2.324 6.199,2.188 6.203,2.207 6.203,2.238 6.199,2.152 6.203,2.188 6.2,2.164 6.203,2.16 6.203,2.082 6.199,2.106 6.203,2.043 6.199,2.066 6.204,2.019 6.203,2.008 6.199,1.989 6.203,1.96 6.199,1.969 6.203,1.903 6.203,1.914 6.2,1.867"
             style="fill:none;stroke:#ee2c2c;stroke-width:4.26791;stroke-linecap:butt;stroke-linejoin:round;stroke-miterlimit:10;stroke-dasharray:none;stroke-opacity:1"
             id="path1917" />
          <path
             d="M 52.516,5.477 H 393.602 V 270.832 H 52.516 Z"
             style="fill:none;stroke:#333333;stroke-width:3.20093;stroke-linecap:round;stroke-linejoin:round;stroke-miterlimit:10;stroke-dasharray:none;stroke-opacity:1"
             id="path1919" />
        </g>
      </g>
      <g
         id="g1921">
        <text
           transform="translate(22.671875,253.94922)"
           style="font-variant:normal;font-weight:normal;font-size:12.8px;font-family:Arial;-inkscape-font-specification:ArialMT;writing-mode:lr-tb;fill:#4d4d4d;fill-opacity:1;fill-rule:nonzero;stroke:none"
           id="text1933"><tspan
             x="0 7.1167998 10.6624 17.7792"
             y="0"
             sodipodi:role="line"
             id="tspan1923">0.10</tspan><tspan
             x="0 7.1167998 10.6624 17.7792"
             y="-49.117184"
             sodipodi:role="line"
             id="tspan1925">0.15</tspan><tspan
             x="0 7.1167998 10.6624 17.7792"
             y="-98.234367"
             sodipodi:role="line"
             id="tspan1927">0.20</tspan><tspan
             x="0 7.1167998 10.6624 17.7792"
             y="-147.35545"
             sodipodi:role="line"
             id="tspan1929">0.25</tspan><tspan
             x="0 7.1167998 10.6624 17.7792"
             y="-196.47264"
             sodipodi:role="line"
             id="tspan1931">0.30</tspan></text>
        <path
           d="m 49.777,249.367 h 2.739"
           style="fill:none;stroke:#333333;stroke-width:1.06698;stroke-linecap:butt;stroke-linejoin:round;stroke-miterlimit:10;stroke-dasharray:none;stroke-opacity:1"
           id="path1935" />
        <path
           d="m 49.777,200.25 h 2.739"
           style="fill:none;stroke:#333333;stroke-width:1.06698;stroke-linecap:butt;stroke-linejoin:round;stroke-miterlimit:10;stroke-dasharray:none;stroke-opacity:1"
           id="path1937" />
        <path
           d="m 49.777,151.133 h 2.739"
           style="fill:none;stroke:#333333;stroke-width:1.06698;stroke-linecap:butt;stroke-linejoin:round;stroke-miterlimit:10;stroke-dasharray:none;stroke-opacity:1"
           id="path1939" />
        <path
           d="m 49.777,102.012 h 2.739"
           style="fill:none;stroke:#333333;stroke-width:1.06698;stroke-linecap:butt;stroke-linejoin:round;stroke-miterlimit:10;stroke-dasharray:none;stroke-opacity:1"
           id="path1941" />
        <path
           d="m 49.777,52.895 h 2.739"
           style="fill:none;stroke:#333333;stroke-width:1.06698;stroke-linecap:butt;stroke-linejoin:round;stroke-miterlimit:10;stroke-dasharray:none;stroke-opacity:1"
           id="path1943" />
        <path
           d="m 130.035,273.574 v -2.742"
           style="fill:none;stroke:#333333;stroke-width:1.06698;stroke-linecap:butt;stroke-linejoin:round;stroke-miterlimit:10;stroke-dasharray:none;stroke-opacity:1"
           id="path1945" />
        <path
           d="m 254.066,273.574 v -2.742"
           style="fill:none;stroke:#333333;stroke-width:1.06698;stroke-linecap:butt;stroke-linejoin:round;stroke-miterlimit:10;stroke-dasharray:none;stroke-opacity:1"
           id="path1947" />
        <path
           d="m 378.098,273.574 v -2.742"
           style="fill:none;stroke:#333333;stroke-width:1.06698;stroke-linecap:butt;stroke-linejoin:round;stroke-miterlimit:10;stroke-dasharray:none;stroke-opacity:1"
           id="path1949" />
        <text
           transform="translate(126.47656,284.92578)"
           style="font-variant:normal;font-weight:normal;font-size:12.8px;font-family:Arial;-inkscape-font-specification:ArialMT;writing-mode:lr-tb;fill:#4d4d4d;fill-opacity:1;fill-rule:nonzero;stroke:none"
           id="text1953"><tspan
             x="0 124.032 248.0625"
             y="0"
             sodipodi:role="line"
             id="tspan1951">123</tspan></text>
      </g>
    </g>
    <g
       id="g70404"
       transform="translate(72.900345,88.152349)">
      <g
         id="g70402"
         transform="matrix(0.80555109,0,0,0.80555109,107.5166,31.290972)">
        <g
           id="g7886"
           transform="translate(314.93004,-164.48673)">
          <text
             xml:space="preserve"
             style="font-style:normal;font-weight:normal;font-size:6.36891px;line-height:1.25;font-family:sans-serif;text-align:center;text-anchor:middle;fill:#000000;fill-opacity:1;stroke:none;stroke-width:0.159223"
             x="203.90843"
             y="-94.893669"
             id="text7850"><tspan
               sodipodi:role="line"
               id="tspan7846"
               style="text-align:center;text-anchor:middle;stroke-width:0.159223"
               x="203.90843"
               y="-94.893669">Reference </tspan><tspan
               sodipodi:role="line"
               style="text-align:center;text-anchor:middle;stroke-width:0.159223"
               x="203.90843"
               y="-86.932533"
               id="tspan7848">CMD (mm)</tspan></text>
          <g
             id="g7884"
             transform="translate(0.99524817)">
            <g
               id="g7870"
               transform="translate(7.2801685,0.71394231)">
              <g
                 id="g7856"
                 transform="translate(14.453323,5.3115997)">
                <rect
                   style="fill:#f8aaaa;fill-opacity:1;stroke-width:0.262249"
                   id="rect7852"
                   width="14.453328"
                   height="8.0938635"
                   x="164.67226"
                   y="-90.383392" />
                <rect
                   style="fill:#ee2c2c;fill-opacity:1;stroke-width:0.261578"
                   id="rect7854"
                   width="14.451323"
                   height="2.5293324"
                   x="164.67226"
                   y="-87.601128" />
              </g>
              <g
                 id="g7862"
                 transform="translate(14.453323,15.561084)">
                <rect
                   style="fill:#f0dba5;fill-opacity:1;stroke-width:0.262249"
                   id="rect7858"
                   width="14.453328"
                   height="8.0938635"
                   x="164.67226"
                   y="-90.322586" />
                <rect
                   style="fill:#daa520;fill-opacity:1;stroke-width:0.261578"
                   id="rect7860"
                   width="14.451323"
                   height="2.5293324"
                   x="164.67226"
                   y="-87.540321" />
              </g>
              <g
                 id="g7868"
                 transform="translate(14.484875,25.810562)">
                <rect
                   style="fill:#a4cef8;fill-opacity:1;stroke-width:0.262249"
                   id="rect7864"
                   width="14.453328"
                   height="8.0938635"
                   x="164.67226"
                   y="-90.322586" />
                <rect
                   style="fill:#1c86ee;fill-opacity:1;stroke-width:0.261578"
                   id="rect7866"
                   width="14.451323"
                   height="2.5293324"
                   x="164.67226"
                   y="-87.540321" />
              </g>
            </g>
            <text
               xml:space="preserve"
               style="font-style:normal;font-weight:normal;font-size:8.46667px;line-height:1.25;font-family:sans-serif;fill:#000000;fill-opacity:1;stroke:none;stroke-width:0.264583"
               x="203.62563"
               y="-56.675369"
               id="text7874"><tspan
                 sodipodi:role="line"
                 id="tspan7872"
                 style="font-size:8.46667px;stroke-width:0.264583"
                 x="203.62563"
                 y="-56.675369">150</tspan></text>
            <text
               xml:space="preserve"
               style="font-style:normal;font-weight:normal;font-size:8.46667px;line-height:1.25;font-family:sans-serif;fill:#000000;fill-opacity:1;stroke:none;stroke-width:0.264583"
               x="203.60287"
               y="-66.924843"
               id="text7878"><tspan
                 sodipodi:role="line"
                 id="tspan7876"
                 style="font-size:8.46667px;stroke-width:0.264583"
                 x="203.60287"
                 y="-66.924843">300</tspan></text>
            <text
               xml:space="preserve"
               style="font-style:normal;font-weight:normal;font-size:8.46667px;line-height:1.25;font-family:sans-serif;fill:#000000;fill-opacity:1;stroke:none;stroke-width:0.264583"
               x="203.576"
               y="-77.235138"
               id="text7882"><tspan
                 sodipodi:role="line"
                 id="tspan7880"
                 style="font-size:8.46667px;stroke-width:0.264583"
                 x="203.576"
                 y="-77.235138">450</tspan></text>
          </g>
        </g>
        <g
           id="g7844"
           transform="translate(419.71076,-164.48673)">
          <text
             xml:space="preserve"
             style="font-style:normal;font-weight:normal;font-size:6.36891px;line-height:1.25;font-family:sans-serif;text-align:center;text-anchor:middle;fill:#000000;fill-opacity:1;stroke:none;stroke-width:0.159223"
             x="203.90843"
             y="-94.893669"
             id="text70366"><tspan
               sodipodi:role="line"
               id="tspan70362"
               style="text-align:center;text-anchor:middle;stroke-width:0.159223"
               x="203.90843"
               y="-94.893669">Reference </tspan><tspan
               sodipodi:role="line"
               style="text-align:center;text-anchor:middle;stroke-width:0.159223"
               x="203.90843"
               y="-86.932533"
               id="tspan70364">CMD (mm)</tspan></text>
          <g
             id="g70400"
             transform="translate(0.99524817)">
            <g
               id="g70386"
               transform="translate(7.2801685,0.71394231)">
              <g
                 id="g70372"
                 transform="translate(14.453323,5.3115997)">
                <rect
                   style="fill:#f8aaaa;fill-opacity:1;stroke-width:0.262249"
                   id="rect70368"
                   width="14.453328"
                   height="8.0938635"
                   x="164.67226"
                   y="-90.383392" />
                <rect
                   style="fill:#ee2c2c;fill-opacity:1;stroke-width:0.261578"
                   id="rect70370"
                   width="14.451323"
                   height="2.5293324"
                   x="164.67226"
                   y="-87.601128" />
              </g>
              <g
                 id="g70378"
                 transform="translate(14.453323,15.561084)">
                <rect
                   style="fill:#f0dba5;fill-opacity:1;stroke-width:0.262249"
                   id="rect70374"
                   width="14.453328"
                   height="8.0938635"
                   x="164.67226"
                   y="-90.322586" />
                <rect
                   style="fill:#daa520;fill-opacity:1;stroke-width:0.261578"
                   id="rect70376"
                   width="14.451323"
                   height="2.5293324"
                   x="164.67226"
                   y="-87.540321" />
              </g>
              <g
                 id="g70384"
                 transform="translate(14.484875,25.810562)">
                <rect
                   style="fill:#a4cef8;fill-opacity:1;stroke-width:0.262249"
                   id="rect70380"
                   width="14.453328"
                   height="8.0938635"
                   x="164.67226"
                   y="-90.322586" />
                <rect
                   style="fill:#1c86ee;fill-opacity:1;stroke-width:0.261578"
                   id="rect70382"
                   width="14.451323"
                   height="2.5293324"
                   x="164.67226"
                   y="-87.540321" />
              </g>
            </g>
            <text
               xml:space="preserve"
               style="font-style:normal;font-weight:normal;font-size:8.46667px;line-height:1.25;font-family:sans-serif;fill:#000000;fill-opacity:1;stroke:none;stroke-width:0.264583"
               x="203.62563"
               y="-56.675369"
               id="text70390"><tspan
                 sodipodi:role="line"
                 id="tspan70388"
                 style="font-size:8.46667px;stroke-width:0.264583"
                 x="203.62563"
                 y="-56.675369">150</tspan></text>
            <text
               xml:space="preserve"
               style="font-style:normal;font-weight:normal;font-size:8.46667px;line-height:1.25;font-family:sans-serif;fill:#000000;fill-opacity:1;stroke:none;stroke-width:0.264583"
               x="203.60287"
               y="-66.924843"
               id="text70394"><tspan
                 sodipodi:role="line"
                 id="tspan70392"
                 style="font-size:8.46667px;stroke-width:0.264583"
                 x="203.60287"
                 y="-66.924843">300</tspan></text>
            <text
               xml:space="preserve"
               style="font-style:normal;font-weight:normal;font-size:8.46667px;line-height:1.25;font-family:sans-serif;fill:#000000;fill-opacity:1;stroke:none;stroke-width:0.264583"
               x="203.576"
               y="-77.235138"
               id="text70398"><tspan
                 sodipodi:role="line"
                 id="tspan70396"
                 style="font-size:8.46667px;stroke-width:0.264583"
                 x="203.576"
                 y="-77.235138">450</tspan></text>
          </g>
        </g>
      </g>
    </g>
  </g>
</svg>
