<?xml version="1.0" encoding="UTF-8" standalone="no"?>
<!-- Created with Inkscape (http://www.inkscape.org/) -->

<svg
   width="303.82312mm"
   height="343.71112mm"
   viewBox="0 0 303.82313 343.71112"
   version="1.1"
   id="svg5"
   inkscape:version="1.1 (c68e22c387, 2021-05-23)"
   sodipodi:docname="dbhXanoms_partialeffects.svg"
   xmlns:inkscape="http://www.inkscape.org/namespaces/inkscape"
   xmlns:sodipodi="http://sodipodi.sourceforge.net/DTD/sodipodi-0.dtd"
   xmlns="http://www.w3.org/2000/svg"
   xmlns:svg="http://www.w3.org/2000/svg">
  <sodipodi:namedview
     id="namedview7"
     pagecolor="#ffffff"
     bordercolor="#666666"
     borderopacity="1.0"
     inkscape:pageshadow="2"
     inkscape:pageopacity="0.0"
     inkscape:pagecheckerboard="0"
     inkscape:document-units="mm"
     showgrid="false"
     inkscape:zoom="0.37059484"
     inkscape:cx="905.30133"
     inkscape:cy="411.50061"
     inkscape:window-width="1920"
     inkscape:window-height="1017"
     inkscape:window-x="-8"
     inkscape:window-y="-8"
     inkscape:window-maximized="1"
     inkscape:current-layer="layer1" />
  <defs
     id="defs2">
    <clipPath
       clipPathUnits="userSpaceOnUse"
       id="clipPath846">
      <path
         d="M 45.398,5.48 H 365.203 V 332.835 H 45.398 Z"
         id="path844" />
    </clipPath>
    <clipPath
       clipPathUnits="userSpaceOnUse"
       id="clipPath1020">
      <path
         d="M 45.398,5.48 H 361.605 V 332.835 H 45.398 Z"
         id="path1018" />
    </clipPath>
    <clipPath
       clipPathUnits="userSpaceOnUse"
       id="clipPath1188">
      <path
         d="M 45.398,5.48 H 365.203 V 332.835 H 45.398 Z"
         id="path1186" />
    </clipPath>
    <clipPath
       clipPathUnits="userSpaceOnUse"
       id="clipPath1350">
      <path
         d="M 45.398,5.48 H 361.605 V 332.835 H 45.398 Z"
         id="path1348" />
    </clipPath>
  </defs>
  <g
     inkscape:label="Layer 1"
     inkscape:groupmode="layer"
     id="layer1"
     transform="translate(82.950447,47.108749)">
    <rect
       style="fill:#ffffff;stroke-width:0.474614"
       id="rect12890"
       width="303.82312"
       height="343.71112"
       x="-82.950447"
       y="-47.108749"
       sodipodi:insensitive="true" />
    <g
       id="g2882"
       transform="translate(34.40065,8.0773352)">
      <g
         id="g842"
         clip-path="url(#clipPath846)"
         transform="matrix(0.35277777,0,0,0.35277777,-93.313914,-6.7164248)">
        <path
           d="M 45.398,5.477 H 365.203 V 332.832 H 45.398 Z"
           style="fill:#ffffff;fill-opacity:1;fill-rule:nonzero;stroke:none"
           id="path848" />
        <path
           d="m 59.934,302.504 3.461,-1.367 3.46,-1.375 3.461,-1.449 3.461,-1.352 3.461,-1.375 3.461,-1.41 3.461,-1.418 3.461,-1.36 3.465,-1.39 3.461,-1.465 3.461,-1.434 3.461,-1.418 3.461,-1.492 3.461,-1.453 3.461,-1.48 3.461,-1.469 3.46,-1.559 3.461,-1.5 3.461,-1.515 3.461,-1.512 3.461,-1.543 3.461,-1.48 3.461,-1.622 3.461,-1.546 3.461,-1.594 3.461,-1.551 3.461,-1.555 3.461,-1.558 3.461,-1.582 3.461,-1.594 3.461,-1.609 3.461,-1.543 3.46,-1.621 3.465,-1.661 3.461,-1.566 3.461,-1.676 3.461,-1.594 3.461,-1.668 3.461,-1.625 3.461,-1.593 3.461,-1.606 3.461,-1.683 3.461,-1.676 3.461,-1.652 3.461,-1.672 3.461,-1.664 3.46,-1.668 3.461,-1.684 3.461,-1.656 3.461,-1.715 3.461,-1.598 3.461,-1.687 3.461,-1.723 3.461,-1.68 3.461,-1.742 3.461,-1.613 3.461,-1.68 3.461,-1.761 3.465,-1.727 3.461,-1.742 3.461,-1.676 3.46,-1.77 3.461,-1.773 3.461,-1.797 3.461,-1.828 3.461,-1.707 3.461,-1.672 3.461,-1.84 3.461,-1.804 3.461,-1.696 3.461,-1.734 3.461,-1.797 3.461,-1.746 3.461,-1.754 3.461,-1.758 3.461,-1.765 3.461,-1.817 3.46,-1.863 3.461,-1.848 3.461,-1.828 3.461,-1.769 3.461,-1.871 3.461,-1.711 3.465,-1.829 V 20.359 l -3.465,3.18 -3.461,3.137 -3.461,3.25 -3.461,3.359 -3.461,3.156 -3.461,3.27 -3.46,3.246 -3.461,3.16 -3.461,3.117 -3.461,3.219 -3.461,3.184 -3.461,3.258 -3.461,3.121 -3.461,3.207 -6.922,6.156 -3.461,3.269 -3.461,3.125 -3.461,3.239 -3.461,3.117 -3.461,3.152 -3.461,2.973 -3.46,3.199 -3.461,3.078 -3.461,2.996 -3.465,3.078 -3.461,3.012 -3.461,3.016 -3.461,3.004 -3.461,3.011 -3.461,2.965 -3.461,3 -3.461,2.953 -3.461,2.903 -3.461,2.89 -3.461,2.95 -3.461,2.972 -3.46,2.914 -3.461,2.758 -3.461,2.828 -3.461,2.797 -3.461,2.801 -3.461,2.734 -3.461,2.668 -3.461,2.692 -3.461,2.672 -3.461,2.664 -3.461,2.675 -3.461,2.485 -3.461,2.566 -3.465,2.547 -3.46,2.477 -3.461,2.429 -3.461,2.535 -3.461,2.493 -3.461,2.39 -3.461,2.352 -3.461,2.39 -3.461,2.223 -3.461,2.344 -3.461,2.273 -3.461,2.352 -3.461,2.332 -3.461,2.234 -3.461,2.121 -3.461,2.227 -3.461,2.164 -3.46,2.098 -3.461,2.101 -3.461,2.063 -3.461,2.035 -3.461,2.066 -3.461,2.004 -3.461,1.949 -3.461,1.844 -3.465,1.832 -3.461,1.934 -3.461,1.758 -3.461,1.882 -3.461,1.84 -3.461,1.809 -3.461,1.738 -3.46,1.793 -3.461,1.699 z"
           style="fill:#1c86ee;fill-opacity:0.4;fill-rule:nonzero;stroke:none"
           id="path850" />
        <path
           d="m 59.934,298.617 3.461,-1.164 3.46,-1.172 3.461,-1.183 3.461,-1.149 3.461,-1.207 3.461,-1.219 3.461,-1.21 3.461,-1.243 3.465,-1.23 13.844,-5 3.461,-1.285 3.461,-1.282 3.461,-1.304 3.46,-1.309 3.461,-1.301 3.461,-1.332 3.461,-1.351 6.922,-2.688 3.461,-1.39 3.461,-1.352 3.461,-1.371 3.461,-1.402 3.461,-1.399 6.922,-2.812 3.461,-1.438 3.461,-1.461 3.461,-1.445 3.46,-1.469 3.465,-1.472 3.461,-1.469 3.461,-1.492 3.461,-1.485 3.461,-1.488 3.461,-1.512 3.461,-1.504 3.461,-1.515 3.461,-1.539 3.461,-1.567 3.461,-1.551 3.461,-1.542 3.461,-1.602 3.46,-1.566 3.461,-1.622 3.461,-1.589 3.461,-1.594 6.922,-3.25 3.461,-1.617 3.461,-1.641 3.461,-1.672 3.461,-1.644 3.461,-1.692 3.461,-1.664 3.465,-1.707 3.461,-1.719 3.461,-1.687 3.46,-1.723 3.461,-1.683 3.461,-1.707 3.461,-1.727 3.461,-1.738 3.461,-1.746 3.461,-1.77 3.461,-1.777 3.461,-1.785 3.461,-1.743 3.461,-1.753 6.922,-3.579 3.461,-1.773 3.461,-1.816 6.921,-3.594 3.461,-1.852 3.461,-1.843 3.461,-1.852 3.461,-1.848 3.461,-1.82 3.465,-1.852 v -58.011 l -3.465,2.394 -3.461,2.399 -3.461,2.422 -3.461,2.367 -3.461,2.332 -3.461,2.324 -3.46,2.371 -3.461,2.313 -3.461,2.328 -3.461,2.293 -3.461,2.3 -3.461,2.293 -3.461,2.27 -3.461,2.297 -3.461,2.265 -3.461,2.243 -3.461,2.273 -3.461,2.203 -3.461,2.207 -3.461,2.235 -3.461,2.207 -3.461,2.195 -3.46,2.227 -3.461,2.187 -3.461,2.145 -3.465,2.128 -3.461,2.137 -3.461,2.102 -3.461,2.129 -3.461,2.125 -3.461,2.082 -3.461,2.074 -3.461,2.027 -3.461,2.039 -3.461,2.047 -3.461,1.977 -3.461,2.019 -3.46,1.969 -3.461,1.984 -3.461,1.961 -3.461,1.957 -3.461,1.926 -3.461,1.922 -3.461,1.926 -3.461,1.898 -3.461,1.891 -3.461,1.871 -3.461,1.848 -6.922,3.625 -3.465,1.812 -3.46,1.766 -3.461,1.761 -3.461,1.77 -3.461,1.762 -3.461,1.711 -3.461,1.742 -3.461,1.695 -3.461,1.715 -3.461,1.672 -3.461,1.644 -3.461,1.614 -6.922,3.218 -3.461,1.622 -3.461,1.613 -3.461,1.558 -3.46,1.551 -3.461,1.531 -3.461,1.52 -3.461,1.512 -3.461,1.496 -3.461,1.488 -3.461,1.481 -3.461,1.457 -3.465,1.476 -3.461,1.418 -3.461,1.402 -3.461,1.442 -6.922,2.789 -3.461,1.387 -3.46,1.355 -3.461,1.32 z"
           style="fill:#eec900;fill-opacity:0.4;fill-rule:nonzero;stroke:none"
           id="path852" />
        <path
           d="m 59.934,317.953 3.461,-0.832 3.46,-0.855 3.461,-0.821 3.461,-0.832 3.461,-0.843 3.461,-0.864 3.461,-0.898 3.461,-0.86 3.465,-0.867 3.461,-0.933 3.461,-0.91 3.461,-0.868 3.461,-0.906 3.461,-0.922 3.461,-0.894 3.461,-0.938 3.46,-0.91 3.461,-0.945 3.461,-0.887 3.461,-0.953 3.461,-0.969 3.461,-0.957 3.461,-0.961 3.461,-0.957 3.461,-0.965 3.461,-0.949 3.461,-0.969 3.461,-0.984 3.461,-0.953 3.461,-0.965 3.461,-0.977 3.461,-0.964 3.46,-0.961 3.465,-0.973 3.461,-0.906 3.461,-0.973 3.461,-0.965 6.922,-1.937 3.461,-0.989 3.461,-0.996 3.461,-1.011 3.461,-1.004 3.461,-1.012 3.461,-1.039 3.461,-1.051 3.46,-1.031 3.461,-0.992 3.461,-0.95 3.461,-0.992 3.461,-1.031 3.461,-0.973 3.461,-1.054 3.461,-1.043 3.461,-0.981 3.461,-1.011 3.461,-1.036 3.461,-1.101 3.465,-1 3.461,-1.024 3.461,-1.089 3.46,-1.008 3.461,-1.071 3.461,-1.039 3.461,-1.082 3.461,-1.054 3.461,-1.067 3.461,-1.043 3.461,-1.035 3.461,-1.055 3.461,-1.117 3.461,-1.047 3.461,-1.156 3.461,-1.133 3.461,-1.164 3.461,-1.019 3.461,-1.102 3.46,-1.082 3.461,-1.066 3.461,-1.133 3.461,-1.121 3.461,-1.09 3.461,-1.109 3.465,-1.043 v -106.43 l -3.465,2.144 -3.461,2.223 -3.461,2.152 -3.461,2.215 -3.461,2.133 -3.461,2.188 -3.46,2.238 -3.461,2.058 -3.461,2.086 -6.922,4.243 -3.461,2.082 -3.461,2.062 -3.461,2.074 -3.461,2.125 -3.461,1.953 -3.461,2.02 -3.461,1.957 -3.461,1.945 -3.461,1.926 -3.461,1.977 -3.461,1.972 -3.46,1.961 -3.461,1.992 -3.461,1.922 -3.465,1.868 -3.461,1.906 -3.461,1.832 -3.461,1.887 -3.461,1.816 -3.461,1.82 -3.461,1.782 -3.461,1.839 -3.461,1.832 -3.461,1.758 -3.461,1.762 -3.461,1.742 -3.46,1.781 -3.461,1.797 -3.461,1.688 -3.461,1.66 -3.461,1.773 -3.461,1.703 -3.461,1.657 -3.461,1.636 -3.461,1.622 -3.461,1.664 -3.461,1.597 -3.461,1.528 -3.461,1.507 -3.465,1.602 -3.46,1.508 -3.461,1.484 -3.461,1.469 -3.461,1.5 -3.461,1.461 -3.461,1.445 -3.461,1.438 -3.461,1.402 -3.461,1.422 -3.461,1.39 -3.461,1.422 -3.461,1.395 -3.461,1.344 -3.461,1.3 -3.461,1.344 -3.461,1.27 -3.46,1.3 -3.461,1.344 -3.461,1.266 -3.461,1.289 -3.461,1.25 -3.461,1.242 -3.461,1.266 -3.461,1.183 -3.465,1.203 -3.461,1.176 -3.461,1.246 -3.461,1.153 -3.461,1.136 -3.461,1.141 -3.461,1.051 -3.46,1.121 -3.461,1.109 z"
           style="fill:#ee2c2c;fill-opacity:0.4;fill-rule:nonzero;stroke:none"
           id="path854" />
        <path
           d="m 59.934,275.637 3.461,-1.555 3.46,-1.551 3.461,-1.574 3.461,-1.598 3.461,-1.589 3.461,-1.629 3.461,-1.653 3.461,-1.644 3.465,-1.692 3.461,-1.711 3.461,-1.699 3.461,-1.742 3.461,-1.758 3.461,-1.75 3.461,-1.789 3.461,-1.734 3.46,-1.832 3.461,-1.828 3.461,-1.817 3.461,-1.828 3.461,-1.855 3.461,-1.883 3.461,-1.867 3.461,-1.922 3.461,-1.942 3.461,-1.961 3.461,-1.937 3.461,-1.977 3.461,-1.988 3.461,-2.004 3.461,-2.023 3.461,-2.039 3.46,-2.051 3.465,-2.078 6.922,-4.25 3.461,-2.145 3.461,-2.14 3.461,-2.164 3.461,-2.176 3.461,-2.172 3.461,-2.203 3.461,-2.211 3.461,-2.219 6.922,-4.461 3.46,-2.242 3.461,-2.258 3.461,-2.324 3.461,-2.301 3.461,-2.332 3.461,-2.32 3.461,-2.317 3.461,-2.328 3.461,-2.359 3.461,-2.309 3.461,-2.347 3.461,-2.399 3.465,-2.418 3.461,-2.457 3.461,-2.426 3.46,-2.449 3.461,-2.41 3.461,-2.43 3.461,-2.476 3.461,-2.496 3.461,-2.473 3.461,-2.52 3.461,-2.515 3.461,-2.5 3.461,-2.52 3.461,-2.527 3.461,-2.535 3.461,-2.528 3.461,-2.558 3.461,-2.555 3.461,-2.586 3.46,-2.597 6.922,-5.164 3.461,-2.579 3.461,-2.589 3.461,-2.594 3.465,-2.578"
           style="fill:none;stroke:#1c86ee;stroke-width:4.26791;stroke-linecap:butt;stroke-linejoin:round;stroke-miterlimit:10;stroke-dasharray:none;stroke-opacity:1"
           id="path856" />
        <path
           d="m 59.934,285.629 3.461,-1.258 3.46,-1.262 3.461,-1.277 3.461,-1.285 3.461,-1.293 3.461,-1.309 3.461,-1.32 3.461,-1.324 3.465,-1.344 3.461,-1.352 3.461,-1.363 3.461,-1.375 3.461,-1.39 3.461,-1.403 3.461,-1.41 3.461,-1.43 3.46,-1.437 3.461,-1.445 3.461,-1.457 3.461,-1.473 3.461,-1.481 3.461,-1.484 3.461,-1.492 3.461,-1.516 6.922,-3.054 3.461,-1.543 3.461,-1.559 3.461,-1.578 3.461,-1.594 6.922,-3.203 3.46,-1.621 3.465,-1.621 6.922,-3.289 3.461,-1.676 3.461,-1.68 3.461,-1.687 3.461,-1.703 3.461,-1.707 3.461,-1.719 3.461,-1.735 3.461,-1.73 3.461,-1.758 3.461,-1.785 3.46,-1.766 3.461,-1.781 3.461,-1.797 3.461,-1.804 3.461,-1.829 3.461,-1.832 3.461,-1.843 3.461,-1.856 3.461,-1.863 3.461,-1.867 3.461,-1.879 3.461,-1.899 3.465,-1.894 3.461,-1.91 3.461,-1.918 6.921,-3.883 3.461,-1.945 6.922,-3.946 3.461,-1.984 3.461,-1.981 3.461,-1.996 3.461,-2.027 3.461,-2.023 3.461,-2.043 3.461,-2.032 3.461,-2.054 3.461,-2.071 3.461,-2.058 3.461,-2.078 3.46,-2.082 6.922,-4.18 3.461,-2.117 6.922,-4.227 3.465,-2.137"
           style="fill:none;stroke:#eec900;stroke-width:4.26791;stroke-linecap:butt;stroke-linejoin:round;stroke-miterlimit:10;stroke-dasharray:none;stroke-opacity:1"
           id="path858" />
        <path
           d="m 59.934,295.121 3.461,-0.984 3.46,-0.989 6.922,-1.992 3.461,-0.988 3.461,-1.027 3.461,-1.008 3.461,-1.016 3.465,-1.051 3.461,-1.039 3.461,-1.054 3.461,-1.063 3.461,-1.078 3.461,-1.062 3.461,-1.086 3.461,-1.102 3.46,-1.098 6.922,-2.211 3.461,-1.136 3.461,-1.133 3.461,-1.156 3.461,-1.145 3.461,-1.183 3.461,-1.176 3.461,-1.168 3.461,-1.188 3.461,-1.195 3.461,-1.199 3.461,-1.203 3.461,-1.227 3.461,-1.203 3.46,-1.234 3.465,-1.235 3.461,-1.25 6.922,-2.531 3.461,-1.277 3.461,-1.27 3.461,-1.273 3.461,-1.309 3.461,-1.324 3.461,-1.309 3.461,-1.332 3.461,-1.344 3.461,-1.359 3.46,-1.344 3.461,-1.351 3.461,-1.367 3.461,-1.352 6.922,-2.781 3.461,-1.395 3.461,-1.426 3.461,-1.41 3.461,-1.422 3.461,-1.414 3.461,-1.449 3.465,-1.433 6.922,-2.899 3.46,-1.484 3.461,-1.453 3.461,-1.481 3.461,-1.512 3.461,-1.519 3.461,-1.504 3.461,-1.516 3.461,-1.523 3.461,-1.496 3.461,-1.543 3.461,-1.551 3.461,-1.559 3.461,-1.562 3.461,-1.57 3.461,-1.567 3.461,-1.57 3.46,-1.586 3.461,-1.582 3.461,-1.613 3.461,-1.621 3.461,-1.614 3.461,-1.629 3.465,-1.613"
           style="fill:none;stroke:#ee2c2c;stroke-width:4.26791;stroke-linecap:butt;stroke-linejoin:round;stroke-miterlimit:10;stroke-dasharray:none;stroke-opacity:1"
           id="path860" />
        <path
           d="M 45.398,5.477 H 365.203 V 332.832 H 45.398 Z"
           style="fill:none;stroke:#333333;stroke-width:3.20093;stroke-linecap:round;stroke-linejoin:round;stroke-miterlimit:10;stroke-dasharray:none;stroke-opacity:1"
           id="path862" />
      </g>
      <text
         style="font-variant:normal;font-weight:normal;font-size:4.51556px;font-family:Arial;-inkscape-font-specification:ArialMT;writing-mode:lr-tb;fill:#4d4d4d;fill-opacity:1;fill-rule:nonzero;stroke:none;stroke-width:0.352778"
         id="text876"
         x="-85.315781"
         y="110.91429"><tspan
           x="-85.315781 -82.80513 -81.554321"
           y="110.91429"
           sodipodi:role="line"
           id="tspan866"
           style="stroke-width:0.352778">0.1</tspan><tspan
           x="-85.315781 -82.80513 -81.554321"
           y="86.633255"
           sodipodi:role="line"
           id="tspan868"
           style="stroke-width:0.352778">0.2</tspan><tspan
           x="-85.315781 -82.80513 -81.554321"
           y="62.35223"
           sodipodi:role="line"
           id="tspan870"
           style="stroke-width:0.352778">0.3</tspan><tspan
           x="-85.315781 -82.80513 -81.554321"
           y="38.071198"
           sodipodi:role="line"
           id="tspan872"
           style="stroke-width:0.352778">0.4</tspan><tspan
           x="-85.315781 -82.80513 -81.554321"
           y="13.791538"
           sodipodi:role="line"
           id="tspan874"
           style="stroke-width:0.352778">0.5</tspan></text>
      <path
         d="m -78.265825,109.29913 h 0.967316"
         style="fill:none;stroke:#333333;stroke-width:0.376407;stroke-linecap:butt;stroke-linejoin:round;stroke-miterlimit:10;stroke-dasharray:none;stroke-opacity:1"
         id="path878" />
      <path
         d="m -78.265825,85.018143 h 0.967316"
         style="fill:none;stroke:#333333;stroke-width:0.376407;stroke-linecap:butt;stroke-linejoin:round;stroke-miterlimit:10;stroke-dasharray:none;stroke-opacity:1"
         id="path880" />
      <path
         d="m -78.265825,60.737154 h 0.967316"
         style="fill:none;stroke:#333333;stroke-width:0.376407;stroke-linecap:butt;stroke-linejoin:round;stroke-miterlimit:10;stroke-dasharray:none;stroke-opacity:1"
         id="path882" />
      <path
         d="m -78.265825,36.456166 h 0.967316"
         style="fill:none;stroke:#333333;stroke-width:0.376407;stroke-linecap:butt;stroke-linejoin:round;stroke-miterlimit:10;stroke-dasharray:none;stroke-opacity:1"
         id="path884" />
      <path
         d="m -78.265825,12.175178 h 0.967316"
         style="fill:none;stroke:#333333;stroke-width:0.376407;stroke-linecap:butt;stroke-linejoin:round;stroke-miterlimit:10;stroke-dasharray:none;stroke-opacity:1"
         id="path886" />
      <path
         d="m -54.344318,111.66662 v -0.96731"
         style="fill:none;stroke:#333333;stroke-width:0.376407;stroke-linecap:butt;stroke-linejoin:round;stroke-miterlimit:10;stroke-dasharray:none;stroke-opacity:1"
         id="path888" />
      <path
         d="m -29.923982,111.66662 v -0.96731"
         style="fill:none;stroke:#333333;stroke-width:0.376407;stroke-linecap:butt;stroke-linejoin:round;stroke-miterlimit:10;stroke-dasharray:none;stroke-opacity:1"
         id="path890" />
      <path
         d="m -5.5039993,111.66662 v -0.96731"
         style="fill:none;stroke:#333333;stroke-width:0.376407;stroke-linecap:butt;stroke-linejoin:round;stroke-miterlimit:10;stroke-dasharray:none;stroke-opacity:1"
         id="path892" />
      <path
         d="m 18.916336,111.66662 v -0.96731"
         style="fill:none;stroke:#333333;stroke-width:0.376407;stroke-linecap:butt;stroke-linejoin:round;stroke-miterlimit:10;stroke-dasharray:none;stroke-opacity:1"
         id="path894" />
      <text
         style="font-variant:normal;font-weight:normal;font-size:4.51556px;font-family:Arial;-inkscape-font-specification:ArialMT;writing-mode:lr-tb;fill:#4d4d4d;fill-opacity:1;fill-rule:nonzero;stroke:none;stroke-width:0.352778"
         id="text898"
         x="-56.855156"
         y="115.67128"><tspan
           x="-56.855156 -54.344509 -32.435036 -29.924383 -8.0194225 -5.5087767 16.405485 18.916138"
           y="115.67128"
           sodipodi:role="line"
           id="tspan896"
           style="stroke-width:0.352778">20304050</tspan></text>
    </g>
    <g
       id="g2912"
       transform="translate(32.814174,4.902335)">
      <g
         id="g1016"
         clip-path="url(#clipPath1020)"
         transform="matrix(0.35277777,0,0,0.35277777,-90.458144,132.14535)">
        <path
           d="M 45.398,5.477 H 361.605 V 332.832 H 45.398 Z"
           style="fill:#ffffff;fill-opacity:1;fill-rule:nonzero;stroke:none"
           id="path1022" />
        <path
           d="m 59.77,314.914 3.421,-1.648 3.422,-1.653 3.422,-1.691 3.426,-1.734 3.422,-1.75 3.422,-1.743 3.422,-1.75 3.421,-1.718 3.422,-1.766 3.422,-1.824 3.422,-1.844 3.422,-1.809 3.422,-1.832 3.422,-1.828 3.422,-1.937 3.421,-1.887 3.422,-1.922 3.422,-1.89 3.426,-1.942 3.422,-1.93 3.422,-1.961 3.422,-1.917 3.421,-1.973 3.422,-1.949 3.422,-1.961 3.422,-2.032 3.422,-1.988 3.422,-2.035 3.422,-2.109 3.422,-2.071 3.421,-2.121 3.422,-2.125 3.422,-2.121 3.426,-2.09 6.844,-4.32 3.422,-2.145 6.843,-4.312 3.422,-2.172 3.422,-2.141 3.422,-2.226 3.422,-2.215 3.422,-2.269 3.422,-2.227 3.422,-2.246 3.421,-2.289 3.422,-2.242 3.426,-2.329 3.422,-2.281 3.422,-2.246 3.422,-2.301 3.422,-2.324 3.421,-2.344 3.422,-2.386 3.422,-2.328 3.422,-2.368 3.422,-2.457 3.422,-2.418 3.422,-2.433 3.422,-2.43 3.421,-2.453 3.422,-2.395 3.422,-2.48 3.426,-2.504 3.422,-2.488 3.422,-2.52 3.422,-2.402 3.421,-2.465 3.422,-2.457 3.422,-2.496 3.422,-2.481 3.422,-2.527 3.422,-2.539 3.422,-2.547 3.422,-2.551 3.421,-2.5 3.422,-2.543 3.422,-2.582 3.426,-2.589 3.422,-2.52 3.422,-2.625 3.422,-2.559 3.421,-2.546 V 20.359 l -3.421,3.899 -3.422,3.746 -3.422,3.766 -3.422,3.855 -3.426,3.715 -3.422,3.758 -3.422,3.761 -3.421,3.809 -3.422,3.824 -3.422,3.676 -3.422,3.668 -3.422,3.633 -3.422,3.75 -3.422,3.711 -3.422,3.668 -3.421,3.691 -3.422,3.66 -3.422,3.676 -3.422,3.629 -3.426,3.617 -3.422,3.555 -3.422,3.508 -3.421,3.546 -3.422,3.536 -3.422,3.441 -3.422,3.539 -6.844,6.828 -3.422,3.371 -3.422,3.391 -3.421,3.418 -6.844,6.703 -3.422,3.27 -3.422,3.234 -3.426,3.219 -3.422,3.234 -3.421,3.176 -3.422,3.168 -3.422,3.078 -3.422,3.086 -3.422,3.074 -3.422,3.137 -3.422,3.058 -3.422,3.016 -3.421,3.02 -3.422,2.906 -3.422,2.98 -3.422,2.942 -3.422,2.886 -3.426,2.895 -3.422,2.769 -3.422,2.817 -3.421,2.715 -3.422,2.738 -3.422,2.68 -3.422,2.675 -3.422,2.657 -3.422,2.629 -3.422,2.589 -3.422,2.606 -3.421,2.519 -3.422,2.465 -3.422,2.457 -3.422,2.453 -3.426,2.364 -3.422,2.449 -3.422,2.379 -3.421,2.363 -3.422,2.301 -3.422,2.297 -3.422,2.293 -3.422,2.219 -3.422,2.168 -3.422,2.171 -3.422,2.125 -3.421,2.102 -3.422,2.144 -3.422,2.137 -3.422,2.043 -3.426,1.985 -3.422,1.98 -3.422,1.934 -3.421,1.992 z"
           style="fill:#1c86ee;fill-opacity:0.4;fill-rule:nonzero;stroke:none"
           id="path1024" />
        <path
           d="m 59.77,312.105 3.421,-1.414 3.422,-1.41 3.422,-1.383 3.426,-1.429 3.422,-1.457 3.422,-1.469 6.843,-2.914 3.422,-1.492 3.422,-1.504 3.422,-1.512 3.422,-1.523 3.422,-1.543 3.422,-1.535 3.422,-1.547 3.421,-1.59 3.422,-1.594 3.422,-1.586 3.426,-1.625 3.422,-1.629 3.422,-1.668 3.422,-1.652 3.421,-1.672 3.422,-1.66 3.422,-1.672 3.422,-1.684 3.422,-1.722 3.422,-1.762 3.422,-1.723 3.422,-1.793 3.421,-1.769 3.422,-1.785 3.422,-1.742 3.426,-1.778 3.422,-1.777 3.422,-1.817 6.844,-3.648 3.421,-1.844 3.422,-1.832 3.422,-1.894 3.422,-1.899 3.422,-1.883 3.422,-1.925 3.422,-1.934 3.422,-1.984 3.421,-1.946 3.422,-1.976 3.426,-2.004 3.422,-1.973 3.422,-2.051 3.422,-1.968 3.422,-2.008 3.421,-2.024 6.844,-4.023 3.422,-2.027 3.422,-2.02 3.422,-2.039 3.422,-2.078 3.422,-2.113 3.421,-2.094 3.422,-2.102 3.422,-2.109 3.426,-2.137 3.422,-2.129 3.422,-2.125 3.422,-2.109 3.421,-2.195 3.422,-2.176 3.422,-2.199 3.422,-2.176 3.422,-2.234 3.422,-2.176 6.844,-4.422 3.421,-2.188 3.422,-2.222 3.422,-2.27 3.426,-2.269 3.422,-2.258 3.422,-2.281 3.422,-2.289 3.421,-2.274 V 86.238 l -3.421,2.891 -3.422,2.855 -3.422,2.868 -3.422,2.886 -3.426,2.828 -3.422,2.856 -3.422,2.875 -3.421,2.832 -3.422,2.859 -3.422,2.832 -3.422,2.731 -6.844,5.547 -3.422,2.742 -3.422,2.726 -3.421,2.688 -3.422,2.648 -3.422,2.75 -3.422,2.657 -3.426,2.664 -3.422,2.652 -3.422,2.637 -3.421,2.664 -3.422,2.59 -3.422,2.578 -3.422,2.586 -3.422,2.554 -3.422,2.512 -3.422,2.559 -3.422,2.508 -3.421,2.527 -3.422,2.512 -3.422,2.468 -3.422,2.496 -3.422,2.442 -3.426,2.453 -3.422,2.43 -3.421,2.425 -3.422,2.379 -3.422,2.36 -3.422,2.383 -3.422,2.332 -3.422,2.32 -3.422,2.328 -3.422,2.301 -3.421,2.265 -3.422,2.274 -3.422,2.211 -3.422,2.195 -3.422,2.168 -3.426,2.184 -6.844,4.289 -3.421,2.164 -3.422,2.086 -3.422,2.082 -3.422,2.078 -3.422,2.039 -3.422,2.059 -3.422,2.019 -3.422,1.992 -3.421,1.996 -3.422,1.981 -3.422,1.976 -3.422,1.934 -3.426,1.945 -3.422,1.871 -3.422,1.868 -3.421,1.894 -6.844,3.711 -3.422,1.871 -3.422,1.805 -3.422,1.781 -3.422,1.793 -3.422,1.777 -3.421,1.731 -3.422,1.754 -6.844,3.398 -3.426,1.684 -3.422,1.64 -3.422,1.664 -3.421,1.618 z"
           style="fill:#eec900;fill-opacity:0.4;fill-rule:nonzero;stroke:none"
           id="path1026" />
        <path
           d="m 59.77,317.953 3.421,-1.121 3.422,-1.09 3.422,-1.129 3.426,-1.117 3.422,-1.141 3.422,-1.171 3.422,-1.164 3.421,-1.192 3.422,-1.183 3.422,-1.137 3.422,-1.16 3.422,-1.168 3.422,-1.196 3.422,-1.199 3.422,-1.187 3.421,-1.196 3.422,-1.16 3.422,-1.203 3.426,-1.184 3.422,-1.21 3.422,-1.223 3.422,-1.25 3.421,-1.16 3.422,-1.215 3.422,-1.207 3.422,-1.215 3.422,-1.18 3.422,-1.23 3.422,-1.223 3.422,-1.262 3.421,-1.214 3.422,-1.18 3.422,-1.254 3.426,-1.254 3.422,-1.211 3.422,-1.219 3.422,-1.265 3.422,-1.207 3.421,-1.227 3.422,-1.25 3.422,-1.281 3.422,-1.27 3.422,-1.265 3.422,-1.274 3.422,-1.293 3.422,-1.308 3.421,-1.27 3.422,-1.293 3.426,-1.273 3.422,-1.25 3.422,-1.211 3.422,-1.258 3.422,-1.195 3.421,-1.242 3.422,-1.235 3.422,-1.273 3.422,-1.27 3.422,-1.261 3.422,-1.289 3.422,-1.258 3.422,-1.223 3.421,-1.269 3.422,-1.258 3.422,-1.289 3.426,-1.321 3.422,-1.316 3.422,-1.332 3.422,-1.297 3.421,-1.328 3.422,-1.293 3.422,-1.285 3.422,-1.321 3.422,-1.375 3.422,-1.335 3.422,-1.325 3.422,-1.316 3.421,-1.274 3.422,-1.371 3.422,-1.355 3.426,-1.383 3.422,-1.418 3.422,-1.281 3.422,-1.332 3.421,-1.328 V 106.703 l -3.421,2.668 -6.844,5.227 -3.422,2.574 -3.426,2.57 -3.422,2.606 -3.422,2.527 -3.421,2.535 -3.422,2.563 -3.422,2.539 -3.422,2.496 -6.844,5.008 -3.422,2.461 -3.422,2.453 -3.421,2.394 -3.422,2.426 -3.422,2.344 -3.422,2.445 -3.426,2.32 -3.422,2.332 -3.422,2.411 -3.421,2.382 -3.422,2.356 -3.422,2.344 -3.422,2.296 -3.422,2.243 -3.422,2.289 -3.422,2.23 -3.422,2.266 -3.421,2.246 -3.422,2.184 -3.422,2.214 -3.422,2.176 -3.422,2.137 -3.426,2.133 -3.422,2.121 -3.421,2.094 -3.422,2.007 -3.422,2.075 -3.422,2.054 -3.422,1.957 -3.422,2.02 -3.422,2.008 -3.422,1.988 -3.421,1.996 -3.422,1.937 -3.422,1.946 -3.422,1.914 -3.422,1.918 -3.426,1.898 -3.422,1.867 -3.422,1.84 -3.421,1.801 -3.422,1.859 -3.422,1.797 -3.422,1.782 -3.422,1.726 -3.422,1.703 -3.422,1.727 -3.422,1.68 -3.421,1.738 -3.422,1.648 -3.422,1.633 -3.422,1.594 -3.426,1.668 -3.422,1.57 -3.422,1.563 -3.421,1.609 -3.422,1.484 -3.422,1.528 -3.422,1.468 -3.422,1.508 -3.422,1.473 -3.422,1.457 -3.422,1.363 -3.421,1.395 -3.422,1.406 -3.422,1.375 -3.422,1.391 -3.426,1.296 -3.422,1.391 -3.422,1.336 -3.421,1.297 z"
           style="fill:#ee2c2c;fill-opacity:0.4;fill-rule:nonzero;stroke:none"
           id="path1028" />
        <path
           d="m 59.77,295.242 3.421,-1.816 3.422,-1.836 3.422,-1.844 3.426,-1.894 3.422,-1.895 3.422,-1.898 3.422,-1.93 3.421,-1.941 3.422,-1.973 3.422,-1.977 3.422,-2 3.422,-2.05 3.422,-2.047 3.422,-2.082 3.422,-2.067 3.421,-2.117 3.422,-2.129 3.422,-2.152 3.426,-2.18 3.422,-2.195 3.422,-2.199 3.422,-2.243 3.421,-2.257 3.422,-2.27 3.422,-2.309 3.422,-2.328 3.422,-2.34 3.422,-2.347 3.422,-2.367 3.422,-2.383 3.421,-2.422 3.422,-2.434 3.422,-2.484 3.426,-2.465 3.422,-2.512 6.844,-5.062 6.843,-5.117 3.422,-2.586 3.422,-2.594 3.422,-2.629 3.422,-2.644 3.422,-2.661 3.422,-2.691 3.422,-2.707 3.421,-2.703 3.422,-2.735 3.426,-2.738 3.422,-2.762 3.422,-2.757 3.422,-2.813 3.422,-2.785 3.421,-2.836 3.422,-2.828 3.422,-2.891 3.422,-2.859 3.422,-2.883 3.422,-2.906 3.422,-2.922 3.422,-2.941 3.421,-2.965 3.422,-2.977 3.422,-2.984 3.426,-2.996 3.422,-3.032 3.422,-3.042 3.422,-3.051 3.421,-3.059 3.422,-3.074 3.422,-3.098 3.422,-3.105 3.422,-3.102 3.422,-3.133 3.422,-3.128 3.422,-3.165 3.421,-3.183 3.422,-3.192 3.422,-3.164 3.426,-3.171 3.422,-3.2 3.422,-3.238 3.422,-3.23 3.421,-3.219"
           style="fill:none;stroke:#1c86ee;stroke-width:4.26791;stroke-linecap:butt;stroke-linejoin:round;stroke-miterlimit:10;stroke-dasharray:none;stroke-opacity:1"
           id="path1030" />
        <path
           d="m 59.77,296.32 3.421,-1.511 3.422,-1.539 3.422,-1.543 3.426,-1.559 3.422,-1.574 3.422,-1.578 3.422,-1.606 3.421,-1.597 3.422,-1.633 3.422,-1.649 3.422,-1.652 3.422,-1.672 3.422,-1.684 6.844,-3.414 3.421,-1.73 3.422,-1.742 3.422,-1.758 3.426,-1.77 3.422,-1.796 3.422,-1.809 6.843,-3.649 3.422,-1.855 3.422,-1.852 3.422,-1.871 3.422,-1.882 3.422,-1.899 3.422,-1.902 3.422,-1.926 3.421,-1.957 3.422,-1.949 3.422,-1.965 3.426,-1.984 3.422,-1.997 3.422,-2.011 3.422,-2.024 3.422,-2.031 3.421,-2.039 3.422,-2.059 3.422,-2.078 3.422,-2.09 3.422,-2.105 6.844,-4.25 3.422,-2.156 3.421,-2.192 3.422,-2.179 3.426,-2.184 3.422,-2.203 3.422,-2.215 3.422,-2.227 3.422,-2.246 6.843,-4.523 3.422,-2.285 3.422,-2.305 3.422,-2.293 3.422,-2.332 3.422,-2.316 3.422,-2.336 3.421,-2.367 3.422,-2.356 3.422,-2.379 3.426,-2.39 3.422,-2.403 3.422,-2.422 3.422,-2.429 3.421,-2.446 3.422,-2.441 3.422,-2.453 3.422,-2.477 3.422,-2.48 3.422,-2.492 3.422,-2.497 3.422,-2.5 10.265,-7.664 3.426,-2.539 3.422,-2.57 3.422,-2.578 3.422,-2.59 3.421,-2.598"
           style="fill:none;stroke:#eec900;stroke-width:4.26791;stroke-linecap:butt;stroke-linejoin:round;stroke-miterlimit:10;stroke-dasharray:none;stroke-opacity:1"
           id="path1032" />
        <path
           d="m 59.77,297.484 3.421,-1.214 3.422,-1.211 3.422,-1.239 3.426,-1.246 3.422,-1.269 3.422,-1.266 3.422,-1.273 3.421,-1.301 3.422,-1.309 3.422,-1.297 3.422,-1.324 3.422,-1.344 3.422,-1.336 6.844,-2.687 3.421,-1.375 3.422,-1.359 3.422,-1.387 3.426,-1.406 3.422,-1.387 3.422,-1.41 3.422,-1.426 3.421,-1.406 3.422,-1.453 6.844,-2.875 3.422,-1.465 3.422,-1.481 3.422,-1.496 3.422,-1.472 3.421,-1.512 3.422,-1.504 3.422,-1.516 3.426,-1.539 3.422,-1.531 3.422,-1.582 3.422,-1.574 3.422,-1.578 3.421,-1.586 6.844,-3.196 3.422,-1.605 3.422,-1.602 3.422,-1.636 3.422,-1.657 3.422,-1.648 3.421,-1.656 3.422,-1.672 3.426,-1.664 3.422,-1.672 3.422,-1.692 3.422,-1.707 3.422,-1.683 3.421,-1.715 3.422,-1.719 6.844,-3.523 3.422,-1.75 3.422,-1.754 3.422,-1.801 6.843,-3.594 3.422,-1.761 3.422,-1.809 3.426,-1.809 3.422,-1.82 3.422,-1.836 3.422,-1.844 3.421,-1.835 3.422,-1.848 3.422,-1.86 3.422,-1.894 3.422,-1.856 3.422,-1.89 3.422,-1.883 6.843,-3.828 3.422,-1.926 3.422,-1.941 3.426,-1.957 3.422,-1.93 3.422,-1.984 3.422,-1.934 3.421,-1.965"
           style="fill:none;stroke:#ee2c2c;stroke-width:4.26791;stroke-linecap:butt;stroke-linejoin:round;stroke-miterlimit:10;stroke-dasharray:none;stroke-opacity:1"
           id="path1034" />
        <path
           d="M 45.398,5.477 H 361.605 V 332.832 H 45.398 Z"
           style="fill:none;stroke:#333333;stroke-width:3.20093;stroke-linecap:round;stroke-linejoin:round;stroke-miterlimit:10;stroke-dasharray:none;stroke-opacity:1"
           id="path1036" />
      </g>
      <text
         style="font-variant:normal;font-weight:normal;font-size:4.51556px;font-family:Arial;-inkscape-font-specification:ArialMT;writing-mode:lr-tb;fill:#4d4d4d;fill-opacity:1;fill-rule:nonzero;stroke:none;stroke-width:0.352778"
         id="text1048"
         x="-82.460007"
         y="226.82069"><tspan
           x="-82.460007 -79.949364 -78.698555"
           y="226.82069"
           sodipodi:role="line"
           id="tspan1040"
           style="stroke-width:0.352778">0.2</tspan><tspan
           x="-82.460007 -79.949364 -78.698555"
           y="197.05232"
           sodipodi:role="line"
           id="tspan1042"
           style="stroke-width:0.352778">0.3</tspan><tspan
           x="-82.460007 -79.949364 -78.698555"
           y="167.28532"
           sodipodi:role="line"
           id="tspan1044"
           style="stroke-width:0.352778">0.4</tspan><tspan
           x="-82.460007 -79.949364 -78.698555"
           y="137.51694"
           sodipodi:role="line"
           id="tspan1046"
           style="stroke-width:0.352778">0.5</tspan></text>
      <path
         d="m -75.410055,225.20425 h 0.967316"
         style="fill:none;stroke:#333333;stroke-width:0.376407;stroke-linecap:butt;stroke-linejoin:round;stroke-miterlimit:10;stroke-dasharray:none;stroke-opacity:1"
         id="path1050" />
      <path
         d="m -75.410055,195.4358 h 0.967316"
         style="fill:none;stroke:#333333;stroke-width:0.376407;stroke-linecap:butt;stroke-linejoin:round;stroke-miterlimit:10;stroke-dasharray:none;stroke-opacity:1"
         id="path1052" />
      <path
         d="m -75.410055,165.66876 h 0.967316"
         style="fill:none;stroke:#333333;stroke-width:0.376407;stroke-linecap:butt;stroke-linejoin:round;stroke-miterlimit:10;stroke-dasharray:none;stroke-opacity:1"
         id="path1054" />
      <path
         d="m -75.410055,135.90067 h 0.967316"
         style="fill:none;stroke:#333333;stroke-width:0.376407;stroke-linecap:butt;stroke-linejoin:round;stroke-miterlimit:10;stroke-dasharray:none;stroke-opacity:1"
         id="path1056" />
      <path
         d="m -51.746428,250.5284 v -0.96732"
         style="fill:none;stroke:#333333;stroke-width:0.376407;stroke-linecap:butt;stroke-linejoin:round;stroke-miterlimit:10;stroke-dasharray:none;stroke-opacity:1"
         id="path1058" />
      <path
         d="m -27.601612,250.5284 v -0.96732"
         style="fill:none;stroke:#333333;stroke-width:0.376407;stroke-linecap:butt;stroke-linejoin:round;stroke-miterlimit:10;stroke-dasharray:none;stroke-opacity:1"
         id="path1060" />
      <path
         d="m -3.4571487,250.5284 v -0.96732"
         style="fill:none;stroke:#333333;stroke-width:0.376407;stroke-linecap:butt;stroke-linejoin:round;stroke-miterlimit:10;stroke-dasharray:none;stroke-opacity:1"
         id="path1062" />
      <path
         d="m 20.689079,250.5284 v -0.96732"
         style="fill:none;stroke:#333333;stroke-width:0.376407;stroke-linecap:butt;stroke-linejoin:round;stroke-miterlimit:10;stroke-dasharray:none;stroke-opacity:1"
         id="path1064" />
      <text
         style="font-variant:normal;font-weight:normal;font-size:4.51556px;font-family:Arial;-inkscape-font-specification:ArialMT;writing-mode:lr-tb;fill:#4d4d4d;fill-opacity:1;fill-rule:nonzero;stroke:none;stroke-width:0.352778"
         id="text1068"
         x="-54.25708"
         y="254.53305"><tspan
           x="-54.25708 -51.746433 -30.112408 -27.601755 -5.9722438 -3.4615984 18.178118 20.688768"
           y="254.53305"
           sodipodi:role="line"
           id="tspan1066"
           style="stroke-width:0.352778">20304050</tspan></text>
    </g>
    <g
       id="g1172"
       inkscape:label="pien_dbhXmat_mort"
       transform="matrix(0.35277777,0,0,0.35277777,69.321418,1.3609104)">
      <g
         id="g1174" />
      <g
         id="g1182">
        <g
           id="g1184"
           clip-path="url(#clipPath1188)">
          <path
             d="M 45.398,5.477 H 365.203 V 332.832 H 45.398 Z"
             style="fill:#ffffff;fill-opacity:1;fill-rule:nonzero;stroke:none"
             id="path1190" />
          <path
             d="m 59.934,279.535 3.461,-1.113 3.46,-1.145 3.461,-1.105 3.461,-1.211 3.461,-1.195 3.461,-1.207 3.461,-1.235 3.461,-1.238 3.465,-1.281 3.461,-1.258 3.461,-1.301 3.461,-1.262 6.922,-2.671 3.461,-1.379 3.461,-1.348 3.46,-1.406 3.461,-1.395 3.461,-1.398 3.461,-1.473 3.461,-1.519 3.461,-1.446 3.461,-1.496 3.461,-1.547 3.461,-1.554 3.461,-1.547 3.461,-1.578 3.461,-1.586 3.461,-1.598 3.461,-1.539 3.461,-1.637 3.461,-1.613 3.46,-1.645 3.465,-1.711 3.461,-1.742 3.461,-1.754 3.461,-1.718 3.461,-1.743 3.461,-1.738 3.461,-1.707 3.461,-1.789 3.461,-1.785 3.461,-1.82 3.461,-1.844 3.461,-1.906 3.461,-1.911 3.46,-1.89 6.922,-3.821 3.461,-1.98 3.461,-1.973 3.461,-1.988 3.461,-1.996 3.461,-1.969 3.461,-1.918 3.461,-1.933 3.461,-1.953 3.461,-2.067 3.465,-2.027 3.461,-1.988 3.461,-2.075 3.46,-2.086 3.461,-2.062 3.461,-1.985 3.461,-2.023 3.461,-2.199 3.461,-2.125 3.461,-2.063 3.461,-2.132 3.461,-2.125 3.461,-2.11 3.461,-2.133 3.461,-2.148 3.461,-2.133 3.461,-2.16 3.461,-2.191 3.461,-2.2 3.46,-2.207 3.461,-2.133 3.461,-2.222 3.461,-2.18 3.461,-2.215 3.461,-2.238 3.465,-2.293 V 20.359 l -3.465,2.684 -3.461,2.641 -3.461,2.695 -3.461,2.738 -3.461,2.781 -3.461,2.797 -3.46,2.7 -3.461,2.742 -3.461,2.883 -3.461,2.793 -3.461,2.738 -3.461,2.844 -3.461,2.699 -3.461,2.715 -3.461,2.824 -3.461,2.722 -3.461,2.864 -3.461,2.777 -3.461,2.801 -3.461,2.726 -3.461,2.762 -3.461,2.817 -3.46,2.785 -3.461,2.812 -3.461,2.766 -3.465,2.816 -3.461,2.66 -3.461,2.782 -3.461,2.66 -3.461,2.683 -3.461,2.774 -3.461,2.633 -3.461,2.734 -3.461,2.68 -3.461,2.621 -3.461,2.656 -3.461,2.641 -3.46,2.664 -3.461,2.531 -3.461,2.551 -3.461,2.597 -3.461,2.528 -3.461,2.531 -3.461,2.477 -3.461,2.492 -3.461,2.488 -3.461,2.445 -3.461,2.496 -3.461,2.43 -3.461,2.363 -3.465,2.399 -3.46,2.445 -3.461,2.321 -3.461,2.324 -3.461,2.355 -3.461,2.301 -3.461,2.258 -6.922,4.648 -3.461,2.246 -3.461,2.153 -3.461,2.226 -3.461,2.153 -3.461,2.117 -3.461,2.109 -3.461,2.067 -3.461,2.062 -3.46,2 -3.461,2.051 -3.461,2.035 -3.461,1.969 -3.461,1.984 -3.461,1.926 -3.461,1.961 -3.461,1.894 -3.465,1.809 -3.461,1.777 -3.461,1.84 -6.922,3.508 -3.461,1.738 -3.461,1.758 -3.46,1.727 -3.461,1.629 z"
             style="fill:#1c86ee;fill-opacity:0.4;fill-rule:nonzero;stroke:none"
             id="path1192" />
          <path
             d="m 59.934,297.93 6.921,-1.086 6.922,-1.117 3.461,-0.563 3.461,-0.574 3.461,-0.57 3.461,-0.575 3.465,-0.586 3.461,-0.593 3.461,-0.606 3.461,-0.637 3.461,-0.625 3.461,-0.617 3.461,-0.629 3.461,-0.644 3.46,-0.649 3.461,-0.652 3.461,-0.68 3.461,-0.675 6.922,-1.368 3.461,-0.687 3.461,-0.692 3.461,-0.718 3.461,-0.696 3.461,-0.714 3.461,-0.747 3.461,-0.753 3.461,-0.75 3.461,-0.758 3.461,-0.766 3.46,-0.789 3.465,-0.758 3.461,-0.808 3.461,-0.789 3.461,-0.813 3.461,-0.832 3.461,-0.816 3.461,-0.84 3.461,-0.836 3.461,-0.848 3.461,-0.851 3.461,-0.86 3.461,-0.871 3.461,-0.867 3.46,-0.91 6.922,-1.813 3.461,-0.902 3.461,-0.93 3.461,-0.933 3.461,-0.949 3.461,-0.954 3.461,-0.972 3.461,-0.985 3.461,-0.992 3.461,-1.008 3.465,-0.996 3.461,-1.023 3.461,-1.039 6.921,-2.063 3.461,-1.054 3.461,-1.059 3.461,-1.09 3.461,-1.074 3.461,-1.094 3.461,-1.109 3.461,-1.098 3.461,-1.109 3.461,-1.121 6.922,-2.282 3.461,-1.16 6.922,-2.359 3.46,-1.195 3.461,-1.176 3.461,-1.196 3.461,-1.21 3.461,-1.235 3.461,-1.219 3.465,-1.269 v -46.723 l -3.465,1.602 -3.461,1.617 -3.461,1.613 -3.461,1.633 -3.461,1.594 -3.461,1.574 -6.921,3.141 -3.461,1.566 -3.461,1.555 -3.461,1.547 -3.461,1.543 -3.461,1.515 -3.461,1.496 -3.461,1.469 -3.461,1.496 -6.922,2.922 -3.461,1.449 -3.461,1.442 -3.461,1.382 -3.461,1.387 -6.921,2.781 -3.461,1.383 -3.465,1.371 -3.461,1.36 -3.461,1.336 -3.461,1.332 -3.461,1.304 -3.461,1.297 -3.461,1.282 -3.461,1.269 -3.461,1.262 -3.461,1.269 -3.461,1.278 -3.461,1.242 -3.46,1.238 -3.461,1.234 -6.922,2.383 -6.922,2.375 -3.461,1.164 -3.461,1.168 -3.461,1.149 -3.461,1.121 -6.922,2.234 -3.461,1.09 -3.465,1.086 -3.46,1.066 -3.461,1.059 -3.461,1.043 -3.461,1.051 -3.461,1.039 -3.461,1.015 -3.461,1.008 -3.461,1.016 -3.461,0.992 -3.461,0.977 -6.922,1.89 -3.461,0.953 -3.461,0.934 -3.461,0.918 -3.461,0.91 -3.46,0.914 -3.461,0.899 -3.461,0.882 -3.461,0.879 -3.461,0.86 -3.461,0.875 -3.461,0.843 -3.461,0.836 -3.465,0.836 -3.461,0.801 -3.461,0.797 -3.461,0.789 -3.461,0.785 -3.461,0.778 -3.461,0.761 -3.46,0.746 -3.461,0.77 z"
             style="fill:#eec900;fill-opacity:0.4;fill-rule:nonzero;stroke:none"
             id="path1194" />
          <path
             d="m 59.934,317.953 3.461,-0.176 3.46,-0.179 3.461,-0.168 3.461,-0.18 3.461,-0.168 3.461,-0.18 6.922,-0.382 3.465,-0.18 6.922,-0.375 13.844,-0.766 3.461,-0.179 6.921,-0.383 3.461,-0.196 3.461,-0.203 3.461,-0.199 3.461,-0.191 3.461,-0.203 3.461,-0.192 3.461,-0.207 3.461,-0.191 3.461,-0.203 3.461,-0.2 3.461,-0.183 3.461,-0.196 3.461,-0.207 3.461,-0.218 3.46,-0.203 3.465,-0.211 3.461,-0.207 6.922,-0.422 3.461,-0.196 3.461,-0.218 3.461,-0.223 3.461,-0.219 3.461,-0.226 6.922,-0.422 3.461,-0.215 3.461,-0.203 6.921,-0.43 13.844,-0.875 3.461,-0.211 3.461,-0.226 3.461,-0.219 3.461,-0.215 3.461,-0.23 3.461,-0.239 3.465,-0.222 6.922,-0.477 3.46,-0.226 6.922,-0.469 3.461,-0.242 3.461,-0.239 3.461,-0.234 3.461,-0.242 3.461,-0.235 3.461,-0.242 6.922,-0.492 3.461,-0.234 3.461,-0.254 3.461,-0.25 3.461,-0.242 3.461,-0.247 3.46,-0.242 3.461,-0.226 3.461,-0.25 3.461,-0.246 3.461,-0.243 3.461,-0.234 3.465,-0.25 v -42.301 l -3.465,0.727 -3.461,0.691 -3.461,0.68 -3.461,0.683 -3.461,0.688 -3.461,0.66 -3.46,0.656 -3.461,0.618 -3.461,0.695 -3.461,0.652 -3.461,0.629 -3.461,0.61 -3.461,0.636 -3.461,0.656 -3.461,0.618 -3.461,0.554 -3.461,0.606 -3.461,0.578 -3.461,0.562 -3.461,0.579 -3.461,0.566 -3.461,0.574 -3.46,0.535 -3.461,0.582 -3.461,0.571 -3.465,0.539 -3.461,0.515 -3.461,0.555 -3.461,0.52 -3.461,0.55 -3.461,0.508 -3.461,0.52 -3.461,0.511 -6.922,0.954 -3.461,0.515 -3.461,0.492 -3.46,0.496 -3.461,0.481 -3.461,0.465 -3.461,0.469 -3.461,0.48 -3.461,0.457 -3.461,0.453 -3.461,0.442 -3.461,0.437 -3.461,0.434 -3.461,0.418 -3.461,0.457 -3.461,0.398 -3.465,0.43 -3.46,0.418 -3.461,0.41 -3.461,0.418 -3.461,0.391 -3.461,0.378 -3.461,0.399 -3.461,0.394 -6.922,0.743 -3.461,0.378 -3.461,0.368 -3.461,0.363 -3.461,0.352 -3.461,0.332 -3.461,0.355 -3.461,0.367 -3.46,0.324 -3.461,0.332 -3.461,0.34 -3.461,0.348 -3.461,0.332 -3.461,0.324 -3.461,0.328 -3.461,0.321 -3.465,0.3 -3.461,0.329 -3.461,0.304 -3.461,0.281 -3.461,0.313 -3.461,0.285 -3.461,0.289 -3.46,0.297 -3.461,0.305 z"
             style="fill:#ee2c2c;fill-opacity:0.4;fill-rule:nonzero;stroke:none"
             id="path1196" />
          <path
             d="m 59.934,255.336 3.461,-1.406 3.46,-1.43 3.461,-1.457 3.461,-1.477 3.461,-1.488 3.461,-1.496 3.461,-1.527 3.461,-1.543 3.465,-1.59 3.461,-1.586 3.461,-1.598 3.461,-1.625 3.461,-1.644 3.461,-1.676 3.461,-1.68 3.461,-1.707 6.921,-3.508 3.461,-1.765 3.461,-1.813 3.461,-1.84 3.461,-1.843 6.922,-3.696 3.461,-1.886 3.461,-1.946 3.461,-1.925 3.461,-1.942 3.461,-1.988 6.922,-3.992 3.461,-2.039 3.46,-2.047 3.465,-2.059 3.461,-2.078 3.461,-2.125 3.461,-2.129 3.461,-2.14 3.461,-2.176 3.461,-2.153 3.461,-2.218 3.461,-2.203 3.461,-2.231 3.461,-2.258 3.461,-2.246 3.461,-2.254 3.46,-2.324 3.461,-2.316 3.461,-2.34 3.461,-2.356 3.461,-2.371 3.461,-2.39 3.461,-2.395 3.461,-2.406 3.461,-2.375 3.461,-2.426 3.461,-2.453 3.461,-2.445 3.465,-2.477 3.461,-2.484 3.461,-2.508 3.46,-2.481 3.461,-2.511 3.461,-2.504 3.461,-2.528 3.461,-2.503 3.461,-2.528 3.461,-2.535 3.461,-2.547 3.461,-2.543 3.461,-2.586 3.461,-2.554 3.461,-2.54 3.461,-2.558 3.461,-2.594 6.922,-5.133 3.46,-2.597 3.461,-2.567 3.461,-2.586 3.461,-2.613 3.461,-2.598 3.461,-2.578 3.465,-2.554"
             style="fill:none;stroke:#1c86ee;stroke-width:4.26791;stroke-linecap:butt;stroke-linejoin:round;stroke-miterlimit:10;stroke-dasharray:none;stroke-opacity:1"
             id="path1198" />
          <path
             d="m 59.934,288.762 3.461,-0.641 6.921,-1.312 3.461,-0.661 3.461,-0.671 3.461,-0.676 3.461,-0.688 3.461,-0.699 3.465,-0.707 3.461,-0.715 3.461,-0.722 3.461,-0.731 3.461,-0.738 3.461,-0.742 3.461,-0.754 3.461,-0.766 3.46,-0.769 3.461,-0.782 3.461,-0.785 3.461,-0.797 3.461,-0.808 3.461,-0.813 3.461,-0.82 6.922,-1.672 3.461,-0.855 3.461,-0.864 3.461,-0.867 3.461,-0.879 3.461,-0.887 6.922,-1.812 3.46,-0.922 3.465,-0.934 3.461,-0.937 3.461,-0.941 3.461,-0.961 3.461,-0.965 6.922,-1.977 6.922,-2.008 3.461,-1.023 3.461,-1.027 3.461,-1.032 3.461,-1.039 3.46,-1.058 3.461,-1.071 3.461,-1.086 3.461,-1.089 3.461,-1.102 3.461,-1.105 3.461,-1.118 3.461,-1.125 3.461,-1.132 3.461,-1.149 3.461,-1.16 3.461,-1.176 3.465,-1.183 3.461,-1.192 3.461,-1.207 6.921,-2.437 3.461,-1.239 3.461,-1.246 6.922,-2.508 3.461,-1.281 3.461,-1.289 3.461,-1.297 3.461,-1.304 3.461,-1.317 3.461,-1.336 3.461,-1.34 3.461,-1.343 3.461,-1.356 3.461,-1.371 3.46,-1.375 3.461,-1.391 3.461,-1.406 3.461,-1.41 3.461,-1.426 3.461,-1.433 3.465,-1.446"
             style="fill:none;stroke:#eec900;stroke-width:4.26791;stroke-linecap:butt;stroke-linejoin:round;stroke-miterlimit:10;stroke-dasharray:none;stroke-opacity:1"
             id="path1200" />
          <path
             d="m 59.934,309.207 3.461,-0.227 3.46,-0.23 3.461,-0.227 3.461,-0.242 3.461,-0.23 3.461,-0.242 3.461,-0.239 3.461,-0.25 3.465,-0.242 3.461,-0.25 6.922,-0.492 6.922,-0.516 6.922,-0.523 3.46,-0.266 3.461,-0.261 6.922,-0.54 3.461,-0.265 3.461,-0.27 3.461,-0.277 10.383,-0.844 3.461,-0.277 3.461,-0.285 3.461,-0.293 3.461,-0.285 3.461,-0.289 3.461,-0.301 3.46,-0.297 3.465,-0.297 3.461,-0.301 3.461,-0.304 3.461,-0.301 3.461,-0.313 6.922,-0.617 3.461,-0.312 3.461,-0.317 3.461,-0.328 3.461,-0.324 3.461,-0.317 3.461,-0.324 3.46,-0.328 6.922,-0.672 3.461,-0.332 6.922,-0.695 3.461,-0.34 3.461,-0.352 3.461,-0.343 3.461,-0.352 3.461,-0.355 3.461,-0.36 3.465,-0.359 3.461,-0.363 6.921,-0.735 3.461,-0.379 3.461,-0.367 3.461,-0.375 3.461,-0.379 3.461,-0.386 3.461,-0.383 3.461,-0.379 3.461,-0.387 10.383,-1.183 10.383,-1.219 3.461,-0.414 3.46,-0.41 3.461,-0.418 3.461,-0.422 3.461,-0.43 3.461,-0.422 3.461,-0.43 3.465,-0.433"
             style="fill:none;stroke:#ee2c2c;stroke-width:4.26791;stroke-linecap:butt;stroke-linejoin:round;stroke-miterlimit:10;stroke-dasharray:none;stroke-opacity:1"
             id="path1202" />
          <path
             d="M 45.398,5.477 H 365.203 V 332.832 H 45.398 Z"
             style="fill:none;stroke:#333333;stroke-width:3.20093;stroke-linecap:round;stroke-linejoin:round;stroke-miterlimit:10;stroke-dasharray:none;stroke-opacity:1"
             id="path1204" />
        </g>
      </g>
      <text
         style="font-variant:normal;font-weight:normal;font-size:12.8px;font-family:Arial;-inkscape-font-specification:ArialMT;writing-mode:lr-tb;fill:#4d4d4d;fill-opacity:1;fill-rule:nonzero;stroke:none"
         id="text1214"
         x="22.671875"
         y="240.76953"><tspan
           x="22.671875 29.788675 33.334274"
           y="240.76953"
           sodipodi:role="line"
           id="tspan1208">0.2</tspan><tspan
           x="22.671875 29.788675 33.334274"
           y="140.41406"
           sodipodi:role="line"
           id="tspan1210">0.4</tspan><tspan
           x="22.671875 29.788675 33.334274"
           y="40.054688"
           sodipodi:role="line"
           id="tspan1212">0.6</tspan></text>
      <path
         d="m 42.656,236.188 h 2.742"
         style="fill:none;stroke:#333333;stroke-width:1.06698;stroke-linecap:butt;stroke-linejoin:round;stroke-miterlimit:10;stroke-dasharray:none;stroke-opacity:1"
         id="path1216" />
      <path
         d="m 42.656,135.832 h 2.742"
         style="fill:none;stroke:#333333;stroke-width:1.06698;stroke-linecap:butt;stroke-linejoin:round;stroke-miterlimit:10;stroke-dasharray:none;stroke-opacity:1"
         id="path1218" />
      <path
         d="m 42.656,35.473 h 2.742"
         style="fill:none;stroke:#333333;stroke-width:1.06698;stroke-linecap:butt;stroke-linejoin:round;stroke-miterlimit:10;stroke-dasharray:none;stroke-opacity:1"
         id="path1220" />
      <path
         d="m 110.465,335.574 v -2.742"
         style="fill:none;stroke:#333333;stroke-width:1.06698;stroke-linecap:butt;stroke-linejoin:round;stroke-miterlimit:10;stroke-dasharray:none;stroke-opacity:1"
         id="path1222" />
      <path
         d="m 179.688,335.574 v -2.742"
         style="fill:none;stroke:#333333;stroke-width:1.06698;stroke-linecap:butt;stroke-linejoin:round;stroke-miterlimit:10;stroke-dasharray:none;stroke-opacity:1"
         id="path1224" />
      <path
         d="m 248.91,335.574 v -2.742"
         style="fill:none;stroke:#333333;stroke-width:1.06698;stroke-linecap:butt;stroke-linejoin:round;stroke-miterlimit:10;stroke-dasharray:none;stroke-opacity:1"
         id="path1226" />
      <path
         d="m 318.133,335.574 v -2.742"
         style="fill:none;stroke:#333333;stroke-width:1.06698;stroke-linecap:butt;stroke-linejoin:round;stroke-miterlimit:10;stroke-dasharray:none;stroke-opacity:1"
         id="path1228" />
      <text
         style="font-variant:normal;font-weight:normal;font-size:12.8px;font-family:Arial;-inkscape-font-specification:ArialMT;writing-mode:lr-tb;fill:#4d4d4d;fill-opacity:1;fill-rule:nonzero;stroke:none"
         id="text1232"
         x="103.34766"
         y="346.92578"><tspan
           x="103.34766 110.46446 172.57005 179.68686 241.77966 248.89645 311.01562 318.13245"
           y="346.92578"
           sodipodi:role="line"
           id="tspan1230">20304050</tspan></text>
    </g>
    <g
       id="g1334"
       inkscape:label="pien_dbhXcmd_mort"
       transform="matrix(0.35277777,0,0,0.35277777,70.590712,137.04767)">
      <g
         id="g1344">
        <g
           id="g1346"
           clip-path="url(#clipPath1350)">
          <path
             d="M 45.398,5.477 H 361.605 V 332.832 H 45.398 Z"
             style="fill:#ffffff;fill-opacity:1;fill-rule:nonzero;stroke:none"
             id="path1352" />
          <path
             d="m 59.77,308.453 3.421,-0.547 3.422,-0.582 3.422,-0.578 3.426,-0.551 3.422,-0.578 3.422,-0.558 3.422,-0.594 3.421,-0.57 3.422,-0.59 3.422,-0.559 3.422,-0.598 3.422,-0.562 3.422,-0.594 3.422,-0.597 3.422,-0.602 3.421,-0.574 3.422,-0.617 3.422,-0.586 3.426,-0.598 3.422,-0.543 3.422,-0.625 3.422,-0.586 3.421,-0.598 3.422,-0.613 3.422,-0.648 3.422,-0.621 3.422,-0.614 3.422,-0.621 3.422,-0.562 3.422,-0.606 3.421,-0.613 3.422,-0.629 3.422,-0.605 3.426,-0.661 3.422,-0.636 3.422,-0.633 3.422,-0.602 3.422,-0.632 3.421,-0.657 3.422,-0.66 3.422,-0.609 3.422,-0.641 3.422,-0.633 3.422,-0.652 3.422,-0.664 3.422,-0.672 3.421,-0.644 3.422,-0.665 3.426,-0.636 3.422,-0.641 3.422,-0.648 3.422,-0.625 3.422,-0.66 3.421,-0.641 3.422,-0.668 3.422,-0.621 3.422,-0.676 3.422,-0.695 3.422,-0.684 3.422,-0.676 3.422,-0.683 3.421,-0.719 3.422,-0.68 3.422,-0.699 3.426,-0.683 3.422,-0.723 3.422,-0.676 3.422,-0.707 3.421,-0.687 3.422,-0.7 3.422,-0.722 3.422,-0.727 3.422,-0.73 3.422,-0.707 3.422,-0.715 3.422,-0.707 3.421,-0.754 3.422,-0.695 3.422,-0.672 3.426,-0.68 3.422,-0.699 3.422,-0.696 3.422,-0.734 3.421,-0.723 v -80.695 l -3.421,1.426 -3.422,1.449 -3.422,1.445 -3.422,1.45 -3.426,1.363 -3.422,1.371 -3.422,1.379 -3.421,1.332 -3.422,1.344 -3.422,1.269 -3.422,1.266 -3.422,1.324 -3.422,1.273 -3.422,1.262 -6.843,2.469 -3.422,1.355 -3.422,1.282 -3.422,1.285 -3.426,1.281 -3.422,1.234 -3.422,1.207 -3.421,1.204 -3.422,1.187 -3.422,1.195 -3.422,1.204 -3.422,1.246 -3.422,1.183 -3.422,1.164 -3.422,1.172 -3.421,1.156 -6.844,2.25 -3.422,1.192 -3.422,1.082 -3.426,1.058 -3.422,1.153 -3.421,1.097 -3.422,1.118 -3.422,1.047 -3.422,1.054 -3.422,1.039 -3.422,1.094 -3.422,1.027 -3.422,1.02 -3.421,0.984 -3.422,1.028 -3.422,0.968 -3.422,0.93 -3.422,1.02 -3.426,0.992 -3.422,0.98 -3.422,0.953 -3.421,0.946 -3.422,1.015 -3.422,0.938 -3.422,0.922 -3.422,0.929 -3.422,0.914 -6.844,1.75 -3.421,0.864 -3.422,0.922 -3.422,0.902 -3.422,0.84 -3.426,0.812 -3.422,0.805 -3.422,0.836 -3.421,0.879 -3.422,0.844 -3.422,0.875 -3.422,0.843 -3.422,0.809 -3.422,0.828 -3.422,0.789 -3.422,0.836 -3.421,0.754 -3.422,0.738 -3.422,0.758 -3.422,0.75 -3.426,0.742 -3.422,0.766 -3.422,0.742 -3.421,0.766 z"
             style="fill:#1c86ee;fill-opacity:0.4;fill-rule:nonzero;stroke:none"
             id="path1354" />
          <path
             d="m 59.77,310.426 3.421,-0.856 3.422,-0.882 3.422,-0.891 3.426,-0.883 3.422,-0.937 3.422,-0.907 3.422,-0.945 3.421,-0.953 3.422,-0.961 3.422,-0.965 3.422,-0.957 3.422,-0.969 3.422,-0.992 3.422,-1.019 3.422,-1.047 3.421,-1.008 3.422,-1.031 3.422,-1.051 3.426,-1.067 3.422,-1.054 3.422,-1.074 3.422,-1.133 3.421,-1.094 3.422,-1.109 3.422,-1.141 3.422,-1.121 3.422,-1.152 3.422,-1.161 3.422,-1.187 3.422,-1.191 3.421,-1.239 3.422,-1.226 3.422,-1.223 3.426,-1.25 3.422,-1.266 3.422,-1.277 3.422,-1.289 3.422,-1.293 3.421,-1.27 3.422,-1.308 3.422,-1.336 3.422,-1.316 3.422,-1.375 3.422,-1.383 3.422,-1.399 3.422,-1.375 3.421,-1.383 3.422,-1.402 3.426,-1.41 3.422,-1.461 3.422,-1.504 3.422,-1.484 3.422,-1.473 3.421,-1.48 3.422,-1.504 3.422,-1.516 3.422,-1.519 3.422,-1.536 3.422,-1.554 3.422,-1.594 3.422,-1.625 3.421,-1.566 3.422,-1.633 3.422,-1.656 3.426,-1.672 3.422,-1.676 3.422,-1.668 3.422,-1.723 3.421,-1.73 3.422,-1.746 3.422,-1.723 3.422,-1.746 3.422,-1.77 3.422,-1.796 6.844,-3.625 3.421,-1.852 3.422,-1.867 3.422,-1.871 3.426,-1.887 3.422,-1.898 3.422,-1.883 3.422,-1.918 3.421,-1.922 v -79.692 l -3.421,2.618 -6.844,5.218 -3.422,2.524 -3.426,2.539 -3.422,2.558 -3.422,2.489 -3.421,2.484 -3.422,2.481 -3.422,2.445 -3.422,2.457 -3.422,2.434 -3.422,2.437 -3.422,2.371 -3.422,2.344 -3.421,2.367 -3.422,2.301 -3.422,2.328 -3.422,2.293 -3.426,2.242 -3.422,2.262 -3.422,2.293 -3.421,2.238 -3.422,2.25 -3.422,2.207 -3.422,2.168 -3.422,2.133 -3.422,2.109 -3.422,2.153 -3.422,2.105 -3.421,2.082 -3.422,2.035 -3.422,2.028 -3.422,2.031 -3.422,1.988 -3.426,1.985 -3.422,1.96 -6.843,3.907 -6.844,3.836 -3.422,1.886 -3.422,1.868 -3.422,1.851 -3.422,1.817 -3.421,1.839 -3.422,1.797 -3.422,1.774 -6.844,3.515 -3.426,1.711 -3.422,1.739 -3.422,1.714 -3.421,1.692 -3.422,1.672 -3.422,1.664 -3.422,1.644 -6.844,3.242 -3.422,1.598 -6.843,3.149 -3.422,1.543 -3.422,1.519 -3.422,1.504 -3.426,1.504 -3.422,1.465 -3.422,1.441 -3.421,1.406 -3.422,1.465 -3.422,1.414 -3.422,1.391 -3.422,1.394 -3.422,1.379 -3.422,1.352 -3.422,1.348 -3.421,1.32 -3.422,1.289 -3.422,1.305 -3.422,1.281 -3.426,1.277 -3.422,1.246 -3.422,1.254 -3.421,1.227 z"
             style="fill:#eec900;fill-opacity:0.4;fill-rule:nonzero;stroke:none"
             id="path1356" />
          <path
             d="m 59.77,317.953 3.421,-1.113 3.422,-1.117 3.422,-1.133 3.426,-1.16 3.422,-1.192 3.422,-1.238 3.422,-1.211 3.421,-1.254 3.422,-1.265 3.422,-1.286 3.422,-1.32 3.422,-1.336 3.422,-1.371 3.422,-1.387 3.422,-1.39 3.421,-1.434 3.422,-1.457 3.422,-1.449 3.426,-1.492 3.422,-1.535 3.422,-1.512 3.422,-1.52 3.421,-1.543 3.422,-1.597 3.422,-1.59 3.422,-1.66 3.422,-1.649 3.422,-1.687 3.422,-1.715 3.422,-1.75 3.421,-1.758 3.422,-1.781 3.422,-1.801 3.426,-1.828 3.422,-1.856 3.422,-1.89 3.422,-1.899 3.422,-1.941 3.421,-2 3.422,-2.004 3.422,-2.016 3.422,-2.023 3.422,-2.066 3.422,-2.114 3.422,-2.14 3.422,-2.188 3.421,-2.183 3.422,-2.231 3.426,-2.226 3.422,-2.262 3.422,-2.266 3.422,-2.316 10.265,-6.985 3.422,-2.39 3.422,-2.438 3.422,-2.531 3.422,-2.441 3.422,-2.528 3.422,-2.636 3.421,-2.582 3.422,-2.563 3.422,-2.633 3.426,-2.625 3.422,-2.722 3.422,-2.727 3.422,-2.742 3.421,-2.785 3.422,-2.789 3.422,-2.875 3.422,-2.868 3.422,-2.855 3.422,-2.996 3.422,-2.938 3.422,-2.961 3.421,-2.996 3.422,-3.097 3.422,-3.071 3.426,-3.117 3.422,-3.097 3.422,-3.149 3.422,-3.191 3.421,-3.219 V 20.359 l -3.421,4.45 -3.422,4.488 -3.422,4.394 -3.422,4.235 -3.426,4.422 -3.422,4.312 -3.422,4.207 -3.421,4.188 -3.422,4.238 -3.422,4.285 -3.422,4.18 -3.422,4.164 -3.422,4.086 -3.422,4 -3.422,4.043 -3.421,4.047 -3.422,3.988 -3.422,4.043 -3.422,3.937 -3.426,3.883 -3.422,3.824 -3.422,3.778 -3.421,3.832 -3.422,3.769 -3.422,3.711 -3.422,3.739 -3.422,3.687 -3.422,3.649 -3.422,3.519 -3.422,3.574 -3.421,3.446 -3.422,3.449 -3.422,3.367 -3.422,3.324 -3.422,3.332 -3.426,3.231 -3.422,3.273 -3.421,3.238 -3.422,3.204 -3.422,3.136 -3.422,3.106 -3.422,3.078 -3.422,3.055 -3.422,3.015 -3.422,2.953 -6.843,5.805 -3.422,2.887 -3.422,2.816 -3.422,2.734 -3.426,2.762 -3.422,2.754 -3.422,2.699 -3.421,2.645 -3.422,2.582 -3.422,2.562 -3.422,2.559 -3.422,2.469 -3.422,2.508 -3.422,2.41 -3.422,2.375 -3.421,2.383 -3.422,2.273 -3.422,2.301 -3.422,2.277 -3.426,2.191 -3.422,2.192 -3.422,2.156 -3.421,2.098 -3.422,2.129 -3.422,2.09 -3.422,2.007 -3.422,2.004 -3.422,1.965 -3.422,1.961 -3.422,1.934 -3.421,1.882 -3.422,1.817 -3.422,1.851 -3.422,1.778 -3.426,1.742 -3.422,1.762 -3.422,1.718 -3.421,1.711 z"
             style="fill:#ee2c2c;fill-opacity:0.4;fill-rule:nonzero;stroke:none"
             id="path1358" />
          <path
             d="m 59.77,288.094 3.421,-0.633 3.422,-0.645 3.422,-0.636 3.426,-0.676 3.422,-0.668 3.422,-0.664 3.422,-0.672 3.421,-0.664 3.422,-0.688 3.422,-0.675 3.422,-0.672 3.422,-0.707 3.422,-0.711 3.422,-0.707 3.422,-0.696 3.421,-0.726 3.422,-0.707 3.422,-0.723 3.426,-0.734 3.422,-0.727 6.844,-1.5 3.421,-0.738 3.422,-0.742 3.422,-0.75 3.422,-0.754 3.422,-0.774 6.844,-1.523 3.422,-0.773 3.421,-0.782 3.422,-0.793 3.422,-0.789 3.426,-0.781 3.422,-0.809 3.422,-0.8 3.422,-0.813 3.422,-0.808 3.421,-0.813 3.422,-0.82 3.422,-0.824 3.422,-0.817 3.422,-0.844 3.422,-0.839 3.422,-0.848 3.422,-0.844 3.421,-0.875 3.422,-0.859 3.426,-0.867 3.422,-0.868 6.844,-1.773 3.422,-0.867 3.421,-0.891 3.422,-0.906 6.844,-1.82 6.844,-1.852 3.422,-0.934 3.422,-0.937 3.421,-0.941 3.422,-0.934 3.422,-0.941 3.426,-0.957 3.422,-0.965 3.422,-0.961 3.422,-0.953 3.421,-0.989 3.422,-0.972 3.422,-0.985 3.422,-0.996 3.422,-0.976 3.422,-0.985 3.422,-0.996 3.422,-1.015 3.421,-1.02 6.844,-2.07 3.426,-1.032 3.422,-1.027 3.422,-1.035 3.422,-1.066 3.421,-1.043"
             style="fill:none;stroke:#1c86ee;stroke-width:4.26791;stroke-linecap:butt;stroke-linejoin:round;stroke-miterlimit:10;stroke-dasharray:none;stroke-opacity:1"
             id="path1360" />
          <path
             d="m 59.77,294.34 3.421,-1.043 3.422,-1.059 3.422,-1.07 3.426,-1.082 3.422,-1.086 3.422,-1.094 3.422,-1.109 3.421,-1.125 3.422,-1.129 3.422,-1.148 3.422,-1.161 3.422,-1.183 3.422,-1.188 3.422,-1.207 3.422,-1.215 3.421,-1.226 3.422,-1.235 3.422,-1.257 3.426,-1.262 3.422,-1.281 3.422,-1.293 3.422,-1.313 3.421,-1.316 3.422,-1.336 3.422,-1.344 3.422,-1.367 3.422,-1.375 3.422,-1.402 3.422,-1.395 6.843,-2.859 3.422,-1.453 3.422,-1.457 3.426,-1.473 3.422,-1.5 3.422,-1.512 3.422,-1.519 3.422,-1.543 3.421,-1.567 3.422,-1.574 3.422,-1.57 3.422,-1.61 3.422,-1.632 3.422,-1.625 3.422,-1.649 3.422,-1.656 3.421,-1.676 3.422,-1.684 3.426,-1.707 6.844,-3.453 3.422,-1.765 3.422,-1.774 3.421,-1.789 3.422,-1.797 3.422,-1.82 3.422,-1.832 3.422,-1.852 3.422,-1.867 3.422,-1.879 3.422,-1.914 6.843,-3.836 3.422,-1.949 3.426,-1.957 3.422,-1.965 3.422,-1.996 3.422,-2.012 3.421,-2.039 3.422,-2.047 3.422,-2.05 3.422,-2.078 3.422,-2.098 3.422,-2.102 3.422,-2.129 6.843,-4.328 3.422,-2.191 3.422,-2.199 3.426,-2.215 3.422,-2.242 3.422,-2.239 3.422,-2.254 3.421,-2.277"
             style="fill:none;stroke:#eec900;stroke-width:4.26791;stroke-linecap:butt;stroke-linejoin:round;stroke-miterlimit:10;stroke-dasharray:none;stroke-opacity:1"
             id="path1362" />
          <path
             d="m 59.77,300.219 3.421,-1.383 3.422,-1.402 3.422,-1.442 3.426,-1.461 3.422,-1.472 3.422,-1.5 3.422,-1.516 3.421,-1.551 3.422,-1.57 3.422,-1.617 3.422,-1.629 3.422,-1.645 3.422,-1.668 3.422,-1.703 3.422,-1.726 3.421,-1.739 3.422,-1.785 3.422,-1.805 3.426,-1.832 3.422,-1.867 3.422,-1.879 3.422,-1.894 3.421,-1.953 3.422,-1.969 3.422,-2.008 3.422,-2.027 3.422,-2.063 3.422,-2.074 3.422,-2.105 3.422,-2.141 3.421,-2.184 3.422,-2.203 3.422,-2.23 3.426,-2.262 3.422,-2.305 3.422,-2.336 3.422,-2.371 3.422,-2.386 3.421,-2.418 3.422,-2.457 3.422,-2.504 3.422,-2.496 3.422,-2.559 3.422,-2.586 3.422,-2.613 3.422,-2.656 3.421,-2.68 3.422,-2.738 3.426,-2.746 3.422,-2.801 3.422,-2.828 3.422,-2.852 3.422,-2.875 3.421,-2.93 3.422,-2.937 3.422,-2.969 3.422,-3.031 3.422,-3.063 3.422,-3.074 3.422,-3.125 3.422,-3.152 3.421,-3.176 3.422,-3.234 3.422,-3.258 3.426,-3.289 3.422,-3.285 3.422,-3.332 3.422,-3.399 3.421,-3.414 3.422,-3.41 3.422,-3.445 3.422,-3.508 3.422,-3.551 3.422,-3.559 3.422,-3.597 3.422,-3.61 3.421,-3.64 6.844,-7.422 3.426,-3.742 3.422,-3.766 3.422,-3.809 3.422,-3.832 3.421,-3.855"
             style="fill:none;stroke:#ee2c2c;stroke-width:4.26791;stroke-linecap:butt;stroke-linejoin:round;stroke-miterlimit:10;stroke-dasharray:none;stroke-opacity:1"
             id="path1364" />
          <path
             d="M 45.398,5.477 H 361.605 V 332.832 H 45.398 Z"
             style="fill:none;stroke:#333333;stroke-width:3.20093;stroke-linecap:round;stroke-linejoin:round;stroke-miterlimit:10;stroke-dasharray:none;stroke-opacity:1"
             id="path1366" />
        </g>
      </g>
      <g
         id="g1368">
        <text
           transform="translate(22.671875,290.4375)"
           style="font-variant:normal;font-weight:normal;font-size:12.8px;font-family:Arial;-inkscape-font-specification:ArialMT;writing-mode:lr-tb;fill:#4d4d4d;fill-opacity:1;fill-rule:nonzero;stroke:none"
           id="text1378"><tspan
             x="0 7.1167998 10.6624"
             y="0"
             sodipodi:role="line"
             id="tspan1370">0.1</tspan><tspan
             x="0 7.1167998 10.6624"
             y="-91.6875"
             sodipodi:role="line"
             id="tspan1372">0.2</tspan><tspan
             x="0 7.1167998 10.6624"
             y="-183.37109"
             sodipodi:role="line"
             id="tspan1374">0.3</tspan><tspan
             x="0 7.1167998 10.6624"
             y="-275.05859"
             sodipodi:role="line"
             id="tspan1376">0.4</tspan></text>
        <path
           d="m 42.656,285.855 h 2.742"
           style="fill:none;stroke:#333333;stroke-width:1.06698;stroke-linecap:butt;stroke-linejoin:round;stroke-miterlimit:10;stroke-dasharray:none;stroke-opacity:1"
           id="path1380" />
        <path
           d="m 42.656,194.168 h 2.742"
           style="fill:none;stroke:#333333;stroke-width:1.06698;stroke-linecap:butt;stroke-linejoin:round;stroke-miterlimit:10;stroke-dasharray:none;stroke-opacity:1"
           id="path1382" />
        <path
           d="m 42.656,102.484 h 2.742"
           style="fill:none;stroke:#333333;stroke-width:1.06698;stroke-linecap:butt;stroke-linejoin:round;stroke-miterlimit:10;stroke-dasharray:none;stroke-opacity:1"
           id="path1384" />
        <path
           d="m 42.656,10.797 h 2.742"
           style="fill:none;stroke:#333333;stroke-width:1.06698;stroke-linecap:butt;stroke-linejoin:round;stroke-miterlimit:10;stroke-dasharray:none;stroke-opacity:1"
           id="path1386" />
        <path
           d="m 109.734,335.574 v -2.742"
           style="fill:none;stroke:#333333;stroke-width:1.06698;stroke-linecap:butt;stroke-linejoin:round;stroke-miterlimit:10;stroke-dasharray:none;stroke-opacity:1"
           id="path1388" />
        <path
           d="m 178.176,335.574 v -2.742"
           style="fill:none;stroke:#333333;stroke-width:1.06698;stroke-linecap:butt;stroke-linejoin:round;stroke-miterlimit:10;stroke-dasharray:none;stroke-opacity:1"
           id="path1390" />
        <path
           d="m 246.617,335.574 v -2.742"
           style="fill:none;stroke:#333333;stroke-width:1.06698;stroke-linecap:butt;stroke-linejoin:round;stroke-miterlimit:10;stroke-dasharray:none;stroke-opacity:1"
           id="path1392" />
        <path
           d="m 315.063,335.574 v -2.742"
           style="fill:none;stroke:#333333;stroke-width:1.06698;stroke-linecap:butt;stroke-linejoin:round;stroke-miterlimit:10;stroke-dasharray:none;stroke-opacity:1"
           id="path1394" />
        <text
           transform="translate(102.61719,346.92578)"
           style="font-variant:normal;font-weight:normal;font-size:12.8px;font-family:Arial;-inkscape-font-specification:ArialMT;writing-mode:lr-tb;fill:#4d4d4d;fill-opacity:1;fill-rule:nonzero;stroke:none"
           id="text1398"><tspan
             x="0 7.1167998 68.441597 75.558403 136.87041 143.9872 205.32812 212.44493"
             y="0"
             sodipodi:role="line"
             id="tspan1396">20304050</tspan></text>
      </g>
    </g>
    <text
       xml:space="preserve"
       style="font-style:normal;font-weight:normal;font-size:7.76111px;line-height:1.25;font-family:sans-serif;fill:#000000;fill-opacity:1;stroke:none;stroke-width:0.264583"
       x="-25.746508"
       y="270.44467"
       id="text14022"><tspan
         sodipodi:role="line"
         id="tspan14020"
         style="font-size:7.76111px;stroke-width:0.264583"
         x="-25.746508"
         y="270.44467">Tree size (cm DBH)</tspan></text>
    <text
       xml:space="preserve"
       style="font-style:normal;font-weight:normal;font-size:7.76111px;line-height:1.25;font-family:sans-serif;fill:#000000;fill-opacity:1;stroke:none;stroke-width:0.264583"
       x="-83.829483"
       y="-58.427067"
       id="text14478"
       transform="rotate(-90)"><tspan
         sodipodi:role="line"
         id="tspan14476"
         style="font-size:7.76111px;stroke-width:0.264583"
         x="-83.829483"
         y="-58.427067">P(mortality)</tspan></text>
    <text
       xml:space="preserve"
       style="font-style:normal;font-weight:normal;font-size:7.76111px;line-height:1.25;font-family:sans-serif;fill:#000000;fill-opacity:1;stroke:none;stroke-width:0.264583"
       x="-216.77097"
       y="-58.427067"
       id="text12786"
       transform="rotate(-90)"><tspan
         sodipodi:role="line"
         id="tspan12784"
         style="font-size:7.76111px;stroke-width:0.264583"
         x="-216.77097"
         y="-58.427067">P(mortality)</tspan></text>
    <text
       xml:space="preserve"
       style="font-style:normal;font-weight:normal;font-size:7.76111px;line-height:1.25;font-family:sans-serif;fill:#000000;fill-opacity:1;stroke:none;stroke-width:0.264583"
       x="103.63072"
       y="272.46402"
       id="text4102"><tspan
         sodipodi:role="line"
         id="tspan4100"
         style="font-size:7.76111px;stroke-width:0.264583"
         x="103.63072"
         y="272.46402">Tree size (cm DBH)</tspan></text>
    <g
       id="g51267"
       transform="translate(-220.78648,106.77458)">
      <g
         id="g27492">
        <text
           xml:space="preserve"
           style="font-style:normal;font-weight:normal;font-size:6.36891px;line-height:1.25;font-family:sans-serif;text-align:center;text-anchor:middle;fill:#000000;fill-opacity:1;stroke:none;stroke-width:0.159223"
           x="198.73471"
           y="-95.875343"
           id="text27456"><tspan
             sodipodi:role="line"
             id="tspan27450"
             style="text-align:center;text-anchor:middle;stroke-width:0.159223"
             x="198.73471"
             y="-95.875343">MAT max</tspan><tspan
             sodipodi:role="line"
             style="text-align:center;text-anchor:middle;stroke-width:0.159223"
             x="198.73471"
             y="-87.914207"
             id="tspan27452">anomaly</tspan><tspan
             sodipodi:role="line"
             style="text-align:center;text-anchor:middle;stroke-width:0.159223"
             x="198.73471"
             y="-79.953072"
             id="tspan27454">(z-score)</tspan></text>
        <g
           id="g27490"
           transform="translate(-1.0304202,6.6039664)">
          <g
             id="g27476"
             transform="translate(7.2801685,0.71394231)">
            <g
               id="g27462"
               transform="translate(14.453323,5.3115997)">
              <rect
                 style="fill:#f8aaaa;fill-opacity:1;stroke-width:0.262249"
                 id="rect27458"
                 width="14.453328"
                 height="8.0938635"
                 x="164.67226"
                 y="-90.383392" />
              <rect
                 style="fill:#ee2c2c;fill-opacity:1;stroke-width:0.261578"
                 id="rect27460"
                 width="14.451323"
                 height="2.5293324"
                 x="164.67226"
                 y="-87.601128" />
            </g>
            <g
               id="g27468"
               transform="translate(14.453323,15.561084)">
              <rect
                 style="fill:#f0dba5;fill-opacity:1;stroke-width:0.262249"
                 id="rect27464"
                 width="14.453328"
                 height="8.0938635"
                 x="164.67226"
                 y="-90.322586" />
              <rect
                 style="fill:#daa520;fill-opacity:1;stroke-width:0.261578"
                 id="rect27466"
                 width="14.451323"
                 height="2.5293324"
                 x="164.67226"
                 y="-87.540321" />
            </g>
            <g
               id="g27474"
               transform="translate(14.484875,25.810562)">
              <rect
                 style="fill:#a4cef8;fill-opacity:1;stroke-width:0.262249"
                 id="rect27470"
                 width="14.453328"
                 height="8.0938635"
                 x="164.67226"
                 y="-90.322586" />
              <rect
                 style="fill:#1c86ee;fill-opacity:1;stroke-width:0.261578"
                 id="rect27472"
                 width="14.451323"
                 height="2.5293324"
                 x="164.67226"
                 y="-87.540321" />
            </g>
          </g>
          <text
             xml:space="preserve"
             style="font-style:normal;font-weight:normal;font-size:6.35px;line-height:1.25;font-family:sans-serif;fill:#000000;fill-opacity:1;stroke:none;stroke-width:0.264583"
             x="203.62563"
             y="-56.675369"
             id="text27480"><tspan
               sodipodi:role="line"
               id="tspan27478"
               style="font-size:6.35px;stroke-width:0.264583"
               x="203.62563"
               y="-56.675369">1.5</tspan></text>
          <text
             xml:space="preserve"
             style="font-style:normal;font-weight:normal;font-size:6.35px;line-height:1.25;font-family:sans-serif;fill:#000000;fill-opacity:1;stroke:none;stroke-width:0.264583"
             x="203.60287"
             y="-66.924843"
             id="text27484"><tspan
               sodipodi:role="line"
               id="tspan27482"
               style="font-size:6.35px;stroke-width:0.264583"
               x="203.60287"
               y="-66.924843">2.5</tspan></text>
          <text
             xml:space="preserve"
             style="font-style:normal;font-weight:normal;font-size:6.35px;line-height:1.25;font-family:sans-serif;fill:#000000;fill-opacity:1;stroke:none;stroke-width:0.264583"
             x="203.576"
             y="-77.235138"
             id="text27488"><tspan
               sodipodi:role="line"
               id="tspan27486"
               style="font-size:6.35px;stroke-width:0.264583"
               x="203.576"
               y="-77.235138">3.5</tspan></text>
        </g>
      </g>
      <g
         id="g27536"
         transform="translate(126.36779)">
        <text
           xml:space="preserve"
           style="font-style:normal;font-weight:normal;font-size:6.36891px;line-height:1.25;font-family:sans-serif;text-align:center;text-anchor:middle;fill:#000000;fill-opacity:1;stroke:none;stroke-width:0.159223"
           x="198.73471"
           y="-95.875343"
           id="text27500"><tspan
             sodipodi:role="line"
             id="tspan27494"
             style="text-align:center;text-anchor:middle;stroke-width:0.159223"
             x="198.73471"
             y="-95.875343">MAT max</tspan><tspan
             sodipodi:role="line"
             style="text-align:center;text-anchor:middle;stroke-width:0.159223"
             x="198.73471"
             y="-87.914207"
             id="tspan27496">anomaly</tspan><tspan
             sodipodi:role="line"
             style="text-align:center;text-anchor:middle;stroke-width:0.159223"
             x="198.73471"
             y="-79.953072"
             id="tspan27498">(z-score)</tspan></text>
        <g
           id="g27534"
           transform="translate(-1.0304202,6.6039664)">
          <g
             id="g27520"
             transform="translate(7.2801685,0.71394231)">
            <g
               id="g27506"
               transform="translate(14.453323,5.3115997)">
              <rect
                 style="fill:#f8aaaa;fill-opacity:1;stroke-width:0.262249"
                 id="rect27502"
                 width="14.453328"
                 height="8.0938635"
                 x="164.67226"
                 y="-90.383392" />
              <rect
                 style="fill:#ee2c2c;fill-opacity:1;stroke-width:0.261578"
                 id="rect27504"
                 width="14.451323"
                 height="2.5293324"
                 x="164.67226"
                 y="-87.601128" />
            </g>
            <g
               id="g27512"
               transform="translate(14.453323,15.561084)">
              <rect
                 style="fill:#f0dba5;fill-opacity:1;stroke-width:0.262249"
                 id="rect27508"
                 width="14.453328"
                 height="8.0938635"
                 x="164.67226"
                 y="-90.322586" />
              <rect
                 style="fill:#daa520;fill-opacity:1;stroke-width:0.261578"
                 id="rect27510"
                 width="14.451323"
                 height="2.5293324"
                 x="164.67226"
                 y="-87.540321" />
            </g>
            <g
               id="g27518"
               transform="translate(14.484875,25.810562)">
              <rect
                 style="fill:#a4cef8;fill-opacity:1;stroke-width:0.262249"
                 id="rect27514"
                 width="14.453328"
                 height="8.0938635"
                 x="164.67226"
                 y="-90.322586" />
              <rect
                 style="fill:#1c86ee;fill-opacity:1;stroke-width:0.261578"
                 id="rect27516"
                 width="14.451323"
                 height="2.5293324"
                 x="164.67226"
                 y="-87.540321" />
            </g>
          </g>
          <text
             xml:space="preserve"
             style="font-style:normal;font-weight:normal;font-size:6.35px;line-height:1.25;font-family:sans-serif;fill:#000000;fill-opacity:1;stroke:none;stroke-width:0.264583"
             x="203.62563"
             y="-56.675369"
             id="text27524"><tspan
               sodipodi:role="line"
               id="tspan27522"
               style="font-size:6.35px;stroke-width:0.264583"
               x="203.62563"
               y="-56.675369">1.5</tspan></text>
          <text
             xml:space="preserve"
             style="font-style:normal;font-weight:normal;font-size:6.35px;line-height:1.25;font-family:sans-serif;fill:#000000;fill-opacity:1;stroke:none;stroke-width:0.264583"
             x="203.60287"
             y="-66.924843"
             id="text27528"><tspan
               sodipodi:role="line"
               id="tspan27526"
               style="font-size:6.35px;stroke-width:0.264583"
               x="203.60287"
               y="-66.924843">2.5</tspan></text>
          <text
             xml:space="preserve"
             style="font-style:normal;font-weight:normal;font-size:6.35px;line-height:1.25;font-family:sans-serif;fill:#000000;fill-opacity:1;stroke:none;stroke-width:0.264583"
             x="203.576"
             y="-77.235138"
             id="text27532"><tspan
               sodipodi:role="line"
               id="tspan27530"
               style="font-size:6.35px;stroke-width:0.264583"
               x="203.576"
               y="-77.235138">3.5</tspan></text>
        </g>
        <text
           xml:space="preserve"
           style="font-style:normal;font-weight:normal;font-size:10.5833px;line-height:1.25;font-family:sans-serif;fill:#000000;fill-opacity:1;stroke:none;stroke-width:0.264583"
           x="73.484352"
           y="-126.27059"
           id="text6807"><tspan
             sodipodi:role="line"
             id="tspan6805"
             style="stroke-width:0.264583"
             x="73.484352"
             y="-126.27059">Subalpine fir</tspan></text>
        <text
           xml:space="preserve"
           style="font-style:normal;font-weight:normal;font-size:10.5833px;line-height:1.25;font-family:sans-serif;fill:#000000;fill-opacity:1;stroke:none;stroke-width:0.264583"
           x="189.37807"
           y="-126.32485"
           id="text7471"><tspan
             sodipodi:role="line"
             id="tspan7469"
             style="stroke-width:0.264583"
             x="189.37807"
             y="-126.32485">Engelmann spruce</tspan></text>
        <text
           xml:space="preserve"
           style="font-style:normal;font-weight:normal;font-size:10.5833px;line-height:1.25;font-family:sans-serif;fill:#000000;fill-opacity:1;stroke:none;stroke-width:0.264583"
           x="54.304787"
           y="-107.47708"
           id="text38240"><tspan
             sodipodi:role="line"
             id="tspan38238"
             style="stroke-width:0.264583"
             x="54.304787"
             y="-107.47708">a)</tspan></text>
        <text
           xml:space="preserve"
           style="font-style:normal;font-weight:normal;font-size:10.5833px;line-height:1.25;font-family:sans-serif;fill:#000000;fill-opacity:1;stroke:none;stroke-width:0.264583"
           x="182.10046"
           y="-107.47708"
           id="text38244"><tspan
             sodipodi:role="line"
             id="tspan38242"
             style="stroke-width:0.264583"
             x="182.10046"
             y="-107.47708">b)</tspan></text>
        <text
           xml:space="preserve"
           style="font-style:normal;font-weight:normal;font-size:10.5833px;line-height:1.25;font-family:sans-serif;fill:#000000;fill-opacity:1;stroke:none;stroke-width:0.264583"
           x="54.299618"
           y="28.306416"
           id="text38248"><tspan
             sodipodi:role="line"
             id="tspan38246"
             style="stroke-width:0.264583"
             x="54.299618"
             y="28.306416">c)</tspan></text>
        <text
           xml:space="preserve"
           style="font-style:normal;font-weight:normal;font-size:10.5833px;line-height:1.25;font-family:sans-serif;fill:#000000;fill-opacity:1;stroke:none;stroke-width:0.264583"
           x="182.49837"
           y="28.306416"
           id="text36938"><tspan
             sodipodi:role="line"
             id="tspan36936"
             style="stroke-width:0.264583"
             x="182.49837"
             y="28.306416">d)</tspan></text>
      </g>
      <g
         id="g20980"
         transform="translate(-0.71394231,135.78352)">
        <g
           id="g33715">
          <text
             xml:space="preserve"
             style="font-style:normal;font-weight:normal;font-size:6.36891px;line-height:1.25;font-family:sans-serif;text-align:center;text-anchor:middle;fill:#000000;fill-opacity:1;stroke:none;stroke-width:0.159223"
             x="199.22807"
             y="-95.875343"
             id="text33679"><tspan
               sodipodi:role="line"
               id="tspan33673"
               style="text-align:center;text-anchor:middle;stroke-width:0.159223"
               x="199.22807"
               y="-95.875343">CMD max</tspan><tspan
               sodipodi:role="line"
               style="text-align:center;text-anchor:middle;stroke-width:0.159223"
               x="199.22807"
               y="-87.914207"
               id="tspan33675">anomaly</tspan><tspan
               sodipodi:role="line"
               style="text-align:center;text-anchor:middle;stroke-width:0.159223"
               x="199.22807"
               y="-79.953072"
               id="tspan33677">(z-score)</tspan></text>
          <g
             id="g33713"
             transform="translate(-0.66923272,6.6039664)">
            <g
               id="g33699"
               transform="translate(7.2801685,0.71394231)">
              <g
                 id="g33685"
                 transform="translate(14.453323,5.3115997)">
                <rect
                   style="fill:#f8aaaa;fill-opacity:1;stroke-width:0.262249"
                   id="rect33681"
                   width="14.453328"
                   height="8.0938635"
                   x="164.67226"
                   y="-90.383392" />
                <rect
                   style="fill:#ee2c2c;fill-opacity:1;stroke-width:0.261578"
                   id="rect33683"
                   width="14.451323"
                   height="2.5293324"
                   x="164.67226"
                   y="-87.601128" />
              </g>
              <g
                 id="g33691"
                 transform="translate(14.453323,15.561084)">
                <rect
                   style="fill:#f0dba5;fill-opacity:1;stroke-width:0.262249"
                   id="rect33687"
                   width="14.453328"
                   height="8.0938635"
                   x="164.67226"
                   y="-90.322586" />
                <rect
                   style="fill:#daa520;fill-opacity:1;stroke-width:0.261578"
                   id="rect33689"
                   width="14.451323"
                   height="2.5293324"
                   x="164.67226"
                   y="-87.540321" />
              </g>
              <g
                 id="g33697"
                 transform="translate(14.484875,25.810562)">
                <rect
                   style="fill:#a4cef8;fill-opacity:1;stroke-width:0.262249"
                   id="rect33693"
                   width="14.453328"
                   height="8.0938635"
                   x="164.67226"
                   y="-90.322586" />
                <rect
                   style="fill:#1c86ee;fill-opacity:1;stroke-width:0.261578"
                   id="rect33695"
                   width="14.451323"
                   height="2.5293324"
                   x="164.67226"
                   y="-87.540321" />
              </g>
            </g>
            <text
               xml:space="preserve"
               style="font-style:normal;font-weight:normal;font-size:6.35px;line-height:1.25;font-family:sans-serif;fill:#000000;fill-opacity:1;stroke:none;stroke-width:0.264583"
               x="203.62563"
               y="-56.675369"
               id="text33703"><tspan
                 sodipodi:role="line"
                 id="tspan33701"
                 style="font-size:6.35px;stroke-width:0.264583"
                 x="203.62563"
                 y="-56.675369">0.5</tspan></text>
            <text
               xml:space="preserve"
               style="font-style:normal;font-weight:normal;font-size:6.35px;line-height:1.25;font-family:sans-serif;fill:#000000;fill-opacity:1;stroke:none;stroke-width:0.264583"
               x="203.60287"
               y="-66.924843"
               id="text33707"><tspan
                 sodipodi:role="line"
                 id="tspan33705"
                 style="font-size:6.35px;stroke-width:0.264583"
                 x="203.60287"
                 y="-66.924843">1.5</tspan></text>
            <text
               xml:space="preserve"
               style="font-style:normal;font-weight:normal;font-size:6.35px;line-height:1.25;font-family:sans-serif;fill:#000000;fill-opacity:1;stroke:none;stroke-width:0.264583"
               x="203.576"
               y="-77.235138"
               id="text33711"><tspan
                 sodipodi:role="line"
                 id="tspan33709"
                 style="font-size:6.35px;stroke-width:0.264583"
                 x="203.576"
                 y="-77.235138">2.5</tspan></text>
          </g>
        </g>
        <g
           id="g33671"
           transform="translate(129.9375)">
          <text
             xml:space="preserve"
             style="font-style:normal;font-weight:normal;font-size:6.36891px;line-height:1.25;font-family:sans-serif;text-align:center;text-anchor:middle;fill:#000000;fill-opacity:1;stroke:none;stroke-width:0.159223"
             x="199.22807"
             y="-95.875343"
             id="text20944"><tspan
               sodipodi:role="line"
               id="tspan20938"
               style="text-align:center;text-anchor:middle;stroke-width:0.159223"
               x="199.22807"
               y="-95.875343">CMD max</tspan><tspan
               sodipodi:role="line"
               style="text-align:center;text-anchor:middle;stroke-width:0.159223"
               x="199.22807"
               y="-87.914207"
               id="tspan20940">anomaly</tspan><tspan
               sodipodi:role="line"
               style="text-align:center;text-anchor:middle;stroke-width:0.159223"
               x="199.22807"
               y="-79.953072"
               id="tspan20942">(z-score)</tspan></text>
          <g
             id="g20978"
             transform="translate(-0.66923272,6.6039664)">
            <g
               id="g20964"
               transform="translate(7.2801685,0.71394231)">
              <g
                 id="g20950"
                 transform="translate(14.453323,5.3115997)">
                <rect
                   style="fill:#f8aaaa;fill-opacity:1;stroke-width:0.262249"
                   id="rect20946"
                   width="14.453328"
                   height="8.0938635"
                   x="164.67226"
                   y="-90.383392" />
                <rect
                   style="fill:#ee2c2c;fill-opacity:1;stroke-width:0.261578"
                   id="rect20948"
                   width="14.451323"
                   height="2.5293324"
                   x="164.67226"
                   y="-87.601128" />
              </g>
              <g
                 id="g20956"
                 transform="translate(14.453323,15.561084)">
                <rect
                   style="fill:#f0dba5;fill-opacity:1;stroke-width:0.262249"
                   id="rect20952"
                   width="14.453328"
                   height="8.0938635"
                   x="164.67226"
                   y="-90.322586" />
                <rect
                   style="fill:#daa520;fill-opacity:1;stroke-width:0.261578"
                   id="rect20954"
                   width="14.451323"
                   height="2.5293324"
                   x="164.67226"
                   y="-87.540321" />
              </g>
              <g
                 id="g20962"
                 transform="translate(14.484875,25.810562)">
                <rect
                   style="fill:#a4cef8;fill-opacity:1;stroke-width:0.262249"
                   id="rect20958"
                   width="14.453328"
                   height="8.0938635"
                   x="164.67226"
                   y="-90.322586" />
                <rect
                   style="fill:#1c86ee;fill-opacity:1;stroke-width:0.261578"
                   id="rect20960"
                   width="14.451323"
                   height="2.5293324"
                   x="164.67226"
                   y="-87.540321" />
              </g>
            </g>
            <text
               xml:space="preserve"
               style="font-style:normal;font-weight:normal;font-size:6.35px;line-height:1.25;font-family:sans-serif;fill:#000000;fill-opacity:1;stroke:none;stroke-width:0.264583"
               x="203.62563"
               y="-56.675369"
               id="text20968"><tspan
                 sodipodi:role="line"
                 id="tspan20966"
                 style="font-size:6.35px;stroke-width:0.264583"
                 x="203.62563"
                 y="-56.675369">0.5</tspan></text>
            <text
               xml:space="preserve"
               style="font-style:normal;font-weight:normal;font-size:6.35px;line-height:1.25;font-family:sans-serif;fill:#000000;fill-opacity:1;stroke:none;stroke-width:0.264583"
               x="203.60287"
               y="-66.924843"
               id="text20972"><tspan
                 sodipodi:role="line"
                 id="tspan20970"
                 style="font-size:6.35px;stroke-width:0.264583"
                 x="203.60287"
                 y="-66.924843">1.5</tspan></text>
            <text
               xml:space="preserve"
               style="font-style:normal;font-weight:normal;font-size:6.35px;line-height:1.25;font-family:sans-serif;fill:#000000;fill-opacity:1;stroke:none;stroke-width:0.264583"
               x="203.576"
               y="-77.235138"
               id="text20976"><tspan
                 sodipodi:role="line"
                 id="tspan20974"
                 style="font-size:6.35px;stroke-width:0.264583"
                 x="203.576"
                 y="-77.235138">2.5</tspan></text>
          </g>
        </g>
      </g>
    </g>
  </g>
</svg>
