<?xml version="1.0" encoding="UTF-8" standalone="no"?>
<!-- Created with Inkscape (http://www.inkscape.org/) -->

<svg
   width="173.15787mm"
   height="396.7991mm"
   viewBox="0 0 173.15787 396.7991"
   version="1.1"
   id="svg5"
   inkscape:version="1.1 (c68e22c387, 2021-05-23)"
   sodipodi:docname="fire_partialeffects.svg"
   inkscape:export-filename="C:\Users\DanielPerret\Box\01. daniel.perret Workspace\PROJECTS\spruce-fir-demography\figures\fire_partialeffects.png"
   inkscape:export-xdpi="200"
   inkscape:export-ydpi="200"
   xmlns:inkscape="http://www.inkscape.org/namespaces/inkscape"
   xmlns:sodipodi="http://sodipodi.sourceforge.net/DTD/sodipodi-0.dtd"
   xmlns="http://www.w3.org/2000/svg"
   xmlns:svg="http://www.w3.org/2000/svg">
  <sodipodi:namedview
     id="namedview7"
     pagecolor="#ffffff"
     bordercolor="#666666"
     borderopacity="1.0"
     inkscape:pageshadow="2"
     inkscape:pageopacity="0.0"
     inkscape:pagecheckerboard="0"
     inkscape:document-units="mm"
     showgrid="false"
     inkscape:zoom="0.52410025"
     inkscape:cx="334.8596"
     inkscape:cy="645.86881"
     inkscape:window-width="1920"
     inkscape:window-height="1017"
     inkscape:window-x="-8"
     inkscape:window-y="-8"
     inkscape:window-maximized="1"
     inkscape:current-layer="layer1" />
  <defs
     id="defs2">
    <clipPath
       clipPathUnits="userSpaceOnUse"
       id="clipPath846">
      <path
         d="M 52.516,5.48 H 403.52 V 279.835 H 52.516 Z"
         id="path844" />
    </clipPath>
    <clipPath
       clipPathUnits="userSpaceOnUse"
       id="clipPath957">
      <path
         d="M 52.516,5.48 H 403.52 V 279.835 H 52.516 Z"
         id="path955" />
    </clipPath>
    <clipPath
       clipPathUnits="userSpaceOnUse"
       id="clipPath1065">
      <path
         d="M 45.398,5.48 H 403.519 V 279.835 H 45.398 Z"
         id="path1063" />
    </clipPath>
  </defs>
  <g
     inkscape:label="Layer 1"
     inkscape:groupmode="layer"
     id="layer1"
     transform="translate(106.40624,35.276817)">
    <rect
       style="fill:#ffffff;stroke-width:0.457999"
       id="rect1179"
       width="173.15787"
       height="396.7991"
       x="-106.40624"
       y="-35.276817"
       sodipodi:insensitive="true" />
    <g
       id="g830"
       inkscape:label="fireprop_mort"
       transform="matrix(0.35277777,0,0,0.35277777,-97.131035,-18.429112)">
      <g
         id="g832">
        <path
           d="M 0,0 H 409 V 319 H 0 Z"
           style="fill:#ffffff;fill-opacity:1;fill-rule:nonzero;stroke:none"
           id="path834" />
        <path
           d="M 0,0 H 409 V 319 H 0 Z"
           style="fill:#ffffff;fill-opacity:1;fill-rule:nonzero;stroke:none"
           id="path836" />
        <path
           d="M 0,0 H 409 V 319 H 0 Z"
           style="fill:none;stroke:#ffffff;stroke-width:1.06698;stroke-linecap:round;stroke-linejoin:round;stroke-miterlimit:10;stroke-dasharray:none;stroke-opacity:1"
           id="path838" />
      </g>
      <g
         id="g840">
        <g
           id="g842"
           clip-path="url(#clipPath846)">
          <path
             d="M 52.516,5.477 H 403.52 V 279.832 H 52.516 Z"
             style="fill:#ffffff;fill-opacity:1;fill-rule:nonzero;stroke:none"
             id="path848" />
          <path
             d="m 68.473,254.023 6.379,-1.812 6.382,-1.832 6.383,-1.902 6.383,-1.872 6.379,-1.898 6.383,-1.91 6.383,-1.902 6.382,-1.887 6.379,-1.914 6.383,-1.903 6.383,-1.875 12.766,-3.781 6.378,-1.851 6.383,-1.918 6.383,-1.895 6.383,-1.93 6.379,-1.945 6.383,-1.953 6.382,-1.961 6.383,-1.984 6.379,-2.035 6.383,-2.071 6.383,-2.058 6.383,-2.102 6.378,-2.148 6.383,-2.161 6.383,-2.191 6.383,-2.219 6.383,-2.234 6.379,-2.227 6.382,-2.265 6.383,-2.305 6.383,-2.25 6.379,-2.332 6.383,-2.363 6.383,-2.27 6.382,-2.371 6.379,-2.406 6.383,-2.418 6.383,-2.512 6.383,-2.461 6.379,-2.422 6.382,-2.488 6.383,-2.523 6.383,-2.563 6.383,-2.621 6.379,-2.535 6.383,-2.531 6.382,-2.563 V 53.699 l -6.382,3.391 -6.383,3.484 -6.379,3.528 -6.383,3.757 -6.383,3.813 -6.383,3.883 -6.382,4.027 -6.379,4.098 -6.383,4.226 -6.383,4.25 -6.383,4.414 -6.379,4.461 -6.382,4.477 -12.766,9.406 -6.379,4.719 -6.383,4.773 -6.383,4.735 -6.382,4.761 -6.379,4.68 -6.383,4.793 -6.383,4.695 -6.383,4.719 -6.383,4.672 -6.378,4.641 -6.383,4.605 -6.383,4.539 -6.383,4.481 -6.379,4.359 -6.383,4.262 -6.382,4.203 -6.383,4.027 -6.379,3.938 -6.383,3.875 -6.383,3.691 -6.383,3.625 -6.378,3.43 -6.383,3.265 -6.383,3.18 -6.383,2.981 -6.383,2.847 -6.379,2.672 -6.382,2.543 -6.383,2.383 -6.383,2.219 -6.379,2.089 -6.383,1.918 -6.383,1.844 -6.382,1.719 -6.379,1.648 z"
             style="fill:#1c86ee;fill-opacity:0.4;fill-rule:nonzero;stroke:none"
             id="path850" />
          <path
             d="m 68.473,267.363 6.379,-1.601 6.382,-1.641 6.383,-1.73 6.383,-1.743 6.379,-1.773 6.383,-1.738 6.383,-1.723 6.382,-1.75 6.379,-1.644 6.383,-1.668 6.383,-1.684 6.383,-1.711 6.383,-1.621 6.378,-1.668 6.383,-1.73 6.383,-1.719 6.383,-1.754 6.379,-1.809 6.383,-1.859 6.382,-1.805 6.383,-1.906 6.379,-1.895 6.383,-1.953 6.383,-1.906 6.383,-2.008 6.378,-2.035 6.383,-2.125 6.383,-2.164 6.383,-2.137 6.383,-2.199 6.379,-2.152 6.382,-2.227 6.383,-2.219 6.383,-2.336 6.379,-2.312 6.383,-2.355 6.383,-2.43 6.382,-2.481 6.379,-2.586 6.383,-2.476 6.383,-2.563 6.383,-2.586 6.379,-2.601 6.382,-2.586 6.383,-2.699 6.383,-2.723 6.383,-2.769 6.379,-2.711 6.383,-2.766 6.382,-2.66 V 17.949 l -6.382,2.563 -6.383,2.761 -6.379,2.934 -6.383,3.16 -6.383,3.336 -6.383,3.57 -6.382,3.79 -6.379,4.082 -6.383,4.332 -6.383,4.539 -6.383,4.785 -6.379,5.027 -6.382,5.231 -6.383,5.468 -6.383,5.711 -6.379,5.864 -6.383,6.168 -6.383,6.316 -6.382,6.461 -6.379,6.516 -6.383,6.746 -6.383,6.8 -12.766,13.461 -6.378,6.746 -6.383,6.801 -6.383,6.699 -6.383,6.672 -6.379,6.489 -6.383,6.218 -6.382,6.075 -6.383,6.066 -6.379,5.73 -6.383,5.547 -6.383,5.348 -6.383,5.066 -6.378,4.793 -6.383,4.496 -6.383,4.274 -6.383,3.988 -6.383,3.723 -6.379,3.367 -6.382,3.051 -6.383,2.867 -6.383,2.543 -6.379,2.414 -6.383,2.156 -6.383,1.934 -6.382,1.758 -6.379,1.625 z"
             style="fill:#daa520;fill-opacity:0.4;fill-rule:nonzero;stroke:none"
             id="path852" />
          <path
             d="m 68.473,248.363 6.379,-1.734 6.382,-1.805 6.383,-1.859 6.383,-1.926 6.379,-1.992 6.383,-2.055 6.383,-2.137 6.382,-2.187 6.379,-2.258 6.383,-2.32 6.383,-2.402 6.383,-2.458 6.383,-2.511 6.378,-2.606 6.383,-2.675 6.383,-2.719 6.383,-2.801 6.379,-2.879 6.383,-2.934 6.382,-2.996 6.383,-3.078 6.379,-3.109 6.383,-3.188 6.383,-3.242 6.383,-3.281 6.378,-3.356 6.383,-3.375 6.383,-3.425 6.383,-3.457 6.383,-3.512 6.379,-3.563 6.382,-3.554 6.383,-3.598 6.383,-3.613 6.379,-3.633 6.383,-3.687 6.383,-3.672 6.382,-3.657 6.379,-3.652 6.383,-3.656 6.383,-3.653 6.383,-3.632 6.379,-3.629 6.382,-3.614 12.766,-7.125 6.383,-3.511 6.379,-3.489 6.383,-3.433 6.382,-3.395"
             style="fill:none;stroke:#1c86ee;stroke-width:4.26791;stroke-linecap:butt;stroke-linejoin:round;stroke-miterlimit:10;stroke-dasharray:none;stroke-opacity:1"
             id="path854" />
          <path
             d="m 68.473,261.359 6.379,-1.664 6.382,-1.754 6.383,-1.843 6.383,-1.946 6.379,-2.027 6.383,-2.137 6.383,-2.273 6.382,-2.375 6.379,-2.477 6.383,-2.601 6.383,-2.703 6.383,-2.84 6.383,-2.965 6.378,-3.074 6.383,-3.192 6.383,-3.3 6.383,-3.411 6.379,-3.543 6.383,-3.671 6.382,-3.801 6.383,-3.895 6.379,-4.023 6.383,-4.149 6.383,-4.23 6.383,-4.344 6.378,-4.437 6.383,-4.543 6.383,-4.602 6.383,-4.664 6.383,-4.746 6.379,-4.797 6.382,-4.805 6.383,-4.867 6.383,-4.894 6.379,-4.938 6.383,-4.867 6.383,-4.891 6.382,-4.871 6.379,-4.863 6.383,-4.785 6.383,-4.762 6.383,-4.672 6.379,-4.637 6.382,-4.582 6.383,-4.468 6.383,-4.399 6.383,-4.273 6.379,-4.211 6.383,-4.094 6.382,-3.969"
             style="fill:none;stroke:#daa520;stroke-width:4.26791;stroke-linecap:butt;stroke-linejoin:round;stroke-miterlimit:10;stroke-dasharray:none;stroke-opacity:1"
             id="path856" />
          <path
             d="M 52.516,5.477 H 403.52 V 279.832 H 52.516 Z"
             style="fill:none;stroke:#333333;stroke-width:3.20093;stroke-linecap:round;stroke-linejoin:round;stroke-miterlimit:10;stroke-dasharray:none;stroke-opacity:1"
             id="path858" />
        </g>
      </g>
      <g
         id="g860">
        <text
           transform="translate(22.671875,218.21875)"
           style="font-variant:normal;font-weight:normal;font-size:12.8px;font-family:Arial;-inkscape-font-specification:ArialMT;writing-mode:lr-tb;fill:#4d4d4d;fill-opacity:1;fill-rule:nonzero;stroke:none"
           id="text868"><tspan
             x="0 7.1167998 10.6624 17.7792"
             y="0"
             sodipodi:role="line"
             id="tspan862">0.25</tspan><tspan
             x="0 7.1167998 10.6624 17.7792"
             y="-75.046875"
             sodipodi:role="line"
             id="tspan864">0.50</tspan><tspan
             x="0 7.1167998 10.6624 17.7792"
             y="-150.09766"
             sodipodi:role="line"
             id="tspan866">0.75</tspan></text>
        <path
           d="m 49.777,213.641 h 2.739"
           style="fill:none;stroke:#333333;stroke-width:1.06698;stroke-linecap:butt;stroke-linejoin:round;stroke-miterlimit:10;stroke-dasharray:none;stroke-opacity:1"
           id="path870" />
        <path
           d="m 49.777,138.59 h 2.739"
           style="fill:none;stroke:#333333;stroke-width:1.06698;stroke-linecap:butt;stroke-linejoin:round;stroke-miterlimit:10;stroke-dasharray:none;stroke-opacity:1"
           id="path872" />
        <path
           d="m 49.777,63.539 h 2.739"
           style="fill:none;stroke:#333333;stroke-width:1.06698;stroke-linecap:butt;stroke-linejoin:round;stroke-miterlimit:10;stroke-dasharray:none;stroke-opacity:1"
           id="path874" />
        <path
           d="m 68.473,282.574 v -2.742"
           style="fill:none;stroke:#333333;stroke-width:1.06698;stroke-linecap:butt;stroke-linejoin:round;stroke-miterlimit:10;stroke-dasharray:none;stroke-opacity:1"
           id="path876" />
        <path
           d="m 132.289,282.574 v -2.742"
           style="fill:none;stroke:#333333;stroke-width:1.06698;stroke-linecap:butt;stroke-linejoin:round;stroke-miterlimit:10;stroke-dasharray:none;stroke-opacity:1"
           id="path878" />
        <path
           d="m 196.109,282.574 v -2.742"
           style="fill:none;stroke:#333333;stroke-width:1.06698;stroke-linecap:butt;stroke-linejoin:round;stroke-miterlimit:10;stroke-dasharray:none;stroke-opacity:1"
           id="path880" />
        <path
           d="m 259.93,282.574 v -2.742"
           style="fill:none;stroke:#333333;stroke-width:1.06698;stroke-linecap:butt;stroke-linejoin:round;stroke-miterlimit:10;stroke-dasharray:none;stroke-opacity:1"
           id="path882" />
        <path
           d="m 323.746,282.574 v -2.742"
           style="fill:none;stroke:#333333;stroke-width:1.06698;stroke-linecap:butt;stroke-linejoin:round;stroke-miterlimit:10;stroke-dasharray:none;stroke-opacity:1"
           id="path884" />
        <path
           d="m 387.566,282.574 v -2.742"
           style="fill:none;stroke:#333333;stroke-width:1.06698;stroke-linecap:butt;stroke-linejoin:round;stroke-miterlimit:10;stroke-dasharray:none;stroke-opacity:1"
           id="path886" />
        <text
           transform="translate(59.574219,293.92578)"
           style="font-variant:normal;font-weight:normal;font-size:12.8px;font-family:Arial;-inkscape-font-specification:ArialMT;writing-mode:lr-tb;fill:#4d4d4d;fill-opacity:1;fill-rule:nonzero;stroke:none"
           id="text890"><tspan
             x="0 7.1167998 10.6624 63.807999 70.924797 74.470398 127.6032 134.72 138.26559 191.45703 198.57384 202.11943 255.26503 262.38184 265.92743 319.06024 326.17703 329.72263"
             y="0"
             sodipodi:role="line"
             id="tspan888">0.00.10.20.30.40.5</tspan></text>
        <text
           transform="translate(131.96875,310.51953)"
           style="font-variant:normal;font-weight:normal;font-size:16px;font-family:Arial;-inkscape-font-specification:ArialMT;writing-mode:lr-tb;fill:#000000;fill-opacity:1;fill-rule:nonzero;stroke:none"
           id="text894"><tspan
             x="0 10.656 15.984 24.879999 33.776001 42.672001 48 52.431999 55.984001 64.879997 73.776001 78.208 87.103996 90.655998 98.655998 103.088 111.984 117.312 126.208 135.104 144 148.43201 157.328 165.328 169.75999 174.192 177.744 183.07201"
             y="0"
             sodipodi:role="line"
             id="tspan892">Proportion disturbed by fire</tspan></text>
        <text
           transform="rotate(-90,100.24023,83.30664)"
           style="font-variant:normal;font-weight:normal;font-size:16px;font-family:Arial;-inkscape-font-specification:ArialMT;writing-mode:lr-tb;fill:#000000;fill-opacity:1;fill-rule:nonzero;stroke:none"
           id="text898"><tspan
             x="0 10.656 15.984 29.312 38.208 43.535999 47.967999 56.863998 60.416 63.967999 68.400002 76.400002"
             y="0"
             sodipodi:role="line"
             id="tspan896">P(mortality)</tspan></text>
      </g>
    </g>
    <g
       id="g941"
       inkscape:label="fireprop_seed"
       transform="matrix(0.35277777,0,0,0.35277777,-97.131035,106.54249)">
      <g
         id="g943">
        <path
           d="M 0,0 H 409 V 319 H 0 Z"
           style="fill:#ffffff;fill-opacity:1;fill-rule:nonzero;stroke:none"
           id="path945" />
        <path
           d="M 0,0 H 409 V 319 H 0 Z"
           style="fill:#ffffff;fill-opacity:1;fill-rule:nonzero;stroke:none"
           id="path947" />
        <path
           d="M 0,0 H 409 V 319 H 0 Z"
           style="fill:none;stroke:#ffffff;stroke-width:1.06698;stroke-linecap:round;stroke-linejoin:round;stroke-miterlimit:10;stroke-dasharray:none;stroke-opacity:1"
           id="path949" />
      </g>
      <g
         id="g951">
        <g
           id="g953"
           clip-path="url(#clipPath957)">
          <path
             d="M 52.516,5.477 H 403.52 V 279.832 H 52.516 Z"
             style="fill:#ffffff;fill-opacity:1;fill-rule:nonzero;stroke:none"
             id="path959" />
          <path
             d="m 68.473,17.949 3.187,1.059 3.192,1.097 3.191,1.129 3.191,1.149 3.192,1.18 3.191,1.21 3.192,1.219 3.191,1.274 3.191,1.277 3.188,1.301 3.191,1.347 3.192,1.399 3.191,1.39 3.192,1.422 3.191,1.485 3.191,1.527 3.192,1.516 3.187,1.562 3.192,1.594 3.191,1.617 3.191,1.641 3.192,1.672 3.191,1.699 3.192,1.734 3.191,1.797 3.192,1.746 3.187,1.801 3.191,1.859 3.192,1.883 3.191,1.887 3.192,1.922 3.191,1.996 3.191,2.015 3.192,1.989 3.187,2.023 3.192,2.047 3.191,2.098 3.192,2.117 3.191,2.191 3.191,2.157 3.192,2.152 3.191,2.195 3.192,2.211 3.187,2.176 3.192,2.203 3.191,2.238 3.191,2.215 3.192,2.289 3.191,2.317 3.192,2.34 3.191,2.335 3.187,2.325 3.192,2.328 3.191,2.367 3.192,2.402 3.191,2.356 3.191,2.383 3.192,2.379 3.191,2.437 3.192,2.383 3.187,2.398 3.192,2.414 3.191,2.422 3.191,2.449 3.192,2.399 3.191,2.344 3.192,2.418 3.191,2.398 3.188,2.375 3.191,2.363 3.191,2.36 3.192,2.367 3.191,2.387 3.192,2.39 3.191,2.305 3.191,2.262 3.192,2.281 3.187,2.328 3.192,2.254 3.191,2.187 3.192,2.227 3.191,2.207 3.191,2.211 3.192,2.254 3.191,2.176 3.188,2.156 3.191,2.086 3.191,2.129 3.192,2.062 3.191,2.047 3.192,2.02 3.191,2.05 3.191,2.043 3.192,1.934 3.187,1.926 3.192,1.965 3.191,1.918 3.192,1.851 3.191,1.789 3.191,1.735 v 50.468 l -3.191,-1.09 -3.191,-1.093 -3.192,-1.137 -3.191,-1.156 -3.192,-1.188 -3.187,-1.23 -3.192,-1.274 -3.191,-1.328 -3.191,-1.379 -3.192,-1.402 -3.191,-1.449 -3.192,-1.477 -3.191,-1.543 -3.191,-1.574 -3.188,-1.598 -3.191,-1.636 -3.192,-1.7 -3.191,-1.769 -3.191,-1.781 -3.192,-1.809 -3.191,-1.844 -3.192,-1.906 -3.187,-1.957 -3.192,-1.996 -3.191,-2.086 -3.191,-2.094 -3.192,-2.191 -3.191,-2.18 -3.192,-2.223 -3.191,-2.277 -3.191,-2.312 -3.188,-2.383 -3.191,-2.43 -3.192,-2.426 -3.191,-2.484 -3.192,-2.52 -3.191,-2.574 -3.191,-2.578 -3.192,-2.644 -3.187,-2.653 -3.192,-2.633 -3.191,-2.683 -3.192,-2.738 -3.191,-2.747 -3.191,-2.785 -3.192,-2.894 -3.191,-2.805 -3.192,-2.844 -3.187,-2.922 -3.191,-2.906 -3.192,-2.863 -3.191,-2.906 -3.192,-2.95 -3.191,-2.898 -3.191,-2.906 -3.192,-2.973 -3.187,-2.902 -6.383,-5.844 -3.192,-2.891 -3.191,-2.918 -3.191,-2.867 -3.192,-2.89 -3.191,-2.895 -3.192,-2.828 -3.187,-2.863 -3.192,-2.805 -3.191,-2.762 -3.191,-2.746 -3.192,-2.66 -3.191,-2.648 -6.383,-5.375 -3.187,-2.598 -3.192,-2.609 -3.191,-2.555 -3.192,-2.516 -3.191,-2.488 -3.192,-2.441 -3.191,-2.383 -3.191,-2.41 -3.192,-2.286 -3.187,-2.296 -3.192,-2.243 -3.191,-2.187 -3.191,-2.149 -3.192,-2.117 -3.191,-2.07 -3.192,-2.074 -3.191,-1.981 L 97.191,58.266 94,56.367 90.809,54.477 87.617,52.625 84.426,50.867 81.234,49.117 78.043,47.383 74.852,45.738 71.66,44.113 68.473,42.508 Z"
             style="fill:#1c86ee;fill-opacity:0.4;fill-rule:nonzero;stroke:none"
             id="path961" />
          <path
             d="m 68.473,117.418 3.187,1.207 6.383,2.344 3.191,1.125 3.192,1.183 3.191,1.121 3.192,1.106 3.191,1.078 3.191,1.086 3.188,1.051 3.191,1.058 3.192,1.043 3.191,1.016 3.192,1.023 3.191,1.043 3.191,0.996 3.192,1.012 3.187,1 3.192,0.992 3.191,0.938 3.191,0.988 3.192,0.957 3.191,0.965 3.192,0.949 3.191,0.934 3.192,0.922 3.187,0.933 3.191,0.93 3.192,0.879 3.191,0.883 3.192,0.922 3.191,0.882 3.191,0.891 3.192,0.875 3.187,0.879 3.192,0.898 3.191,0.871 3.192,0.856 3.191,0.848 3.191,0.875 6.383,1.648 3.192,0.836 3.187,0.824 3.192,0.836 3.191,0.817 3.191,0.843 3.192,0.852 3.191,0.828 3.192,0.836 3.191,0.812 3.187,0.821 3.192,0.816 3.191,0.793 3.192,0.785 3.191,0.832 3.191,0.785 3.192,0.797 3.191,0.77 3.192,0.777 3.187,0.789 3.192,0.762 3.191,0.754 3.191,0.789 9.575,2.297 3.191,0.777 3.188,0.777 3.191,0.762 3.191,0.77 3.192,0.742 3.191,0.726 3.192,0.743 3.191,0.765 3.191,0.762 3.192,0.695 3.187,0.731 3.192,0.715 3.191,0.734 3.192,0.723 3.191,0.672 6.383,1.406 3.191,0.742 3.188,0.699 3.191,0.711 3.191,0.703 3.192,0.684 3.191,0.687 3.192,0.703 3.191,0.684 3.191,0.715 3.192,0.695 3.187,0.699 3.192,0.704 3.191,0.664 3.192,0.66 3.191,0.676 3.191,0.668 v 51.425 l -3.191,-0.73 -3.191,-0.723 -3.192,-0.765 -3.191,-0.754 -3.192,-0.778 -3.187,-0.797 -3.192,-0.789 -6.382,-1.625 -3.192,-0.828 -3.191,-0.851 -3.192,-0.844 -3.191,-0.863 -3.191,-0.871 -3.188,-0.879 -3.191,-0.895 -3.192,-0.902 -6.382,-1.828 -3.192,-0.953 -3.191,-0.961 -3.192,-0.954 -3.187,-0.98 -3.192,-0.988 -3.191,-1.02 -3.191,-1.031 -3.192,-1.004 -3.191,-1.023 -3.192,-1.039 -3.191,-1.032 -3.191,-1.066 -3.188,-1.074 -3.191,-1.086 -3.192,-1.078 -3.191,-1.114 -3.192,-1.109 -3.191,-1.106 -3.191,-1.121 -3.192,-1.132 -3.187,-1.176 -3.192,-1.164 -3.191,-1.176 -3.192,-1.184 -6.382,-2.382 -3.192,-1.18 -3.191,-1.227 -3.192,-1.211 -3.187,-1.234 -3.191,-1.234 -3.192,-1.27 -3.191,-1.234 -3.192,-1.262 -3.191,-1.273 -3.191,-1.239 -3.192,-1.289 -3.187,-1.273 -3.192,-1.301 -3.191,-1.262 -3.192,-1.312 -3.191,-1.297 -3.191,-1.317 -3.192,-1.347 -6.383,-2.688 -3.187,-1.32 -3.192,-1.348 -3.191,-1.312 -3.191,-1.324 -3.192,-1.34 -3.191,-1.317 -3.192,-1.296 -3.191,-1.309 -3.187,-1.34 -3.192,-1.355 -3.191,-1.364 -3.192,-1.347 -3.191,-1.383 -3.192,-1.297 -3.191,-1.348 -3.191,-1.308 -3.192,-1.321 -3.187,-1.308 -3.192,-1.309 -3.191,-1.281 -3.191,-1.301 -3.192,-1.269 -3.191,-1.274 -3.192,-1.269 -3.191,-1.258 -3.188,-1.215 -3.191,-1.219 -3.191,-1.211 -3.192,-1.191 -3.191,-1.137 -3.192,-1.148 -3.191,-1.153 -3.191,-1.164 -3.192,-1.125 -3.187,-1.066 z"
             style="fill:#daa520;fill-opacity:0.4;fill-rule:nonzero;stroke:none"
             id="path963" />
          <path
             d="m 68.473,29.293 3.187,1.32 3.192,1.364 3.191,1.398 3.191,1.426 3.192,1.465 3.191,1.504 3.192,1.523 3.191,1.566 3.191,1.598 3.188,1.641 3.191,1.664 3.192,1.718 3.191,1.731 3.192,1.781 3.191,1.817 3.191,1.863 3.192,1.887 3.187,1.918 3.192,1.964 3.191,1.997 3.191,2.027 3.192,2.066 3.191,2.086 3.192,2.141 3.191,2.156 3.192,2.191 3.187,2.208 3.191,2.261 3.192,2.274 3.191,2.304 3.192,2.348 3.191,2.379 3.191,2.406 3.192,2.43 3.187,2.461 3.192,2.48 3.191,2.504 3.192,2.488 3.191,2.563 3.191,2.555 3.192,2.589 3.191,2.586 3.192,2.614 3.187,2.613 3.192,2.617 3.191,2.621 3.191,2.645 3.192,2.672 3.191,2.683 3.192,2.66 3.191,2.676 3.187,2.68 3.192,2.695 3.191,2.684 6.383,5.359 3.191,2.672 3.192,2.648 3.191,2.665 3.192,2.632 3.187,2.641 3.192,2.605 3.191,2.602 3.191,2.559 3.192,2.574 3.191,2.562 3.192,2.516 3.191,2.504 3.188,2.48 3.191,2.457 3.191,2.43 3.192,2.418 3.191,2.367 3.192,2.332 3.191,2.324 3.191,2.293 3.192,2.282 3.187,2.242 3.192,2.211 3.191,2.164 3.192,2.137 3.191,2.082 3.191,2.058 3.192,2.024 3.191,1.996 3.188,1.98 3.191,1.922 3.191,1.887 3.192,1.855 3.191,1.824 3.192,1.79 3.191,1.765 3.191,1.723 3.192,1.68 3.187,1.644 3.192,1.609 3.191,1.579 3.192,1.535 3.191,1.515 3.191,1.469"
             style="fill:none;stroke:#1c86ee;stroke-width:4.26791;stroke-linecap:butt;stroke-linejoin:round;stroke-miterlimit:10;stroke-dasharray:none;stroke-opacity:1"
             id="path965" />
          <path
             d="m 68.473,128.613 3.187,1.137 3.192,1.148 3.191,1.141 6.383,2.297 3.191,1.141 3.192,1.148 3.191,1.156 3.191,1.137 3.188,1.141 3.191,1.148 3.192,1.145 3.191,1.152 3.192,1.164 3.191,1.137 3.191,1.144 3.192,1.141 3.187,1.144 3.192,1.141 6.382,2.289 3.192,1.133 3.191,1.129 3.192,1.133 3.191,1.125 3.192,1.132 3.187,1.125 3.191,1.133 3.192,1.106 3.191,1.109 3.192,1.106 3.191,1.121 3.191,1.113 3.192,1.109 3.187,1.114 3.192,1.105 3.191,1.098 3.192,1.093 6.382,2.18 6.383,2.172 3.192,1.094 3.187,1.074 3.192,1.078 6.382,2.133 3.192,1.07 3.191,1.055 3.192,1.051 3.191,1.054 3.187,1.043 3.192,1.039 3.191,1.043 3.192,1.036 3.191,1.031 3.191,1.023 3.192,1.016 3.191,1 3.192,1.004 3.187,1.004 3.192,1 3.191,0.996 3.191,0.992 3.192,0.984 3.191,0.981 3.192,0.969 3.191,0.976 3.188,0.953 3.191,0.957 3.191,0.942 6.383,1.89 6.383,1.844 6.383,1.836 3.187,0.906 3.192,0.899 3.191,0.879 3.192,0.886 3.191,0.883 3.191,0.867 3.192,0.875 3.191,0.864 3.188,0.863 3.191,0.84 3.191,0.855 3.192,0.836 3.191,0.828 6.383,1.649 3.191,0.82 3.192,0.805 3.187,0.8 3.192,0.793 3.191,0.789 3.192,0.782 3.191,0.769 3.191,0.782"
             style="fill:none;stroke:#daa520;stroke-width:4.26791;stroke-linecap:butt;stroke-linejoin:round;stroke-miterlimit:10;stroke-dasharray:none;stroke-opacity:1"
             id="path967" />
          <path
             d="M 52.516,5.477 H 403.52 V 279.832 H 52.516 Z"
             style="fill:none;stroke:#333333;stroke-width:3.20093;stroke-linecap:round;stroke-linejoin:round;stroke-miterlimit:10;stroke-dasharray:none;stroke-opacity:1"
             id="path969" />
        </g>
      </g>
      <g
         id="g971">
        <text
           transform="translate(22.671875,223.40625)"
           style="font-variant:normal;font-weight:normal;font-size:12.8px;font-family:Arial;-inkscape-font-specification:ArialMT;writing-mode:lr-tb;fill:#4d4d4d;fill-opacity:1;fill-rule:nonzero;stroke:none"
           id="text979"><tspan
             x="0 7.1167998 10.6624 17.7792"
             y="0"
             sodipodi:role="line"
             id="tspan973">0.25</tspan><tspan
             x="0 7.1167998 10.6624 17.7792"
             y="-78.015633"
             sodipodi:role="line"
             id="tspan975">0.50</tspan><tspan
             x="0 7.1167998 10.6624 17.7792"
             y="-156.03516"
             sodipodi:role="line"
             id="tspan977">0.75</tspan></text>
        <path
           d="m 49.777,218.824 h 2.739"
           style="fill:none;stroke:#333333;stroke-width:1.06698;stroke-linecap:butt;stroke-linejoin:round;stroke-miterlimit:10;stroke-dasharray:none;stroke-opacity:1"
           id="path981" />
        <path
           d="m 49.777,140.809 h 2.739"
           style="fill:none;stroke:#333333;stroke-width:1.06698;stroke-linecap:butt;stroke-linejoin:round;stroke-miterlimit:10;stroke-dasharray:none;stroke-opacity:1"
           id="path983" />
        <path
           d="m 49.777,62.793 h 2.739"
           style="fill:none;stroke:#333333;stroke-width:1.06698;stroke-linecap:butt;stroke-linejoin:round;stroke-miterlimit:10;stroke-dasharray:none;stroke-opacity:1"
           id="path985" />
        <path
           d="m 68.473,282.574 v -2.742"
           style="fill:none;stroke:#333333;stroke-width:1.06698;stroke-linecap:butt;stroke-linejoin:round;stroke-miterlimit:10;stroke-dasharray:none;stroke-opacity:1"
           id="path987" />
        <path
           d="m 148.246,282.574 v -2.742"
           style="fill:none;stroke:#333333;stroke-width:1.06698;stroke-linecap:butt;stroke-linejoin:round;stroke-miterlimit:10;stroke-dasharray:none;stroke-opacity:1"
           id="path989" />
        <path
           d="m 228.02,282.574 v -2.742"
           style="fill:none;stroke:#333333;stroke-width:1.06698;stroke-linecap:butt;stroke-linejoin:round;stroke-miterlimit:10;stroke-dasharray:none;stroke-opacity:1"
           id="path991" />
        <path
           d="m 307.793,282.574 v -2.742"
           style="fill:none;stroke:#333333;stroke-width:1.06698;stroke-linecap:butt;stroke-linejoin:round;stroke-miterlimit:10;stroke-dasharray:none;stroke-opacity:1"
           id="path993" />
        <path
           d="m 387.566,282.574 v -2.742"
           style="fill:none;stroke:#333333;stroke-width:1.06698;stroke-linecap:butt;stroke-linejoin:round;stroke-miterlimit:10;stroke-dasharray:none;stroke-opacity:1"
           id="path995" />
        <text
           transform="translate(56.015625,293.92578)"
           style="font-variant:normal;font-weight:normal;font-size:12.8px;font-family:Arial;-inkscape-font-specification:ArialMT;writing-mode:lr-tb;fill:#4d4d4d;fill-opacity:1;fill-rule:nonzero;stroke:none"
           id="text999"><tspan
             x="0 7.1167998 10.6624 17.7792 79.756798 86.873596 90.419197 97.536003 159.5136 166.6304 170.17599 177.2928 239.32031 246.4371 249.98271 257.09952 319.07712 326.19391 329.7395 336.85629"
             y="0"
             sodipodi:role="line"
             id="tspan997">0.000.250.500.751.00</tspan></text>
        <text
           transform="translate(126.22266,310.51953)"
           style="font-variant:normal;font-weight:normal;font-size:16px;font-family:Arial;-inkscape-font-specification:ArialMT;writing-mode:lr-tb;fill:#000000;fill-opacity:1;fill-rule:nonzero;stroke:none"
           id="text1003"><tspan
             x="0 9.7600002 13.312 18.639999 27.535999 31.968 39.967999 48.863998 56.863998 65.760002 71.087997 74.639999 79.071999 87.071999 91.503998 96.832001 105.728 111.056 119.952 128.84801 133.28 137.71201 151.03999 159.936 165.26401 169.696 178.592 182.144 185.696 190.12801 198.12801"
             y="0"
             sodipodi:role="line"
             id="tspan1001">Fire severity (prop. mortality)</tspan></text>
        <text
           transform="rotate(-90,100.02734,83.09375)"
           style="font-variant:normal;font-weight:normal;font-size:16px;font-family:Arial;-inkscape-font-specification:ArialMT;writing-mode:lr-tb;fill:#000000;fill-opacity:1;fill-rule:nonzero;stroke:none"
           id="text1007"><tspan
             x="0 10.656 15.984 23.983999 32.880001 41.776001 50.672001 54.223999 57.776001 66.671997 75.568001"
             y="0"
             sodipodi:role="line"
             id="tspan1005">P(seedling)</tspan></text>
      </g>
    </g>
    <g
       id="g1049"
       inkscape:label="fireprop_saps"
       transform="matrix(0.35277777,0,0,0.35277777,-97.131035,231.5141)">
      <g
         id="g1051">
        <path
           d="M 0,0 H 409 V 319 H 0 Z"
           style="fill:#ffffff;fill-opacity:1;fill-rule:nonzero;stroke:none"
           id="path1053" />
        <path
           d="M 0,0 H 409 V 319 H 0 Z"
           style="fill:#ffffff;fill-opacity:1;fill-rule:nonzero;stroke:none"
           id="path1055" />
        <path
           d="M 0,0 H 409 V 319 H 0 Z"
           style="fill:none;stroke:#ffffff;stroke-width:1.06698;stroke-linecap:round;stroke-linejoin:round;stroke-miterlimit:10;stroke-dasharray:none;stroke-opacity:1"
           id="path1057" />
      </g>
      <g
         id="g1059">
        <g
           id="g1061"
           clip-path="url(#clipPath1065)">
          <path
             d="M 45.398,5.477 H 403.519 V 279.832 H 45.398 Z"
             style="fill:#ffffff;fill-opacity:1;fill-rule:nonzero;stroke:none"
             id="path1067" />
          <path
             d="m 61.676,17.949 3.254,4.766 3.258,4.742 3.253,4.566 3.258,4.387 3.254,4.285 3.258,4.282 3.254,4 3.258,3.949 3.254,3.926 3.257,3.746 3.254,3.785 3.254,3.605 3.258,3.524 3.254,3.547 3.258,3.449 3.254,3.379 3.257,3.222 3.254,3.239 3.258,3.144 3.254,3.059 3.254,3.051 3.258,3.015 3.254,3.016 3.258,2.89 3.253,2.829 3.258,2.824 3.254,2.781 3.258,2.754 3.254,2.648 3.258,2.598 3.254,2.645 3.253,2.503 3.258,2.516 3.254,2.469 3.258,2.441 3.254,2.391 3.258,2.391 3.254,2.328 3.257,2.312 3.254,2.262 3.254,2.242 3.258,2.125 3.254,2.207 3.258,2.137 3.254,2.101 3.258,2.055 3.253,2 3.258,2.012 3.254,1.961 3.258,1.976 3.254,1.879 3.254,1.836 3.258,1.797 3.253,1.828 3.258,1.742 3.254,1.731 3.258,1.699 3.254,1.691 3.258,1.629 3.254,1.625 3.254,1.555 3.257,1.535 3.254,1.512 3.258,1.5 3.254,1.476 3.258,1.446 3.254,1.398 3.258,1.391 3.253,1.359 3.258,1.363 3.254,1.344 3.254,1.305 3.258,1.297 3.254,1.254 3.258,1.23 3.253,1.215 3.258,1.187 3.254,1.161 3.258,1.132 3.254,1.098 3.254,1.106 3.258,1.07 3.254,1.066 3.257,1.047 3.254,1.016 3.258,1.012 3.254,0.976 3.258,0.981 3.254,0.937 3.258,0.926 6.507,1.82 3.258,0.891 3.254,0.883 3.258,0.832 3.254,0.836 3.258,0.808 3.253,0.797 3.258,0.754 3.254,0.754 v 30.453 l -3.254,-0.242 -3.258,-0.262 -3.253,-0.269 -3.258,-0.278 -3.254,-0.293 -3.258,-0.304 -3.254,-0.313 -3.258,-0.324 -3.254,-0.348 -3.253,-0.351 -3.258,-0.368 -3.254,-0.379 -3.258,-0.402 -3.254,-0.406 -3.258,-0.434 -3.254,-0.441 -3.257,-0.457 -3.254,-0.481 -3.258,-0.492 -3.254,-0.515 -3.254,-0.536 -3.258,-0.558 -3.254,-0.586 -3.258,-0.606 -3.253,-0.617 -3.258,-0.644 -3.254,-0.684 -3.258,-0.703 -3.254,-0.738 -3.254,-0.75 -3.258,-0.801 -3.253,-0.824 -3.258,-0.852 -3.254,-0.887 -3.258,-0.906 -3.254,-0.945 -3.258,-0.977 -3.254,-1.008 -3.257,-1.07 -3.254,-1.09 -3.254,-1.121 -3.258,-1.199 -3.254,-1.215 -3.258,-1.285 -3.254,-1.312 -3.258,-1.34 -3.253,-1.414 -3.258,-1.442 -3.254,-1.504 -3.254,-1.554 -3.258,-1.629 -3.254,-1.664 -3.258,-1.723 -3.253,-1.785 -3.258,-1.848 -3.254,-1.91 -3.258,-1.992 -3.254,-2.063 -3.258,-2.121 -3.254,-2.23 -3.254,-2.192 -3.257,-2.308 -3.254,-2.391 -3.258,-2.465 -3.254,-2.515 -3.258,-2.586 -3.254,-2.692 -3.258,-2.816 -3.253,-2.844 -3.254,-2.906 -3.258,-3.055 -3.254,-3.07 -3.258,-3.211 -3.254,-3.273 -3.258,-3.332 -3.253,-3.415 -3.258,-3.46 -3.254,-3.614 -3.258,-3.652 -3.254,-3.746 -3.254,-3.871 -3.258,-3.875 -3.254,-4.028 -3.257,-4.039 -3.254,-4.125 -3.258,-4.179 -3.254,-4.235 -3.258,-4.32 -3.254,-4.262 -3.254,-4.332 -3.257,-4.402 -3.254,-4.324 -3.258,-4.36 -3.254,-4.429 -3.258,-4.43 -3.254,-4.36 -3.258,-4.394 -3.253,-4.332 -3.258,-4.332 -3.254,-4.266 z"
             style="fill:#1c86ee;fill-opacity:0.4;fill-rule:nonzero;stroke:none"
             id="path1069" />
          <path
             d="m 61.676,156.227 3.254,5.293 3.258,4.589 3.253,4.168 3.258,3.832 3.254,3.454 3.258,3.234 3.254,3.098 3.258,2.89 3.254,2.774 3.257,2.593 3.254,2.43 3.254,2.332 3.258,2.281 3.254,2.145 3.258,2.148 3.254,2.012 3.257,1.977 3.254,1.882 3.258,1.844 3.254,1.766 3.254,1.687 3.258,1.653 3.254,1.574 3.258,1.543 3.253,1.465 3.258,1.433 3.254,1.383 3.258,1.359 3.254,1.336 3.258,1.309 3.254,1.269 3.253,1.2 3.258,1.156 3.254,1.113 3.258,1.106 3.254,1.05 3.258,1.012 3.254,1.004 3.257,0.988 3.254,0.934 3.254,0.922 3.258,0.855 3.254,0.828 3.258,0.809 3.254,0.809 3.258,0.746 3.253,0.777 3.258,0.75 3.254,0.699 3.258,0.676 3.254,0.672 3.254,0.637 3.258,0.621 3.253,0.601 3.258,0.582 3.254,0.563 3.258,0.551 3.254,0.523 3.258,0.524 3.254,0.496 3.254,0.488 3.257,0.457 3.254,0.465 3.258,0.433 3.254,0.43 3.258,0.414 3.254,0.399 3.258,0.386 3.253,0.383 3.258,0.356 3.254,0.343 3.254,0.336 3.258,0.324 3.254,0.317 3.258,0.301 3.253,0.293 3.258,0.296 3.254,0.286 3.258,0.269 3.254,0.254 3.254,0.262 3.258,0.25 3.254,0.246 3.257,0.23 3.254,0.219 3.258,0.215 3.254,0.215 3.258,0.195 3.254,0.192 3.258,0.195 3.253,0.18 3.254,0.175 3.258,0.172 3.254,0.156 3.258,0.164 3.254,0.157 3.258,0.156 3.253,0.145 3.258,0.144 3.254,0.137 v 4.144 h -3.254 l -3.258,-0.004 h -6.511 l -3.254,-0.004 h -3.258 l -3.254,-0.003 h -3.258 l -3.254,-0.004 h -3.253 l -3.258,-0.004 h -3.254 l -3.258,-0.004 -3.254,-0.004 -3.258,-0.004 -3.254,-0.004 -3.257,-0.004 -3.254,-0.004 -3.258,-0.007 -3.254,-0.004 -3.254,-0.008 -3.258,-0.008 -3.254,-0.008 -3.258,-0.008 -3.253,-0.007 -3.258,-0.012 -3.254,-0.012 -3.258,-0.012 -3.254,-0.015 -3.254,-0.012 -3.258,-0.016 -3.253,-0.019 -3.258,-0.02 -3.254,-0.023 -3.258,-0.024 -3.254,-0.023 -3.258,-0.031 -3.254,-0.031 -3.257,-0.036 -3.254,-0.035 -3.254,-0.043 -3.258,-0.043 -3.254,-0.05 -3.258,-0.055 -3.254,-0.063 -3.258,-0.066 -3.253,-0.07 -3.258,-0.079 -3.254,-0.085 -3.254,-0.094 -3.258,-0.11 -3.254,-0.109 -3.258,-0.129 -3.253,-0.137 -3.258,-0.148 -3.254,-0.164 -3.258,-0.184 -3.254,-0.195 -3.258,-0.219 -3.254,-0.242 -3.254,-0.254 -3.257,-0.289 -3.254,-0.312 -3.258,-0.344 -3.254,-0.375 -3.258,-0.406 -3.254,-0.446 -3.258,-0.492 -3.253,-0.539 -3.254,-0.59 -3.258,-0.648 -3.254,-0.711 -3.258,-0.77 -3.254,-0.847 -3.258,-0.914 -3.253,-1.008 -3.258,-1.114 -3.254,-1.187 -3.258,-1.316 -3.254,-1.395 -3.254,-1.574 -3.258,-1.684 -3.254,-1.851 -3.257,-2.024 -3.254,-2.207 -3.258,-2.355 -3.254,-2.582 -3.258,-2.75 -3.254,-2.95 -3.254,-3.265 -3.257,-3.426 -3.254,-3.687 -3.258,-3.872 -3.254,-4.14 -3.258,-4.266 -3.254,-4.39 -3.258,-4.442 -3.253,-4.445 -3.258,-4.332 -3.254,-4.137 z"
             style="fill:#daa520;fill-opacity:0.4;fill-rule:nonzero;stroke:none"
             id="path1071" />
          <path
             d="m 61.676,39.762 3.254,4.551 3.258,4.546 3.253,4.473 3.258,4.379 3.254,4.355 3.258,4.282 3.254,4.246 3.258,4.164 3.254,4.14 3.257,4.079 3.254,4.027 3.254,3.965 3.258,3.922 3.254,3.851 3.258,3.789 3.254,3.715 3.257,3.649 3.254,3.597 3.258,3.524 3.254,3.457 3.254,3.425 3.258,3.352 3.254,3.32 3.258,3.243 3.253,3.195 3.258,3.125 3.254,3.058 3.258,2.997 3.254,2.972 3.258,2.895 3.254,2.836 3.253,2.765 3.258,2.735 3.254,2.675 3.258,2.61 3.254,2.558 3.258,2.524 3.254,2.465 3.257,2.398 3.254,2.352 3.254,2.293 3.258,2.234 3.254,2.211 3.258,2.133 3.254,2.097 3.258,2.051 3.253,2 3.258,1.961 3.254,1.899 3.258,1.867 3.254,1.816 3.254,1.781 3.258,1.735 3.253,1.691 3.258,1.653 3.254,1.621 3.258,1.578 3.254,1.543 3.258,1.504 3.254,1.468 3.254,1.422 3.257,1.399 3.254,1.359 3.258,1.309 3.254,1.289 3.258,1.265 3.254,1.219 3.258,1.199 3.253,1.164 3.258,1.129 3.254,1.102 3.254,1.062 3.258,1.043 3.254,1.008 3.258,0.985 3.253,0.964 3.258,0.938 3.254,0.906 3.258,0.895 3.254,0.863 3.254,0.84 3.258,0.816 3.254,0.801 3.257,0.766 3.254,0.753 3.258,0.731 3.254,0.715 3.258,0.691 3.254,0.672 3.258,0.656 3.253,0.637 3.254,0.621 3.258,0.598 3.254,0.586 3.258,0.566 3.254,0.555 3.258,0.539 3.253,0.523 3.258,0.512 3.254,0.496"
             style="fill:none;stroke:#1c86ee;stroke-width:4.26791;stroke-linecap:butt;stroke-linejoin:round;stroke-miterlimit:10;stroke-dasharray:none;stroke-opacity:1"
             id="path1073" />
          <path
             d="m 61.676,171.684 3.254,4.683 3.258,4.469 3.253,4.312 3.258,4.079 3.254,3.878 3.258,3.731 3.254,3.508 3.258,3.336 3.254,3.218 3.257,3.067 3.254,2.937 3.254,2.774 3.258,2.648 3.254,2.52 3.258,2.398 3.254,2.301 3.257,2.187 3.254,2.075 3.258,1.968 3.254,1.868 3.254,1.789 3.258,1.687 3.254,1.61 3.258,1.531 3.253,1.449 3.258,1.383 3.254,1.297 3.258,1.226 3.254,1.172 3.258,1.102 3.254,1.054 3.253,0.989 3.258,0.941 3.254,0.902 3.258,0.848 3.254,0.797 3.258,0.762 3.254,0.718 3.257,0.672 3.254,0.645 3.254,0.609 3.258,0.574 3.254,0.543 3.258,0.52 3.254,0.48 3.258,0.461 3.253,0.442 3.258,0.414 3.254,0.387 3.258,0.375 3.254,0.351 3.254,0.328 3.258,0.313 3.253,0.297 3.258,0.281 3.254,0.262 3.258,0.25 3.254,0.234 3.258,0.223 3.254,0.211 3.254,0.199 3.257,0.187 3.254,0.176 3.258,0.168 3.254,0.16 3.258,0.149 3.254,0.144 3.258,0.133 3.253,0.125 3.258,0.121 3.254,0.113 3.254,0.106 3.258,0.101 3.254,0.094 3.258,0.09 3.253,0.086 3.258,0.078 3.254,0.078 3.258,0.07 6.508,0.133 3.258,0.059 3.254,0.058 3.257,0.055 3.254,0.051 3.258,0.047 3.254,0.047 3.258,0.043 3.254,0.039 3.258,0.039 6.507,0.07 3.258,0.035 3.254,0.028 3.258,0.031 3.254,0.027 3.258,0.024 3.253,0.023 3.258,0.023 3.254,0.024"
             style="fill:none;stroke:#daa520;stroke-width:4.26791;stroke-linecap:butt;stroke-linejoin:round;stroke-miterlimit:10;stroke-dasharray:none;stroke-opacity:1"
             id="path1075" />
          <path
             d="M 45.398,5.477 H 403.519 V 279.832 H 45.398 Z"
             style="fill:none;stroke:#333333;stroke-width:3.20093;stroke-linecap:round;stroke-linejoin:round;stroke-miterlimit:10;stroke-dasharray:none;stroke-opacity:1"
             id="path1077" />
        </g>
      </g>
      <g
         id="g1079">
        <text
           transform="translate(22.671875,271.95312)"
           style="font-variant:normal;font-weight:normal;font-size:12.8px;font-family:Arial;-inkscape-font-specification:ArialMT;writing-mode:lr-tb;fill:#4d4d4d;fill-opacity:1;fill-rule:nonzero;stroke:none"
           id="text1089"><tspan
             x="0 7.1167998 10.6624"
             y="0"
             sodipodi:role="line"
             id="tspan1081">0.0</tspan><tspan
             x="0 7.1167998 10.6624"
             y="-68.281258"
             sodipodi:role="line"
             id="tspan1083">0.1</tspan><tspan
             x="0 7.1167998 10.6624"
             y="-136.56252"
             sodipodi:role="line"
             id="tspan1085">0.2</tspan><tspan
             x="0 7.1167998 10.6624"
             y="-204.84377"
             sodipodi:role="line"
             id="tspan1087">0.3</tspan></text>
        <path
           d="m 42.656,267.375 h 2.742"
           style="fill:none;stroke:#333333;stroke-width:1.06698;stroke-linecap:butt;stroke-linejoin:round;stroke-miterlimit:10;stroke-dasharray:none;stroke-opacity:1"
           id="path1091" />
        <path
           d="m 42.656,199.094 h 2.742"
           style="fill:none;stroke:#333333;stroke-width:1.06698;stroke-linecap:butt;stroke-linejoin:round;stroke-miterlimit:10;stroke-dasharray:none;stroke-opacity:1"
           id="path1093" />
        <path
           d="m 42.656,130.809 h 2.742"
           style="fill:none;stroke:#333333;stroke-width:1.06698;stroke-linecap:butt;stroke-linejoin:round;stroke-miterlimit:10;stroke-dasharray:none;stroke-opacity:1"
           id="path1095" />
        <path
           d="m 42.656,62.527 h 2.742"
           style="fill:none;stroke:#333333;stroke-width:1.06698;stroke-linecap:butt;stroke-linejoin:round;stroke-miterlimit:10;stroke-dasharray:none;stroke-opacity:1"
           id="path1097" />
        <path
           d="m 61.676,282.574 v -2.742"
           style="fill:none;stroke:#333333;stroke-width:1.06698;stroke-linecap:butt;stroke-linejoin:round;stroke-miterlimit:10;stroke-dasharray:none;stroke-opacity:1"
           id="path1099" />
        <path
           d="m 143.066,282.574 v -2.742"
           style="fill:none;stroke:#333333;stroke-width:1.06698;stroke-linecap:butt;stroke-linejoin:round;stroke-miterlimit:10;stroke-dasharray:none;stroke-opacity:1"
           id="path1101" />
        <path
           d="m 224.461,282.574 v -2.742"
           style="fill:none;stroke:#333333;stroke-width:1.06698;stroke-linecap:butt;stroke-linejoin:round;stroke-miterlimit:10;stroke-dasharray:none;stroke-opacity:1"
           id="path1103" />
        <path
           d="m 305.852,282.574 v -2.742"
           style="fill:none;stroke:#333333;stroke-width:1.06698;stroke-linecap:butt;stroke-linejoin:round;stroke-miterlimit:10;stroke-dasharray:none;stroke-opacity:1"
           id="path1105" />
        <path
           d="m 387.242,282.574 v -2.742"
           style="fill:none;stroke:#333333;stroke-width:1.06698;stroke-linecap:butt;stroke-linejoin:round;stroke-miterlimit:10;stroke-dasharray:none;stroke-opacity:1"
           id="path1107" />
        <text
           transform="translate(49.21875,293.92578)"
           style="font-variant:normal;font-weight:normal;font-size:12.8px;font-family:Arial;-inkscape-font-specification:ArialMT;writing-mode:lr-tb;fill:#4d4d4d;fill-opacity:1;fill-rule:nonzero;stroke:none"
           id="text1111"><tspan
             x="0 7.1167998 10.6624 17.7792 81.369598 88.486397 92.031998 99.148804 162.752 169.8688 173.4144 180.5312 244.17578 251.29259 254.83818 261.95499 325.54538 332.66217 336.20779 343.32458"
             y="0"
             sodipodi:role="line"
             id="tspan1109">0.000.250.500.751.00</tspan></text>
        <text
           transform="translate(122.66406,310.51953)"
           style="font-variant:normal;font-weight:normal;font-size:16px;font-family:Arial;-inkscape-font-specification:ArialMT;writing-mode:lr-tb;fill:#000000;fill-opacity:1;fill-rule:nonzero;stroke:none"
           id="text1115"><tspan
             x="0 9.7600002 13.312 18.639999 27.535999 31.968 39.967999 48.863998 56.863998 65.760002 71.087997 74.639999 79.071999 87.071999 91.503998 96.832001 105.728 111.056 119.952 128.84801 133.28 137.71201 151.03999 159.936 165.26401 169.696 178.592 182.144 185.696 190.12801 198.12801"
             y="0"
             sodipodi:role="line"
             id="tspan1113">Fire severity (prop. mortality)</tspan></text>
        <text
           transform="rotate(-90,112.02734,95.09375)"
           style="font-variant:normal;font-weight:normal;font-size:16px;font-family:Arial;-inkscape-font-specification:ArialMT;writing-mode:lr-tb;fill:#000000;fill-opacity:1;fill-rule:nonzero;stroke:none"
           id="text1119"><tspan
             x="0 10.656 15.984 23.983999 32.880001 41.776001 45.327999 48.880001 57.776001 66.671997 71.103996 76.431999 85.328003 93.328003 98.655998 107.552 111.104 115.536 123.536"
             y="0"
             sodipodi:role="line"
             id="tspan1117">P(sapling recruits)</tspan></text>
      </g>
    </g>
    <text
       xml:space="preserve"
       style="font-style:normal;font-weight:normal;font-size:10.5833px;line-height:1.25;font-family:sans-serif;fill:#000000;fill-opacity:1;stroke:none;stroke-width:0.264583"
       x="-76.249809"
       y="-19.04915"
       id="text2425"><tspan
         sodipodi:role="line"
         id="tspan2423"
         style="stroke-width:0.264583"
         x="-76.249809"
         y="-19.04915">a)</tspan></text>
    <text
       xml:space="preserve"
       style="font-style:normal;font-weight:normal;font-size:10.5833px;line-height:1.25;font-family:sans-serif;fill:#000000;fill-opacity:1;stroke:none;stroke-width:0.264583"
       x="-76.57795"
       y="105.39228"
       id="text2429"><tspan
         sodipodi:role="line"
         id="tspan2427"
         style="stroke-width:0.264583"
         x="-76.57795"
         y="105.39228">b)</tspan></text>
    <text
       xml:space="preserve"
       style="font-style:normal;font-weight:normal;font-size:10.5833px;line-height:1.25;font-family:sans-serif;fill:#000000;fill-opacity:1;stroke:none;stroke-width:0.264583"
       x="-75.83123"
       y="229.83371"
       id="text2187"><tspan
         sodipodi:role="line"
         id="tspan2185"
         style="stroke-width:0.264583"
         x="-75.83123"
         y="229.83371">c)</tspan></text>
    <g
       id="g4932"
       transform="matrix(0.75366793,0,0,0.75366793,-168.0486,-96.737963)">
      <g
         id="g4916"
         transform="matrix(0.57259786,0,0,0.57259786,75.34806,98.683519)">
        <rect
           style="fill:#a4cef8;fill-opacity:1;stroke-width:0.457999"
           id="rect4912"
           width="25.241673"
           height="14.135336"
           x="87.169075"
           y="22.27697" />
        <rect
           style="fill:#1c86ee;fill-opacity:1;stroke-width:0.456827"
           id="rect4914"
           width="25.238171"
           height="4.4172926"
           x="87.169075"
           y="27.135992" />
      </g>
      <g
         id="g4922"
         transform="matrix(0.57259786,0,0,0.57259786,75.34806,110.15423)">
        <rect
           style="fill:#f0dba5;fill-opacity:1;stroke-width:0.457999"
           id="rect4918"
           width="25.241673"
           height="14.135336"
           x="87.169075"
           y="22.27697" />
        <rect
           style="fill:#daa520;fill-opacity:1;stroke-width:0.456827"
           id="rect4920"
           width="25.238171"
           height="4.4172926"
           x="87.169075"
           y="27.135992" />
      </g>
      <text
         xml:space="preserve"
         style="font-style:normal;font-weight:normal;font-size:6.36891px;line-height:1.25;font-family:sans-serif;fill:#000000;fill-opacity:1;stroke:none;stroke-width:0.159223"
         x="142.64592"
         y="117.28056"
         id="text4926"><tspan
           sodipodi:role="line"
           id="tspan4924"
           style="stroke-width:0.159223"
           x="142.64592"
           y="117.28056">subalpine fir</tspan></text>
      <text
         xml:space="preserve"
         style="font-style:normal;font-weight:normal;font-size:6.36891px;line-height:1.25;font-family:sans-serif;fill:#000000;fill-opacity:1;stroke:none;stroke-width:0.159223"
         x="142.36604"
         y="128.71861"
         id="text4930"><tspan
           sodipodi:role="line"
           id="tspan4928"
           style="stroke-width:0.159223"
           x="142.36604"
           y="128.71861">Engelmann spruce</tspan></text>
    </g>
    <g
       id="g4954"
       transform="matrix(0.75366793,0,0,0.75366793,-169.5631,101.66158)">
      <g
         id="g4938"
         transform="matrix(0.57259786,0,0,0.57259786,75.34806,98.683519)">
        <rect
           style="fill:#a4cef8;fill-opacity:1;stroke-width:0.457999"
           id="rect4934"
           width="25.241673"
           height="14.135336"
           x="87.169075"
           y="22.27697" />
        <rect
           style="fill:#1c86ee;fill-opacity:1;stroke-width:0.456827"
           id="rect4936"
           width="25.238171"
           height="4.4172926"
           x="87.169075"
           y="27.135992" />
      </g>
      <g
         id="g4944"
         transform="matrix(0.57259786,0,0,0.57259786,75.34806,110.15423)">
        <rect
           style="fill:#f0dba5;fill-opacity:1;stroke-width:0.457999"
           id="rect4940"
           width="25.241673"
           height="14.135336"
           x="87.169075"
           y="22.27697" />
        <rect
           style="fill:#daa520;fill-opacity:1;stroke-width:0.456827"
           id="rect4942"
           width="25.238171"
           height="4.4172926"
           x="87.169075"
           y="27.135992" />
      </g>
      <text
         xml:space="preserve"
         style="font-style:normal;font-weight:normal;font-size:6.36891px;line-height:1.25;font-family:sans-serif;fill:#000000;fill-opacity:1;stroke:none;stroke-width:0.159223"
         x="142.64592"
         y="117.28056"
         id="text4948"><tspan
           sodipodi:role="line"
           id="tspan4946"
           style="stroke-width:0.159223"
           x="142.64592"
           y="117.28056">subalpine fir</tspan></text>
      <text
         xml:space="preserve"
         style="font-style:normal;font-weight:normal;font-size:6.36891px;line-height:1.25;font-family:sans-serif;fill:#000000;fill-opacity:1;stroke:none;stroke-width:0.159223"
         x="142.36604"
         y="128.71861"
         id="text4952"><tspan
           sodipodi:role="line"
           id="tspan4950"
           style="stroke-width:0.159223"
           x="142.36604"
           y="128.71861">Engelmann spruce</tspan></text>
    </g>
    <g
       id="g4910"
       transform="matrix(0.75366793,0,0,0.75366793,-111.00242,154.66909)">
      <g
         id="g28133"
         transform="matrix(0.57259786,0,0,0.57259786,75.34806,98.683519)">
        <rect
           style="fill:#a4cef8;fill-opacity:1;stroke-width:0.457999"
           id="rect28129"
           width="25.241673"
           height="14.135336"
           x="87.169075"
           y="22.27697" />
        <rect
           style="fill:#1c86ee;fill-opacity:1;stroke-width:0.456827"
           id="rect28131"
           width="25.238171"
           height="4.4172926"
           x="87.169075"
           y="27.135992" />
      </g>
      <g
         id="g31573"
         transform="matrix(0.57259786,0,0,0.57259786,75.34806,110.15423)">
        <rect
           style="fill:#f0dba5;fill-opacity:1;stroke-width:0.457999"
           id="rect25011"
           width="25.241673"
           height="14.135336"
           x="87.169075"
           y="22.27697" />
        <rect
           style="fill:#daa520;fill-opacity:1;stroke-width:0.456827"
           id="rect26344"
           width="25.238171"
           height="4.4172926"
           x="87.169075"
           y="27.135992" />
      </g>
      <text
         xml:space="preserve"
         style="font-style:normal;font-weight:normal;font-size:6.36891px;line-height:1.25;font-family:sans-serif;fill:#000000;fill-opacity:1;stroke:none;stroke-width:0.159223"
         x="142.64592"
         y="117.28056"
         id="text33489"><tspan
           sodipodi:role="line"
           id="tspan33487"
           style="stroke-width:0.159223"
           x="142.64592"
           y="117.28056">subalpine fir</tspan></text>
      <text
         xml:space="preserve"
         style="font-style:normal;font-weight:normal;font-size:6.36891px;line-height:1.25;font-family:sans-serif;fill:#000000;fill-opacity:1;stroke:none;stroke-width:0.159223"
         x="142.36604"
         y="128.71861"
         id="text32853"><tspan
           sodipodi:role="line"
           id="tspan32851"
           style="stroke-width:0.159223"
           x="142.36604"
           y="128.71861">Engelmann spruce</tspan></text>
    </g>
  </g>
</svg>
