<?xml version="1.0" encoding="UTF-8" standalone="no"?>
<!-- Created with Inkscape (http://www.inkscape.org/) -->

<svg
   width="366.96634mm"
   height="470.0144mm"
   viewBox="0 0 366.96634 470.0144"
   version="1.1"
   id="svg5"
   inkscape:version="1.1 (c68e22c387, 2021-05-23)"
   sodipodi:docname="MAT_refXanom_partialeffects.svg"
   inkscape:export-filename="C:\Users\DanielPerret\Box\01. daniel.perret Workspace\PROJECTS\spruce-fir-demography\figures\MAT_refXanom_partialeffects.png"
   inkscape:export-xdpi="200"
   inkscape:export-ydpi="200"
   xmlns:inkscape="http://www.inkscape.org/namespaces/inkscape"
   xmlns:sodipodi="http://sodipodi.sourceforge.net/DTD/sodipodi-0.dtd"
   xmlns="http://www.w3.org/2000/svg"
   xmlns:svg="http://www.w3.org/2000/svg">
  <sodipodi:namedview
     id="namedview7"
     pagecolor="#ffffff"
     bordercolor="#666666"
     borderopacity="1.0"
     inkscape:pageshadow="2"
     inkscape:pageopacity="0.0"
     inkscape:pagecheckerboard="0"
     inkscape:document-units="mm"
     showgrid="false"
     inkscape:zoom="0.37059484"
     inkscape:cx="640.86159"
     inkscape:cy="821.65202"
     inkscape:window-width="1536"
     inkscape:window-height="801"
     inkscape:window-x="1912"
     inkscape:window-y="1"
     inkscape:window-maximized="1"
     inkscape:current-layer="layer1" />
  <defs
     id="defs2">
    <clipPath
       clipPathUnits="userSpaceOnUse"
       id="clipPath846">
      <path
         d="M 45.398,5.48 H 422.605 V 305.835 H 45.398 Z"
         id="path844" />
    </clipPath>
    <clipPath
       clipPathUnits="userSpaceOnUse"
       id="clipPath1017">
      <path
         d="M 45.398,5.48 H 422.605 V 305.835 H 45.398 Z"
         id="path1015" />
    </clipPath>
    <clipPath
       clipPathUnits="userSpaceOnUse"
       id="clipPath1188">
      <path
         d="M 45.398,5.48 H 422.605 V 305.835 H 45.398 Z"
         id="path1186" />
    </clipPath>
    <clipPath
       clipPathUnits="userSpaceOnUse"
       id="clipPath1359">
      <path
         d="M 52.516,5.48 H 422.602 V 305.835 H 52.516 Z"
         id="path1357" />
    </clipPath>
    <clipPath
       clipPathUnits="userSpaceOnUse"
       id="clipPath1530">
      <path
         d="M 45.398,5.48 H 422.605 V 305.835 H 45.398 Z"
         id="path1528" />
    </clipPath>
    <clipPath
       clipPathUnits="userSpaceOnUse"
       id="clipPath1713">
      <path
         d="M 45.398,5.48 H 422.605 V 305.835 H 45.398 Z"
         id="path1711" />
    </clipPath>
  </defs>
  <g
     inkscape:label="Layer 1"
     inkscape:groupmode="layer"
     id="layer1"
     transform="translate(95.484726,163.09807)">
    <rect
       style="fill:#ffffff;stroke-width:0.492994"
       id="rect5022"
       width="366.96634"
       height="470.0144"
       x="-95.484726"
       y="-163.09807"
       sodipodi:insensitive="true" />
    <g
       id="g1001"
       inkscape:label="abla_matXanoms_saps"
       transform="matrix(0.35277777,0,0,0.35277777,-63.689501,152.47807)">
      <g
         id="g1003" />
      <g
         id="g1011">
        <g
           id="g1013"
           clip-path="url(#clipPath1017)">
          <path
             d="M 45.398,5.477 H 422.605 V 305.832 H 45.398 Z"
             style="fill:#ffffff;fill-opacity:1;fill-rule:nonzero;stroke:none"
             id="path1019" />
          <path
             d="m 62.543,19.133 8.574,5.156 8.571,5.418 8.574,5.762 8.574,6.113 8.57,6.348 8.574,6.605 8.575,6.879 8.57,7.16 8.574,7.457 8.574,7.481 8.571,7.679 8.574,7.731 8.574,7.711 8.571,7.785 8.574,7.52 8.57,7.351 8.574,7.027 8.574,6.59 8.571,6.18 8.574,5.66 8.574,5.07 8.571,4.676 8.574,4.149 8.574,3.812 8.57,3.5 8.575,3.176 8.574,2.879 8.57,2.707 8.574,2.601 8.574,2.489 8.571,2.441 8.574,2.266 8.57,2.191 8.575,2.106 8.574,1.953 8.57,1.988 8.574,1.848 8.575,1.855 8.57,1.805 8.574,1.902 v 82.02 l -8.574,-2.723 -8.57,-2.934 -8.575,-3.074 -8.574,-3.449 -8.57,-3.648 -8.574,-3.868 -8.575,-4.148 -8.57,-4.41 -8.574,-4.692 -8.571,-4.937 -8.574,-5.231 -8.574,-5.371 -8.57,-5.547 -17.149,-11.265 -8.57,-5.727 -8.574,-5.73 -8.574,-5.504 -8.571,-5.234 -8.574,-5.067 -8.574,-4.68 -8.571,-4.285 -8.574,-3.918 -8.574,-3.601 -8.57,-3.246 -8.574,-2.946 -8.571,-2.855 -8.574,-2.817 -8.574,-2.671 -8.571,-2.407 -8.574,-2.386 -8.574,-2.43 -8.57,-2.258 -8.575,-2.219 -8.574,-2.308 -8.57,-2.344 -8.574,-2.309 -8.574,-2.175 -8.571,-2.11 -8.574,-2.179 z"
             style="fill:#1c86ee;fill-opacity:0.4;fill-rule:nonzero;stroke:none"
             id="path1021" />
          <path
             d="m 62.543,120.645 8.574,4.535 8.571,4.535 8.574,4.515 8.574,4.52 8.57,4.52 8.574,4.425 8.575,4.493 8.57,4.492 8.574,4.371 8.574,4.285 8.571,4.246 8.574,4.117 8.574,4.067 8.571,4.004 8.574,3.851 8.57,3.762 8.574,3.551 8.574,3.386 8.571,3.215 8.574,2.895 8.574,2.734 8.571,2.508 8.574,2.25 8.574,2.148 8.57,1.891 8.575,1.707 8.574,1.535 8.57,1.461 8.574,1.344 8.574,1.25 8.571,1.222 8.574,1.235 8.57,1.086 8.575,1.082 8.574,1.023 8.57,1 8.574,0.973 8.575,0.926 8.57,0.933 8.574,0.86 v 42.601 l -8.574,-2.07 -8.57,-2.149 -8.575,-2.207 -8.574,-2.277 -8.57,-2.355 -8.574,-2.391 -8.575,-2.492 -8.57,-2.524 -8.574,-2.55 -8.571,-2.61 -8.574,-2.605 -8.574,-2.594 -8.57,-2.641 -8.574,-2.55 -8.575,-2.481 -8.57,-2.437 -8.574,-2.317 -8.574,-2.297 -8.571,-2.097 -8.574,-1.91 -8.574,-1.805 -8.571,-1.695 -8.574,-1.551 -8.574,-1.489 -8.57,-1.355 -8.574,-1.289 -8.571,-1.18 -8.574,-1.304 -8.574,-1.211 -8.571,-1.121 -8.574,-1.125 -8.574,-1.059 -8.57,-1.102 -8.575,-0.984 -8.574,-1.035 -8.57,-1.039 -8.574,-1.02 -8.574,-0.98 -8.571,-0.992 -8.574,-1.043 z"
             style="fill:#daa520;fill-opacity:0.4;fill-rule:nonzero;stroke:none"
             id="path1023" />
          <path
             d="m 62.543,158.719 8.574,3.804 8.571,3.965 8.574,3.727 8.574,3.734 8.57,3.821 8.574,3.793 8.575,3.609 8.57,3.527 8.574,3.606 8.574,3.406 8.571,3.242 8.574,3.449 8.574,3.008 8.571,2.879 8.574,2.832 8.57,2.719 8.574,2.433 8.574,2.25 8.571,1.985 8.574,1.758 8.574,1.445 8.571,1.223 8.574,0.773 8.574,0.367 8.57,-0.015 8.575,-0.395 8.574,-0.766 8.57,-1.05 8.574,-1.383 8.574,-1.707 8.571,-1.914 8.574,-1.992 8.57,-2.145 8.575,-2.309 8.574,-2.636 8.57,-2.641 8.574,-2.734 8.575,-2.707 8.57,-2.731 8.574,-3.008 v 88.532 l -8.574,-1.422 -8.57,-1.531 -8.575,-1.493 -8.574,-1.578 -8.57,-1.597 -8.574,-1.633 -8.575,-1.535 -8.57,-1.559 -8.574,-1.437 -8.571,-1.54 -8.574,-1.382 -8.574,-1.317 -8.57,-1.047 -8.574,-0.847 -8.575,-0.684 -8.57,-0.351 -8.574,-0.079 -8.574,0.258 -8.571,0.551 -8.574,0.789 -8.574,0.867 -8.571,1.078 -8.574,1.168 -8.574,1.231 -8.57,1.34 -8.574,1.445 -8.571,1.398 -8.574,1.36 -8.574,1.383 -8.571,1.359 -8.574,1.379 -8.574,1.312 -8.57,1.336 -8.575,1.27 -8.574,1.305 -8.57,1.257 -8.574,1.266 -8.574,1.195 -8.571,1.16 -8.574,1.141 z"
             style="fill:#ee2c2c;fill-opacity:0.4;fill-rule:nonzero;stroke:none"
             id="path1025" />
          <path
             d="m 62.543,72.152 8.574,4.739 8.571,4.867 8.574,4.996 8.574,5.078 8.57,5.106 8.574,5.21 8.575,5.321 8.57,5.34 8.574,5.347 8.574,5.473 8.571,5.406 8.574,5.473 8.574,5.449 8.571,5.418 8.574,5.422 8.57,5.433 8.574,5.411 8.574,5.332 8.571,5.34 8.574,5.21 8.574,5.215 8.571,5.153 8.574,4.988 8.574,4.937 8.57,4.809 8.575,4.73 8.574,4.676 8.57,4.532 8.574,4.421 8.574,4.293 8.571,4.137 8.574,4.035 8.57,3.914 8.575,3.793 8.574,3.696 8.57,3.57 8.574,3.449 8.575,3.32 8.57,3.168 8.574,3.063"
             style="fill:none;stroke:#1c86ee;stroke-width:4.26791;stroke-linecap:butt;stroke-linejoin:round;stroke-miterlimit:10;stroke-dasharray:none;stroke-opacity:1"
             id="path1027" />
          <path
             d="m 62.543,162.426 8.574,2.808 8.571,2.77 8.574,2.734 8.574,2.762 8.57,2.703 8.574,2.742 8.575,2.715 8.57,2.711 8.574,2.684 8.574,2.629 8.571,2.617 8.574,2.586 8.574,2.566 8.571,2.551 8.574,2.484 8.57,2.489 17.148,4.921 8.571,2.391 17.148,4.703 8.571,2.313 8.574,2.297 8.574,2.246 8.57,2.199 8.575,2.187 8.574,2.149 8.57,2.101 8.574,2.075 8.574,2.058 8.571,2.016 8.574,1.996 8.57,1.961 8.575,1.914 8.574,1.844 8.57,1.843 8.574,1.793 8.575,1.786 8.57,1.753 8.574,1.723"
             style="fill:none;stroke:#daa520;stroke-width:4.26791;stroke-linecap:butt;stroke-linejoin:round;stroke-miterlimit:10;stroke-dasharray:none;stroke-opacity:1"
             id="path1029" />
          <path
             d="m 62.543,242.504 8.574,0.121 8.571,0.164 8.574,0.141 8.574,0.117 8.57,0.133 8.574,0.16 8.575,0.164 8.57,0.113 8.574,0.192 8.574,0.144 8.571,0.164 8.574,0.121 8.574,0.168 8.571,0.157 8.574,0.097 8.57,0.156 8.574,0.204 8.574,0.191 8.571,0.141 8.574,0.168 8.574,0.164 8.571,0.148 8.574,0.148 8.574,0.114 8.57,0.156 8.575,0.098 8.574,0.152 8.57,0.152 8.574,0.145 8.574,0.101 8.571,0.149 8.574,0.152 8.57,0.137 8.575,0.141 8.574,0.16 8.57,0.156 8.574,0.125 8.575,0.105 8.57,0.129 8.574,0.129"
             style="fill:none;stroke:#ee2c2c;stroke-width:4.26791;stroke-linecap:butt;stroke-linejoin:round;stroke-miterlimit:10;stroke-dasharray:none;stroke-opacity:1"
             id="path1031" />
          <path
             d="M 45.398,5.477 H 422.605 V 305.832 H 45.398 Z"
             style="fill:none;stroke:#333333;stroke-width:3.20093;stroke-linecap:round;stroke-linejoin:round;stroke-miterlimit:10;stroke-dasharray:none;stroke-opacity:1"
             id="path1033" />
        </g>
      </g>
      <g
         id="g1035">
        <text
           transform="translate(22.671875,253.07812)"
           style="font-variant:normal;font-weight:normal;font-size:12.8px;font-family:Arial;-inkscape-font-specification:ArialMT;writing-mode:lr-tb;fill:#4d4d4d;fill-opacity:1;fill-rule:nonzero;stroke:none"
           id="text1045"><tspan
             x="0 7.1167998 10.6624"
             y="0"
             sodipodi:role="line"
             id="tspan1037">0.2</tspan><tspan
             x="0 7.1167998 10.6624"
             y="-73.238281"
             sodipodi:role="line"
             id="tspan1039">0.4</tspan><tspan
             x="0 7.1167998 10.6624"
             y="-146.47267"
             sodipodi:role="line"
             id="tspan1041">0.6</tspan><tspan
             x="0 7.1167998 10.6624"
             y="-219.70705"
             sodipodi:role="line"
             id="tspan1043">0.8</tspan></text>
        <path
           d="m 42.656,248.496 h 2.742"
           style="fill:none;stroke:#333333;stroke-width:1.06698;stroke-linecap:butt;stroke-linejoin:round;stroke-miterlimit:10;stroke-dasharray:none;stroke-opacity:1"
           id="path1047" />
        <path
           d="m 42.656,175.262 h 2.742"
           style="fill:none;stroke:#333333;stroke-width:1.06698;stroke-linecap:butt;stroke-linejoin:round;stroke-miterlimit:10;stroke-dasharray:none;stroke-opacity:1"
           id="path1049" />
        <path
           d="m 42.656,102.023 h 2.742"
           style="fill:none;stroke:#333333;stroke-width:1.06698;stroke-linecap:butt;stroke-linejoin:round;stroke-miterlimit:10;stroke-dasharray:none;stroke-opacity:1"
           id="path1051" />
        <path
           d="m 42.656,28.789 h 2.742"
           style="fill:none;stroke:#333333;stroke-width:1.06698;stroke-linecap:butt;stroke-linejoin:round;stroke-miterlimit:10;stroke-dasharray:none;stroke-opacity:1"
           id="path1053" />
        <path
           d="m 62.543,308.574 v -2.742"
           style="fill:none;stroke:#333333;stroke-width:1.06698;stroke-linecap:butt;stroke-linejoin:round;stroke-miterlimit:10;stroke-dasharray:none;stroke-opacity:1"
           id="path1055" />
        <path
           d="m 148.273,308.574 v -2.742"
           style="fill:none;stroke:#333333;stroke-width:1.06698;stroke-linecap:butt;stroke-linejoin:round;stroke-miterlimit:10;stroke-dasharray:none;stroke-opacity:1"
           id="path1057" />
        <path
           d="m 234,308.574 v -2.742"
           style="fill:none;stroke:#333333;stroke-width:1.06698;stroke-linecap:butt;stroke-linejoin:round;stroke-miterlimit:10;stroke-dasharray:none;stroke-opacity:1"
           id="path1059" />
        <path
           d="m 319.73,308.574 v -2.742"
           style="fill:none;stroke:#333333;stroke-width:1.06698;stroke-linecap:butt;stroke-linejoin:round;stroke-miterlimit:10;stroke-dasharray:none;stroke-opacity:1"
           id="path1061" />
        <path
           d="m 405.457,308.574 v -2.742"
           style="fill:none;stroke:#333333;stroke-width:1.06698;stroke-linecap:butt;stroke-linejoin:round;stroke-miterlimit:10;stroke-dasharray:none;stroke-opacity:1"
           id="path1063" />
        <text
           transform="translate(53.644531,319.92578)"
           style="font-variant:normal;font-weight:normal;font-size:12.8px;font-family:Arial;-inkscape-font-specification:ArialMT;writing-mode:lr-tb;fill:#4d4d4d;fill-opacity:1;fill-rule:nonzero;stroke:none"
           id="text1067"><tspan
             x="0 7.1167998 10.6624 85.721603 92.838402 96.384003 171.45703 178.57384 182.11943 257.17865 264.29544 267.84103 342.91406 350.03088 353.57648"
             y="0"
             sodipodi:role="line"
             id="tspan1065">1.52.02.53.03.5</tspan></text>
        <path
           d="m 439.043,150.16 h 17.281 v 17.281 h -17.281 z"
           style="fill:#ffffff;fill-opacity:1;fill-rule:nonzero;stroke:none"
           id="path1085" />
        <path
           d="m 439.043,167.441 h 17.281 v 17.281 h -17.281 z"
           style="fill:#ffffff;fill-opacity:1;fill-rule:nonzero;stroke:none"
           id="path1091" />
        <path
           d="m 439.043,184.719 h 17.281 V 202 h -17.281 z"
           style="fill:#ffffff;fill-opacity:1;fill-rule:nonzero;stroke:none"
           id="path1097" />
      </g>
    </g>
    <g
       id="g1343"
       inkscape:label="abla_matXanoms_seed"
       transform="matrix(0.35277777,0,0,0.35277777,-63.689501,22.658185)">
      <g
         id="g1345" />
      <g
         id="g1353">
        <g
           id="g1355"
           clip-path="url(#clipPath1359)">
          <path
             d="M 52.516,5.477 H 422.602 V 305.832 H 52.516 Z"
             style="fill:#ffffff;fill-opacity:1;fill-rule:nonzero;stroke:none"
             id="path1361" />
          <path
             d="m 69.34,19.133 8.41,0.191 8.41,0.211 8.41,0.242 8.414,0.262 8.411,0.285 8.41,0.336 8.41,0.36 8.41,0.41 8.414,0.441 8.41,0.496 8.41,0.535 8.411,0.571 8.414,0.621 8.41,0.691 8.41,0.731 8.41,0.761 8.414,0.731 8.41,0.781 8.41,0.766 8.411,0.711 8.41,0.687 8.414,0.613 8.41,0.508 8.41,0.465 8.41,0.352 8.414,0.336 8.411,0.285 8.41,0.183 8.41,0.137 8.414,0.121 8.41,0.102 8.41,0.011 8.41,0.02 8.411,0.059 8.414,0.007 h 8.41 l 8.41,-0.07 8.41,-0.031 8.414,-0.051 8.41,-0.09 v 113.906 l -8.41,-8.558 -8.414,-8.43 -8.41,-8.137 -8.41,-7.742 -8.41,-7.168 -8.414,-6.875 -8.411,-6.75 -8.41,-6.23 -8.41,-5.66 -8.41,-5.34 -8.414,-4.899 -8.41,-4.519 -8.41,-3.977 -8.411,-3.617 -8.414,-3.137 -8.41,-2.687 -8.41,-2.274 -8.41,-2.015 -8.414,-1.617 -8.41,-1.329 -8.411,-1.109 -8.41,-0.93 -8.41,-0.64 -8.414,-0.52 -8.41,-0.445 -8.41,-0.289 -8.41,-0.254 -8.414,-0.219 -8.411,-0.164 -8.41,-0.129 -8.41,-0.058 -8.414,-0.067 -8.41,0.09 -8.41,0.02 -8.41,0.007 -8.411,0.094 -8.414,0.082 -8.41,0.055 -8.41,0.094 -8.41,0.105 z"
             style="fill:#1c86ee;fill-opacity:0.4;fill-rule:nonzero;stroke:none"
             id="path1363" />
          <path
             d="m 69.34,25.996 8.41,0.801 8.41,0.859 8.41,0.961 8.414,1.016 8.411,1.109 8.41,1.199 8.41,1.274 8.41,1.379 8.414,1.5 8.41,1.636 8.41,1.739 8.411,1.812 8.414,1.942 8.41,2.093 8.41,2.153 8.41,2.187 8.414,2.34 8.41,2.313 8.41,2.355 8.411,2.383 8.41,2.293 8.414,2.242 8.41,2.231 8.41,2.171 8.41,2.157 8.414,1.996 8.411,1.797 8.41,1.902 8.41,1.789 8.414,1.785 8.41,1.672 8.41,1.684 8.41,1.609 8.411,1.746 8.414,1.594 8.41,1.64 8.41,1.625 8.41,1.68 8.414,1.656 8.41,1.668 v 108.039 l -8.41,-6.988 -8.414,-7.207 -8.41,-7.195 -8.41,-6.992 -8.41,-7.157 -8.414,-6.976 -8.411,-6.891 -8.41,-6.711 -8.41,-6.66 -8.41,-6.433 -8.414,-6.247 -8.41,-5.785 -8.41,-5.629 -8.411,-5.172 -8.414,-4.937 -8.41,-4.504 -8.41,-4.141 -8.41,-3.796 -8.414,-3.508 -8.41,-3.203 -8.411,-2.832 -8.41,-2.485 -8.41,-2.23 -8.414,-2.09 -8.41,-1.981 -8.41,-1.804 -8.41,-1.664 -8.414,-1.524 -8.411,-1.476 -8.41,-1.442 -8.41,-1.336 -8.414,-1.308 -8.41,-1.297 -8.41,-1.176 -16.821,-2.195 -8.414,-1.035 -8.41,-1.036 -8.41,-0.964 -8.41,-0.989 z"
             style="fill:#daa520;fill-opacity:0.4;fill-rule:nonzero;stroke:none"
             id="path1365" />
          <path
             d="m 69.34,30.789 8.41,1.59 8.41,1.723 8.41,1.937 8.414,2.184 8.411,2.437 8.41,2.621 8.41,2.91 8.41,3.184 8.414,3.555 8.41,3.82 8.41,4.098 8.411,4.375 8.414,4.75 8.41,5.129 8.41,5.304 8.41,5.606 8.414,5.793 8.41,6.05 8.41,6.102 8.411,6.188 8.41,5.781 8.414,5.941 8.41,5.469 8.41,5.105 8.41,4.731 8.414,4.328 8.411,3.938 8.41,3.175 8.41,3.086 8.414,2.574 8.41,2.243 8.41,2.16 8.41,1.89 8.411,1.836 8.414,1.59 8.41,1.473 8.41,1.539 8.41,1.414 8.414,1.09 8.41,1.027 V 292.18 l -8.41,-4.121 -8.414,-4.371 -8.41,-4.735 -8.41,-5.039 -8.41,-5.328 -8.414,-5.754 -8.411,-5.98 -8.41,-6.016 -8.41,-6.266 -8.41,-6.359 -8.414,-6.25 -8.41,-6.027 -8.41,-5.993 -8.411,-5.382 -8.414,-5.504 -8.41,-4.782 -8.41,-4.363 -8.41,-3.722 -8.414,-3.36 -8.41,-2.937 -8.411,-2.414 -8.41,-2.25 -8.41,-2.231 -8.414,-1.953 -8.41,-1.848 -8.41,-1.57 -8.41,-1.48 -8.414,-1.372 -8.411,-1.199 -8.41,-1.019 -8.41,-1.051 -8.414,-0.961 -8.41,-1.102 -8.41,-1 -8.41,-0.992 -8.411,-0.941 -8.414,-0.672 -8.41,-0.813 -8.41,-0.91 -8.41,-0.758 z"
             style="fill:#ee2c2c;fill-opacity:0.4;fill-rule:nonzero;stroke:none"
             id="path1367" />
          <path
             d="m 69.34,23.914 8.41,0.352 8.41,0.375 8.41,0.398 8.414,0.422 8.411,0.434 8.41,0.464 8.41,0.489 8.41,0.515 8.414,0.551 8.41,0.57 8.41,0.602 8.411,0.621 8.414,0.652 8.41,0.692 8.41,0.742 8.41,0.762 8.414,0.816 8.41,0.848 8.41,0.906 8.411,0.938 8.41,1.019 8.414,1.043 8.41,1.078 8.41,1.149 8.41,1.203 8.414,1.246 8.411,1.32 8.41,1.391 8.41,1.418 8.414,1.484 8.41,1.59 8.41,1.637 8.41,1.726 8.411,1.828 8.414,1.879 8.41,1.926 8.41,1.984 8.41,2.137 8.414,2.18 8.41,2.285"
             style="fill:none;stroke:#1c86ee;stroke-width:4.26791;stroke-linecap:butt;stroke-linejoin:round;stroke-miterlimit:10;stroke-dasharray:none;stroke-opacity:1"
             id="path1369" />
          <path
             d="m 69.34,36.527 8.41,1.09 8.41,1.145 8.41,1.215 8.414,1.281 8.411,1.328 8.41,1.406 8.41,1.473 8.41,1.562 8.414,1.614 8.41,1.718 8.41,1.789 8.411,1.856 8.414,1.976 8.41,2.059 8.41,2.172 8.41,2.254 8.414,2.351 8.41,2.457 8.41,2.543 8.411,2.661 8.41,2.75 8.414,2.855 8.41,3.004 8.41,3.078 8.41,3.172 8.414,3.269 8.411,3.403 8.41,3.527 8.41,3.59 8.414,3.734 8.41,3.77 8.41,3.926 8.41,4.039 8.411,4.09 8.414,4.101 8.41,4.254 8.41,4.313 8.41,4.398 8.414,4.48 8.41,4.473"
             style="fill:none;stroke:#daa520;stroke-width:4.26791;stroke-linecap:butt;stroke-linejoin:round;stroke-miterlimit:10;stroke-dasharray:none;stroke-opacity:1"
             id="path1371" />
          <path
             d="m 69.34,69.746 8.41,2.856 8.41,2.914 8.41,3.152 8.414,3.184 8.411,3.367 8.41,3.441 8.41,3.598 8.41,3.734 8.414,3.817 8.41,3.937 8.41,4.027 8.411,4.086 8.414,4.336 8.41,4.387 8.41,4.461 8.41,4.473 8.414,4.656 8.41,4.703 8.41,4.781 8.411,4.813 8.41,4.949 8.414,4.926 8.41,5.019 8.41,4.973 8.41,5.086 8.414,4.949 8.411,4.996 8.41,5.012 8.41,4.93 8.414,4.875 8.41,4.933 8.41,4.758 8.41,4.715 8.411,4.66 8.414,4.559 8.41,4.472 8.41,4.426 8.41,4.344 8.414,4.211 8.41,4.086"
             style="fill:none;stroke:#ee2c2c;stroke-width:4.26791;stroke-linecap:butt;stroke-linejoin:round;stroke-miterlimit:10;stroke-dasharray:none;stroke-opacity:1"
             id="path1373" />
          <path
             d="M 52.516,5.477 H 422.602 V 305.832 H 52.516 Z"
             style="fill:none;stroke:#333333;stroke-width:3.20093;stroke-linecap:round;stroke-linejoin:round;stroke-miterlimit:10;stroke-dasharray:none;stroke-opacity:1"
             id="path1375" />
        </g>
      </g>
      <g
         id="g1377">
        <text
           transform="translate(22.671875,257.25391)"
           style="font-variant:normal;font-weight:normal;font-size:12.8px;font-family:Arial;-inkscape-font-specification:ArialMT;writing-mode:lr-tb;fill:#4d4d4d;fill-opacity:1;fill-rule:nonzero;stroke:none"
           id="text1387"><tspan
             x="0 7.1167998 10.6624 17.7792"
             y="0"
             sodipodi:role="line"
             id="tspan1379">0.25</tspan><tspan
             x="0 7.1167998 10.6624 17.7792"
             y="-78.371101"
             sodipodi:role="line"
             id="tspan1381">0.50</tspan><tspan
             x="0 7.1167998 10.6624 17.7792"
             y="-156.7422"
             sodipodi:role="line"
             id="tspan1383">0.75</tspan><tspan
             x="0 7.1167998 10.6624 17.7792"
             y="-235.1133"
             sodipodi:role="line"
             id="tspan1385">1.00</tspan></text>
        <path
           d="m 49.777,252.676 h 2.739"
           style="fill:none;stroke:#333333;stroke-width:1.06698;stroke-linecap:butt;stroke-linejoin:round;stroke-miterlimit:10;stroke-dasharray:none;stroke-opacity:1"
           id="path1389" />
        <path
           d="m 49.777,174.305 h 2.739"
           style="fill:none;stroke:#333333;stroke-width:1.06698;stroke-linecap:butt;stroke-linejoin:round;stroke-miterlimit:10;stroke-dasharray:none;stroke-opacity:1"
           id="path1391" />
        <path
           d="m 49.777,95.93 h 2.739"
           style="fill:none;stroke:#333333;stroke-width:1.06698;stroke-linecap:butt;stroke-linejoin:round;stroke-miterlimit:10;stroke-dasharray:none;stroke-opacity:1"
           id="path1393" />
        <path
           d="m 49.777,17.559 h 2.739"
           style="fill:none;stroke:#333333;stroke-width:1.06698;stroke-linecap:butt;stroke-linejoin:round;stroke-miterlimit:10;stroke-dasharray:none;stroke-opacity:1"
           id="path1395" />
        <path
           d="m 69.34,308.574 v -2.742"
           style="fill:none;stroke:#333333;stroke-width:1.06698;stroke-linecap:butt;stroke-linejoin:round;stroke-miterlimit:10;stroke-dasharray:none;stroke-opacity:1"
           id="path1397" />
        <path
           d="m 153.449,308.574 v -2.742"
           style="fill:none;stroke:#333333;stroke-width:1.06698;stroke-linecap:butt;stroke-linejoin:round;stroke-miterlimit:10;stroke-dasharray:none;stroke-opacity:1"
           id="path1399" />
        <path
           d="m 237.559,308.574 v -2.742"
           style="fill:none;stroke:#333333;stroke-width:1.06698;stroke-linecap:butt;stroke-linejoin:round;stroke-miterlimit:10;stroke-dasharray:none;stroke-opacity:1"
           id="path1401" />
        <path
           d="m 321.672,308.574 v -2.742"
           style="fill:none;stroke:#333333;stroke-width:1.06698;stroke-linecap:butt;stroke-linejoin:round;stroke-miterlimit:10;stroke-dasharray:none;stroke-opacity:1"
           id="path1403" />
        <path
           d="m 405.781,308.574 v -2.742"
           style="fill:none;stroke:#333333;stroke-width:1.06698;stroke-linecap:butt;stroke-linejoin:round;stroke-miterlimit:10;stroke-dasharray:none;stroke-opacity:1"
           id="path1405" />
        <text
           transform="translate(60.441406,319.92578)"
           style="font-variant:normal;font-weight:normal;font-size:12.8px;font-family:Arial;-inkscape-font-specification:ArialMT;writing-mode:lr-tb;fill:#4d4d4d;fill-opacity:1;fill-rule:nonzero;stroke:none"
           id="text1409"><tspan
             x="0 7.1167998 10.6624 84.096001 91.212799 94.7584 168.21875 175.33556 178.88115 252.31476 259.43155 262.97714 336.44141 343.5582 347.10382"
             y="0"
             sodipodi:role="line"
             id="tspan1407">1.52.02.53.03.5</tspan></text>
        <path
           d="m 439.043,150.16 h 17.281 v 17.281 h -17.281 z"
           style="fill:#ffffff;fill-opacity:1;fill-rule:nonzero;stroke:none"
           id="path1427" />
        <path
           d="m 439.043,167.441 h 17.281 v 17.281 h -17.281 z"
           style="fill:#ffffff;fill-opacity:1;fill-rule:nonzero;stroke:none"
           id="path1433" />
        <path
           d="m 439.043,184.719 h 17.281 V 202 h -17.281 z"
           style="fill:#ffffff;fill-opacity:1;fill-rule:nonzero;stroke:none"
           id="path1439" />
      </g>
    </g>
    <g
       id="g1697"
       inkscape:label="abla_matXanoms_mort"
       transform="matrix(0.35277777,0,0,0.35277777,-63.689501,-107.16169)">
      <g
         id="g1707">
        <g
           id="g1709"
           clip-path="url(#clipPath1713)">
          <path
             d="M 45.398,5.477 H 422.605 V 305.832 H 45.398 Z"
             style="fill:#ffffff;fill-opacity:1;fill-rule:nonzero;stroke:none"
             id="path1715" />
          <path
             d="m 62.543,292.18 8.574,-1.235 8.571,-1.304 8.574,-1.274 8.574,-1.34 8.57,-1.363 8.574,-1.348 8.575,-1.402 8.57,-1.434 8.574,-1.32 8.574,-1.312 8.571,-1.309 8.574,-1.211 8.574,-1.195 8.571,-1.172 8.574,-1.051 8.57,-1.039 8.574,-0.832 8.574,-0.766 8.571,-0.636 8.574,-0.465 8.574,-0.356 8.571,-0.046 8.574,0.035 8.574,0.129 8.57,0.343 8.575,0.407 8.574,0.546 8.57,0.559 8.574,0.598 8.574,0.715 8.571,0.793 8.574,0.8 8.57,0.891 8.575,0.773 8.574,0.825 8.57,0.828 8.574,0.875 8.575,0.879 8.57,0.879 8.574,0.933 v -76.894 l -8.574,2.457 -8.57,2.543 -8.575,2.367 -8.574,2.429 -8.57,2.29 -8.574,2.308 -8.575,2.254 -8.57,2.09 -8.574,2.082 -8.571,2.008 -8.574,1.871 -8.574,1.781 -8.57,1.723 -8.574,1.554 -8.575,1.426 -8.57,1.235 -8.574,1.062 -8.574,0.926 -8.571,0.668 -8.574,0.437 -8.574,0.246 -8.571,0.161 -8.574,-0.133 -8.574,-0.297 -8.57,-0.395 -8.574,-0.574 -8.571,-0.726 -8.574,-0.817 -8.574,-0.918 -8.571,-0.883 -8.574,-1.062 -8.574,-1.031 -8.57,-1.164 -8.575,-1.262 -8.574,-1.168 -8.57,-1.238 -8.574,-1.278 -8.574,-1.316 -8.571,-1.375 -8.574,-1.363 z"
             style="fill:#1c86ee;fill-opacity:0.4;fill-rule:nonzero;stroke:none"
             id="path1717" />
          <path
             d="m 62.543,230.621 8.574,-0.164 8.571,-0.168 8.574,-0.094 8.574,-0.109 8.57,-0.172 8.574,-0.121 8.575,-0.113 8.57,-0.082 8.574,-0.047 8.574,0.09 8.571,0.007 8.574,0.118 8.574,0.152 8.571,0.301 8.574,0.351 8.57,0.375 8.574,0.414 8.574,0.539 8.571,0.653 8.574,0.672 8.574,0.847 8.571,1.051 8.574,1.172 8.574,1.16 8.57,1.164 8.575,1.34 8.574,1.375 8.57,1.469 8.574,1.476 8.574,1.528 8.571,1.582 8.574,1.617 8.57,1.605 8.575,1.59 8.574,1.598 8.57,1.652 8.574,1.625 8.575,1.676 8.57,1.648 8.574,1.582 v -55.343 l -8.574,0.215 -8.57,0.187 -8.575,0.106 -8.574,0.136 -8.57,0.11 -8.574,-0.032 -8.575,0.016 -8.57,0.027 -8.574,-0.093 -8.571,-0.102 -8.574,-0.184 -8.574,-0.285 -8.57,-0.398 -8.574,-0.363 -8.575,-0.5 -8.57,-0.551 -8.574,-0.793 -8.574,-0.965 -8.571,-0.984 -8.574,-1.227 -8.574,-1.289 -8.571,-1.418 -8.574,-1.578 -8.574,-1.719 -8.57,-1.832 -8.574,-1.976 -8.571,-1.961 -8.574,-2.016 -8.574,-2.199 -8.571,-2.172 -8.574,-2.262 -8.574,-2.449 -8.57,-2.508 -8.575,-2.508 -8.574,-2.539 -8.57,-2.625 -8.574,-2.683 -8.574,-2.703 -8.571,-2.965 -8.574,-2.934 z"
             style="fill:#daa520;fill-opacity:0.4;fill-rule:nonzero;stroke:none"
             id="path1719" />
          <path
             d="m 62.543,177.793 8.574,0.504 8.571,0.73 8.574,0.586 8.574,0.629 8.57,0.707 8.574,0.703 8.575,0.809 8.57,0.668 8.574,0.828 8.574,0.734 8.571,0.735 8.574,0.949 8.574,0.984 8.571,1.016 8.574,1.07 8.57,1.2 8.574,1.437 8.574,1.57 8.571,1.7 8.574,1.953 8.574,1.972 8.571,2.223 8.574,2.418 8.574,2.617 8.57,2.692 8.575,3.043 8.574,3.168 8.57,3.199 8.574,3.371 8.574,3.601 8.571,3.614 8.574,3.609 8.57,3.594 8.575,3.547 8.574,3.632 8.57,3.567 8.574,3.555 8.575,3.359 8.57,3.418 8.574,3.254 v -80.055 l -8.574,-0.703 -8.57,-0.797 -8.575,-0.82 -8.574,-0.723 -8.57,-0.871 -8.574,-1.012 -8.575,-1.066 -8.57,-1.086 -8.574,-1.445 -8.571,-1.391 -8.574,-1.73 -8.574,-1.704 -8.57,-1.996 -8.574,-2.367 -8.575,-2.656 -8.57,-2.926 -8.574,-3.222 -8.574,-3.708 -8.571,-3.656 -8.574,-4.152 -8.574,-4.492 -8.571,-4.789 -8.574,-5.024 -8.574,-5.195 -8.57,-5.442 -8.574,-5.773 -8.571,-5.848 -8.574,-5.984 -8.574,-6.289 -8.571,-6.32 -8.574,-6.411 -8.574,-6.441 -8.57,-6.75 -8.575,-6.769 -8.574,-6.707 -8.57,-6.958 -8.574,-7.019 -8.574,-7.117 -8.571,-7.008 -8.574,-7.203 z"
             style="fill:#ee2c2c;fill-opacity:0.4;fill-rule:nonzero;stroke:none"
             id="path1721" />
          <path
             d="m 62.543,262 8.574,-0.344 8.571,-0.336 8.574,-0.382 8.574,-0.329 8.57,-0.347 8.574,-0.36 8.575,-0.371 8.57,-0.371 8.574,-0.383 8.574,-0.386 8.571,-0.336 8.574,-0.348 8.574,-0.391 8.571,-0.363 8.574,-0.375 8.57,-0.351 8.574,-0.348 8.574,-0.395 8.571,-0.379 8.574,-0.375 8.574,-0.351 8.571,-0.379 8.574,-0.375 8.574,-0.387 8.57,-0.351 8.575,-0.41 8.574,-0.348 8.57,-0.422 8.574,-0.387 8.574,-0.394 8.571,-0.414 8.574,-0.364 8.57,-0.39 8.575,-0.379 8.574,-0.375 8.57,-0.395 8.574,-0.382 8.575,-0.407 8.57,-0.422 8.574,-0.371"
             style="fill:none;stroke:#1c86ee;stroke-width:4.26791;stroke-linecap:butt;stroke-linejoin:round;stroke-miterlimit:10;stroke-dasharray:none;stroke-opacity:1"
             id="path1723" />
          <path
             d="m 62.543,196.656 8.574,1.074 8.571,1.122 8.574,1.074 8.574,1.094 8.57,1.078 8.574,1.058 8.575,1.067 8.57,1.058 8.574,1.078 8.574,1.032 8.571,1.035 8.574,1.008 8.574,1.039 8.571,1.031 8.574,0.98 8.57,0.977 8.574,1.027 8.574,0.973 8.571,0.988 8.574,0.992 8.574,1.008 8.571,1.004 8.574,0.953 8.574,0.977 8.57,0.988 8.575,0.973 8.574,0.98 8.57,0.961 8.574,0.965 8.574,0.934 8.571,0.992 8.574,0.929 8.57,0.946 8.575,0.941 8.574,0.922 8.57,0.914 8.574,0.895 8.575,0.879 8.57,0.898 8.574,0.879"
             style="fill:none;stroke:#daa520;stroke-width:4.26791;stroke-linecap:butt;stroke-linejoin:round;stroke-miterlimit:10;stroke-dasharray:none;stroke-opacity:1"
             id="path1725" />
          <path
             d="m 62.543,105.191 8.574,3.582 8.571,3.489 17.148,6.914 8.57,3.429 8.574,3.446 8.575,3.402 8.57,3.348 8.574,3.367 8.574,3.332 8.571,3.328 8.574,3.242 8.574,3.203 8.571,3.227 8.574,3.199 8.57,3.09 17.148,6.203 8.571,3.047 8.574,3.055 8.574,2.957 8.571,2.988 8.574,2.973 8.574,2.847 8.57,2.871 8.575,2.864 8.574,2.851 8.57,2.832 8.574,2.731 8.574,2.75 8.571,2.676 8.574,2.617 8.57,2.594 8.575,2.57 8.574,2.515 8.57,2.524 8.574,2.523 8.575,2.457 8.57,2.411 8.574,2.386"
             style="fill:none;stroke:#ee2c2c;stroke-width:4.26791;stroke-linecap:butt;stroke-linejoin:round;stroke-miterlimit:10;stroke-dasharray:none;stroke-opacity:1"
             id="path1727" />
          <path
             d="M 45.398,5.477 H 422.605 V 305.832 H 45.398 Z"
             style="fill:none;stroke:#333333;stroke-width:3.20093;stroke-linecap:round;stroke-linejoin:round;stroke-miterlimit:10;stroke-dasharray:none;stroke-opacity:1"
             id="path1729" />
        </g>
      </g>
      <g
         id="g1731">
        <text
           transform="translate(22.671875,291.69531)"
           style="font-variant:normal;font-weight:normal;font-size:12.8px;font-family:Arial;-inkscape-font-specification:ArialMT;writing-mode:lr-tb;fill:#4d4d4d;fill-opacity:1;fill-rule:nonzero;stroke:none"
           id="text1741"><tspan
             x="0 7.1167998 10.6624"
             y="0"
             sodipodi:role="line"
             id="tspan1733">0.1</tspan><tspan
             x="0 7.1167998 10.6624"
             y="-72.699211"
             sodipodi:role="line"
             id="tspan1735">0.2</tspan><tspan
             x="0 7.1167998 10.6624"
             y="-145.39844"
             sodipodi:role="line"
             id="tspan1737">0.3</tspan><tspan
             x="0 7.1167998 10.6624"
             y="-218.10156"
             sodipodi:role="line"
             id="tspan1739">0.4</tspan></text>
        <path
           d="m 42.656,287.113 h 2.742"
           style="fill:none;stroke:#333333;stroke-width:1.06698;stroke-linecap:butt;stroke-linejoin:round;stroke-miterlimit:10;stroke-dasharray:none;stroke-opacity:1"
           id="path1743" />
        <path
           d="m 42.656,214.414 h 2.742"
           style="fill:none;stroke:#333333;stroke-width:1.06698;stroke-linecap:butt;stroke-linejoin:round;stroke-miterlimit:10;stroke-dasharray:none;stroke-opacity:1"
           id="path1745" />
        <path
           d="m 42.656,141.715 h 2.742"
           style="fill:none;stroke:#333333;stroke-width:1.06698;stroke-linecap:butt;stroke-linejoin:round;stroke-miterlimit:10;stroke-dasharray:none;stroke-opacity:1"
           id="path1747" />
        <path
           d="m 42.656,69.012 h 2.742"
           style="fill:none;stroke:#333333;stroke-width:1.06698;stroke-linecap:butt;stroke-linejoin:round;stroke-miterlimit:10;stroke-dasharray:none;stroke-opacity:1"
           id="path1749" />
        <path
           d="m 62.543,308.574 v -2.742"
           style="fill:none;stroke:#333333;stroke-width:1.06698;stroke-linecap:butt;stroke-linejoin:round;stroke-miterlimit:10;stroke-dasharray:none;stroke-opacity:1"
           id="path1751" />
        <path
           d="m 148.273,308.574 v -2.742"
           style="fill:none;stroke:#333333;stroke-width:1.06698;stroke-linecap:butt;stroke-linejoin:round;stroke-miterlimit:10;stroke-dasharray:none;stroke-opacity:1"
           id="path1753" />
        <path
           d="m 234,308.574 v -2.742"
           style="fill:none;stroke:#333333;stroke-width:1.06698;stroke-linecap:butt;stroke-linejoin:round;stroke-miterlimit:10;stroke-dasharray:none;stroke-opacity:1"
           id="path1755" />
        <path
           d="m 319.73,308.574 v -2.742"
           style="fill:none;stroke:#333333;stroke-width:1.06698;stroke-linecap:butt;stroke-linejoin:round;stroke-miterlimit:10;stroke-dasharray:none;stroke-opacity:1"
           id="path1757" />
        <path
           d="m 405.457,308.574 v -2.742"
           style="fill:none;stroke:#333333;stroke-width:1.06698;stroke-linecap:butt;stroke-linejoin:round;stroke-miterlimit:10;stroke-dasharray:none;stroke-opacity:1"
           id="path1759" />
        <text
           transform="translate(53.644531,319.92578)"
           style="font-variant:normal;font-weight:normal;font-size:12.8px;font-family:Arial;-inkscape-font-specification:ArialMT;writing-mode:lr-tb;fill:#4d4d4d;fill-opacity:1;fill-rule:nonzero;stroke:none"
           id="text1763"><tspan
             x="0 7.1167998 10.6624 85.721603 92.838402 96.384003 171.45703 178.57384 182.11943 257.17865 264.29544 267.84103 342.91406 350.03088 353.57648"
             y="0"
             sodipodi:role="line"
             id="tspan1761">1.52.02.53.03.5</tspan></text>
        <path
           d="m 439.043,150.16 h 17.281 v 17.281 h -17.281 z"
           style="fill:#ffffff;fill-opacity:1;fill-rule:nonzero;stroke:none"
           id="path1781" />
        <path
           d="m 439.043,167.441 h 17.281 v 17.281 h -17.281 z"
           style="fill:#ffffff;fill-opacity:1;fill-rule:nonzero;stroke:none"
           id="path1787" />
        <path
           d="m 439.043,184.719 h 17.281 V 202 h -17.281 z"
           style="fill:#ffffff;fill-opacity:1;fill-rule:nonzero;stroke:none"
           id="path1793" />
      </g>
    </g>
    <g
       id="g830"
       inkscape:label="pien_matXanoms_saps"
       transform="matrix(0.35277777,0,0,0.35277777,94.482073,152.47807)">
      <g
         id="g832">
        <path
           d="M 0,0 H 525 V 345 H 0 Z"
           style="fill:none;stroke:#ffffff;stroke-width:1.06698;stroke-linecap:round;stroke-linejoin:round;stroke-miterlimit:10;stroke-dasharray:none;stroke-opacity:1"
           id="path838" />
      </g>
      <g
         id="g840">
        <g
           id="g842"
           clip-path="url(#clipPath846)">
          <path
             d="M 45.398,5.477 H 422.605 V 305.832 H 45.398 Z"
             style="fill:#ffffff;fill-opacity:1;fill-rule:nonzero;stroke:none"
             id="path848" />
          <path
             d="m 62.543,144.48 8.574,5.204 8.571,5.289 8.574,5.269 8.574,5.012 8.57,4.789 8.574,4.559 8.575,4.324 8.57,3.972 8.574,4.129 8.574,3.602 8.571,3.367 8.574,3.313 8.574,2.996 8.571,2.492 8.574,2.195 8.57,1.715 8.574,1.441 8.574,0.985 8.571,0.531 8.574,-0.008 8.574,-0.629 8.571,-0.929 8.574,-1.528 8.574,-1.984 8.57,-2.391 8.575,-2.785 8.574,-3.34 8.57,-3.316 8.574,-3.731 8.574,-4.031 8.571,-4.199 8.574,-4.594 8.57,-4.949 8.575,-5.074 8.574,-5.082 8.57,-5.485 8.574,-5.656 8.575,-5.465 8.57,-5.992 8.574,-6.226 v 145.277 l -8.574,-0.961 -8.57,-1.039 -8.575,-1.008 -8.574,-1.121 -8.57,-1.113 -8.574,-1.137 -8.575,-1.152 -8.57,-1.176 -8.574,-1.235 -8.571,-1.41 -8.574,-1.293 -8.574,-1.277 -8.57,-1.305 -8.574,-1.242 -8.575,-1.109 -8.57,-0.965 -8.574,-0.801 -8.574,-0.726 -8.571,-0.43 -8.574,-0.176 -8.574,0.074 -8.571,0.426 -8.574,0.746 -8.574,0.895 -8.57,1.148 -8.574,1.215 -8.571,1.188 -8.574,1.261 -8.574,1.379 -8.571,1.363 -8.574,1.391 -8.574,1.32 -8.57,1.262 -8.575,1.359 -8.574,1.293 -8.57,1.149 -8.574,1.086 -8.574,1.125 -8.571,1.008 -8.574,1 z"
             style="fill:#1c86ee;fill-opacity:0.4;fill-rule:nonzero;stroke:none"
             id="path850" />
          <path
             d="m 62.543,169.617 8.574,4.895 8.571,4.722 8.574,4.575 8.574,4.304 8.57,4.274 8.574,4.121 8.575,4.09 8.57,3.906 8.574,3.762 8.574,3.547 8.571,3.347 8.574,3.211 8.574,3.043 8.571,2.758 8.574,2.578 8.57,2.453 8.574,2.16 8.574,2.024 8.571,1.73 8.574,1.535 8.574,1.379 8.571,1.25 8.574,0.973 8.574,0.781 8.57,0.735 8.575,0.558 8.574,0.477 8.57,0.359 8.574,0.285 8.574,0.184 8.571,0.09 8.574,0.156 8.57,0.07 8.575,0.02 8.574,0.011 8.57,0.012 8.574,0.028 8.575,-0.04 8.57,-0.05 8.574,-0.071 v 36.344 l -8.574,-0.848 -8.57,-0.859 -8.575,-0.918 -8.574,-0.957 -8.57,-1 -8.574,-1.058 -8.575,-1.079 -8.57,-1.121 -8.574,-1.117 -8.571,-1.172 -17.148,-2.422 -8.57,-1.257 -8.574,-1.239 -8.575,-1.269 -8.57,-1.157 -8.574,-1.156 -8.574,-1.019 -8.571,-0.942 -8.574,-0.84 -8.574,-0.734 -8.571,-0.664 -8.574,-0.57 -8.574,-0.45 -8.57,-0.3 -8.574,-0.2 -8.571,-0.183 -8.574,-0.106 -8.574,-0.058 -8.571,-0.004 -8.574,-0.043 -8.574,0.023 -8.57,0.032 -8.575,0.031 -8.574,0.035 -8.57,-0.023 -8.574,0.007 -8.574,0.047 -8.571,0.067 -8.574,0.109 z"
             style="fill:#daa520;fill-opacity:0.4;fill-rule:nonzero;stroke:none"
             id="path852" />
          <path
             d="m 62.543,19.133 8.574,13.914 8.571,13.742 8.574,14.316 8.574,14.235 8.57,14.16 8.574,13.969 8.575,13.711 8.57,13.215 8.574,12.363 8.574,11.969 8.571,11.074 8.574,10.972 8.574,9.536 8.571,8.941 8.574,8.098 8.57,7.476 8.574,6.567 8.574,5.886 8.571,5.61 8.574,4.777 8.574,4.07 8.571,3.391 8.574,2.844 8.574,2.515 8.57,2 8.575,1.461 8.574,1.129 8.57,0.985 8.574,0.671 8.574,0.458 8.571,0.402 8.574,0.223 8.57,0.054 8.575,-0.121 8.574,0.004 8.57,-0.297 8.574,-0.234 8.575,-0.375 8.57,-0.356 8.574,-0.461 v 40.153 l -8.574,-0.414 -8.57,-0.485 -8.575,-0.523 -8.574,-0.586 -8.57,-0.68 -8.574,-0.687 -8.575,-0.805 -8.57,-0.887 -8.574,-0.968 -8.571,-1.063 -8.574,-1.098 -8.574,-1.234 -8.57,-1.227 -8.574,-1.234 -8.575,-1.199 -8.57,-1.164 -8.574,-1.051 -8.574,-0.934 -8.571,-0.785 -8.574,-0.511 -8.574,-0.489 -8.571,-0.316 -8.574,-0.152 -8.574,-0.098 -8.57,-0.082 -8.574,-0.012 -8.571,0.031 -8.574,0.032 -8.574,0.093 -8.571,0.227 -8.574,0.203 -8.574,0.168 -8.57,0.109 -8.575,0.262 -8.574,0.176 -8.57,0.32 -8.574,0.172 -8.574,0.199 -8.571,0.196 -8.574,0.179 z"
             style="fill:#ee2c2c;fill-opacity:0.4;fill-rule:nonzero;stroke:none"
             id="path854" />
          <path
             d="m 62.543,236.18 8.574,-0.059 8.571,-0.043 8.574,-0.07 8.574,-0.129 8.57,-0.074 8.574,-0.004 8.575,-0.051 8.57,-0.008 8.574,-0.082 8.574,-0.09 h 8.571 l 8.574,-0.035 8.574,-0.027 8.571,-0.024 8.574,-0.054 8.57,-0.078 8.574,-0.086 8.574,-0.036 8.571,-0.035 8.574,-0.09 8.574,-0.019 8.571,-0.113 8.574,-0.133 8.574,-0.117 8.57,-0.118 8.575,-0.117 8.574,-0.097 8.57,-0.125 8.574,-0.114 8.574,-0.132 8.571,-0.122 8.574,-0.117 8.57,-0.136 8.575,-0.086 8.574,-0.071 8.57,-0.035 8.574,-0.062 8.575,-0.102 8.57,-0.082 8.574,-0.051"
             style="fill:none;stroke:#1c86ee;stroke-width:4.26791;stroke-linecap:butt;stroke-linejoin:round;stroke-miterlimit:10;stroke-dasharray:none;stroke-opacity:1"
             id="path856" />
          <path
             d="m 62.543,220.855 8.574,1.645 8.571,1.574 8.574,1.555 8.574,1.492 8.57,1.535 8.574,1.485 8.575,1.429 8.57,1.422 8.574,1.36 8.574,1.363 8.571,1.363 8.574,1.277 8.574,1.293 8.571,1.25 8.574,1.235 8.57,1.203 8.574,1.168 8.574,1.18 8.571,1.136 8.574,1.125 8.574,1.078 8.571,1.067 8.574,1.039 8.574,1 8.57,0.996 8.575,0.961 8.574,0.965 8.57,0.929 8.574,0.883 8.574,0.891 8.571,0.871 8.574,0.867 8.57,0.836 8.575,0.813 8.574,0.8 8.57,0.793 8.574,0.77 8.575,0.742 8.57,0.738 8.574,0.731"
             style="fill:none;stroke:#daa520;stroke-width:4.26791;stroke-linecap:butt;stroke-linejoin:round;stroke-miterlimit:10;stroke-dasharray:none;stroke-opacity:1"
             id="path858" />
          <path
             d="m 62.543,201.848 8.574,3.84 8.571,3.73 8.574,3.754 8.574,3.496 8.57,3.32 8.574,3.2 8.575,3.144 8.57,3.039 8.574,2.899 8.574,2.765 8.571,2.766 8.574,2.617 8.574,2.516 8.571,2.441 8.574,2.324 8.57,2.239 8.574,2.167 8.574,2.09 8.571,1.961 8.574,1.879 8.574,1.813 8.571,1.707 8.574,1.605 8.574,1.563 8.57,1.449 8.575,1.344 8.574,1.304 8.57,1.27 8.574,1.23 8.574,1.11 8.571,1.113 8.574,1.051 8.57,1.011 8.575,0.954 8.574,0.918 8.57,0.91 8.574,0.84 8.575,0.8 8.57,0.754 8.574,0.727"
             style="fill:none;stroke:#ee2c2c;stroke-width:4.26791;stroke-linecap:butt;stroke-linejoin:round;stroke-miterlimit:10;stroke-dasharray:none;stroke-opacity:1"
             id="path860" />
          <path
             d="M 45.398,5.477 H 422.605 V 305.832 H 45.398 Z"
             style="fill:none;stroke:#333333;stroke-width:3.20093;stroke-linecap:round;stroke-linejoin:round;stroke-miterlimit:10;stroke-dasharray:none;stroke-opacity:1"
             id="path862" />
        </g>
      </g>
      <g
         id="g864">
        <text
           transform="translate(22.671875,300.04297)"
           style="font-variant:normal;font-weight:normal;font-size:12.8px;font-family:Arial;-inkscape-font-specification:ArialMT;writing-mode:lr-tb;fill:#4d4d4d;fill-opacity:1;fill-rule:nonzero;stroke:none"
           id="text874"><tspan
             x="0 7.1167998 10.6624"
             y="0"
             sodipodi:role="line"
             id="tspan866">0.0</tspan><tspan
             x="0 7.1167998 10.6624"
             y="-92.296867"
             sodipodi:role="line"
             id="tspan868">0.2</tspan><tspan
             x="0 7.1167998 10.6624"
             y="-184.59373"
             sodipodi:role="line"
             id="tspan870">0.4</tspan><tspan
             x="0 7.1167998 10.6624"
             y="-276.89062"
             sodipodi:role="line"
             id="tspan872">0.6</tspan></text>
        <path
           d="m 42.656,295.461 h 2.742"
           style="fill:none;stroke:#333333;stroke-width:1.06698;stroke-linecap:butt;stroke-linejoin:round;stroke-miterlimit:10;stroke-dasharray:none;stroke-opacity:1"
           id="path876" />
        <path
           d="m 42.656,203.164 h 2.742"
           style="fill:none;stroke:#333333;stroke-width:1.06698;stroke-linecap:butt;stroke-linejoin:round;stroke-miterlimit:10;stroke-dasharray:none;stroke-opacity:1"
           id="path878" />
        <path
           d="m 42.656,110.867 h 2.742"
           style="fill:none;stroke:#333333;stroke-width:1.06698;stroke-linecap:butt;stroke-linejoin:round;stroke-miterlimit:10;stroke-dasharray:none;stroke-opacity:1"
           id="path880" />
        <path
           d="m 42.656,18.574 h 2.742"
           style="fill:none;stroke:#333333;stroke-width:1.06698;stroke-linecap:butt;stroke-linejoin:round;stroke-miterlimit:10;stroke-dasharray:none;stroke-opacity:1"
           id="path882" />
        <path
           d="m 62.543,308.574 v -2.742"
           style="fill:none;stroke:#333333;stroke-width:1.06698;stroke-linecap:butt;stroke-linejoin:round;stroke-miterlimit:10;stroke-dasharray:none;stroke-opacity:1"
           id="path884" />
        <path
           d="m 148.273,308.574 v -2.742"
           style="fill:none;stroke:#333333;stroke-width:1.06698;stroke-linecap:butt;stroke-linejoin:round;stroke-miterlimit:10;stroke-dasharray:none;stroke-opacity:1"
           id="path886" />
        <path
           d="m 234,308.574 v -2.742"
           style="fill:none;stroke:#333333;stroke-width:1.06698;stroke-linecap:butt;stroke-linejoin:round;stroke-miterlimit:10;stroke-dasharray:none;stroke-opacity:1"
           id="path888" />
        <path
           d="m 319.73,308.574 v -2.742"
           style="fill:none;stroke:#333333;stroke-width:1.06698;stroke-linecap:butt;stroke-linejoin:round;stroke-miterlimit:10;stroke-dasharray:none;stroke-opacity:1"
           id="path890" />
        <path
           d="m 405.457,308.574 v -2.742"
           style="fill:none;stroke:#333333;stroke-width:1.06698;stroke-linecap:butt;stroke-linejoin:round;stroke-miterlimit:10;stroke-dasharray:none;stroke-opacity:1"
           id="path892" />
        <text
           transform="translate(53.644531,319.92578)"
           style="font-variant:normal;font-weight:normal;font-size:12.8px;font-family:Arial;-inkscape-font-specification:ArialMT;writing-mode:lr-tb;fill:#4d4d4d;fill-opacity:1;fill-rule:nonzero;stroke:none"
           id="text896"><tspan
             x="0 7.1167998 10.6624 85.721603 92.838402 96.384003 171.45703 178.57384 182.11943 257.17865 264.29544 267.84103 342.91406 350.03088 353.57648"
             y="0"
             sodipodi:role="line"
             id="tspan894">1.52.02.53.03.5</tspan></text>
        <path
           d="m 439.043,150.16 h 17.281 v 17.281 h -17.281 z"
           style="fill:#ffffff;fill-opacity:1;fill-rule:nonzero;stroke:none"
           id="path914" />
        <path
           d="m 439.043,167.441 h 17.281 v 17.281 h -17.281 z"
           style="fill:#ffffff;fill-opacity:1;fill-rule:nonzero;stroke:none"
           id="path920" />
        <path
           d="m 439.043,184.719 h 17.281 V 202 h -17.281 z"
           style="fill:#ffffff;fill-opacity:1;fill-rule:nonzero;stroke:none"
           id="path926" />
      </g>
    </g>
    <g
       id="g1172"
       inkscape:label="pien_matXanoms_seed"
       transform="matrix(0.35277777,0,0,0.35277777,94.482073,22.401249)">
      <g
         id="g1174" />
      <g
         id="g1182">
        <g
           id="g1184"
           clip-path="url(#clipPath1188)">
          <path
             d="M 45.398,5.477 H 422.605 V 305.832 H 45.398 Z"
             style="fill:#ffffff;fill-opacity:1;fill-rule:nonzero;stroke:none"
             id="path1190" />
          <path
             d="m 62.543,142.539 8.574,-0.5 8.571,-0.637 8.574,-0.566 8.574,-0.613 8.57,-0.618 17.149,-1.32 8.57,-0.797 8.574,-0.797 8.574,-0.875 8.571,-0.988 8.574,-1.074 8.574,-1.211 8.571,-1.383 8.574,-1.422 8.57,-1.672 8.574,-2.031 8.574,-2.398 8.571,-2.84 8.574,-3.383 8.574,-3.949 8.571,-4.289 8.574,-4.778 8.574,-5.015 8.57,-5.274 8.575,-5.339 8.574,-5.563 8.57,-5.641 8.574,-5.57 8.574,-5.531 8.571,-5.426 8.574,-5.32 8.57,-5.164 8.575,-5.035 8.574,-4.762 8.57,-4.715 8.574,-4.563 8.575,-4.433 8.57,-3.977 8.574,-3.937 v 118.043 l -8.574,0.75 -8.57,0.656 -8.575,0.602 -8.574,0.675 -8.57,0.762 -8.574,0.942 -8.575,0.75 -8.57,0.949 -8.574,1.051 -8.571,0.98 -8.574,1.191 -8.574,1.403 -8.57,1.351 -8.574,1.504 -8.575,1.895 -8.57,2.383 -8.574,2.687 -8.574,3.176 -8.571,3.637 -8.574,4.113 -8.574,5.015 -8.571,5.497 -8.574,5.8 -8.574,6.047 -8.57,6.442 -8.574,6.566 -8.571,6.68 -8.574,6.832 -8.574,6.742 -8.571,6.855 -8.574,6.75 -8.574,6.641 -8.57,6.383 -8.575,6.398 -8.574,6.153 -8.57,6.183 -8.574,5.906 -8.574,5.813 -8.571,5.461 -8.574,5.383 z"
             style="fill:#1c86ee;fill-opacity:0.4;fill-rule:nonzero;stroke:none"
             id="path1192" />
          <path
             d="m 62.543,143.48 8.574,0.856 8.571,0.863 8.574,0.856 8.574,0.828 8.57,0.711 8.574,0.769 8.575,0.739 8.57,0.742 8.574,0.613 8.574,0.629 8.571,0.613 8.574,0.551 8.574,0.492 8.571,0.375 8.574,0.223 8.57,0.254 8.574,0.082 8.574,-0.074 8.571,-0.247 8.574,-0.472 8.574,-0.711 8.571,-1.055 8.574,-1.152 8.574,-1.442 8.57,-1.566 8.575,-1.906 8.574,-2.035 8.57,-2.063 8.574,-2.234 8.574,-2.367 8.571,-2.461 8.574,-2.457 8.57,-2.567 8.575,-2.629 8.574,-2.508 8.57,-2.687 8.574,-2.422 8.575,-2.617 8.57,-2.539 8.574,-2.516 v 77.547 l -8.574,-0.754 -8.57,-0.801 -8.575,-0.726 -8.574,-0.844 -8.57,-0.773 -8.574,-0.61 -8.575,-0.722 -8.57,-0.571 -8.574,-0.543 -8.571,-0.39 -8.574,-0.446 -8.574,-0.234 -8.57,-0.227 -8.574,-0.031 -8.575,0.11 -8.57,0.277 -8.574,0.527 -8.574,0.762 -8.571,0.992 -8.574,1.332 -8.574,1.531 -8.571,1.704 -8.574,1.906 -8.574,1.988 -8.57,2.289 -8.574,2.281 -8.571,2.422 -8.574,2.442 -8.574,2.547 -8.571,2.574 -8.574,2.472 -8.574,2.516 -8.57,2.602 -8.575,2.543 -8.574,2.648 -8.57,2.613 -8.574,2.629 -8.574,2.621 -8.571,2.664 -8.574,2.602 z"
             style="fill:#daa520;fill-opacity:0.4;fill-rule:nonzero;stroke:none"
             id="path1194" />
          <path
             d="m 62.543,61.348 8.574,4.429 8.571,4.668 8.574,4.746 8.574,4.743 8.57,4.996 8.574,4.965 8.575,5.05 8.57,5.032 8.574,5.218 8.574,5.231 8.571,5.297 8.574,5.449 8.574,5.168 8.571,5.433 8.574,5.258 8.57,5.043 8.574,5.039 8.574,4.817 8.571,4.64 8.574,4.395 8.574,3.887 8.571,3.632 8.574,3.164 8.574,2.633 8.57,2.192 8.575,1.535 8.574,0.812 8.57,0.653 8.574,0.043 8.574,0.054 8.571,-0.347 8.574,-0.571 8.57,-0.761 8.575,-1.008 8.574,-1.207 8.57,-1.11 8.574,-1.066 8.575,-1.336 8.57,-1.281 8.574,-1.512 v 122.496 l -8.574,-4.023 -8.57,-4.153 -8.575,-4.148 -8.574,-4.199 -8.57,-4.184 -17.149,-8.656 -8.57,-4.277 -8.574,-4.137 -8.571,-3.918 -8.574,-3.859 -8.574,-3.676 -8.57,-3.352 -8.574,-2.984 -8.575,-2.516 -8.57,-2.164 -8.574,-1.664 -8.574,-1.019 -8.571,-0.668 -8.574,-0.399 -8.574,-0.109 -8.571,0.375 -8.574,0.562 -8.574,0.828 -8.57,0.907 -8.574,1.05 -8.571,1.207 -8.574,1.055 -8.574,1.192 -8.571,1.222 -8.574,1.266 -8.574,1.39 -8.57,1.442 -8.575,1.355 -8.574,1.403 -8.57,1.371 -8.574,1.34 -8.574,1.425 -8.571,1.493 -8.574,1.511 z"
             style="fill:#ee2c2c;fill-opacity:0.4;fill-rule:nonzero;stroke:none"
             id="path1196" />
          <path
             d="m 62.543,222.273 8.574,-3.835 8.571,-3.86 8.574,-3.863 8.574,-3.981 8.57,-4.066 8.574,-3.969 8.575,-4.019 8.57,-4.075 8.574,-3.984 8.574,-4.008 8.571,-4.043 8.574,-4.105 8.574,-4.02 8.571,-4.043 8.574,-4.043 8.57,-4.066 8.574,-4.047 8.574,-4.023 8.571,-4.004 8.574,-4.071 8.574,-4.019 8.571,-3.973 8.574,-3.965 8.574,-3.992 8.57,-3.851 17.149,-7.711 8.57,-3.782 8.574,-3.753 8.574,-3.688 8.571,-3.637 8.574,-3.566 8.57,-3.609 8.575,-3.52 8.574,-3.445 8.57,-3.449 8.574,-3.348 8.575,-3.336 8.57,-3.238 8.574,-3.231"
             style="fill:none;stroke:#1c86ee;stroke-width:4.26791;stroke-linecap:butt;stroke-linejoin:round;stroke-miterlimit:10;stroke-dasharray:none;stroke-opacity:1"
             id="path1198" />
          <path
             d="m 62.543,188.094 8.574,-0.957 8.571,-0.969 8.574,-0.969 8.574,-0.976 8.57,-0.993 8.574,-0.945 8.575,-0.969 8.57,-0.988 8.574,-0.953 8.574,-0.996 8.571,-0.945 8.574,-1.016 8.574,-0.984 8.571,-0.957 8.574,-0.969 8.57,-0.973 8.574,-0.961 8.574,-0.988 8.571,-0.969 8.574,-0.965 8.574,-0.968 8.571,-0.965 8.574,-0.965 8.574,-0.938 8.57,-0.906 8.575,-0.945 8.574,-0.969 8.57,-0.976 8.574,-0.977 8.574,-0.969 8.571,-0.969 8.574,-0.968 8.57,-0.973 8.575,-0.965 8.574,-0.988 8.57,-0.945 8.574,-0.93 8.575,-0.949 8.57,-0.953 8.574,-0.985"
             style="fill:none;stroke:#daa520;stroke-width:4.26791;stroke-linecap:butt;stroke-linejoin:round;stroke-miterlimit:10;stroke-dasharray:none;stroke-opacity:1"
             id="path1200" />
          <path
             d="m 62.543,152.879 8.574,2.129 8.571,2.078 8.574,2.137 8.574,2.183 8.57,2.114 8.574,2.121 8.575,2.105 8.57,2.086 8.574,2.102 8.574,2.117 8.571,2.113 8.574,2.102 8.574,2.125 8.571,2.144 8.574,2.121 8.57,2.074 8.574,2.168 8.574,2.114 8.571,2.105 8.574,2.113 8.574,2.098 8.571,2.133 8.574,2.164 8.574,2.109 8.57,2.129 8.575,2.106 8.574,2.047 8.57,2.07 17.148,4.078 8.571,1.984 8.574,1.989 8.57,1.976 8.575,2.047 8.574,1.945 8.57,2.024 8.574,1.992 8.575,1.942 8.57,1.917 8.574,1.926"
             style="fill:none;stroke:#ee2c2c;stroke-width:4.26791;stroke-linecap:butt;stroke-linejoin:round;stroke-miterlimit:10;stroke-dasharray:none;stroke-opacity:1"
             id="path1202" />
          <path
             d="M 45.398,5.477 H 422.605 V 305.832 H 45.398 Z"
             style="fill:none;stroke:#333333;stroke-width:3.20093;stroke-linecap:round;stroke-linejoin:round;stroke-miterlimit:10;stroke-dasharray:none;stroke-opacity:1"
             id="path1204" />
        </g>
      </g>
      <g
         id="g1206">
        <text
           transform="translate(22.671875,303.07812)"
           style="font-variant:normal;font-weight:normal;font-size:12.8px;font-family:Arial;-inkscape-font-specification:ArialMT;writing-mode:lr-tb;fill:#4d4d4d;fill-opacity:1;fill-rule:nonzero;stroke:none"
           id="text1216"><tspan
             x="0 7.1167998 10.6624"
             y="0"
             sodipodi:role="line"
             id="tspan1208">0.2</tspan><tspan
             x="0 7.1167998 10.6624"
             y="-85.21875"
             sodipodi:role="line"
             id="tspan1210">0.4</tspan><tspan
             x="0 7.1167998 10.6624"
             y="-170.43359"
             sodipodi:role="line"
             id="tspan1212">0.6</tspan><tspan
             x="0 7.1167998 10.6624"
             y="-255.65234"
             sodipodi:role="line"
             id="tspan1214">0.8</tspan></text>
        <path
           d="m 42.656,298.496 h 2.742"
           style="fill:none;stroke:#333333;stroke-width:1.06698;stroke-linecap:butt;stroke-linejoin:round;stroke-miterlimit:10;stroke-dasharray:none;stroke-opacity:1"
           id="path1218" />
        <path
           d="m 42.656,213.277 h 2.742"
           style="fill:none;stroke:#333333;stroke-width:1.06698;stroke-linecap:butt;stroke-linejoin:round;stroke-miterlimit:10;stroke-dasharray:none;stroke-opacity:1"
           id="path1220" />
        <path
           d="m 42.656,128.063 h 2.742"
           style="fill:none;stroke:#333333;stroke-width:1.06698;stroke-linecap:butt;stroke-linejoin:round;stroke-miterlimit:10;stroke-dasharray:none;stroke-opacity:1"
           id="path1222" />
        <path
           d="m 42.656,42.848 h 2.742"
           style="fill:none;stroke:#333333;stroke-width:1.06698;stroke-linecap:butt;stroke-linejoin:round;stroke-miterlimit:10;stroke-dasharray:none;stroke-opacity:1"
           id="path1224" />
        <path
           d="m 62.543,308.574 v -2.742"
           style="fill:none;stroke:#333333;stroke-width:1.06698;stroke-linecap:butt;stroke-linejoin:round;stroke-miterlimit:10;stroke-dasharray:none;stroke-opacity:1"
           id="path1226" />
        <path
           d="m 148.273,308.574 v -2.742"
           style="fill:none;stroke:#333333;stroke-width:1.06698;stroke-linecap:butt;stroke-linejoin:round;stroke-miterlimit:10;stroke-dasharray:none;stroke-opacity:1"
           id="path1228" />
        <path
           d="m 234,308.574 v -2.742"
           style="fill:none;stroke:#333333;stroke-width:1.06698;stroke-linecap:butt;stroke-linejoin:round;stroke-miterlimit:10;stroke-dasharray:none;stroke-opacity:1"
           id="path1230" />
        <path
           d="m 319.73,308.574 v -2.742"
           style="fill:none;stroke:#333333;stroke-width:1.06698;stroke-linecap:butt;stroke-linejoin:round;stroke-miterlimit:10;stroke-dasharray:none;stroke-opacity:1"
           id="path1232" />
        <path
           d="m 405.457,308.574 v -2.742"
           style="fill:none;stroke:#333333;stroke-width:1.06698;stroke-linecap:butt;stroke-linejoin:round;stroke-miterlimit:10;stroke-dasharray:none;stroke-opacity:1"
           id="path1234" />
        <text
           transform="translate(53.644531,319.92578)"
           style="font-variant:normal;font-weight:normal;font-size:12.8px;font-family:Arial;-inkscape-font-specification:ArialMT;writing-mode:lr-tb;fill:#4d4d4d;fill-opacity:1;fill-rule:nonzero;stroke:none"
           id="text1238"><tspan
             x="0 7.1167998 10.6624 85.721603 92.838402 96.384003 171.45703 178.57384 182.11943 257.17865 264.29544 267.84103 342.91406 350.03088 353.57648"
             y="0"
             sodipodi:role="line"
             id="tspan1236">1.52.02.53.03.5</tspan></text>
        <path
           d="m 439.043,150.16 h 17.281 v 17.281 h -17.281 z"
           style="fill:#ffffff;fill-opacity:1;fill-rule:nonzero;stroke:none"
           id="path1256" />
        <path
           d="m 439.043,167.441 h 17.281 v 17.281 h -17.281 z"
           style="fill:#ffffff;fill-opacity:1;fill-rule:nonzero;stroke:none"
           id="path1262" />
        <path
           d="m 439.043,184.719 h 17.281 V 202 h -17.281 z"
           style="fill:#ffffff;fill-opacity:1;fill-rule:nonzero;stroke:none"
           id="path1268" />
      </g>
    </g>
    <g
       id="g1514"
       inkscape:label="pien_matXanoms_mort"
       transform="matrix(0.35277777,0,0,0.35277777,94.482073,-107.67557)">
      <g
         id="g1516" />
      <g
         id="g1524">
        <g
           id="g1526"
           clip-path="url(#clipPath1530)">
          <path
             d="M 45.398,5.477 H 422.605 V 305.832 H 45.398 Z"
             style="fill:#ffffff;fill-opacity:1;fill-rule:nonzero;stroke:none"
             id="path1532" />
          <path
             d="m 62.543,244.727 8.574,0.089 8.571,0.114 8.574,0.148 8.574,0.121 8.57,0.223 8.574,0.121 8.575,0.152 8.57,0.231 8.574,0.301 8.574,0.277 8.571,0.418 8.574,0.367 8.574,0.418 8.571,0.504 8.574,0.605 8.57,0.61 8.574,0.707 8.574,0.738 8.571,0.887 8.574,0.93 8.574,0.988 8.571,1.051 8.574,1.07 8.574,1.191 8.57,1.282 8.575,1.261 8.574,1.27 8.57,1.304 8.574,1.34 8.574,1.348 8.571,1.273 8.574,1.336 8.57,1.301 8.575,1.266 8.574,1.246 8.57,1.23 8.574,1.203 8.575,1.168 8.57,1.18 8.574,1.086 V 234.43 l -8.574,-0.102 -8.57,-0.098 -8.575,-0.105 -8.574,-0.25 -8.57,-0.254 -8.574,-0.234 -8.575,-0.27 -8.57,-0.359 -8.574,-0.367 -8.571,-0.469 -8.574,-0.488 -8.574,-0.52 -8.57,-0.699 -8.574,-0.652 -8.575,-0.774 -8.57,-0.93 -8.574,-1.05 -8.574,-1.25 -8.571,-1.207 -8.574,-1.493 -8.574,-1.593 -8.571,-1.703 -8.574,-1.848 -8.574,-2 -8.57,-2.18 -8.574,-2.324 -8.571,-2.516 -8.574,-2.621 -8.574,-2.832 -8.571,-2.89 -8.574,-2.969 -8.574,-3.106 -8.57,-3.332 -8.575,-3.324 -8.574,-3.687 -8.57,-3.801 -8.574,-3.656 -8.574,-3.868 -8.571,-4.035 -8.574,-4.16 z"
             style="fill:#1c86ee;fill-opacity:0.4;fill-rule:nonzero;stroke:none"
             id="path1534" />
          <path
             d="m 62.543,201.078 8.574,2.508 8.571,2.523 8.574,2.481 8.574,2.461 8.57,2.383 8.574,2.461 8.575,2.347 8.57,2.438 8.574,2.297 8.574,2.375 8.571,2.277 8.574,2.355 8.574,2.332 8.571,2.293 8.574,2.239 8.57,2.304 8.574,2.258 8.574,2.211 8.571,2.199 8.574,2.176 8.574,2.192 8.571,2.089 8.574,2.141 8.574,2.113 8.57,2.106 8.575,2.07 8.574,2 8.57,1.953 8.574,1.867 8.574,1.848 8.571,1.777 8.574,1.703 8.57,1.672 8.575,1.582 8.574,1.496 8.57,1.465 8.574,1.407 8.575,1.336 8.57,1.281 8.574,1.203 v -22.832 l -8.574,-1.301 -8.57,-1.297 -8.575,-1.39 -8.574,-1.411 -8.57,-1.539 -8.574,-1.582 -8.575,-1.632 -8.57,-1.727 -8.574,-1.773 -8.571,-1.883 -8.574,-1.973 -8.574,-2.012 -8.57,-2.148 -8.574,-2.313 -8.575,-2.406 -8.57,-2.504 -8.574,-2.605 -8.574,-2.793 -8.571,-2.926 -8.574,-3.117 -8.574,-3.32 -8.571,-3.458 -8.574,-3.539 -8.574,-3.832 -8.57,-3.961 -8.574,-4.187 -8.571,-4.379 -8.574,-4.605 -8.574,-4.813 -8.571,-5.004 -8.574,-5.109 -8.574,-5.356 -8.57,-5.632 -8.575,-5.594 -8.574,-5.883 -8.57,-6.023 -8.574,-6.231 -8.574,-6.312 -8.571,-6.516 -8.574,-6.602 z"
             style="fill:#daa520;fill-opacity:0.4;fill-rule:nonzero;stroke:none"
             id="path1536" />
          <path
             d="m 62.543,178.293 8.574,4.012 8.571,4.035 8.574,3.773 8.574,3.871 8.57,3.829 8.574,3.714 8.575,3.625 8.57,3.637 8.574,3.414 8.574,3.41 8.571,3.348 8.574,3.273 8.574,3.286 8.571,3.246 8.574,3.121 8.57,3.097 8.574,3.086 8.574,3.196 8.571,3.086 8.574,3.007 8.574,3.086 8.571,3.004 8.574,2.903 8.574,2.878 8.57,2.868 8.575,2.742 8.574,2.66 8.57,2.578 8.574,2.461 8.574,2.402 8.571,2.262 8.574,2.176 8.57,2.004 8.575,1.894 8.574,1.766 8.57,1.648 8.574,1.532 8.575,1.422 8.57,1.32 8.574,1.215 v -22.567 l -8.574,-1.5 -8.57,-1.562 -8.575,-1.664 -8.574,-1.762 -8.57,-1.855 -8.574,-1.911 -8.575,-2.062 -8.57,-2.106 -8.574,-2.308 -8.571,-2.535 -8.574,-2.692 -8.574,-2.879 -8.57,-3.086 -8.574,-3.382 -8.575,-3.715 -8.57,-3.977 -8.574,-4.308 -8.574,-4.711 -8.571,-5.102 -8.574,-5.508 -8.574,-5.972 -8.571,-6.489 -8.574,-6.925 -8.574,-7.332 -8.57,-7.735 -8.574,-8.265 -8.571,-8.614 -8.574,-9.176 -8.574,-9.589 -8.571,-10.098 -8.574,-10.449 -8.574,-10.465 -8.57,-10.867 L 113.98,87.988 105.406,76.668 96.836,65.152 88.262,53.516 79.688,42.117 71.117,30.52 62.543,19.133 Z"
             style="fill:#ee2c2c;fill-opacity:0.4;fill-rule:nonzero;stroke:none"
             id="path1538" />
          <path
             d="m 62.543,210.648 8.574,1.606 8.571,1.613 8.574,1.574 8.574,1.555 8.57,1.539 8.574,1.504 8.575,1.52 8.57,1.484 8.574,1.488 8.574,1.403 8.571,1.386 8.574,1.368 8.574,1.394 8.571,1.332 8.574,1.336 8.57,1.301 8.574,1.254 8.574,1.258 8.571,1.246 8.574,1.207 8.574,1.222 8.571,1.196 8.574,1.152 8.574,1.121 8.57,1.121 8.575,1.125 8.574,1.074 8.57,1.063 8.574,1.105 8.574,1.059 8.571,1.027 8.574,0.992 8.57,0.997 8.575,1 8.574,0.96 8.57,0.93 8.574,0.926 8.575,0.91 8.57,0.895 8.574,0.882"
             style="fill:none;stroke:#1c86ee;stroke-width:4.26791;stroke-linecap:butt;stroke-linejoin:round;stroke-miterlimit:10;stroke-dasharray:none;stroke-opacity:1"
             id="path1540" />
          <path
             d="m 62.543,163.949 8.574,4.426 8.571,4.309 8.574,4.281 8.574,4.207 8.57,4.07 8.574,3.965 8.575,3.852 8.57,3.769 8.574,3.727 8.574,3.597 8.571,3.524 8.574,3.445 8.574,3.324 8.571,3.231 8.574,3.164 8.57,3.019 8.574,2.993 8.574,2.867 8.571,2.773 8.574,2.672 8.574,2.609 8.571,2.516 8.574,2.414 8.574,2.371 8.57,2.301 8.575,2.195 8.574,2.133 8.57,2.074 8.574,1.977 8.574,1.926 8.571,1.843 8.574,1.801 8.57,1.742 8.575,1.672 8.574,1.621 8.57,1.551 8.574,1.492 8.575,1.438 8.57,1.394 8.574,1.336"
             style="fill:none;stroke:#daa520;stroke-width:4.26791;stroke-linecap:butt;stroke-linejoin:round;stroke-miterlimit:10;stroke-dasharray:none;stroke-opacity:1"
             id="path1542" />
          <path
             d="m 62.543,105.32 8.574,8.063 8.571,7.941 8.574,7.778 8.574,7.57 8.57,7.398 8.574,7.27 8.575,7.098 8.57,6.878 8.574,6.625 8.574,6.469 8.571,6.262 8.574,6.008 8.574,5.789 8.571,5.613 8.574,5.344 8.57,5.148 8.574,4.942 8.574,4.703 8.571,4.547 8.574,4.32 8.574,4.098 8.571,3.918 8.574,3.746 8.574,3.578 8.57,3.367 8.575,3.203 8.574,3.047 8.57,2.891 8.574,2.73 8.574,2.598 8.571,2.441 8.574,2.309 8.57,2.191 8.575,2.055 8.574,1.949 8.57,1.84 8.574,1.726 8.575,1.641 8.57,1.543 8.574,1.453"
             style="fill:none;stroke:#ee2c2c;stroke-width:4.26791;stroke-linecap:butt;stroke-linejoin:round;stroke-miterlimit:10;stroke-dasharray:none;stroke-opacity:1"
             id="path1544" />
          <path
             d="M 45.398,5.477 H 422.605 V 305.832 H 45.398 Z"
             style="fill:none;stroke:#333333;stroke-width:3.20093;stroke-linecap:round;stroke-linejoin:round;stroke-miterlimit:10;stroke-dasharray:none;stroke-opacity:1"
             id="path1546" />
        </g>
      </g>
      <g
         id="g1548">
        <text
           transform="translate(22.671875,310.16797)"
           style="font-variant:normal;font-weight:normal;font-size:12.8px;font-family:Arial;-inkscape-font-specification:ArialMT;writing-mode:lr-tb;fill:#4d4d4d;fill-opacity:1;fill-rule:nonzero;stroke:none"
           id="text1562"><tspan
             x="0 7.1167998 10.6624"
             y="0"
             sodipodi:role="line"
             id="tspan1550">0.0</tspan><tspan
             x="0 7.1167998 10.6624"
             y="-51.476559"
             sodipodi:role="line"
             id="tspan1552">0.1</tspan><tspan
             x="0 7.1167998 10.6624"
             y="-102.95703"
             sodipodi:role="line"
             id="tspan1554">0.2</tspan><tspan
             x="0 7.1167998 10.6624"
             y="-154.4375"
             sodipodi:role="line"
             id="tspan1556">0.3</tspan><tspan
             x="0 7.1167998 10.6624"
             y="-205.91406"
             sodipodi:role="line"
             id="tspan1558">0.4</tspan><tspan
             x="0 7.1167998 10.6624"
             y="-257.39453"
             sodipodi:role="line"
             id="tspan1560">0.5</tspan></text>
        <path
           d="m 42.656,305.59 h 2.742"
           style="fill:none;stroke:#333333;stroke-width:1.06698;stroke-linecap:butt;stroke-linejoin:round;stroke-miterlimit:10;stroke-dasharray:none;stroke-opacity:1"
           id="path1564" />
        <path
           d="m 42.656,254.109 h 2.742"
           style="fill:none;stroke:#333333;stroke-width:1.06698;stroke-linecap:butt;stroke-linejoin:round;stroke-miterlimit:10;stroke-dasharray:none;stroke-opacity:1"
           id="path1566" />
        <path
           d="m 42.656,202.629 h 2.742"
           style="fill:none;stroke:#333333;stroke-width:1.06698;stroke-linecap:butt;stroke-linejoin:round;stroke-miterlimit:10;stroke-dasharray:none;stroke-opacity:1"
           id="path1568" />
        <path
           d="m 42.656,151.152 h 2.742"
           style="fill:none;stroke:#333333;stroke-width:1.06698;stroke-linecap:butt;stroke-linejoin:round;stroke-miterlimit:10;stroke-dasharray:none;stroke-opacity:1"
           id="path1570" />
        <path
           d="m 42.656,99.672 h 2.742"
           style="fill:none;stroke:#333333;stroke-width:1.06698;stroke-linecap:butt;stroke-linejoin:round;stroke-miterlimit:10;stroke-dasharray:none;stroke-opacity:1"
           id="path1572" />
        <path
           d="m 42.656,48.191 h 2.742"
           style="fill:none;stroke:#333333;stroke-width:1.06698;stroke-linecap:butt;stroke-linejoin:round;stroke-miterlimit:10;stroke-dasharray:none;stroke-opacity:1"
           id="path1574" />
        <path
           d="m 62.543,308.574 v -2.742"
           style="fill:none;stroke:#333333;stroke-width:1.06698;stroke-linecap:butt;stroke-linejoin:round;stroke-miterlimit:10;stroke-dasharray:none;stroke-opacity:1"
           id="path1576" />
        <path
           d="m 148.273,308.574 v -2.742"
           style="fill:none;stroke:#333333;stroke-width:1.06698;stroke-linecap:butt;stroke-linejoin:round;stroke-miterlimit:10;stroke-dasharray:none;stroke-opacity:1"
           id="path1578" />
        <path
           d="m 234,308.574 v -2.742"
           style="fill:none;stroke:#333333;stroke-width:1.06698;stroke-linecap:butt;stroke-linejoin:round;stroke-miterlimit:10;stroke-dasharray:none;stroke-opacity:1"
           id="path1580" />
        <path
           d="m 319.73,308.574 v -2.742"
           style="fill:none;stroke:#333333;stroke-width:1.06698;stroke-linecap:butt;stroke-linejoin:round;stroke-miterlimit:10;stroke-dasharray:none;stroke-opacity:1"
           id="path1582" />
        <path
           d="m 405.457,308.574 v -2.742"
           style="fill:none;stroke:#333333;stroke-width:1.06698;stroke-linecap:butt;stroke-linejoin:round;stroke-miterlimit:10;stroke-dasharray:none;stroke-opacity:1"
           id="path1584" />
        <text
           transform="translate(53.644531,319.92578)"
           style="font-variant:normal;font-weight:normal;font-size:12.8px;font-family:Arial;-inkscape-font-specification:ArialMT;writing-mode:lr-tb;fill:#4d4d4d;fill-opacity:1;fill-rule:nonzero;stroke:none"
           id="text1588"><tspan
             x="0 7.1167998 10.6624 85.721603 92.838402 96.384003 171.45703 178.57384 182.11943 257.17865 264.29544 267.84103 342.91406 350.03088 353.57648"
             y="0"
             sodipodi:role="line"
             id="tspan1586">1.52.02.53.03.5</tspan></text>
        <path
           d="m 439.043,150.16 h 17.281 v 17.281 h -17.281 z"
           style="fill:#ffffff;fill-opacity:1;fill-rule:nonzero;stroke:none"
           id="path1606" />
        <path
           d="m 439.043,167.441 h 17.281 v 17.281 h -17.281 z"
           style="fill:#ffffff;fill-opacity:1;fill-rule:nonzero;stroke:none"
           id="path1612" />
        <path
           d="m 439.043,184.719 h 17.281 V 202 h -17.281 z"
           style="fill:#ffffff;fill-opacity:1;fill-rule:nonzero;stroke:none"
           id="path1618" />
      </g>
    </g>
    <text
       xml:space="preserve"
       style="font-style:normal;font-weight:normal;font-size:7.76111px;line-height:1.25;font-family:sans-serif;fill:#000000;fill-opacity:1;stroke:none;stroke-width:0.264583"
       x="-237.37968"
       y="-62.445889"
       id="text12888"
       transform="rotate(-90)"><tspan
         sodipodi:role="line"
         id="tspan12886"
         style="font-size:7.76111px;stroke-width:0.264583"
         x="-237.37968"
         y="-62.445889">P(sapling recruits)</tspan></text>
    <text
       xml:space="preserve"
       style="font-style:normal;font-weight:normal;font-size:7.76111px;line-height:1.25;font-family:sans-serif;fill:#000000;fill-opacity:1;stroke:none;stroke-width:0.264583"
       x="-31.723484"
       y="280.7887"
       id="text4998"><tspan
         sodipodi:role="line"
         id="tspan4996"
         style="font-size:7.76111px;stroke-width:0.264583"
         x="-31.723484"
         y="280.7887">MAT max anomaly (z-score)</tspan></text>
    <text
       xml:space="preserve"
       style="font-style:normal;font-weight:normal;font-size:7.76111px;line-height:1.25;font-family:sans-serif;fill:#000000;fill-opacity:1;stroke:none;stroke-width:0.264583"
       x="125.76371"
       y="280.7887"
       id="text15528"><tspan
         sodipodi:role="line"
         id="tspan15526"
         style="font-size:7.76111px;stroke-width:0.264583"
         x="125.76371"
         y="280.7887">MAT max anomaly (z-score)</tspan></text>
    <text
       xml:space="preserve"
       style="font-style:normal;font-weight:normal;font-size:7.76111px;line-height:1.25;font-family:sans-serif;fill:#000000;fill-opacity:1;stroke:none;stroke-width:0.264583"
       x="-96.592567"
       y="-62.445889"
       id="text10914"
       transform="rotate(-90)"><tspan
         sodipodi:role="line"
         id="tspan10912"
         style="font-size:7.76111px;stroke-width:0.264583"
         x="-96.592567"
         y="-62.445889">P(seedlings)</tspan></text>
    <text
       xml:space="preserve"
       style="font-style:normal;font-weight:normal;font-size:7.76111px;line-height:1.25;font-family:sans-serif;fill:#000000;fill-opacity:1;stroke:none;stroke-width:0.264583"
       x="28.186962"
       y="-62.425045"
       id="text5458"
       transform="rotate(-90)"><tspan
         sodipodi:role="line"
         id="tspan5456"
         style="font-size:7.76111px;stroke-width:0.264583"
         x="28.186962"
         y="-62.425045">P(mortality)</tspan></text>
    <text
       xml:space="preserve"
       style="font-style:normal;font-weight:normal;font-size:10.5833px;line-height:1.25;font-family:sans-serif;fill:#000000;fill-opacity:1;stroke:none;stroke-width:0.264583"
       x="-45.065281"
       y="-110.7276"
       id="text18574"><tspan
         sodipodi:role="line"
         id="tspan18572"
         style="stroke-width:0.264583"
         x="-45.065281"
         y="-110.7276">a)</tspan></text>
    <text
       xml:space="preserve"
       style="font-style:normal;font-weight:normal;font-size:10.5833px;line-height:1.25;font-family:sans-serif;fill:#000000;fill-opacity:1;stroke:none;stroke-width:0.264583"
       x="-44.646706"
       y="21.252617"
       id="text18578"><tspan
         sodipodi:role="line"
         id="tspan18576"
         style="stroke-width:0.264583"
         x="-44.646706"
         y="21.252617">c)</tspan></text>
    <text
       xml:space="preserve"
       style="font-style:normal;font-weight:normal;font-size:10.5833px;line-height:1.25;font-family:sans-serif;fill:#000000;fill-opacity:1;stroke:none;stroke-width:0.264583"
       x="-45.044613"
       y="150.04471"
       id="text18582"><tspan
         sodipodi:role="line"
         id="tspan18580"
         style="stroke-width:0.264583"
         x="-45.044613"
         y="150.04471">e)</tspan></text>
    <text
       xml:space="preserve"
       style="font-style:normal;font-weight:normal;font-size:10.5833px;line-height:1.25;font-family:sans-serif;fill:#000000;fill-opacity:1;stroke:none;stroke-width:0.264583"
       x="112.6559"
       y="-110.7276"
       id="text18586"><tspan
         sodipodi:role="line"
         id="tspan18584"
         style="stroke-width:0.264583"
         x="112.6559"
         y="-110.7276">b)</tspan></text>
    <text
       xml:space="preserve"
       style="font-style:normal;font-weight:normal;font-size:10.5833px;line-height:1.25;font-family:sans-serif;fill:#000000;fill-opacity:1;stroke:none;stroke-width:0.264583"
       x="112.85487"
       y="21.252617"
       id="text18590"><tspan
         sodipodi:role="line"
         id="tspan18588"
         style="stroke-width:0.264583"
         x="112.85487"
         y="21.252617">d)</tspan></text>
    <text
       xml:space="preserve"
       style="font-style:normal;font-weight:normal;font-size:10.5833px;line-height:1.25;font-family:sans-serif;fill:#000000;fill-opacity:1;stroke:none;stroke-width:0.264583"
       x="114.13644"
       y="150.07056"
       id="text18594"><tspan
         sodipodi:role="line"
         id="tspan18592"
         style="stroke-width:0.264583"
         x="114.13644"
         y="150.07056">f)</tspan></text>
    <text
       xml:space="preserve"
       style="font-style:normal;font-weight:normal;font-size:10.5833px;line-height:1.25;font-family:sans-serif;fill:#000000;fill-opacity:1;stroke:none;stroke-width:0.264583"
       x="-13.826394"
       y="-133.22913"
       id="text6807"><tspan
         sodipodi:role="line"
         id="tspan6805"
         style="stroke-width:0.264583"
         x="-13.826394"
         y="-133.22913">Subalpine fir</tspan></text>
    <text
       xml:space="preserve"
       style="font-style:normal;font-weight:normal;font-size:10.5833px;line-height:1.25;font-family:sans-serif;fill:#000000;fill-opacity:1;stroke:none;stroke-width:0.264583"
       x="132.26286"
       y="-133.25754"
       id="text7471"><tspan
         sodipodi:role="line"
         id="tspan7469"
         style="stroke-width:0.264583"
         x="132.26286"
         y="-133.25754">Engelmann spruce</tspan></text>
    <g
       id="g51267"
       transform="translate(26.951322,-2.5880408)">
      <text
         xml:space="preserve"
         style="font-style:normal;font-weight:normal;font-size:6.36891px;line-height:1.25;font-family:sans-serif;text-align:center;text-anchor:middle;fill:#000000;fill-opacity:1;stroke:none;stroke-width:0.159223"
         x="197.62349"
         y="-94.893669"
         id="text51231"><tspan
           sodipodi:role="line"
           id="tspan51225"
           style="text-align:center;text-anchor:middle;stroke-width:0.159223"
           x="197.62349"
           y="-94.893669">Reference </tspan><tspan
           sodipodi:role="line"
           style="text-align:center;text-anchor:middle;stroke-width:0.159223"
           x="197.62349"
           y="-86.932533"
           id="tspan51229">MAT (<tspan
   style="font-size:65%;text-align:center;baseline-shift:super;text-anchor:middle"
   id="tspan51227">o</tspan>C)</tspan></text>
      <g
         id="g51265"
         transform="translate(-0.63780604)">
        <g
           id="g51251"
           transform="translate(7.2801685,0.71394231)">
          <g
             id="g51237"
             transform="translate(14.453323,5.3115997)">
            <rect
               style="fill:#f8aaaa;fill-opacity:1;stroke-width:0.262249"
               id="rect51233"
               width="14.453328"
               height="8.0938635"
               x="164.67226"
               y="-90.383392" />
            <rect
               style="fill:#ee2c2c;fill-opacity:1;stroke-width:0.261578"
               id="rect51235"
               width="14.451323"
               height="2.5293324"
               x="164.67226"
               y="-87.601128" />
          </g>
          <g
             id="g51243"
             transform="translate(14.453323,15.561084)">
            <rect
               style="fill:#f0dba5;fill-opacity:1;stroke-width:0.262249"
               id="rect51239"
               width="14.453328"
               height="8.0938635"
               x="164.67226"
               y="-90.322586" />
            <rect
               style="fill:#daa520;fill-opacity:1;stroke-width:0.261578"
               id="rect51241"
               width="14.451323"
               height="2.5293324"
               x="164.67226"
               y="-87.540321" />
          </g>
          <g
             id="g51249"
             transform="translate(14.484875,25.810562)">
            <rect
               style="fill:#a4cef8;fill-opacity:1;stroke-width:0.262249"
               id="rect51245"
               width="14.453328"
               height="8.0938635"
               x="164.67226"
               y="-90.322586" />
            <rect
               style="fill:#1c86ee;fill-opacity:1;stroke-width:0.261578"
               id="rect51247"
               width="14.451323"
               height="2.5293324"
               x="164.67226"
               y="-87.540321" />
          </g>
        </g>
        <text
           xml:space="preserve"
           style="font-style:normal;font-weight:normal;font-size:8.46667px;line-height:1.25;font-family:sans-serif;fill:#000000;fill-opacity:1;stroke:none;stroke-width:0.264583"
           x="203.62563"
           y="-56.675369"
           id="text51255"><tspan
             sodipodi:role="line"
             id="tspan51253"
             style="font-size:8.46667px;stroke-width:0.264583"
             x="203.62563"
             y="-56.675369">0</tspan></text>
        <text
           xml:space="preserve"
           style="font-style:normal;font-weight:normal;font-size:8.46667px;line-height:1.25;font-family:sans-serif;fill:#000000;fill-opacity:1;stroke:none;stroke-width:0.264583"
           x="203.60287"
           y="-66.924843"
           id="text51259"><tspan
             sodipodi:role="line"
             id="tspan51257"
             style="font-size:8.46667px;stroke-width:0.264583"
             x="203.60287"
             y="-66.924843">3</tspan></text>
        <text
           xml:space="preserve"
           style="font-style:normal;font-weight:normal;font-size:8.46667px;line-height:1.25;font-family:sans-serif;fill:#000000;fill-opacity:1;stroke:none;stroke-width:0.264583"
           x="203.576"
           y="-77.235138"
           id="text51263"><tspan
             sodipodi:role="line"
             id="tspan51261"
             style="font-size:8.46667px;stroke-width:0.264583"
             x="203.576"
             y="-77.235138">6</tspan></text>
      </g>
    </g>
    <g
       id="g51223"
       transform="translate(-129.9375,-2.5880408)">
      <text
         xml:space="preserve"
         style="font-style:normal;font-weight:normal;font-size:6.36891px;line-height:1.25;font-family:sans-serif;text-align:center;text-anchor:middle;fill:#000000;fill-opacity:1;stroke:none;stroke-width:0.159223"
         x="197.62349"
         y="-94.893669"
         id="text33489"><tspan
           sodipodi:role="line"
           id="tspan33487"
           style="text-align:center;text-anchor:middle;stroke-width:0.159223"
           x="197.62349"
           y="-94.893669">Reference </tspan><tspan
           sodipodi:role="line"
           style="text-align:center;text-anchor:middle;stroke-width:0.159223"
           x="197.62349"
           y="-86.932533"
           id="tspan18787">MAT (<tspan
   style="font-size:65%;text-align:center;baseline-shift:super;text-anchor:middle"
   id="tspan25739">o</tspan>C)</tspan></text>
      <g
         id="g51200"
         transform="translate(-0.63780604)">
        <g
           id="g30818"
           transform="translate(7.2801685,0.71394231)">
          <g
             id="g9533"
             transform="translate(14.453323,5.3115997)">
            <rect
               style="fill:#f8aaaa;fill-opacity:1;stroke-width:0.262249"
               id="rect9529"
               width="14.453328"
               height="8.0938635"
               x="164.67226"
               y="-90.383392" />
            <rect
               style="fill:#ee2c2c;fill-opacity:1;stroke-width:0.261578"
               id="rect9531"
               width="14.451323"
               height="2.5293324"
               x="164.67226"
               y="-87.601128" />
          </g>
          <g
             id="g9539"
             transform="translate(14.453323,15.561084)">
            <rect
               style="fill:#f0dba5;fill-opacity:1;stroke-width:0.262249"
               id="rect9535"
               width="14.453328"
               height="8.0938635"
               x="164.67226"
               y="-90.322586" />
            <rect
               style="fill:#daa520;fill-opacity:1;stroke-width:0.261578"
               id="rect9537"
               width="14.451323"
               height="2.5293324"
               x="164.67226"
               y="-87.540321" />
          </g>
          <g
             id="g9545"
             transform="translate(14.484875,25.810562)">
            <rect
               style="fill:#a4cef8;fill-opacity:1;stroke-width:0.262249"
               id="rect9541"
               width="14.453328"
               height="8.0938635"
               x="164.67226"
               y="-90.322586" />
            <rect
               style="fill:#1c86ee;fill-opacity:1;stroke-width:0.261578"
               id="rect9543"
               width="14.451323"
               height="2.5293324"
               x="164.67226"
               y="-87.540321" />
          </g>
        </g>
        <text
           xml:space="preserve"
           style="font-style:normal;font-weight:normal;font-size:8.46667px;line-height:1.25;font-family:sans-serif;fill:#000000;fill-opacity:1;stroke:none;stroke-width:0.264583"
           x="203.62563"
           y="-56.675369"
           id="text44349"><tspan
             sodipodi:role="line"
             id="tspan44347"
             style="font-size:8.46667px;stroke-width:0.264583"
             x="203.62563"
             y="-56.675369">0</tspan></text>
        <text
           xml:space="preserve"
           style="font-style:normal;font-weight:normal;font-size:8.46667px;line-height:1.25;font-family:sans-serif;fill:#000000;fill-opacity:1;stroke:none;stroke-width:0.264583"
           x="203.60287"
           y="-66.924843"
           id="text44353"><tspan
             sodipodi:role="line"
             id="tspan44351"
             style="font-size:8.46667px;stroke-width:0.264583"
             x="203.60287"
             y="-66.924843">3</tspan></text>
        <text
           xml:space="preserve"
           style="font-style:normal;font-weight:normal;font-size:8.46667px;line-height:1.25;font-family:sans-serif;fill:#000000;fill-opacity:1;stroke:none;stroke-width:0.264583"
           x="203.576"
           y="-77.235138"
           id="text39006"><tspan
             sodipodi:role="line"
             id="tspan39004"
             style="font-size:8.46667px;stroke-width:0.264583"
             x="203.576"
             y="-77.235138">6</tspan></text>
      </g>
    </g>
    <text
       xml:space="preserve"
       style="font-style:normal;font-weight:normal;font-size:10.5833px;line-height:1.25;font-family:sans-serif;fill:#000000;fill-opacity:1;stroke:none;stroke-width:0.264583"
       x="206.69133"
       y="-119.90456"
       id="text47815"><tspan
         sodipodi:role="line"
         id="tspan47813"
         style="stroke-width:0.264583"
         x="206.69133"
         y="-119.90456" /></text>
  </g>
</svg>
