<?xml version="1.0" encoding="UTF-8" standalone="no"?>
<!-- Created with Inkscape (http://www.inkscape.org/) -->

<svg
   width="349.83173mm"
   height="465.01682mm"
   viewBox="0 0 349.83173 465.01681"
   version="1.1"
   id="svg5"
   inkscape:version="1.1 (c68e22c387, 2021-05-23)"
   sodipodi:docname="MAT_refXanom_partials2.svg"
   inkscape:export-filename="C:\Users\DanielPerret\Box\01. daniel.perret Workspace\PROJECTS\spruce-fir-demography\figures\MAT_refXanom_partialeffects2.png"
   inkscape:export-xdpi="200"
   inkscape:export-ydpi="200"
   xmlns:inkscape="http://www.inkscape.org/namespaces/inkscape"
   xmlns:sodipodi="http://sodipodi.sourceforge.net/DTD/sodipodi-0.dtd"
   xmlns="http://www.w3.org/2000/svg"
   xmlns:svg="http://www.w3.org/2000/svg">
  <sodipodi:namedview
     id="namedview7"
     pagecolor="#ffffff"
     bordercolor="#666666"
     borderopacity="1.0"
     inkscape:pageshadow="2"
     inkscape:pageopacity="0.0"
     inkscape:pagecheckerboard="0"
     inkscape:document-units="mm"
     showgrid="false"
     inkscape:zoom="0.52410025"
     inkscape:cx="659.22503"
     inkscape:cy="869.10854"
     inkscape:window-width="2400"
     inkscape:window-height="1271"
     inkscape:window-x="-9"
     inkscape:window-y="-9"
     inkscape:window-maximized="1"
     inkscape:current-layer="layer1" />
  <defs
     id="defs2">
    <clipPath
       clipPathUnits="userSpaceOnUse"
       id="clipPath846">
      <path
         d="M 45.398,5.48 H 422.605 V 305.835 H 45.398 Z"
         id="path844" />
    </clipPath>
    <clipPath
       clipPathUnits="userSpaceOnUse"
       id="clipPath1017">
      <path
         d="M 45.398,5.48 H 422.605 V 305.835 H 45.398 Z"
         id="path1015" />
    </clipPath>
    <clipPath
       clipPathUnits="userSpaceOnUse"
       id="clipPath1188">
      <path
         d="M 45.398,5.48 H 422.605 V 305.835 H 45.398 Z"
         id="path1186" />
    </clipPath>
    <clipPath
       clipPathUnits="userSpaceOnUse"
       id="clipPath1359">
      <path
         d="M 52.516,5.48 H 422.602 V 305.835 H 52.516 Z"
         id="path1357" />
    </clipPath>
    <clipPath
       clipPathUnits="userSpaceOnUse"
       id="clipPath1530">
      <path
         d="M 45.398,5.48 H 422.605 V 305.835 H 45.398 Z"
         id="path1528" />
    </clipPath>
    <clipPath
       clipPathUnits="userSpaceOnUse"
       id="clipPath1713">
      <path
         d="M 45.398,5.48 H 422.605 V 305.835 H 45.398 Z"
         id="path1711" />
    </clipPath>
    <clipPath
       clipPathUnits="userSpaceOnUse"
       id="clipPath1124">
      <path
         d="M 45.398,5.48 H 393.605 V 270.835 H 45.398 Z"
         id="path1122" />
    </clipPath>
    <clipPath
       clipPathUnits="userSpaceOnUse"
       id="clipPath1295">
      <path
         d="M 45.398,5.48 H 393.605 V 270.835 H 45.398 Z"
         id="path1293" />
    </clipPath>
    <clipPath
       clipPathUnits="userSpaceOnUse"
       id="clipPath1472">
      <path
         d="M 52.516,5.48 H 393.602 V 270.835 H 52.516 Z"
         id="path1470" />
    </clipPath>
    <clipPath
       clipPathUnits="userSpaceOnUse"
       id="clipPath1643">
      <path
         d="M 52.516,5.48 H 393.602 V 270.835 H 52.516 Z"
         id="path1641" />
    </clipPath>
    <clipPath
       clipPathUnits="userSpaceOnUse"
       id="clipPath1808">
      <path
         d="M 45.398,5.48 H 393.605 V 270.835 H 45.398 Z"
         id="path1806" />
    </clipPath>
    <clipPath
       clipPathUnits="userSpaceOnUse"
       id="clipPath1979">
      <path
         d="M 45.398,5.48 H 393.605 V 270.835 H 45.398 Z"
         id="path1977" />
    </clipPath>
  </defs>
  <g
     inkscape:label="Layer 1"
     inkscape:groupmode="layer"
     id="layer1"
     transform="translate(78.350113,158.10048)">
    <rect
       style="fill:#ffffff;stroke-width:0.478781"
       id="rect5022"
       width="349.83173"
       height="465.01682"
       x="-78.350113"
       y="-158.10048"
       sodipodi:insensitive="true" />
    <text
       xml:space="preserve"
       style="font-style:normal;font-weight:normal;font-size:7.76111px;line-height:1.25;font-family:sans-serif;fill:#000000;fill-opacity:1;stroke:none;stroke-width:0.264583"
       x="-237.37968"
       y="-43.925037"
       id="text12888"
       transform="rotate(-90)"><tspan
         sodipodi:role="line"
         id="tspan12886"
         style="font-size:7.76111px;stroke-width:0.264583"
         x="-237.37968"
         y="-43.925037">P(sapling recruits)</tspan></text>
    <text
       xml:space="preserve"
       style="font-style:normal;font-weight:normal;font-size:7.76111px;line-height:1.25;font-family:sans-serif;fill:#000000;fill-opacity:1;stroke:none;stroke-width:0.264583"
       x="-19.023472"
       y="268.61768"
       id="text4998"><tspan
         sodipodi:role="line"
         id="tspan4996"
         style="font-size:7.76111px;stroke-width:0.264583"
         x="-19.023472"
         y="268.61768">MAT max anomaly (z-score)</tspan></text>
    <text
       xml:space="preserve"
       style="font-style:normal;font-weight:normal;font-size:7.76111px;line-height:1.25;font-family:sans-serif;fill:#000000;fill-opacity:1;stroke:none;stroke-width:0.264583"
       x="138.46356"
       y="268.61768"
       id="text15528"><tspan
         sodipodi:role="line"
         id="tspan15526"
         style="font-size:7.76111px;stroke-width:0.264583"
         x="138.46356"
         y="268.61768">MAT max anomaly (z-score)</tspan></text>
    <text
       xml:space="preserve"
       style="font-style:normal;font-weight:normal;font-size:7.76111px;line-height:1.25;font-family:sans-serif;fill:#000000;fill-opacity:1;stroke:none;stroke-width:0.264583"
       x="-96.592567"
       y="-43.925037"
       id="text10914"
       transform="rotate(-90)"><tspan
         sodipodi:role="line"
         id="tspan10912"
         style="font-size:7.76111px;stroke-width:0.264583"
         x="-96.592567"
         y="-43.925037">P(seedlings)</tspan></text>
    <text
       xml:space="preserve"
       style="font-style:normal;font-weight:normal;font-size:7.76111px;line-height:1.25;font-family:sans-serif;fill:#000000;fill-opacity:1;stroke:none;stroke-width:0.264583"
       x="28.186962"
       y="-43.904194"
       id="text5458"
       transform="rotate(-90)"><tspan
         sodipodi:role="line"
         id="tspan5456"
         style="font-size:7.76111px;stroke-width:0.264583"
         x="28.186962"
         y="-43.904194">P(mortality)</tspan></text>
    <text
       xml:space="preserve"
       style="font-style:normal;font-weight:normal;font-size:10.5833px;line-height:1.25;font-family:sans-serif;fill:#000000;fill-opacity:1;stroke:none;stroke-width:0.264583"
       x="-26.54443"
       y="-110.7276"
       id="text18574"><tspan
         sodipodi:role="line"
         id="tspan18572"
         style="stroke-width:0.264583"
         x="-26.54443"
         y="-110.7276">a)</tspan></text>
    <text
       xml:space="preserve"
       style="font-style:normal;font-weight:normal;font-size:10.5833px;line-height:1.25;font-family:sans-serif;fill:#000000;fill-opacity:1;stroke:none;stroke-width:0.264583"
       x="-26.125854"
       y="21.252617"
       id="text18578"><tspan
         sodipodi:role="line"
         id="tspan18576"
         style="stroke-width:0.264583"
         x="-26.125854"
         y="21.252617">c)</tspan></text>
    <text
       xml:space="preserve"
       style="font-style:normal;font-weight:normal;font-size:10.5833px;line-height:1.25;font-family:sans-serif;fill:#000000;fill-opacity:1;stroke:none;stroke-width:0.264583"
       x="-26.523762"
       y="150.04471"
       id="text18582"><tspan
         sodipodi:role="line"
         id="tspan18580"
         style="stroke-width:0.264583"
         x="-26.523762"
         y="150.04471">e)</tspan></text>
    <text
       xml:space="preserve"
       style="font-style:normal;font-weight:normal;font-size:10.5833px;line-height:1.25;font-family:sans-serif;fill:#000000;fill-opacity:1;stroke:none;stroke-width:0.264583"
       x="134.35164"
       y="-110.7276"
       id="text18586"><tspan
         sodipodi:role="line"
         id="tspan18584"
         style="stroke-width:0.264583"
         x="134.35164"
         y="-110.7276">b)</tspan></text>
    <text
       xml:space="preserve"
       style="font-style:normal;font-weight:normal;font-size:10.5833px;line-height:1.25;font-family:sans-serif;fill:#000000;fill-opacity:1;stroke:none;stroke-width:0.264583"
       x="134.55057"
       y="21.252617"
       id="text18590"><tspan
         sodipodi:role="line"
         id="tspan18588"
         style="stroke-width:0.264583"
         x="134.55057"
         y="21.252617">d)</tspan></text>
    <text
       xml:space="preserve"
       style="font-style:normal;font-weight:normal;font-size:10.5833px;line-height:1.25;font-family:sans-serif;fill:#000000;fill-opacity:1;stroke:none;stroke-width:0.264583"
       x="135.83215"
       y="150.07056"
       id="text18594"><tspan
         sodipodi:role="line"
         id="tspan18592"
         style="stroke-width:0.264583"
         x="135.83215"
         y="150.07056">f)</tspan></text>
    <text
       xml:space="preserve"
       style="font-style:normal;font-weight:normal;font-size:10.5833px;line-height:1.25;font-family:sans-serif;fill:#000000;fill-opacity:1;stroke:none;stroke-width:0.264583"
       x="-0.59723192"
       y="-133.22913"
       id="text6807"><tspan
         sodipodi:role="line"
         id="tspan6805"
         style="stroke-width:0.264583"
         x="-0.59723192"
         y="-133.22913">Subalpine fir</tspan></text>
    <text
       xml:space="preserve"
       style="font-style:normal;font-weight:normal;font-size:10.5833px;line-height:1.25;font-family:sans-serif;fill:#000000;fill-opacity:1;stroke:none;stroke-width:0.264583"
       x="139.6711"
       y="-133.25754"
       id="text7471"><tspan
         sodipodi:role="line"
         id="tspan7469"
         style="stroke-width:0.264583"
         x="139.6711"
         y="-133.25754">Engelmann spruce</tspan></text>
    <text
       xml:space="preserve"
       style="font-style:normal;font-weight:normal;font-size:10.5833px;line-height:1.25;font-family:sans-serif;fill:#000000;fill-opacity:1;stroke:none;stroke-width:0.264583"
       x="206.69133"
       y="-119.90456"
       id="text47815"><tspan
         sodipodi:role="line"
         id="tspan47813"
         style="stroke-width:0.264583"
         x="206.69133"
         y="-119.90456" /></text>
    <g
       id="g1108"
       inkscape:label="abla_matXanoms_mort2"
       transform="matrix(0.35277777,0,0,0.35277777,-43.040917,-106.095)">
      <g
         id="g1110" />
      <g
         id="g1118">
        <g
           id="g1120"
           clip-path="url(#clipPath1124)">
          <path
             d="M 45.398,5.477 H 393.605 V 270.832 H 45.398 Z"
             style="fill:#ffffff;fill-opacity:1;fill-rule:nonzero;stroke:none"
             id="path1126" />
          <path
             d="m 61.227,147.414 7.914,2.699 7.91,2.492 7.914,2.567 7.914,2.312 7.914,2.465 7.914,2.508 7.914,2.531 7.914,2.395 7.914,2.547 7.914,2.504 7.914,2.476 7.914,2.496 7.914,2.641 7.915,2.617 7.91,2.77 7.914,2.964 7.914,2.981 7.914,3.027 7.914,3.032 7.914,3.304 15.828,6.961 7.914,3.527 7.914,3.497 7.914,3.445 7.914,3.457 7.911,3.512 7.914,3.297 7.914,3.242 7.914,3.039 7.914,2.945 7.914,2.879 7.914,2.734 7.914,2.621 7.914,2.391 7.914,2.289 7.914,2.238 7.914,2.114 7.914,1.976 7.91,1.867 v -43.402 l -7.91,-1.562 -7.914,-1.493 -7.914,-1.546 -7.914,-1.61 -7.914,-1.625 -7.914,-1.676 -7.914,-1.871 -7.914,-1.894 -7.914,-1.973 -7.914,-1.898 -7.914,-2.114 -7.914,-2.226 -7.914,-2.348 -7.911,-2.496 -7.914,-2.73 -7.914,-2.926 -7.914,-3.305 -7.914,-3.406 -7.914,-3.664 -7.914,-4.098 -7.914,-4.418 -7.914,-4.918 -7.914,-5.316 -7.914,-5.797 -7.914,-6.059 -7.91,-6.289 -7.915,-6.718 -7.914,-6.856 -7.914,-7.519 -7.914,-7.672 -7.914,-8.172 -7.914,-8.301 -7.914,-8.754 -7.914,-8.75 -7.914,-9.035 -7.914,-8.91 -7.914,-9.211 -7.914,-9.477 -7.91,-9.492 -7.914,-9.707 z"
             style="fill:#1c86ee;fill-opacity:0.4;fill-rule:nonzero;stroke:none"
             id="path1128" />
          <path
             d="m 61.227,173.125 7.914,0.355 7.91,0.446 7.914,0.449 7.914,0.516 7.914,0.511 7.914,0.598 7.914,0.605 7.914,0.633 7.914,0.598 7.914,0.625 7.914,0.75 7.914,0.68 7.914,0.828 7.915,0.773 7.91,0.844 7.914,0.988 7.914,1.004 7.914,1.117 7.914,1.153 7.914,1.371 7.914,1.246 7.914,1.332 7.914,1.437 7.914,1.477 7.914,1.605 7.914,1.633 7.911,1.711 7.914,1.547 7.914,1.688 7.914,1.668 7.914,1.664 7.914,1.761 7.914,1.649 7.914,1.676 7.914,1.75 7.914,1.679 7.914,1.684 15.828,3.273 7.91,1.621 v -43.511 l -7.91,-0.391 -7.914,-0.512 -7.914,-0.461 -7.914,-0.457 -7.914,-0.547 -7.914,-0.562 -7.914,-0.606 -7.914,-0.566 -7.914,-0.668 -7.914,-0.773 -7.914,-0.743 -7.914,-0.824 -7.914,-0.91 -7.911,-1.008 -7.914,-0.953 -7.914,-1.125 -7.914,-1.308 -7.914,-1.422 -7.914,-1.446 -7.914,-1.574 -7.914,-1.73 -7.914,-1.715 -7.914,-1.992 -7.914,-2.102 -7.914,-2.152 -7.91,-2.34 -7.915,-2.481 -7.914,-2.511 -7.914,-2.617 -7.914,-2.676 -7.914,-2.789 -7.914,-2.86 -7.914,-3.023 -7.914,-3.035 -7.914,-3.039 -7.914,-3.203 -7.914,-3.098 -7.914,-3.18 -7.91,-3.281 -7.914,-3.422 z"
             style="fill:#daa520;fill-opacity:0.4;fill-rule:nonzero;stroke:none"
             id="path1130" />
          <path
             d="m 61.227,225.309 7.914,-1.887 7.91,-2.016 7.914,-2.062 7.914,-2.102 7.914,-2.176 7.914,-2.086 7.914,-2.132 7.914,-2.293 7.914,-2.25 7.914,-2.305 7.914,-2.297 7.914,-2.199 7.914,-2.195 7.915,-2.176 7.91,-2.254 7.914,-2.203 7.914,-2.059 7.914,-1.976 7.914,-1.895 7.914,-1.898 7.914,-1.774 7.914,-1.355 7.914,-1.309 7.914,-0.949 7.914,-0.852 7.914,-0.543 7.911,-0.394 7.914,-0.234 7.914,-0.102 7.914,-0.219 7.914,0.133 7.914,0.027 7.914,0.34 7.914,0.551 7.914,0.395 7.914,0.449 7.914,0.496 7.914,0.527 7.914,0.621 7.91,0.719 V 75.926 l -7.91,4.566 -7.914,4.485 -7.914,4.328 -7.914,4.129 -7.914,4.156 -7.914,4.137 -7.914,3.949 -7.914,3.879 -7.914,3.593 -7.914,3.356 -7.914,3.32 -7.914,3.004 -7.914,2.895 -7.911,2.593 -7.914,2.52 -7.914,2.035 -7.914,1.75 -7.914,1.469 -7.914,1.398 -7.914,0.692 -7.914,0.535 -7.914,0.668 -7.914,0.125 -7.914,-0.031 -7.914,-0.278 -7.91,-0.336 -7.915,0.055 -7.914,-0.441 -7.914,-0.461 -7.914,-0.641 -7.914,-0.746 -7.914,-0.594 -7.914,-0.668 -7.914,-0.676 -7.914,-0.882 -7.914,-0.832 -7.914,-0.856 -7.914,-0.933 -7.91,-0.778 -7.914,-1.047 z"
             style="fill:#ee2c2c;fill-opacity:0.4;fill-rule:nonzero;stroke:none"
             id="path1132" />
          <path
             d="m 61.227,87.68 7.914,5.929 7.91,5.75 7.914,5.786 7.914,5.546 7.914,5.497 7.914,5.48 7.914,5.332 7.914,5.176 7.914,5.113 7.914,4.938 7.914,4.832 7.914,4.734 7.914,4.617 7.915,4.539 7.91,4.406 7.914,4.344 7.914,4.203 7.914,3.973 7.914,4.008 7.914,3.84 7.914,3.703 7.914,3.633 7.914,3.457 7.914,3.418 7.914,3.3 7.914,3.125 7.911,3.067 7.914,2.98 7.914,2.883 7.914,2.789 7.914,2.703 7.914,2.621 7.914,2.539 7.914,2.442 7.914,2.332 7.914,2.262 7.914,2.191 7.914,2.109 7.914,2.028 7.91,1.965"
             style="fill:none;stroke:#1c86ee;stroke-width:4.26791;stroke-linecap:butt;stroke-linejoin:round;stroke-miterlimit:10;stroke-dasharray:none;stroke-opacity:1"
             id="path1134" />
          <path
             d="m 61.227,142.207 7.914,1.695 7.91,1.715 7.914,1.696 7.914,1.664 7.914,1.671 7.914,1.668 7.914,1.653 7.914,1.597 7.914,1.606 15.828,3.203 7.914,1.594 7.914,1.621 7.915,1.562 7.91,1.582 7.914,1.528 7.914,1.472 7.914,1.5 7.914,1.438 7.914,1.496 7.914,1.434 7.914,1.418 7.914,1.441 7.914,1.387 7.914,1.406 7.914,1.398 7.911,1.332 7.914,1.371 7.914,1.375 7.914,1.325 7.914,1.32 7.914,1.309 7.914,1.281 7.914,1.258 7.914,1.289 7.914,1.238 7.914,1.223 7.914,1.183 7.914,1.203 7.91,1.211"
             style="fill:none;stroke:#daa520;stroke-width:4.26791;stroke-linecap:butt;stroke-linejoin:round;stroke-miterlimit:10;stroke-dasharray:none;stroke-opacity:1"
             id="path1136" />
          <path
             d="m 61.227,185.566 7.914,-1.086 7.91,-1.101 7.914,-1.168 7.914,-1.141 7.914,-1.164 7.914,-1.133 7.914,-1.175 7.914,-1.149 7.914,-1.117 15.828,-2.391 7.914,-1.214 7.914,-1.27 7.915,-1.23 7.91,-1.301 7.914,-1.254 7.914,-1.258 7.914,-1.309 7.914,-1.289 7.914,-1.273 15.828,-2.633 7.914,-1.242 7.914,-1.371 7.914,-1.285 7.914,-1.309 7.911,-1.308 7.914,-1.325 7.914,-1.23 7.914,-1.348 7.914,-1.394 7.914,-1.368 7.914,-1.378 7.914,-1.387 7.914,-1.406 7.914,-1.411 7.914,-1.398 7.914,-1.418 7.914,-1.43 7.91,-1.457"
             style="fill:none;stroke:#ee2c2c;stroke-width:4.26791;stroke-linecap:butt;stroke-linejoin:round;stroke-miterlimit:10;stroke-dasharray:none;stroke-opacity:1"
             id="path1138" />
          <path
             d="M 45.398,5.477 H 393.605 V 270.832 H 45.398 Z"
             style="fill:none;stroke:#333333;stroke-width:3.20093;stroke-linecap:round;stroke-linejoin:round;stroke-miterlimit:10;stroke-dasharray:none;stroke-opacity:1"
             id="path1140" />
        </g>
      </g>
      <g
         id="g1142">
        <text
           transform="translate(22.671875,231.70703)"
           style="font-variant:normal;font-weight:normal;font-size:12.8px;font-family:Arial;-inkscape-font-specification:ArialMT;writing-mode:lr-tb;fill:#4d4d4d;fill-opacity:1;fill-rule:nonzero;stroke:none"
           id="text1152"><tspan
             x="0 7.1167998 10.6624"
             y="0"
             sodipodi:role="line"
             id="tspan1144">0.1</tspan><tspan
             x="0 7.1167998 10.6624"
             y="-61.226559"
             sodipodi:role="line"
             id="tspan1146">0.2</tspan><tspan
             x="0 7.1167998 10.6624"
             y="-122.45312"
             sodipodi:role="line"
             id="tspan1148">0.3</tspan><tspan
             x="0 7.1167998 10.6624"
             y="-183.67969"
             sodipodi:role="line"
             id="tspan1150">0.4</tspan></text>
        <path
           d="m 42.656,227.129 h 2.742"
           style="fill:none;stroke:#333333;stroke-width:1.06698;stroke-linecap:butt;stroke-linejoin:round;stroke-miterlimit:10;stroke-dasharray:none;stroke-opacity:1"
           id="path1154" />
        <path
           d="m 42.656,165.898 h 2.742"
           style="fill:none;stroke:#333333;stroke-width:1.06698;stroke-linecap:butt;stroke-linejoin:round;stroke-miterlimit:10;stroke-dasharray:none;stroke-opacity:1"
           id="path1156" />
        <path
           d="m 42.656,104.672 h 2.742"
           style="fill:none;stroke:#333333;stroke-width:1.06698;stroke-linecap:butt;stroke-linejoin:round;stroke-miterlimit:10;stroke-dasharray:none;stroke-opacity:1"
           id="path1158" />
        <path
           d="m 42.656,43.445 h 2.742"
           style="fill:none;stroke:#333333;stroke-width:1.06698;stroke-linecap:butt;stroke-linejoin:round;stroke-miterlimit:10;stroke-dasharray:none;stroke-opacity:1"
           id="path1160" />
        <path
           d="m 61.227,273.574 v -2.742"
           style="fill:none;stroke:#333333;stroke-width:1.06698;stroke-linecap:butt;stroke-linejoin:round;stroke-miterlimit:10;stroke-dasharray:none;stroke-opacity:1"
           id="path1162" />
        <path
           d="m 140.363,273.574 v -2.742"
           style="fill:none;stroke:#333333;stroke-width:1.06698;stroke-linecap:butt;stroke-linejoin:round;stroke-miterlimit:10;stroke-dasharray:none;stroke-opacity:1"
           id="path1164" />
        <path
           d="m 219.5,273.574 v -2.742"
           style="fill:none;stroke:#333333;stroke-width:1.06698;stroke-linecap:butt;stroke-linejoin:round;stroke-miterlimit:10;stroke-dasharray:none;stroke-opacity:1"
           id="path1166" />
        <path
           d="m 298.637,273.574 v -2.742"
           style="fill:none;stroke:#333333;stroke-width:1.06698;stroke-linecap:butt;stroke-linejoin:round;stroke-miterlimit:10;stroke-dasharray:none;stroke-opacity:1"
           id="path1168" />
        <path
           d="m 377.773,273.574 v -2.742"
           style="fill:none;stroke:#333333;stroke-width:1.06698;stroke-linecap:butt;stroke-linejoin:round;stroke-miterlimit:10;stroke-dasharray:none;stroke-opacity:1"
           id="path1170" />
        <text
           transform="translate(52.328125,284.92578)"
           style="font-variant:normal;font-weight:normal;font-size:12.8px;font-family:Arial;-inkscape-font-specification:ArialMT;writing-mode:lr-tb;fill:#4d4d4d;fill-opacity:1;fill-rule:nonzero;stroke:none"
           id="text1174"><tspan
             x="0 7.1167998 10.6624 79.116798 86.233597 89.779198 158.2464 165.3632 168.9088 237.41016 244.52695 248.07256 316.52695 323.64374 327.18936"
             y="0"
             sodipodi:role="line"
             id="tspan1172">1.52.02.53.03.5</tspan></text>
      </g>
    </g>
    <g
       id="g1279"
       inkscape:label="pien_matXanoms_mort2"
       transform="matrix(0.35277777,0,0,0.35277777,111.17062,-106.04666)">
      <g
         id="g1281" />
      <g
         id="g1289">
        <g
           id="g1291"
           clip-path="url(#clipPath1295)">
          <path
             d="M 45.398,5.477 H 393.605 V 270.832 H 45.398 Z"
             style="fill:#ffffff;fill-opacity:1;fill-rule:nonzero;stroke:none"
             id="path1297" />
          <path
             d="m 61.227,163.352 7.914,2.753 7.91,2.68 7.914,2.719 7.914,2.703 7.914,2.625 7.914,2.512 7.914,2.672 7.914,2.472 7.914,2.59 7.914,2.613 7.914,2.653 7.914,2.492 7.914,2.543 7.915,2.598 7.91,2.558 7.914,2.481 7.914,2.797 7.914,2.8 7.914,2.762 7.914,2.785 7.914,2.68 7.914,2.765 7.914,2.688 7.914,2.695 7.914,2.582 7.914,2.606 7.911,2.484 7.914,2.496 7.914,2.403 7.914,2.351 7.914,2.195 7.914,2.059 7.914,1.918 7.914,1.875 7.914,1.715 7.914,1.598 7.914,1.531 7.914,1.445 7.914,1.309 7.91,1.218 V 227.93 l -7.91,-1.336 -7.914,-1.418 -7.914,-1.391 -7.914,-1.379 -7.914,-1.656 -7.914,-1.719 -7.914,-1.715 -7.914,-1.746 -7.914,-1.933 -7.914,-2.012 -7.914,-2.113 -7.914,-2.438 -7.914,-2.504 -7.911,-2.55 -7.914,-2.809 -7.914,-2.934 -7.914,-3.25 -7.914,-3.547 -7.914,-3.945 -7.914,-4.433 -7.914,-4.539 -7.914,-4.981 -7.914,-5.523 -7.914,-6.102 -7.914,-6.305 -7.91,-6.718 -7.915,-7.196 -7.914,-7.582 -7.914,-7.812 -7.914,-8.406 -7.914,-8.758 -7.914,-8.797 -7.914,-9.117 -7.914,-9.899 -7.914,-9.808 L 92.879,59.387 84.965,48.93 77.051,38.59 69.141,27.84 61.227,17.539 Z"
             style="fill:#1c86ee;fill-opacity:0.4;fill-rule:nonzero;stroke:none"
             id="path1299" />
          <path
             d="m 61.227,166.734 7.914,3.086 7.91,2.832 7.914,2.856 7.914,2.711 7.914,2.754 7.914,2.687 7.914,2.778 7.914,2.664 7.914,2.691 7.914,2.656 7.914,2.629 7.914,2.61 7.914,2.582 7.915,2.531 7.91,2.519 7.914,2.446 7.914,2.304 7.914,2.395 7.914,2.39 7.914,2.325 7.914,2.265 7.914,2.293 7.914,2.157 7.914,2.16 7.914,2.097 7.914,2.02 7.911,2.051 7.914,1.957 7.914,1.89 7.914,1.785 7.914,1.715 7.914,1.657 7.914,1.617 7.914,1.562 7.914,1.449 7.914,1.391 7.914,1.332 7.914,1.266 7.914,1.226 7.91,1.192 v -20.114 l -7.91,-1.293 -7.914,-1.324 -7.914,-1.422 -7.914,-1.468 -7.914,-1.59 -7.914,-1.613 -7.914,-1.684 -7.914,-1.758 -7.914,-1.851 -7.914,-1.899 -7.914,-2.051 -7.914,-2.179 -7.914,-2.172 -7.911,-2.278 -7.914,-2.468 -7.914,-2.586 -7.914,-2.785 -7.914,-2.848 -7.914,-3.098 -7.914,-3.258 -7.914,-3.347 -7.914,-3.613 -7.914,-3.778 -7.914,-4.09 -7.914,-4.254 -7.91,-4.453 -7.915,-4.691 -7.914,-4.899 -7.914,-4.98 -7.914,-5.355 -7.914,-5.473 -7.914,-5.707 -7.914,-5.914 -7.914,-6.051 -7.914,-6.375 -7.914,-6.504 -7.914,-6.652 -7.914,-6.817 -7.91,-7.082 -7.914,-7.226 z"
             style="fill:#daa520;fill-opacity:0.4;fill-rule:nonzero;stroke:none"
             id="path1301" />
          <path
             d="m 61.227,212.52 7.914,0.726 7.91,0.664 7.914,0.637 7.914,0.609 7.914,0.598 7.914,0.703 7.914,0.711 7.914,0.738 7.914,0.598 7.914,0.762 7.914,0.722 7.914,0.817 7.914,0.765 7.915,0.758 7.91,0.953 7.914,0.934 7.914,0.902 7.914,1.051 7.914,1.023 7.914,1.082 7.914,1.141 7.914,1.231 7.914,1.406 7.914,1.539 7.914,1.515 7.914,1.645 7.911,1.555 7.914,1.664 7.914,1.625 15.828,3.289 7.914,1.582 7.914,1.465 7.914,1.472 7.914,1.391 7.914,1.344 7.914,1.297 7.914,1.23 7.914,1.149 7.91,1.128 v -33.777 l -7.91,-0.57 -7.914,-0.528 -7.914,-0.671 -7.914,-0.754 -7.914,-0.715 -7.914,-0.848 -7.914,-0.844 -7.914,-0.929 -7.914,-1.133 -7.914,-1.215 -7.914,-1.18 -7.914,-1.339 -7.914,-1.567 -7.911,-1.906 -7.914,-1.918 -7.914,-2.164 -7.914,-2.305 -7.914,-2.644 -7.914,-2.95 -7.914,-3.195 -7.914,-3.605 -7.914,-3.731 -7.914,-4.148 -7.914,-4.379 -7.914,-4.715 -7.91,-4.883 -7.915,-5.176 -7.914,-5.531 -7.914,-5.98 -7.914,-6.063 -7.914,-6.461 -7.914,-6.554 -7.914,-6.926 -7.914,-6.946 -7.914,-7.089 -7.914,-7.481 -7.914,-8.094 -7.914,-7.922 -7.91,-8.316 -7.914,-8.156 z"
             style="fill:#ee2c2c;fill-opacity:0.4;fill-rule:nonzero;stroke:none"
             id="path1303" />
          <path
             d="m 61.227,98.656 7.914,6.422 7.91,6.32 7.914,6.137 7.914,6.024 7.914,5.945 7.914,5.769 7.914,5.614 7.914,5.562 7.914,5.25 7.914,5.11 7.914,4.957 7.914,4.797 7.914,4.73 7.915,4.41 7.91,4.367 7.914,4.235 7.914,4.093 7.914,3.903 7.914,3.804 7.914,3.602 7.914,3.516 7.914,3.359 7.914,3.254 7.914,3.07 7.914,2.93 7.914,2.828 7.911,2.731 7.914,2.578 7.914,2.468 7.914,2.368 7.914,2.246 7.914,2.144 7.914,2.059 7.914,1.957 7.914,1.875 7.914,1.75 7.914,1.711 7.914,1.601 7.914,1.539 7.91,1.442"
             style="fill:none;stroke:#1c86ee;stroke-width:4.26791;stroke-linecap:butt;stroke-linejoin:round;stroke-miterlimit:10;stroke-dasharray:none;stroke-opacity:1"
             id="path1305" />
          <path
             d="m 61.227,129.559 7.914,4.894 7.91,4.781 7.914,4.692 7.914,4.57 7.914,4.496 7.914,4.379 7.914,4.246 7.914,4.129 7.914,4.02 7.914,3.871 7.914,3.824 7.914,3.715 7.914,3.562 7.915,3.473 7.91,3.352 7.914,3.23 7.914,3.121 7.914,3.043 7.914,2.941 7.914,2.817 7.914,2.711 7.914,2.633 7.914,2.539 7.914,2.457 7.914,2.351 7.914,2.278 7.911,2.191 7.914,2.121 7.914,2.012 7.914,1.965 7.914,1.863 7.914,1.809 7.914,1.734 7.914,1.68 7.914,1.593 7.914,1.536 7.914,1.48 7.914,1.414 7.914,1.348 7.91,1.297"
             style="fill:none;stroke:#daa520;stroke-width:4.26791;stroke-linecap:butt;stroke-linejoin:round;stroke-miterlimit:10;stroke-dasharray:none;stroke-opacity:1"
             id="path1307" />
          <path
             d="m 61.227,157.301 7.914,3.508 7.91,3.351 7.914,3.387 7.914,3.246 7.914,3.172 7.914,3.094 7.914,3.082 7.914,2.941 7.914,2.867 7.914,2.848 7.914,2.723 7.914,2.714 7.914,2.637 7.915,2.551 7.91,2.457 7.914,2.371 7.914,2.332 7.914,2.297 7.914,2.172 7.914,2.14 7.914,2.051 7.914,1.985 7.914,1.964 7.914,1.903 7.914,1.84 7.914,1.769 7.911,1.711 7.914,1.649 7.914,1.593 7.914,1.571 7.914,1.519 7.914,1.434 7.914,1.398 7.914,1.383 7.914,1.297 7.914,1.285 7.914,1.223 7.914,1.191 7.914,1.148 7.91,1.114"
             style="fill:none;stroke:#ee2c2c;stroke-width:4.26791;stroke-linecap:butt;stroke-linejoin:round;stroke-miterlimit:10;stroke-dasharray:none;stroke-opacity:1"
             id="path1309" />
          <path
             d="M 45.398,5.477 H 393.605 V 270.832 H 45.398 Z"
             style="fill:none;stroke:#333333;stroke-width:3.20093;stroke-linecap:round;stroke-linejoin:round;stroke-miterlimit:10;stroke-dasharray:none;stroke-opacity:1"
             id="path1311" />
        </g>
      </g>
      <g
         id="g1313">
        <text
           transform="translate(22.671875,225.74609)"
           style="font-variant:normal;font-weight:normal;font-size:12.8px;font-family:Arial;-inkscape-font-specification:ArialMT;writing-mode:lr-tb;fill:#4d4d4d;fill-opacity:1;fill-rule:nonzero;stroke:none"
           id="text1325"><tspan
             x="0 7.1167998 10.6624"
             y="0"
             sodipodi:role="line"
             id="tspan1315">0.1</tspan><tspan
             x="0 7.1167998 10.6624"
             y="-52.800781"
             sodipodi:role="line"
             id="tspan1317">0.2</tspan><tspan
             x="0 7.1167998 10.6624"
             y="-105.60156"
             sodipodi:role="line"
             id="tspan1319">0.3</tspan><tspan
             x="0 7.1167998 10.6624"
             y="-158.40234"
             sodipodi:role="line"
             id="tspan1321">0.4</tspan><tspan
             x="0 7.1167998 10.6624"
             y="-211.20312"
             sodipodi:role="line"
             id="tspan1323">0.5</tspan></text>
        <path
           d="m 42.656,221.164 h 2.742"
           style="fill:none;stroke:#333333;stroke-width:1.06698;stroke-linecap:butt;stroke-linejoin:round;stroke-miterlimit:10;stroke-dasharray:none;stroke-opacity:1"
           id="path1327" />
        <path
           d="m 42.656,168.363 h 2.742"
           style="fill:none;stroke:#333333;stroke-width:1.06698;stroke-linecap:butt;stroke-linejoin:round;stroke-miterlimit:10;stroke-dasharray:none;stroke-opacity:1"
           id="path1329" />
        <path
           d="m 42.656,115.563 h 2.742"
           style="fill:none;stroke:#333333;stroke-width:1.06698;stroke-linecap:butt;stroke-linejoin:round;stroke-miterlimit:10;stroke-dasharray:none;stroke-opacity:1"
           id="path1331" />
        <path
           d="m 42.656,62.762 h 2.742"
           style="fill:none;stroke:#333333;stroke-width:1.06698;stroke-linecap:butt;stroke-linejoin:round;stroke-miterlimit:10;stroke-dasharray:none;stroke-opacity:1"
           id="path1333" />
        <path
           d="m 42.656,9.961 h 2.742"
           style="fill:none;stroke:#333333;stroke-width:1.06698;stroke-linecap:butt;stroke-linejoin:round;stroke-miterlimit:10;stroke-dasharray:none;stroke-opacity:1"
           id="path1335" />
        <path
           d="m 61.227,273.574 v -2.742"
           style="fill:none;stroke:#333333;stroke-width:1.06698;stroke-linecap:butt;stroke-linejoin:round;stroke-miterlimit:10;stroke-dasharray:none;stroke-opacity:1"
           id="path1337" />
        <path
           d="m 140.363,273.574 v -2.742"
           style="fill:none;stroke:#333333;stroke-width:1.06698;stroke-linecap:butt;stroke-linejoin:round;stroke-miterlimit:10;stroke-dasharray:none;stroke-opacity:1"
           id="path1339" />
        <path
           d="m 219.5,273.574 v -2.742"
           style="fill:none;stroke:#333333;stroke-width:1.06698;stroke-linecap:butt;stroke-linejoin:round;stroke-miterlimit:10;stroke-dasharray:none;stroke-opacity:1"
           id="path1341" />
        <path
           d="m 298.637,273.574 v -2.742"
           style="fill:none;stroke:#333333;stroke-width:1.06698;stroke-linecap:butt;stroke-linejoin:round;stroke-miterlimit:10;stroke-dasharray:none;stroke-opacity:1"
           id="path1343" />
        <path
           d="m 377.773,273.574 v -2.742"
           style="fill:none;stroke:#333333;stroke-width:1.06698;stroke-linecap:butt;stroke-linejoin:round;stroke-miterlimit:10;stroke-dasharray:none;stroke-opacity:1"
           id="path1345" />
        <text
           transform="translate(52.328125,284.92578)"
           style="font-variant:normal;font-weight:normal;font-size:12.8px;font-family:Arial;-inkscape-font-specification:ArialMT;writing-mode:lr-tb;fill:#4d4d4d;fill-opacity:1;fill-rule:nonzero;stroke:none"
           id="text1349"><tspan
             x="0 7.1167998 10.6624 79.116798 86.233597 89.779198 158.2464 165.3632 168.9088 237.41016 244.52695 248.07256 316.52695 323.64374 327.18936"
             y="0"
             sodipodi:role="line"
             id="tspan1347">1.52.02.53.03.5</tspan></text>
      </g>
    </g>
    <g
       id="g1456"
       inkscape:label="abla_matXanoms_seed2"
       transform="matrix(0.35550366,0,0,0.35277777,-44.112775,24.737113)">
      <g
         id="g1466">
        <g
           id="g1468"
           clip-path="url(#clipPath1472)">
          <path
             d="M 52.516,5.477 H 393.602 V 270.832 H 52.516 Z"
             style="fill:#ffffff;fill-opacity:1;fill-rule:nonzero;stroke:none"
             id="path1474" />
          <path
             d="m 68.02,17.539 7.753,0.16 7.75,0.172 7.754,0.188 7.75,0.211 7.754,0.23 7.75,0.238 7.754,0.266 7.75,0.285 7.754,0.301 7.75,0.344 7.754,0.375 7.75,0.379 7.754,0.433 7.75,0.426 7.754,0.441 7.75,0.446 7.754,0.453 7.75,0.422 7.754,0.382 7.75,0.34 7.754,0.285 7.75,0.243 7.753,0.125 7.75,0.082 7.754,0.011 7.75,-0.035 7.754,-0.074 7.75,-0.129 7.754,-0.16 7.75,-0.18 7.754,-0.179 7.75,-0.207 7.754,-0.247 7.75,-0.238 7.754,-0.219 7.75,-0.23 7.754,-0.258 7.75,-0.215 7.754,-0.218 7.75,-0.219 V 96.57 l -7.75,-5.507 -7.754,-5.211 -7.75,-4.821 -7.754,-4.75 -7.75,-4.336 -7.754,-4.242 -7.75,-3.832 -7.754,-3.558 -7.75,-3.098 -7.754,-2.969 -7.75,-2.699 -7.754,-2.586 -7.75,-2.082 -7.754,-1.941 -7.75,-1.704 -7.754,-1.429 -7.75,-1.25 -7.753,-0.996 -7.75,-0.789 -7.754,-0.512 -7.75,-0.34 -7.754,-0.219 -7.75,0.059 -7.754,0.113 -7.75,0.231 -7.754,0.308 -7.75,0.43 -7.754,0.461 -7.75,0.551 -7.754,0.652 -7.75,0.758 -7.754,0.695 -7.75,0.777 -7.754,0.813 -7.75,0.766 -7.754,0.917 -7.75,0.938 -7.754,0.98 -7.75,1.059 -7.753,1.043 z"
             style="fill:#1c86ee;fill-opacity:0.4;fill-rule:nonzero;stroke:none"
             id="path1476" />
          <path
             d="m 68.02,26.324 7.753,0.793 7.75,0.84 7.754,0.883 7.75,0.953 7.754,1.008 7.75,1.062 7.754,1.121 7.75,1.176 7.754,1.266 7.75,1.355 7.754,1.422 7.75,1.406 7.754,1.469 7.75,1.594 7.754,1.625 7.75,1.613 7.754,1.602 7.75,1.625 7.754,1.558 7.75,1.52 7.754,1.43 7.75,1.371 7.753,1.246 7.75,1.207 7.754,1.133 7.75,0.992 7.754,0.937 7.75,0.856 7.754,0.726 7.75,0.688 7.754,0.656 7.75,0.609 7.754,0.598 7.75,0.496 7.754,0.535 7.75,0.524 7.754,0.515 7.75,0.563 7.754,0.465 7.75,0.437 v 89.594 l -7.75,-5.168 -7.754,-5.238 -7.75,-4.981 -7.754,-4.996 -7.75,-4.91 -7.754,-4.758 -7.75,-4.801 -7.754,-4.578 -7.75,-4.539 -7.754,-4.304 -7.75,-4.165 -7.754,-3.996 -7.75,-3.644 -7.754,-3.512 -7.75,-3.238 -7.754,-2.949 -7.75,-2.774 -7.753,-2.59 -7.75,-2.328 -7.754,-1.992 -7.75,-1.82 -7.754,-1.508 -7.75,-1.391 -7.754,-1.273 -7.75,-1.141 -7.754,-1 -7.75,-0.816 -7.754,-0.75 -7.75,-0.738 -7.754,-0.672 -7.75,-0.625 -7.754,-0.59 -7.75,-0.485 -7.754,-0.484 -7.75,-0.469 -7.754,-0.441 -7.75,-0.391 -7.754,-0.429 -7.75,-0.426 -7.753,-0.367 z"
             style="fill:#daa520;fill-opacity:0.4;fill-rule:nonzero;stroke:none"
             id="path1478" />
          <path
             d="m 68.02,29.914 7.753,1.633 7.75,1.859 7.754,2.004 7.75,2.227 7.754,2.371 7.75,2.648 7.754,2.91 7.75,3.118 7.754,3.425 7.75,3.602 7.754,3.996 7.75,4.16 7.754,4.422 7.75,4.703 7.754,4.988 7.75,5.118 7.754,5.199 7.75,5.207 7.754,5.242 7.75,5.082 7.754,5.18 7.75,4.781 7.753,4.504 7.75,4.07 7.754,3.758 7.75,3.199 7.754,2.606 7.75,2.234 7.754,1.715 7.75,1.168 7.754,0.93 7.75,0.734 7.754,0.676 7.75,0.39 7.754,0.133 7.75,0.121 7.754,-0.019 7.75,-0.129 7.754,-0.168 7.75,-0.293 v 119.355 l -7.75,-3.011 -7.754,-3.321 -7.75,-3.472 -7.754,-3.867 -7.75,-4.059 -7.754,-4.184 -7.75,-4.433 -7.754,-4.496 -7.75,-4.571 -7.754,-4.734 -7.75,-4.699 -7.754,-4.707 -7.75,-4.25 -7.754,-4.121 -7.75,-3.844 -7.754,-3.5 -7.75,-3.063 -7.753,-2.5 -7.75,-2.144 -7.754,-1.668 -7.75,-1.477 -7.754,-0.972 -7.75,-0.922 -7.754,-0.649 -7.75,-0.191 -7.754,-0.387 -7.75,-0.164 -7.754,-0.25 -7.75,0.227 -7.754,0.094 -7.75,0.285 -7.754,0.211 -7.75,0.379 -7.754,0.414 -7.75,0.339 -7.754,0.528 -7.75,0.648 -7.754,0.512 -7.75,0.301 -7.753,0.55 z"
             style="fill:#ee2c2c;fill-opacity:0.4;fill-rule:nonzero;stroke:none"
             id="path1480" />
          <path
             d="m 68.02,23.379 7.753,0.23 7.75,0.239 7.754,0.246 7.75,0.246 7.754,0.246 7.75,0.273 7.754,0.278 7.75,0.277 7.754,0.305 7.75,0.312 7.754,0.313 7.75,0.324 7.754,0.34 7.75,0.336 7.754,0.351 7.75,0.364 7.754,0.379 7.75,0.394 7.754,0.406 7.75,0.395 7.754,0.437 7.75,0.442 7.753,0.449 7.75,0.461 7.754,0.465 7.75,0.488 7.754,0.52 7.75,0.519 7.754,0.512 7.75,0.566 7.754,0.555 7.75,0.566 7.754,0.578 7.75,0.594 7.754,0.625 7.75,0.649 7.754,0.679 7.75,0.668 7.754,0.672 7.75,0.727"
             style="fill:none;stroke:#1c86ee;stroke-width:4.26791;stroke-linecap:butt;stroke-linejoin:round;stroke-miterlimit:10;stroke-dasharray:none;stroke-opacity:1"
             id="path1482" />
          <path
             d="m 68.02,38.719 7.753,0.918 7.75,0.945 7.754,0.981 7.75,1.011 7.754,1.074 7.75,1.09 7.754,1.125 7.75,1.168 7.754,1.231 7.75,1.285 7.754,1.301 7.75,1.343 7.754,1.391 7.75,1.445 7.754,1.461 7.75,1.496 7.754,1.579 7.75,1.578 7.754,1.648 7.75,1.703 7.754,1.735 7.75,1.777 7.753,1.836 7.75,1.879 7.754,1.922 7.75,1.964 7.754,2.024 7.75,2.109 7.754,2.153 7.75,2.199 7.754,2.254 7.75,2.308 7.754,2.325 7.75,2.363 7.754,2.433 7.75,2.481 7.754,2.527 7.75,2.567 7.754,2.597 7.75,2.606"
             style="fill:none;stroke:#daa520;stroke-width:4.26791;stroke-linecap:butt;stroke-linejoin:round;stroke-miterlimit:10;stroke-dasharray:none;stroke-opacity:1"
             id="path1484" />
          <path
             d="m 68.02,78.359 7.753,2.649 7.75,2.738 7.754,2.824 7.75,2.918 7.754,2.907 7.75,3.05 7.754,3.078 7.75,3.215 7.754,3.282 7.75,3.265 7.754,3.36 7.75,3.386 7.754,3.438 7.75,3.441 7.754,3.649 7.75,3.668 7.754,3.66 7.75,3.648 7.754,3.649 7.75,3.707 7.754,3.613 7.75,3.676 7.753,3.758 7.75,3.707 7.754,3.703 7.75,3.722 7.754,3.664 7.75,3.621 7.754,3.5 7.75,3.559 7.754,3.508 7.75,3.43 7.754,3.449 7.75,3.41 7.754,3.301 7.75,3.297 7.754,3.214 7.75,3.11 7.754,3.101 7.75,2.965"
             style="fill:none;stroke:#ee2c2c;stroke-width:4.26791;stroke-linecap:butt;stroke-linejoin:round;stroke-miterlimit:10;stroke-dasharray:none;stroke-opacity:1"
             id="path1486" />
          <path
             d="M 52.516,5.477 H 393.602 V 270.832 H 52.516 Z"
             style="fill:none;stroke:#333333;stroke-width:3.20093;stroke-linecap:round;stroke-linejoin:round;stroke-miterlimit:10;stroke-dasharray:none;stroke-opacity:1"
             id="path1488" />
        </g>
      </g>
      <g
         id="g1490">
        <text
           transform="translate(22.671875,224.01953)"
           style="font-variant:normal;font-weight:normal;font-size:12.8px;font-family:Arial;-inkscape-font-specification:ArialMT;writing-mode:lr-tb;fill:#4d4d4d;fill-opacity:1;fill-rule:nonzero;stroke:none"
           id="text1500"><tspan
             x="0 7.1167998 10.6624 17.7792"
             y="0"
             sodipodi:role="line"
             id="tspan1492">0.25</tspan><tspan
             x="0 7.1167998 10.6624 17.7792"
             y="-67.800781"
             sodipodi:role="line"
             id="tspan1494">0.50</tspan><tspan
             x="0 7.1167998 10.6624 17.7792"
             y="-135.60547"
             sodipodi:role="line"
             id="tspan1496">0.75</tspan><tspan
             x="0 7.1167998 10.6624 17.7792"
             y="-203.41016"
             sodipodi:role="line"
             id="tspan1498">1.00</tspan></text>
        <path
           d="m 49.777,219.441 h 2.739"
           style="fill:none;stroke:#333333;stroke-width:1.06698;stroke-linecap:butt;stroke-linejoin:round;stroke-miterlimit:10;stroke-dasharray:none;stroke-opacity:1"
           id="path1502" />
        <path
           d="m 49.777,151.637 h 2.739"
           style="fill:none;stroke:#333333;stroke-width:1.06698;stroke-linecap:butt;stroke-linejoin:round;stroke-miterlimit:10;stroke-dasharray:none;stroke-opacity:1"
           id="path1504" />
        <path
           d="m 49.777,83.832 h 2.739"
           style="fill:none;stroke:#333333;stroke-width:1.06698;stroke-linecap:butt;stroke-linejoin:round;stroke-miterlimit:10;stroke-dasharray:none;stroke-opacity:1"
           id="path1506" />
        <path
           d="m 49.777,16.027 h 2.739"
           style="fill:none;stroke:#333333;stroke-width:1.06698;stroke-linecap:butt;stroke-linejoin:round;stroke-miterlimit:10;stroke-dasharray:none;stroke-opacity:1"
           id="path1508" />
        <path
           d="m 68.02,273.574 v -2.742"
           style="fill:none;stroke:#333333;stroke-width:1.06698;stroke-linecap:butt;stroke-linejoin:round;stroke-miterlimit:10;stroke-dasharray:none;stroke-opacity:1"
           id="path1510" />
        <path
           d="m 145.539,273.574 v -2.742"
           style="fill:none;stroke:#333333;stroke-width:1.06698;stroke-linecap:butt;stroke-linejoin:round;stroke-miterlimit:10;stroke-dasharray:none;stroke-opacity:1"
           id="path1512" />
        <path
           d="m 223.059,273.574 v -2.742"
           style="fill:none;stroke:#333333;stroke-width:1.06698;stroke-linecap:butt;stroke-linejoin:round;stroke-miterlimit:10;stroke-dasharray:none;stroke-opacity:1"
           id="path1514" />
        <path
           d="m 300.578,273.574 v -2.742"
           style="fill:none;stroke:#333333;stroke-width:1.06698;stroke-linecap:butt;stroke-linejoin:round;stroke-miterlimit:10;stroke-dasharray:none;stroke-opacity:1"
           id="path1516" />
        <path
           d="m 378.098,273.574 v -2.742"
           style="fill:none;stroke:#333333;stroke-width:1.06698;stroke-linecap:butt;stroke-linejoin:round;stroke-miterlimit:10;stroke-dasharray:none;stroke-opacity:1"
           id="path1518" />
        <text
           transform="translate(59.121094,284.92578)"
           style="font-variant:normal;font-weight:normal;font-size:12.8px;font-family:Arial;-inkscape-font-specification:ArialMT;writing-mode:lr-tb;fill:#4d4d4d;fill-opacity:1;fill-rule:nonzero;stroke:none"
           id="text1522"><tspan
             x="0 7.1167998 10.6624 77.503998 84.620796 88.166397 155.008 162.1248 165.67039 232.55859 239.67538 243.22099 310.06259 317.17938 320.72501"
             y="0"
             sodipodi:role="line"
             id="tspan1520">1.52.02.53.03.5</tspan></text>
      </g>
    </g>
    <g
       id="g1627"
       inkscape:label="pien_matXanoms_seed2"
       transform="matrix(0.36001091,0,0,0.35277777,108.3247,24.737112)">
      <g
         id="g1629" />
      <g
         id="g1637">
        <g
           id="g1639"
           clip-path="url(#clipPath1643)">
          <path
             d="M 52.516,5.477 H 393.602 V 270.832 H 52.516 Z"
             style="fill:#ffffff;fill-opacity:1;fill-rule:nonzero;stroke:none"
             id="path1645" />
          <path
             d="m 68.02,125.965 7.753,-1.336 7.75,-1.438 7.754,-1.273 7.75,-1.422 7.754,-1.457 7.75,-1.504 7.754,-1.519 7.75,-1.45 7.754,-1.601 7.75,-1.598 7.754,-1.648 7.75,-1.668 7.754,-1.77 7.75,-1.902 7.754,-1.965 7.75,-2.332 7.754,-2.387 7.75,-2.75 7.754,-3.019 7.75,-3.203 7.754,-3.645 7.75,-3.965 7.753,-4.246 7.75,-4.387 7.754,-4.46 7.75,-4.489 7.754,-4.379 7.75,-4.293 7.754,-4.242 7.75,-3.906 7.754,-3.844 7.75,-3.664 7.754,-3.402 7.75,-3.196 7.754,-2.972 7.75,-2.817 7.754,-2.593 7.75,-2.426 7.754,-2.199 7.75,-2.059 v 67.5 l -7.75,1.191 -7.754,1.215 -7.75,1.254 -7.754,1.281 -7.75,1.465 -7.754,1.313 -7.75,1.539 -7.754,1.387 -7.75,1.468 -7.754,1.578 -7.75,1.739 -7.754,1.844 -7.75,1.976 -7.754,2.164 -7.75,2.524 -7.754,2.562 -7.75,3.074 -7.753,3.293 -7.75,3.739 -7.754,4.488 -7.75,4.726 -7.754,5.27 -7.75,5.457 -7.754,5.852 -7.75,6.167 -7.754,6.352 -7.75,6.406 -7.754,6.407 -7.75,6.281 -7.754,6.23 -7.75,6.043 -7.754,6.133 -7.75,5.77 -7.754,5.503 -7.75,5.333 -7.754,5.113 -7.75,4.871 -7.754,4.48 -7.75,4.266 -7.753,4.035 z"
             style="fill:#1c86ee;fill-opacity:0.4;fill-rule:nonzero;stroke:none"
             id="path1647" />
          <path
             d="m 68.02,87.516 7.753,1.617 7.75,1.59 7.754,1.582 7.75,1.64 7.754,1.586 7.75,1.574 7.754,1.645 7.75,1.578 7.754,1.594 7.75,1.527 7.754,1.551 7.75,1.531 7.754,1.43 7.75,1.48 7.754,1.391 7.75,1.34 7.754,1.258 7.75,1.129 7.754,1.035 7.75,0.933 7.754,0.754 7.75,0.555 7.753,0.359 7.75,0.227 7.754,0.125 7.75,-0.121 7.754,-0.223 7.75,-0.281 7.754,-0.34 7.75,-0.512 7.754,-0.504 7.75,-0.511 7.754,-0.629 7.75,-0.528 7.754,-0.656 7.75,-0.597 7.754,-0.661 7.75,-0.644 7.754,-0.68 7.75,-0.734 v 53.418 l -7.75,-1.653 -7.754,-1.726 -7.75,-1.762 -7.754,-1.687 -7.75,-1.664 -7.754,-1.672 -7.75,-1.606 -7.754,-1.613 -7.75,-1.543 -7.754,-1.527 -7.75,-1.411 -7.754,-1.414 -7.75,-1.332 -7.754,-1.175 -7.75,-1.047 -7.754,-0.969 -7.75,-0.77 -7.753,-0.574 -7.75,-0.375 -7.754,-0.281 -7.75,-0.148 -7.754,0.062 -7.75,0.191 -7.754,0.219 -7.75,0.352 -7.754,0.375 -7.75,0.484 -7.754,0.578 -7.75,0.692 -7.754,0.625 -7.75,0.711 -7.754,0.683 -7.75,0.715 -7.754,0.613 -7.75,0.711 -7.754,0.754 -7.75,0.731 -7.754,0.754 -7.75,0.757 -7.753,0.809 z"
             style="fill:#daa520;fill-opacity:0.4;fill-rule:nonzero;stroke:none"
             id="path1649" />
          <path
             d="m 68.02,19.234 7.753,2.598 7.75,2.891 7.754,3.144 7.75,3.363 7.754,3.7 7.75,3.937 7.754,4.356 7.75,4.672 7.754,5.031 7.75,5.262 7.754,5.597 7.75,5.778 7.754,6.199 7.75,6.437 7.754,6.727 7.75,6.804 7.754,6.981 7.75,6.965 7.754,6.824 7.75,6.664 7.754,6.563 7.75,6.211 7.753,5.73 7.75,5.297 7.754,5.09 7.75,4.613 7.754,4.277 7.75,3.868 7.754,3.46 7.75,3.278 7.754,2.965 7.75,3.054 7.754,2.707 7.75,2.664 7.754,2.661 7.75,2.386 7.754,2.407 7.75,2.25 7.754,2.218 7.75,2.11 v 61.8 l -7.75,-2.66 -7.754,-2.902 -7.75,-3.168 -7.754,-3.461 -7.75,-3.691 -7.754,-3.934 -7.75,-4.195 -7.754,-4.551 -7.75,-4.652 -7.754,-4.868 -7.75,-5.101 -7.754,-5.09 -7.75,-5.219 -7.754,-5.09 -7.75,-5.054 -7.754,-4.946 -7.75,-4.628 -7.753,-4.239 -7.75,-4.148 -7.754,-3.793 -7.75,-3.586 -7.754,-3.379 -7.75,-3.32 -7.754,-3.024 -7.75,-2.972 -7.754,-2.786 -7.75,-2.859 -7.754,-2.746 -7.75,-2.68 -7.754,-2.722 -7.75,-2.621 -7.754,-2.559 -7.75,-2.547 -7.754,-2.543 -7.75,-2.512 -7.754,-2.41 -7.75,-2.445 -7.754,-2.379 -7.75,-2.355 -7.753,-2.403 z"
             style="fill:#ee2c2c;fill-opacity:0.4;fill-rule:nonzero;stroke:none"
             id="path1651" />
          <path
             d="m 68.02,188.484 7.753,-3.812 7.75,-3.859 7.754,-3.918 7.75,-3.954 7.754,-4.007 7.75,-4.098 7.754,-4.117 7.75,-4.196 7.754,-4.175 7.75,-4.192 7.754,-4.277 7.75,-4.227 7.754,-4.25 7.75,-4.195 7.754,-4.223 7.75,-4.191 7.754,-4.152 7.75,-4.102 7.754,-4.086 7.75,-4.058 7.754,-3.957 7.75,-3.934 7.753,-3.836 7.75,-3.797 7.754,-3.683 7.75,-3.602 7.754,-3.516 7.75,-3.488 7.754,-3.379 7.75,-3.308 7.754,-3.192 7.75,-3.094 7.754,-3.007 7.75,-2.899 7.754,-2.797 7.75,-2.668 7.754,-2.617 7.75,-2.512 7.754,-2.425 7.75,-2.332"
             style="fill:none;stroke:#1c86ee;stroke-width:4.26791;stroke-linecap:butt;stroke-linejoin:round;stroke-miterlimit:10;stroke-dasharray:none;stroke-opacity:1"
             id="path1653" />
          <path
             d="m 68.02,117 7.753,0.5 7.75,0.52 7.754,0.531 7.75,0.512 7.754,0.539 7.75,0.496 7.754,0.531 7.75,0.523 7.754,0.516 7.75,0.523 7.754,0.512 7.75,0.527 7.754,0.528 7.75,0.488 7.754,0.5 7.75,0.516 7.754,0.504 7.75,0.515 7.754,0.504 7.75,0.516 7.754,0.508 7.75,0.531 7.753,0.527 7.75,0.512 7.754,0.531 7.75,0.524 7.754,0.5 7.75,0.523 7.754,0.539 7.75,0.516 7.754,0.527 7.75,0.524 7.754,0.535 7.75,0.523 7.754,0.504 7.75,0.504 7.754,0.516 7.75,0.527 7.754,0.508 7.75,0.527"
             style="fill:none;stroke:#daa520;stroke-width:4.26791;stroke-linecap:butt;stroke-linejoin:round;stroke-miterlimit:10;stroke-dasharray:none;stroke-opacity:1"
             id="path1655" />
          <path
             d="m 68.02,55.637 7.753,3.508 7.75,3.668 7.754,3.828 7.75,3.98 7.754,4.082 7.75,4.289 7.754,4.356 7.75,4.617 7.754,4.609 7.75,4.801 7.754,4.871 7.75,4.965 7.754,4.988 7.75,5.129 7.754,5.11 7.75,5.242 7.754,5.289 7.75,5.246 7.754,5.265 7.75,5.243 7.754,5.273 7.75,5.199 7.753,5.176 7.75,5.113 7.754,4.993 7.75,4.933 7.754,4.871 7.75,4.672 7.754,4.574 7.75,4.477 7.754,4.312 7.75,4.192 7.754,4.055 7.75,3.968 7.754,3.778 7.75,3.625 7.754,3.461 7.75,3.316 7.754,3.203 7.75,3.07"
             style="fill:none;stroke:#ee2c2c;stroke-width:4.26791;stroke-linecap:butt;stroke-linejoin:round;stroke-miterlimit:10;stroke-dasharray:none;stroke-opacity:1"
             id="path1657" />
          <path
             d="M 52.516,5.477 H 393.602 V 270.832 H 52.516 Z"
             style="fill:none;stroke:#333333;stroke-width:3.20093;stroke-linecap:round;stroke-linejoin:round;stroke-miterlimit:10;stroke-dasharray:none;stroke-opacity:1"
             id="path1659" />
        </g>
      </g>
      <g
         id="g1661">
        <text
           transform="translate(22.671875,216.53906)"
           style="font-variant:normal;font-weight:normal;font-size:12.8px;font-family:Arial;-inkscape-font-specification:ArialMT;writing-mode:lr-tb;fill:#4d4d4d;fill-opacity:1;fill-rule:nonzero;stroke:none"
           id="text1669"><tspan
             x="0 7.1167998 10.6624 17.7792"
             y="0"
             sodipodi:role="line"
             id="tspan1663">0.25</tspan><tspan
             x="0 7.1167998 10.6624 17.7792"
             y="-72.132812"
             sodipodi:role="line"
             id="tspan1665">0.50</tspan><tspan
             x="0 7.1167998 10.6624 17.7792"
             y="-144.26562"
             sodipodi:role="line"
             id="tspan1667">0.75</tspan></text>
        <path
           d="m 49.777,211.957 h 2.739"
           style="fill:none;stroke:#333333;stroke-width:1.06698;stroke-linecap:butt;stroke-linejoin:round;stroke-miterlimit:10;stroke-dasharray:none;stroke-opacity:1"
           id="path1671" />
        <path
           d="m 49.777,139.824 h 2.739"
           style="fill:none;stroke:#333333;stroke-width:1.06698;stroke-linecap:butt;stroke-linejoin:round;stroke-miterlimit:10;stroke-dasharray:none;stroke-opacity:1"
           id="path1673" />
        <path
           d="m 49.777,67.691 h 2.739"
           style="fill:none;stroke:#333333;stroke-width:1.06698;stroke-linecap:butt;stroke-linejoin:round;stroke-miterlimit:10;stroke-dasharray:none;stroke-opacity:1"
           id="path1675" />
        <path
           d="m 68.02,273.574 v -2.742"
           style="fill:none;stroke:#333333;stroke-width:1.06698;stroke-linecap:butt;stroke-linejoin:round;stroke-miterlimit:10;stroke-dasharray:none;stroke-opacity:1"
           id="path1677" />
        <path
           d="m 145.539,273.574 v -2.742"
           style="fill:none;stroke:#333333;stroke-width:1.06698;stroke-linecap:butt;stroke-linejoin:round;stroke-miterlimit:10;stroke-dasharray:none;stroke-opacity:1"
           id="path1679" />
        <path
           d="m 223.059,273.574 v -2.742"
           style="fill:none;stroke:#333333;stroke-width:1.06698;stroke-linecap:butt;stroke-linejoin:round;stroke-miterlimit:10;stroke-dasharray:none;stroke-opacity:1"
           id="path1681" />
        <path
           d="m 300.578,273.574 v -2.742"
           style="fill:none;stroke:#333333;stroke-width:1.06698;stroke-linecap:butt;stroke-linejoin:round;stroke-miterlimit:10;stroke-dasharray:none;stroke-opacity:1"
           id="path1683" />
        <path
           d="m 378.098,273.574 v -2.742"
           style="fill:none;stroke:#333333;stroke-width:1.06698;stroke-linecap:butt;stroke-linejoin:round;stroke-miterlimit:10;stroke-dasharray:none;stroke-opacity:1"
           id="path1685" />
        <text
           transform="translate(59.121094,284.92578)"
           style="font-variant:normal;font-weight:normal;font-size:12.8px;font-family:Arial;-inkscape-font-specification:ArialMT;writing-mode:lr-tb;fill:#4d4d4d;fill-opacity:1;fill-rule:nonzero;stroke:none"
           id="text1689"><tspan
             x="0 7.1167998 10.6624 77.503998 84.620796 88.166397 155.008 162.1248 165.67039 232.55859 239.67538 243.22099 310.06259 317.17938 320.72501"
             y="0"
             sodipodi:role="line"
             id="tspan1687">1.52.02.53.03.5</tspan></text>
      </g>
    </g>
    <g
       id="g1792"
       inkscape:label="abla_matXanoms_saps2"
       transform="matrix(0.35277777,0,0,0.35277777,-43.040917,155.56924)">
      <g
         id="g1794" />
      <g
         id="g1802">
        <g
           id="g1804"
           clip-path="url(#clipPath1808)">
          <path
             d="M 45.398,5.477 H 393.605 V 270.832 H 45.398 Z"
             style="fill:#ffffff;fill-opacity:1;fill-rule:nonzero;stroke:none"
             id="path1810" />
          <path
             d="m 61.227,17.539 7.914,4.664 7.91,4.891 7.914,5.125 7.914,5.308 7.914,5.43 7.914,5.746 7.914,6.035 7.914,6.059 7.914,6.062 7.914,6.411 7.914,6.238 7.914,6.351 7.914,6.262 7.915,6.285 7.91,6.207 7.914,5.696 7.914,5.316 7.914,4.902 7.914,4.317 7.914,3.859 7.914,3.285 7.914,2.547 7.914,2.113 7.914,1.536 7.914,1.304 7.914,1.067 7.911,0.824 7.914,0.723 7.914,0.656 7.914,0.32 7.914,0.379 7.914,0.285 7.914,0.094 7.914,0.195 7.914,0.133 7.914,0.027 7.914,0.114 7.914,0.054 7.914,0.09 7.91,0.11 v 108 l -7.91,-2.442 -7.914,-2.703 -7.914,-2.867 -7.914,-3.063 -7.914,-3.277 -7.914,-3.449 -7.914,-3.582 -7.914,-3.793 -7.914,-4.024 -7.914,-4.254 -7.914,-4.289 -7.914,-4.425 -7.914,-4.621 -7.911,-4.707 -7.914,-4.696 -7.914,-4.621 -7.914,-4.504 -7.914,-4.148 -7.914,-3.785 -7.914,-3.411 -7.914,-2.886 -7.914,-2.414 -7.914,-1.957 -7.914,-1.629 -7.914,-1.301 -7.91,-1.004 -7.915,-0.691 -7.914,-0.7 -7.914,-0.519 -7.914,-0.402 -7.914,-0.344 -7.914,-0.352 -7.914,-0.019 -7.914,-0.2 -7.914,-0.203 -7.914,-0.066 h -7.914 l -7.914,-0.004 -7.91,-0.109 -7.914,-0.028 z"
             style="fill:#1c86ee;fill-opacity:0.4;fill-rule:nonzero;stroke:none"
             id="path1812" />
          <path
             d="m 61.227,115.039 7.914,3.391 7.91,3.535 7.914,3.469 7.914,3.472 7.914,3.367 7.914,3.286 7.914,3.254 7.914,3.273 7.914,3.312 7.914,3.204 7.914,3.207 7.914,3.074 7.914,3.07 7.915,2.883 7.91,2.816 7.914,2.743 7.914,2.585 7.914,2.426 7.914,2.324 7.914,2.149 7.914,1.887 7.914,1.75 7.914,1.507 7.914,1.383 7.914,1.18 7.914,0.977 7.911,0.882 7.914,0.739 7.914,0.726 7.914,0.606 7.914,0.523 7.914,0.484 7.914,0.457 7.914,0.438 7.914,0.359 7.914,0.317 7.914,0.285 7.914,0.262 7.914,0.297 7.91,0.265 v 42.887 l -7.91,-1.711 -7.914,-1.766 -7.914,-1.785 -7.914,-1.844 -15.828,-3.836 -7.914,-1.949 -7.914,-1.929 -7.914,-1.942 -7.914,-1.973 -7.914,-2 -7.914,-1.921 -7.914,-1.95 -7.911,-1.851 -7.914,-1.778 -7.914,-1.726 -7.914,-1.473 -7.914,-1.468 -7.914,-1.313 -7.914,-1.109 -7.914,-0.934 -7.914,-0.871 -7.914,-0.773 -7.914,-0.723 -7.914,-0.551 -7.91,-0.59 -7.915,-0.496 -7.914,-0.371 -7.914,-0.402 -7.914,-0.325 -7.914,-0.32 -7.914,-0.355 -7.914,-0.313 -15.828,-0.57 -7.914,-0.281 -7.914,-0.239 -7.914,-0.195 -7.91,-0.18 -7.914,-0.211 z"
             style="fill:#daa520;fill-opacity:0.4;fill-rule:nonzero;stroke:none"
             id="path1814" />
          <path
             d="m 61.227,129.348 7.914,4.175 7.91,3.891 7.914,3.977 15.828,7.734 7.914,3.688 7.914,3.699 7.914,3.636 7.914,3.434 7.914,3.375 7.914,3.199 7.914,3.164 7.914,3.141 7.915,3.074 7.91,2.832 7.914,2.664 7.914,2.43 7.914,2.184 7.914,1.847 7.914,1.633 7.914,1.254 7.914,0.871 7.914,0.313 7.914,-0.04 7.914,-0.402 7.914,-0.844 7.911,-1.3 7.914,-1.512 7.914,-1.735 7.914,-2.156 7.914,-2.246 7.914,-2.41 7.914,-2.738 7.914,-2.797 7.914,-3.031 7.914,-3.106 7.914,-2.953 7.914,-3.34 7.914,-3.379 7.91,-3.281 v 95.133 l -7.91,-1.274 -7.914,-1.332 -7.914,-1.371 -7.914,-1.359 -7.914,-1.43 -7.914,-1.406 -7.914,-1.379 -7.914,-1.34 -7.914,-1.398 -7.914,-1.379 -7.914,-1.305 -7.914,-1.242 -7.914,-1.141 -7.911,-0.91 -7.914,-0.859 -7.914,-0.539 -7.914,-0.18 -7.914,0.121 -7.914,0.34 -7.914,0.621 -7.914,0.867 -7.914,1.032 -7.914,1.191 -7.914,1.16 -7.914,1.332 -7.91,1.375 -7.915,1.34 -7.914,1.348 -7.914,1.351 -7.914,1.313 -7.914,1.414 -7.914,1.238 -7.914,1.277 -7.914,1.227 -7.914,1.191 -7.914,1.215 -7.914,1.067 -7.914,1.031 -7.91,1.078 -7.914,1.062 z"
             style="fill:#ee2c2c;fill-opacity:0.4;fill-rule:nonzero;stroke:none"
             id="path1816" />
          <path
             d="m 61.227,80.77 7.914,3.472 7.91,3.496 7.914,3.555 7.914,3.539 7.914,3.633 7.914,3.574 7.914,3.594 7.914,3.547 7.914,3.644 7.914,3.664 7.914,3.66 7.914,3.704 7.914,3.656 7.915,3.64 7.91,3.657 7.914,3.613 7.914,3.566 7.914,3.571 7.914,3.554 7.914,3.547 7.914,3.481 15.828,6.914 7.914,3.371 7.914,3.32 7.914,3.274 7.911,3.242 7.914,3.101 7.914,3.063 7.914,3.086 7.914,3 7.914,2.972 7.914,2.954 7.914,2.847 7.914,2.793 7.914,2.731 7.914,2.633 7.914,2.566 7.914,2.551 7.91,2.453"
             style="fill:none;stroke:#1c86ee;stroke-width:4.26791;stroke-linecap:butt;stroke-linejoin:round;stroke-miterlimit:10;stroke-dasharray:none;stroke-opacity:1"
             id="path1818" />
          <path
             d="m 61.227,153.848 7.914,1.773 7.91,1.777 7.914,1.774 7.914,1.742 7.914,1.754 7.914,1.723 7.914,1.746 7.914,1.687 7.914,1.699 7.914,1.684 15.828,3.328 7.914,1.684 7.915,1.629 7.91,1.617 15.828,3.219 7.914,1.566 7.914,1.543 7.914,1.539 7.914,1.551 7.914,1.512 15.828,3.007 7.914,1.481 7.914,1.453 7.911,1.453 7.914,1.434 7.914,1.406 7.914,1.379 7.914,1.363 7.914,1.348 7.914,1.379 7.914,1.324 7.914,1.32 7.914,1.297 7.914,1.285 7.914,1.274 7.914,1.254 7.91,1.226"
             style="fill:none;stroke:#daa520;stroke-width:4.26791;stroke-linecap:butt;stroke-linejoin:round;stroke-miterlimit:10;stroke-dasharray:none;stroke-opacity:1"
             id="path1820" />
          <path
             d="m 61.227,214.504 7.914,0.086 7.91,0.051 7.914,0.058 7.914,0.086 7.914,0.082 7.914,0.067 7.914,0.054 7.914,0.063 7.914,0.066 7.914,0.024 7.914,0.047 7.914,0.07 7.914,0.058 7.915,0.106 7.91,0.016 7.914,0.089 7.914,0.086 7.914,0.102 7.914,0.051 7.914,0.074 7.914,0.055 7.914,0.011 7.914,0.032 7.914,0.019 7.914,0.035 7.914,0.078 7.911,0.032 7.914,0.039 7.914,0.031 7.914,-0.004 7.914,0.027 7.914,0.094 7.914,0.109 7.914,0.075 7.914,0.011 7.914,0.047 7.914,0.051 7.914,0.027 7.914,0.11 7.91,0.043"
             style="fill:none;stroke:#ee2c2c;stroke-width:4.26791;stroke-linecap:butt;stroke-linejoin:round;stroke-miterlimit:10;stroke-dasharray:none;stroke-opacity:1"
             id="path1822" />
          <path
             d="M 45.398,5.477 H 393.605 V 270.832 H 45.398 Z"
             style="fill:none;stroke:#333333;stroke-width:3.20093;stroke-linecap:round;stroke-linejoin:round;stroke-miterlimit:10;stroke-dasharray:none;stroke-opacity:1"
             id="path1824" />
        </g>
      </g>
      <g
         id="g1826">
        <text
           transform="translate(22.671875,221.23828)"
           style="font-variant:normal;font-weight:normal;font-size:12.8px;font-family:Arial;-inkscape-font-specification:ArialMT;writing-mode:lr-tb;fill:#4d4d4d;fill-opacity:1;fill-rule:nonzero;stroke:none"
           id="text1836"><tspan
             x="0 7.1167998 10.6624"
             y="0"
             sodipodi:role="line"
             id="tspan1828">0.2</tspan><tspan
             x="0 7.1167998 10.6624"
             y="-65.683594"
             sodipodi:role="line"
             id="tspan1830">0.4</tspan><tspan
             x="0 7.1167998 10.6624"
             y="-131.36719"
             sodipodi:role="line"
             id="tspan1832">0.6</tspan><tspan
             x="0 7.1167998 10.6624"
             y="-197.0508"
             sodipodi:role="line"
             id="tspan1834">0.8</tspan></text>
        <path
           d="m 42.656,216.656 h 2.742"
           style="fill:none;stroke:#333333;stroke-width:1.06698;stroke-linecap:butt;stroke-linejoin:round;stroke-miterlimit:10;stroke-dasharray:none;stroke-opacity:1"
           id="path1838" />
        <path
           d="m 42.656,150.973 h 2.742"
           style="fill:none;stroke:#333333;stroke-width:1.06698;stroke-linecap:butt;stroke-linejoin:round;stroke-miterlimit:10;stroke-dasharray:none;stroke-opacity:1"
           id="path1840" />
        <path
           d="m 42.656,85.289 h 2.742"
           style="fill:none;stroke:#333333;stroke-width:1.06698;stroke-linecap:butt;stroke-linejoin:round;stroke-miterlimit:10;stroke-dasharray:none;stroke-opacity:1"
           id="path1842" />
        <path
           d="m 42.656,19.605 h 2.742"
           style="fill:none;stroke:#333333;stroke-width:1.06698;stroke-linecap:butt;stroke-linejoin:round;stroke-miterlimit:10;stroke-dasharray:none;stroke-opacity:1"
           id="path1844" />
        <path
           d="m 61.227,273.574 v -2.742"
           style="fill:none;stroke:#333333;stroke-width:1.06698;stroke-linecap:butt;stroke-linejoin:round;stroke-miterlimit:10;stroke-dasharray:none;stroke-opacity:1"
           id="path1846" />
        <path
           d="m 140.363,273.574 v -2.742"
           style="fill:none;stroke:#333333;stroke-width:1.06698;stroke-linecap:butt;stroke-linejoin:round;stroke-miterlimit:10;stroke-dasharray:none;stroke-opacity:1"
           id="path1848" />
        <path
           d="m 219.5,273.574 v -2.742"
           style="fill:none;stroke:#333333;stroke-width:1.06698;stroke-linecap:butt;stroke-linejoin:round;stroke-miterlimit:10;stroke-dasharray:none;stroke-opacity:1"
           id="path1850" />
        <path
           d="m 298.637,273.574 v -2.742"
           style="fill:none;stroke:#333333;stroke-width:1.06698;stroke-linecap:butt;stroke-linejoin:round;stroke-miterlimit:10;stroke-dasharray:none;stroke-opacity:1"
           id="path1852" />
        <path
           d="m 377.773,273.574 v -2.742"
           style="fill:none;stroke:#333333;stroke-width:1.06698;stroke-linecap:butt;stroke-linejoin:round;stroke-miterlimit:10;stroke-dasharray:none;stroke-opacity:1"
           id="path1854" />
        <text
           transform="translate(52.328125,284.92578)"
           style="font-variant:normal;font-weight:normal;font-size:12.8px;font-family:Arial;-inkscape-font-specification:ArialMT;writing-mode:lr-tb;fill:#4d4d4d;fill-opacity:1;fill-rule:nonzero;stroke:none"
           id="text1858"><tspan
             x="0 7.1167998 10.6624 79.116798 86.233597 89.779198 158.2464 165.3632 168.9088 237.41016 244.52695 248.07256 316.52695 323.64374 327.18936"
             y="0"
             sodipodi:role="line"
             id="tspan1856">1.52.02.53.03.5</tspan></text>
      </g>
    </g>
    <g
       id="g1963"
       inkscape:label="pien_matXanoms_saps2"
       transform="matrix(0.35277777,0,0,0.35277777,111.17062,157.04109)">
      <g
         id="g1965" />
      <g
         id="g1973">
        <g
           id="g1975"
           clip-path="url(#clipPath1979)">
          <path
             d="M 45.398,5.477 H 393.605 V 270.832 H 45.398 Z"
             style="fill:#ffffff;fill-opacity:1;fill-rule:nonzero;stroke:none"
             id="path1981" />
          <path
             d="m 61.227,17.539 7.914,9.133 7.91,9.141 7.914,9.71 7.914,9.219 7.914,9.016 7.914,8.957 7.914,8.797 7.914,8.672 7.914,8.296 7.914,8.04 7.914,7.578 7.914,7.097 7.914,6.711 7.915,6.336 7.91,5.727 7.914,5.121 7.914,4.172 7.914,3.472 7.914,2.735 7.914,2.109 7.914,1.485 7.914,0.773 7.914,0.227 7.914,-0.215 7.914,-0.715 7.914,-0.82 7.911,-1.395 7.914,-1.371 7.914,-1.734 7.914,-1.926 7.914,-1.801 7.914,-2.031 7.914,-2.012 7.914,-2.348 7.914,-2.398 7.914,-2.457 7.914,-2.5 7.914,-2.438 7.914,-2.636 7.91,-2.559 V 249.91 l -7.91,-1.113 -7.914,-1.27 -7.914,-1.359 -7.914,-1.488 -7.914,-1.559 -7.914,-1.695 -7.914,-1.778 -7.914,-1.984 -7.914,-2.082 -7.914,-2.176 -7.914,-2.242 -7.914,-2.473 -7.914,-2.613 -7.911,-2.598 -7.914,-2.746 -7.914,-2.777 -7.914,-2.602 -7.914,-2.554 -7.914,-2.375 -7.914,-2.012 -7.914,-1.582 -7.914,-1.125 -7.914,-0.699 -7.914,-0.254 -7.914,0.164 -7.91,0.371 -7.915,0.645 -7.914,0.734 -7.914,0.863 -7.914,0.926 -7.914,1.074 -7.914,1.102 -7.914,1.129 -7.914,1.109 -7.914,1.25 -7.914,1.172 -7.914,1.285 -7.914,1.11 -7.91,1.238 -7.914,1.051 z"
             style="fill:#1c86ee;fill-opacity:0.4;fill-rule:nonzero;stroke:none"
             id="path1983" />
          <path
             d="m 61.227,132.641 7.914,5.086 7.91,4.98 7.914,4.746 7.914,4.543 7.914,4.477 7.914,4.281 7.914,4.25 7.914,4.082 7.914,3.894 7.914,3.735 7.914,3.594 7.914,3.375 7.914,3.171 7.915,3.075 7.91,2.89 7.914,2.711 7.914,2.446 7.914,2.289 7.914,2.097 7.914,1.934 7.914,1.672 7.914,1.511 7.914,1.325 7.914,1.074 7.914,1.035 7.914,0.801 7.911,0.723 7.914,0.64 7.914,0.551 7.914,0.508 7.914,0.429 7.914,0.399 7.914,0.328 7.914,0.25 7.914,0.227 7.914,0.171 7.914,0.192 7.914,0.14 7.914,0.196 7.91,0.172 v 30.492 l -7.91,-0.895 -7.914,-0.906 -7.914,-0.953 -7.914,-0.992 -7.914,-1.039 -15.828,-2.188 -7.914,-1.176 -7.914,-1.211 -7.914,-1.234 -7.914,-1.269 -7.914,-1.282 -7.914,-1.304 -7.911,-1.305 -7.914,-1.277 -7.914,-1.262 -7.914,-1.168 -7.914,-1.102 -7.914,-0.988 -7.914,-0.918 -7.914,-0.805 -7.914,-0.66 -7.914,-0.676 -7.914,-0.546 -7.914,-0.461 -7.91,-0.43 -7.915,-0.371 -7.914,-0.383 -7.914,-0.297 -7.914,-0.215 -7.914,-0.254 -7.914,-0.156 -7.914,-0.172 -7.914,-0.215 -7.914,-0.117 -7.914,-0.172 -7.914,-0.082 -7.914,-0.179 -7.91,-0.098 -7.914,-0.109 z"
             style="fill:#daa520;fill-opacity:0.4;fill-rule:nonzero;stroke:none"
             id="path1985" />
          <path
             d="m 61.227,84.406 7.914,10.203 7.91,10.18 7.914,9.625 7.914,9.352 7.914,8.843 7.914,8.602 7.914,8.41 7.914,7.75 7.914,7.039 7.914,6.883 7.914,6.461 7.914,5.941 7.914,5.52 7.915,4.941 7.91,4.508 7.914,4.25 7.914,3.77 7.914,3.433 7.914,2.852 7.914,2.574 7.914,2.148 7.914,1.723 7.914,1.348 7.914,0.972 7.914,0.594 7.914,0.371 7.911,0.239 7.914,-0.235 7.914,-0.187 7.914,-0.52 7.914,-0.601 7.914,-0.731 7.914,-0.871 7.914,-1.035 7.914,-1.149 7.914,-1.16 7.914,-1.277 7.914,-1.375 7.914,-1.434 7.91,-1.453 v 47.863 l -7.91,-0.41 -7.914,-0.457 -7.914,-0.496 -7.914,-0.535 -7.914,-0.57 -7.914,-0.621 -7.914,-0.672 -7.914,-0.707 -7.914,-0.731 -7.914,-0.797 -7.914,-0.839 -7.914,-0.86 -7.914,-0.848 -7.911,-0.855 -7.914,-0.805 -7.914,-0.718 -7.914,-0.618 -7.914,-0.406 -7.914,-0.332 -7.914,-0.176 -7.914,-0.043 -7.914,0.067 -7.914,0.199 -7.914,0.246 -7.914,0.309 -7.91,0.343 -7.915,0.36 -7.914,0.375 -7.914,0.429 -7.914,0.403 -7.914,0.445 -7.914,0.418 -7.914,0.422 -7.914,0.41 -7.914,0.387 -7.914,0.39 -7.914,0.387 -7.914,0.379 -7.91,0.375 -7.914,0.348 z"
             style="fill:#ee2c2c;fill-opacity:0.4;fill-rule:nonzero;stroke:none"
             id="path1987" />
          <path
             d="m 61.227,140.68 7.914,2.547 7.91,2.507 7.914,2.426 7.914,2.41 7.914,2.403 7.914,2.351 7.914,2.34 7.914,2.324 7.914,2.321 7.914,2.222 7.914,2.231 7.914,2.179 7.914,2.176 7.915,2.145 7.91,2.109 7.914,2.07 7.914,2.028 7.914,1.976 7.914,1.961 7.914,1.844 7.914,1.852 7.914,1.75 7.914,1.722 7.914,1.688 7.914,1.695 7.914,1.648 7.911,1.649 7.914,1.586 7.914,1.578 7.914,1.531 7.914,1.489 7.914,1.472 7.914,1.438 7.914,1.406 7.914,1.402 7.914,1.36 7.914,1.339 7.914,1.286 7.914,1.277 7.91,1.242"
             style="fill:none;stroke:#1c86ee;stroke-width:4.26791;stroke-linecap:butt;stroke-linejoin:round;stroke-miterlimit:10;stroke-dasharray:none;stroke-opacity:1"
             id="path1989" />
          <path
             d="m 61.227,182.57 7.914,1.981 7.91,1.859 7.914,1.871 7.914,1.848 7.914,1.809 7.914,1.761 7.914,1.754 7.914,1.695 7.914,1.641 7.914,1.629 7.914,1.574 7.914,1.571 7.914,1.527 7.915,1.484 7.91,1.461 7.914,1.41 7.914,1.395 7.914,1.344 7.914,1.332 7.914,1.297 7.914,1.261 7.914,1.246 7.914,1.184 7.914,1.172 7.914,1.14 7.914,1.125 7.911,1.086 7.914,1.067 7.914,1.043 7.914,1.008 7.914,0.988 7.914,0.969 7.914,0.933 7.914,0.922 7.914,0.906 7.914,0.856 7.914,0.867 7.914,0.84 7.914,0.801 7.91,0.785"
             style="fill:none;stroke:#daa520;stroke-width:4.26791;stroke-linecap:butt;stroke-linejoin:round;stroke-miterlimit:10;stroke-dasharray:none;stroke-opacity:1"
             id="path1991" />
          <path
             d="m 61.227,212.645 7.914,1.308 7.91,1.274 7.914,1.371 7.914,1.164 7.914,1.179 7.914,1.192 7.914,1.094 15.828,2.242 7.914,1.062 7.914,1.047 7.914,1.012 15.829,2.015 7.91,0.954 7.914,0.941 7.914,0.938 7.914,0.867 7.914,0.89 7.914,0.84 7.914,0.824 7.914,0.762 7.914,0.742 7.914,0.719 7.914,0.684 7.914,0.652 7.911,0.68 7.914,0.675 15.828,1.274 7.914,0.605 7.914,0.582 7.914,0.555 7.914,0.582 7.914,0.559 7.914,0.539 7.914,0.511 7.914,0.524 7.914,0.473 7.91,0.496"
             style="fill:none;stroke:#ee2c2c;stroke-width:4.26791;stroke-linecap:butt;stroke-linejoin:round;stroke-miterlimit:10;stroke-dasharray:none;stroke-opacity:1"
             id="path1993" />
          <path
             d="M 45.398,5.477 H 393.605 V 270.832 H 45.398 Z"
             style="fill:none;stroke:#333333;stroke-width:3.20093;stroke-linecap:round;stroke-linejoin:round;stroke-miterlimit:10;stroke-dasharray:none;stroke-opacity:1"
             id="path1995" />
        </g>
      </g>
      <g
         id="g1997">
        <text
           transform="translate(22.671875,267.51172)"
           style="font-variant:normal;font-weight:normal;font-size:12.8px;font-family:Arial;-inkscape-font-specification:ArialMT;writing-mode:lr-tb;fill:#4d4d4d;fill-opacity:1;fill-rule:nonzero;stroke:none"
           id="text2007"><tspan
             x="0 7.1167998 10.6624"
             y="0"
             sodipodi:role="line"
             id="tspan1999">0.0</tspan><tspan
             x="0 7.1167998 10.6624"
             y="-85.667969"
             sodipodi:role="line"
             id="tspan2001">0.2</tspan><tspan
             x="0 7.1167998 10.6624"
             y="-171.33594"
             sodipodi:role="line"
             id="tspan2003">0.4</tspan><tspan
             x="0 7.1167998 10.6624"
             y="-257.00391"
             sodipodi:role="line"
             id="tspan2005">0.6</tspan></text>
        <path
           d="m 42.656,262.93 h 2.742"
           style="fill:none;stroke:#333333;stroke-width:1.06698;stroke-linecap:butt;stroke-linejoin:round;stroke-miterlimit:10;stroke-dasharray:none;stroke-opacity:1"
           id="path2009" />
        <path
           d="m 42.656,177.262 h 2.742"
           style="fill:none;stroke:#333333;stroke-width:1.06698;stroke-linecap:butt;stroke-linejoin:round;stroke-miterlimit:10;stroke-dasharray:none;stroke-opacity:1"
           id="path2011" />
        <path
           d="m 42.656,91.594 h 2.742"
           style="fill:none;stroke:#333333;stroke-width:1.06698;stroke-linecap:butt;stroke-linejoin:round;stroke-miterlimit:10;stroke-dasharray:none;stroke-opacity:1"
           id="path2013" />
        <path
           d="m 42.656,5.926 h 2.742"
           style="fill:none;stroke:#333333;stroke-width:1.06698;stroke-linecap:butt;stroke-linejoin:round;stroke-miterlimit:10;stroke-dasharray:none;stroke-opacity:1"
           id="path2015" />
        <path
           d="m 61.227,273.574 v -2.742"
           style="fill:none;stroke:#333333;stroke-width:1.06698;stroke-linecap:butt;stroke-linejoin:round;stroke-miterlimit:10;stroke-dasharray:none;stroke-opacity:1"
           id="path2017" />
        <path
           d="m 140.363,273.574 v -2.742"
           style="fill:none;stroke:#333333;stroke-width:1.06698;stroke-linecap:butt;stroke-linejoin:round;stroke-miterlimit:10;stroke-dasharray:none;stroke-opacity:1"
           id="path2019" />
        <path
           d="m 219.5,273.574 v -2.742"
           style="fill:none;stroke:#333333;stroke-width:1.06698;stroke-linecap:butt;stroke-linejoin:round;stroke-miterlimit:10;stroke-dasharray:none;stroke-opacity:1"
           id="path2021" />
        <path
           d="m 298.637,273.574 v -2.742"
           style="fill:none;stroke:#333333;stroke-width:1.06698;stroke-linecap:butt;stroke-linejoin:round;stroke-miterlimit:10;stroke-dasharray:none;stroke-opacity:1"
           id="path2023" />
        <path
           d="m 377.773,273.574 v -2.742"
           style="fill:none;stroke:#333333;stroke-width:1.06698;stroke-linecap:butt;stroke-linejoin:round;stroke-miterlimit:10;stroke-dasharray:none;stroke-opacity:1"
           id="path2025" />
        <text
           transform="translate(52.328125,284.92578)"
           style="font-variant:normal;font-weight:normal;font-size:12.8px;font-family:Arial;-inkscape-font-specification:ArialMT;writing-mode:lr-tb;fill:#4d4d4d;fill-opacity:1;fill-rule:nonzero;stroke:none"
           id="text2029"><tspan
             x="0 7.1167998 10.6624 79.116798 86.233597 89.779198 158.2464 165.3632 168.9088 237.41016 244.52695 248.07256 316.52695 323.64374 327.18936"
             y="0"
             sodipodi:role="line"
             id="tspan2027">1.52.02.53.03.5</tspan></text>
      </g>
    </g>
    <g
       id="g51267"
       transform="matrix(0.87427248,0,0,0.87427248,59.454203,-12.98925)">
      <text
         xml:space="preserve"
         style="font-style:normal;font-weight:normal;font-size:6.36891px;line-height:1.25;font-family:sans-serif;text-align:center;text-anchor:middle;fill:#000000;fill-opacity:1;stroke:none;stroke-width:0.159223"
         x="197.62349"
         y="-94.893669"
         id="text51231"><tspan
           sodipodi:role="line"
           id="tspan51225"
           style="text-align:center;text-anchor:middle;stroke-width:0.159223"
           x="197.62349"
           y="-94.893669">Reference </tspan><tspan
           sodipodi:role="line"
           style="text-align:center;text-anchor:middle;stroke-width:0.159223"
           x="197.62349"
           y="-86.932533"
           id="tspan51229">MAT (<tspan
   style="font-size:65%;text-align:center;baseline-shift:super;text-anchor:middle"
   id="tspan51227">o</tspan>C)</tspan></text>
      <g
         id="g51265"
         transform="translate(-0.63780604)">
        <g
           id="g51251"
           transform="translate(7.2801685,0.71394231)">
          <g
             id="g51237"
             transform="translate(14.453323,5.3115997)">
            <rect
               style="fill:#f8aaaa;fill-opacity:1;stroke-width:0.262249"
               id="rect51233"
               width="14.453328"
               height="8.0938635"
               x="164.67226"
               y="-90.383392" />
            <rect
               style="fill:#ee2c2c;fill-opacity:1;stroke-width:0.261578"
               id="rect51235"
               width="14.451323"
               height="2.5293324"
               x="164.67226"
               y="-87.601128" />
          </g>
          <g
             id="g51243"
             transform="translate(14.453323,15.561084)">
            <rect
               style="fill:#f0dba5;fill-opacity:1;stroke-width:0.262249"
               id="rect51239"
               width="14.453328"
               height="8.0938635"
               x="164.67226"
               y="-90.322586" />
            <rect
               style="fill:#daa520;fill-opacity:1;stroke-width:0.261578"
               id="rect51241"
               width="14.451323"
               height="2.5293324"
               x="164.67226"
               y="-87.540321" />
          </g>
          <g
             id="g51249"
             transform="translate(14.484875,25.810562)">
            <rect
               style="fill:#a4cef8;fill-opacity:1;stroke-width:0.262249"
               id="rect51245"
               width="14.453328"
               height="8.0938635"
               x="164.67226"
               y="-90.322586" />
            <rect
               style="fill:#1c86ee;fill-opacity:1;stroke-width:0.261578"
               id="rect51247"
               width="14.451323"
               height="2.5293324"
               x="164.67226"
               y="-87.540321" />
          </g>
        </g>
        <text
           xml:space="preserve"
           style="font-style:normal;font-weight:normal;font-size:8.46667px;line-height:1.25;font-family:sans-serif;fill:#000000;fill-opacity:1;stroke:none;stroke-width:0.264583"
           x="203.62563"
           y="-56.675369"
           id="text51255"><tspan
             sodipodi:role="line"
             id="tspan51253"
             style="font-size:8.46667px;stroke-width:0.264583"
             x="203.62563"
             y="-56.675369">0</tspan></text>
        <text
           xml:space="preserve"
           style="font-style:normal;font-weight:normal;font-size:8.46667px;line-height:1.25;font-family:sans-serif;fill:#000000;fill-opacity:1;stroke:none;stroke-width:0.264583"
           x="203.60287"
           y="-66.924843"
           id="text51259"><tspan
             sodipodi:role="line"
             id="tspan51257"
             style="font-size:8.46667px;stroke-width:0.264583"
             x="203.60287"
             y="-66.924843">3</tspan></text>
        <text
           xml:space="preserve"
           style="font-style:normal;font-weight:normal;font-size:8.46667px;line-height:1.25;font-family:sans-serif;fill:#000000;fill-opacity:1;stroke:none;stroke-width:0.264583"
           x="203.576"
           y="-77.235138"
           id="text51263"><tspan
             sodipodi:role="line"
             id="tspan51261"
             style="font-size:8.46667px;stroke-width:0.264583"
             x="203.576"
             y="-77.235138">6</tspan></text>
      </g>
    </g>
    <g
       id="g51223"
       transform="matrix(0.87427248,0,0,0.87427248,-96.362568,247.36823)">
      <text
         xml:space="preserve"
         style="font-style:normal;font-weight:normal;font-size:6.36891px;line-height:1.25;font-family:sans-serif;text-align:center;text-anchor:middle;fill:#000000;fill-opacity:1;stroke:none;stroke-width:0.159223"
         x="197.62349"
         y="-94.893669"
         id="text33489"><tspan
           sodipodi:role="line"
           id="tspan33487"
           style="text-align:center;text-anchor:middle;stroke-width:0.159223"
           x="197.62349"
           y="-94.893669">Reference </tspan><tspan
           sodipodi:role="line"
           style="text-align:center;text-anchor:middle;stroke-width:0.159223"
           x="197.62349"
           y="-86.932533"
           id="tspan18787">MAT (<tspan
   style="font-size:65%;text-align:center;baseline-shift:super;text-anchor:middle"
   id="tspan25739">o</tspan>C)</tspan></text>
      <g
         id="g51200"
         transform="translate(-0.63780604)">
        <g
           id="g30818"
           transform="translate(7.2801685,0.71394231)">
          <g
             id="g9533"
             transform="translate(14.453323,5.3115997)">
            <rect
               style="fill:#f8aaaa;fill-opacity:1;stroke-width:0.262249"
               id="rect9529"
               width="14.453328"
               height="8.0938635"
               x="164.67226"
               y="-90.383392" />
            <rect
               style="fill:#ee2c2c;fill-opacity:1;stroke-width:0.261578"
               id="rect9531"
               width="14.451323"
               height="2.5293324"
               x="164.67226"
               y="-87.601128" />
          </g>
          <g
             id="g9539"
             transform="translate(14.453323,15.561084)">
            <rect
               style="fill:#f0dba5;fill-opacity:1;stroke-width:0.262249"
               id="rect9535"
               width="14.453328"
               height="8.0938635"
               x="164.67226"
               y="-90.322586" />
            <rect
               style="fill:#daa520;fill-opacity:1;stroke-width:0.261578"
               id="rect9537"
               width="14.451323"
               height="2.5293324"
               x="164.67226"
               y="-87.540321" />
          </g>
          <g
             id="g9545"
             transform="translate(14.484875,25.810562)">
            <rect
               style="fill:#a4cef8;fill-opacity:1;stroke-width:0.262249"
               id="rect9541"
               width="14.453328"
               height="8.0938635"
               x="164.67226"
               y="-90.322586" />
            <rect
               style="fill:#1c86ee;fill-opacity:1;stroke-width:0.261578"
               id="rect9543"
               width="14.451323"
               height="2.5293324"
               x="164.67226"
               y="-87.540321" />
          </g>
        </g>
        <text
           xml:space="preserve"
           style="font-style:normal;font-weight:normal;font-size:8.46667px;line-height:1.25;font-family:sans-serif;fill:#000000;fill-opacity:1;stroke:none;stroke-width:0.264583"
           x="203.62563"
           y="-56.675369"
           id="text44349"><tspan
             sodipodi:role="line"
             id="tspan44347"
             style="font-size:8.46667px;stroke-width:0.264583"
             x="203.62563"
             y="-56.675369">0</tspan></text>
        <text
           xml:space="preserve"
           style="font-style:normal;font-weight:normal;font-size:8.46667px;line-height:1.25;font-family:sans-serif;fill:#000000;fill-opacity:1;stroke:none;stroke-width:0.264583"
           x="203.60287"
           y="-66.924843"
           id="text44353"><tspan
             sodipodi:role="line"
             id="tspan44351"
             style="font-size:8.46667px;stroke-width:0.264583"
             x="203.60287"
             y="-66.924843">3</tspan></text>
        <text
           xml:space="preserve"
           style="font-style:normal;font-weight:normal;font-size:8.46667px;line-height:1.25;font-family:sans-serif;fill:#000000;fill-opacity:1;stroke:none;stroke-width:0.264583"
           x="203.576"
           y="-77.235138"
           id="text39006"><tspan
             sodipodi:role="line"
             id="tspan39004"
             style="font-size:8.46667px;stroke-width:0.264583"
             x="203.576"
             y="-77.235138">6</tspan></text>
      </g>
    </g>
  </g>
</svg>
